<svg width="24" height="24" viewBox="0 0 24 24" fill="none" xmlns="http://www.w3.org/2000/svg">
<path d="M19 3H5C3.9 3 3 3.9 3 5V19C3 20.1 3.9 21 5 21H19C20.1 21 21 20.1 21 19V5C21 3.9 20.1 3 19 3ZM19 19H5V5H19V19ZM7 10H9V17H7V10ZM11 7H13V17H11V7ZM15 13H17V17H15V13Z" fill="url(#paint0_linear_2252_39349)"/>
<defs>
<linearGradient id="paint0_linear_2252_39349" x1="3" y1="3" x2="36.5673" y2="16.1795" gradientUnits="userSpaceOnUse">
<stop offset="0.123989" stop-color="#6BCFCF"/>
<stop offset="1" stop-color="#41A9EF"/>
</linearGradient>
</defs>
</svg>
