<svg width="24" height="24" viewBox="0 0 24 24" fill="none" xmlns="http://www.w3.org/2000/svg">
<path d="M11.5 2L6 11H17L11.5 2ZM11.5 5.84L13.43 9H9.56L11.5 5.84ZM17 13C14.51 13 12.5 15.01 12.5 17.5C12.5 19.99 14.51 22 17 22C19.49 22 21.5 19.99 21.5 17.5C21.5 15.01 19.49 13 17 13ZM17 20C15.62 20 14.5 18.88 14.5 17.5C14.5 16.12 15.62 15 17 15C18.38 15 19.5 16.12 19.5 17.5C19.5 18.88 18.38 20 17 20ZM2.5 21.5H10.5V13.5H2.5V21.5ZM4.5 15.5H8.5V19.5H4.5V15.5Z" fill="url(#paint0_linear_2252_39455)"/>
<defs>
<linearGradient id="paint0_linear_2252_39455" x1="2.5" y1="2" x2="38.3996" y2="15.3905" gradientUnits="userSpaceOnUse">
<stop offset="0.123989" stop-color="#6BCFCF"/>
<stop offset="1" stop-color="#41A9EF"/>
</linearGradient>
</defs>
</svg>
