<svg width="24" height="24" viewBox="0 0 24 24" fill="none" xmlns="http://www.w3.org/2000/svg">
<path d="M2 6H0V11H0.01L0 20C0 21.1 0.9 22 2 22H20V20H2V6ZM7 15H21L17.5 10.5L15 13.51L11.5 9L7 15ZM22 4H14L12 2H6C4.9 2 4.01 2.9 4.01 4L4 16C4 17.1 4.9 18 6 18H22C23.1 18 24 17.1 24 16V6C24 4.9 23.1 4 22 4ZM22 16H6V4H11.17L13.17 6H22V16Z" fill="url(#paint0_linear_2252_39447)"/>
<defs>
<linearGradient id="paint0_linear_2252_39447" x1="0" y1="2" x2="42.272" y2="21.9167" gradientUnits="userSpaceOnUse">
<stop offset="0.123989" stop-color="#6BCFCF"/>
<stop offset="1" stop-color="#41A9EF"/>
</linearGradient>
</defs>
</svg>
