<svg width="24" height="24" viewBox="0 0 24 24" fill="none" xmlns="http://www.w3.org/2000/svg">
<path d="M21 9H14.69L15.64 4.43L15.67 4.11C15.67 3.7 15.5 3.32 15.23 3.05L14.17 2L7.59 8.59C7.22 8.95 7 9.45 7 10V20C7 21.1 7.9 22 9 22H18C18.83 22 19.54 21.5 19.84 20.78L22.86 13.73C22.95 13.5 23 13.26 23 13V11C23 9.9 22.1 9 21 9ZM21 13L18 20H9V10L13.34 5.66L12.23 11H21V13ZM1 10H5V22H1V10Z" fill="url(#paint0_linear_2252_39375)"/>
<defs>
<linearGradient id="paint0_linear_2252_39375" x1="1" y1="2" x2="40.9073" y2="19.2357" gradientUnits="userSpaceOnUse">
<stop offset="0.123989" stop-color="#6BCFCF"/>
<stop offset="1" stop-color="#41A9EF"/>
</linearGradient>
</defs>
</svg>
