<svg width="24" height="24" viewBox="0 0 24 24" fill="none" xmlns="http://www.w3.org/2000/svg">
<path d="M11.0219 2.00004H9.02193C8.75671 2.00004 8.50236 2.1054 8.31482 2.29293C8.12728 2.48047 8.02193 2.73483 8.02193 3.00004C8.02193 3.26526 8.12728 3.51961 8.31482 3.70715C8.50236 3.89468 8.75671 4.00004 9.02193 4.00004V6.00004H7.83764C7.9562 5.67981 8.01854 5.3415 8.02193 5.00004C8.02196 4.33961 7.80407 3.69762 7.40203 3.17365C7 2.64969 6.4363 2.27303 5.79837 2.1021C5.16044 1.93117 4.48394 1.97552 3.87378 2.22828C3.26363 2.48104 2.75394 2.92807 2.42376 3.50004C2.35802 3.6138 2.31533 3.73939 2.29815 3.86965C2.28096 3.99991 2.2896 4.13227 2.32359 4.25919C2.35757 4.3861 2.41623 4.50508 2.49621 4.60931C2.57619 4.71355 2.67592 4.80101 2.78971 4.86669C2.9035 4.93238 3.02912 4.975 3.15938 4.99212C3.28965 5.00924 3.42201 5.00052 3.54891 4.96647C3.6758 4.93243 3.79475 4.87371 3.89895 4.79367C4.00314 4.71364 4.09055 4.61386 4.15618 4.50004C4.24405 4.34818 4.37028 4.22206 4.52221 4.13431C4.67415 4.04656 4.84647 4.00026 5.02193 4.00004C5.28714 4.00004 5.5415 4.1054 5.72903 4.29293C5.91657 4.48047 6.02193 4.73482 6.02193 5.00004C6.02193 5.26526 5.91657 5.51961 5.72903 5.70715C5.5415 5.89468 5.28714 6.00004 5.02193 6.00004C4.75671 6.00004 4.50236 6.1054 4.31482 6.29293C4.12728 6.48047 4.02193 6.73483 4.02193 7.00004C4.02193 7.26526 4.12728 7.51961 4.31482 7.70715C4.50236 7.89468 4.75671 8.00004 5.02193 8.00004C5.28714 8.00004 5.5415 8.1054 5.72903 8.29293C5.91657 8.48047 6.02193 8.73483 6.02193 9.00004C6.02193 9.26526 5.91657 9.51961 5.72903 9.70715C5.5415 9.89468 5.28714 10 5.02193 10C4.84648 9.99982 4.67416 9.95351 4.52223 9.86576C4.3703 9.77801 4.24408 9.6519 4.15621 9.50004C4.09058 9.38622 4.00317 9.28644 3.89898 9.20641C3.79478 9.12638 3.67583 9.06766 3.54894 9.03361C3.42204 8.99956 3.28968 8.99085 3.15941 9.00797C3.02915 9.02509 2.90353 9.06771 2.78974 9.13339C2.67595 9.19907 2.57622 9.28653 2.49624 9.39077C2.41626 9.49501 2.3576 9.61398 2.32362 9.7409C2.28963 9.86781 2.28099 10.0002 2.29818 10.1304C2.31536 10.2607 2.35805 10.3863 2.42379 10.5C2.75397 11.072 3.26367 11.519 3.87381 11.7718C4.48396 12.0245 5.16046 12.0689 5.79838 11.8979C6.4363 11.727 6.99999 11.3504 7.40202 10.8264C7.80405 10.3024 8.02195 9.66046 8.02193 9.00004C8.01855 8.65858 7.95622 8.32028 7.83767 8.00004H9.02193V11C9.02193 11.2653 9.12728 11.5196 9.31482 11.7071C9.50236 11.8947 9.75671 12 10.0219 12C10.2871 12 10.5415 11.8947 10.729 11.7071C10.9166 11.5196 11.0219 11.2653 11.0219 11V4.00004C11.2871 4.00004 11.5415 3.89468 11.729 3.70715C11.9166 3.51961 12.0219 3.26526 12.0219 3.00004C12.0219 2.73483 11.9166 2.48047 11.729 2.29293C11.5415 2.1054 11.2871 2.00004 11.0219 2.00004ZM14.0219 7.00004H15.0219C15.287 7.00039 15.5412 7.10585 15.7287 7.29331C15.9161 7.48078 16.0216 7.73493 16.0219 8.00004V9.00004C16.0219 9.26526 16.1273 9.51961 16.3148 9.70715C16.5024 9.89468 16.7567 10 17.0219 10C17.2871 10 17.5415 9.89468 17.729 9.70715C17.9166 9.51961 18.0219 9.26526 18.0219 9.00004V8.00004C18.0211 7.20466 17.7047 6.4421 17.1423 5.87968C16.5799 5.31726 15.8173 5.00091 15.0219 5.00004H14.0219C13.7567 5.00004 13.5024 5.1054 13.3148 5.29293C13.1273 5.48047 13.0219 5.73482 13.0219 6.00004C13.0219 6.26526 13.1273 6.51961 13.3148 6.70715C13.5024 6.89468 13.7567 7.00004 14.0219 7.00004ZM10.0219 16H9.02193C8.75682 15.9997 8.50266 15.8942 8.3152 15.7068C8.12774 15.5193 8.02227 15.2652 8.02193 15V14C8.02193 13.7348 7.91657 13.4805 7.72903 13.2929C7.5415 13.1054 7.28714 13 7.02193 13C6.75671 13 6.50236 13.1054 6.31482 13.2929C6.12728 13.4805 6.02193 13.7348 6.02193 14V15C6.02279 15.7954 6.33914 16.558 6.90157 17.1204C7.46399 17.6828 8.22654 17.9992 9.02193 18H10.0219C10.2871 18 10.5415 17.8947 10.729 17.7071C10.9166 17.5196 11.0219 17.2653 11.0219 17C11.0219 16.7348 10.9166 16.4805 10.729 16.2929C10.5415 16.1054 10.2871 16 10.0219 16ZM21.0219 15C21.2871 15 21.5415 14.8947 21.729 14.7071C21.9166 14.5196 22.0219 14.2653 22.0219 14C22.0219 13.7348 21.9166 13.4805 21.729 13.2929C21.5415 13.1054 21.2871 13 21.0219 13H18.0219V12.5C18.0219 12.2348 17.9166 11.9805 17.729 11.7929C17.5415 11.6054 17.2871 11.5 17.0219 11.5C16.7567 11.5 16.5262 11.5816 16.3148 11.7929C16.1035 12.0043 16.0219 12.2348 16.0219 12.5V13H13.0219C12.7567 13 12.5024 13.1054 12.3148 13.2929C12.1273 13.4805 12.0219 13.7348 12.0219 14C12.0219 14.2653 12.1273 14.5196 12.3148 14.7071C12.5024 14.8947 12.7567 15 13.0219 15H18.2062C17.98 15.9191 17.5624 16.7801 16.9807 17.5267C16.7426 17.2182 16.5321 16.8893 16.3515 16.544C16.2916 16.4272 16.2093 16.3233 16.1093 16.2383C16.0092 16.1532 15.8934 16.0888 15.7685 16.0485C15.6435 16.0082 15.5118 15.993 15.381 16.0036C15.2501 16.0142 15.1227 16.0505 15.0058 16.1104C14.889 16.1703 14.7851 16.2526 14.7001 16.3526C14.6151 16.4527 14.5506 16.5685 14.5103 16.6934C14.429 16.9458 14.4513 17.2201 14.5722 17.4561C14.8415 17.9766 15.1629 18.4684 15.5313 18.9241C14.8058 19.4509 13.9808 19.8248 13.1064 20.023C12.8477 20.0801 12.6223 20.2374 12.4795 20.4605C12.3367 20.6836 12.2882 20.9542 12.3448 21.213C12.4013 21.4718 12.5581 21.6976 12.7809 21.8408C13.0037 21.9841 13.2742 22.0331 13.5331 21.9771C14.7878 21.6997 15.9648 21.1456 16.9781 20.3555C18 21.1461 19.1847 21.6998 20.4467 21.9767C20.5749 22.0049 20.7075 22.0077 20.8368 21.9847C20.9661 21.9618 21.0896 21.9136 21.2003 21.8429C21.311 21.7722 21.4066 21.6804 21.4818 21.5727C21.557 21.4651 21.6103 21.3437 21.6386 21.2154C21.6669 21.0872 21.6696 20.9546 21.6467 20.8253C21.6237 20.696 21.5755 20.5725 21.5048 20.4618C21.4341 20.3511 21.3423 20.2555 21.2347 20.1803C21.127 20.1051 21.0056 20.0518 20.8774 20.0235C19.9972 19.8278 19.1653 19.4571 18.4313 18.9334C19.3559 17.7952 19.9792 16.4425 20.2436 15H21.0219Z" fill="url(#paint0_linear_2467_38002)"/>
<defs>
<linearGradient id="paint0_linear_2467_38002" x1="2.28955" y1="1.99988" x2="39.2187" y2="16.3052" gradientUnits="userSpaceOnUse">
<stop offset="0.123989" stop-color="#6BCFCF"/>
<stop offset="1" stop-color="#41A9EF"/>
</linearGradient>
</defs>
</svg>
