<svg width="100" height="100" viewBox="0 0 100 100" fill="none" xmlns="http://www.w3.org/2000/svg">
<g clip-path="url(#clip0_2334_37868)">
<path d="M77.5 27.5835C71.5 27.5835 65.8333 29.9168 61.7917 33.9585L32.5 59.9585C29.8333 62.6252 26.2917 64.0835 22.5 64.0835C14.7083 64.0835 8.375 57.7918 8.375 50.0002C8.375 42.2085 14.7083 35.9168 22.5 35.9168C26.2917 35.9168 29.8333 37.3752 32.6667 40.2085L37.375 44.3752L43.6667 38.7918L38.4167 34.1668C34.1667 29.9168 28.5 27.5835 22.5 27.5835C10.0833 27.5835 0 37.6668 0 50.0002C0 62.3335 10.0833 72.4168 22.5 72.4168C28.5 72.4168 34.1667 70.0835 38.2083 66.0418L67.5 40.0418C70.1667 37.3752 73.7083 35.9168 77.5 35.9168C85.2917 35.9168 91.625 42.2085 91.625 50.0002C91.625 57.7918 85.2917 64.0835 77.5 64.0835C73.75 64.0835 70.1667 62.6252 67.3333 59.7918L62.5833 55.5835L56.2917 61.1668L61.5833 65.8335C65.8333 70.0418 71.4583 72.3752 77.5 72.3752C89.9167 72.3752 100 62.3335 100 49.9585C100 37.5835 89.9167 27.5835 77.5 27.5835Z" fill="url(#paint0_linear_2334_37868)"/>
</g>
<defs>
<linearGradient id="paint0_linear_2334_37868" x1="0" y1="27.5835" x2="121.811" y2="134.26" gradientUnits="userSpaceOnUse">
<stop offset="0.123989" stop-color="#6BCFCF"/>
<stop offset="1" stop-color="#41A9EF"/>
</linearGradient>
<clipPath id="clip0_2334_37868">
<rect width="100" height="100" fill="white"/>
</clipPath>
</defs>
</svg>
