<svg width="24" height="25" viewBox="0 0 24 25" fill="none" xmlns="http://www.w3.org/2000/svg">
<path d="M18.6 6.90674C17.16 6.90674 15.8 7.46674 14.83 8.43674L7.8 14.6767C7.16 15.3167 6.31 15.6667 5.4 15.6667C3.53 15.6667 2.01 14.1567 2.01 12.2867C2.01 10.4167 3.53 8.90674 5.4 8.90674C6.31 8.90674 7.16 9.25674 7.84 9.93674L8.97 10.9367L10.48 9.59674L9.22 8.48674C8.2 7.46674 6.84 6.90674 5.4 6.90674C2.42 6.90674 0 9.32674 0 12.2867C0 15.2467 2.42 17.6667 5.4 17.6667C6.84 17.6667 8.2 17.1067 9.17 16.1367L16.2 9.89674C16.84 9.25674 17.69 8.90674 18.6 8.90674C20.47 8.90674 21.99 10.4167 21.99 12.2867C21.99 14.1567 20.47 15.6667 18.6 15.6667C17.7 15.6667 16.84 15.3167 16.16 14.6367L15.02 13.6267L13.51 14.9667L14.78 16.0867C15.8 17.0967 17.15 17.6567 18.6 17.6567C21.58 17.6567 24 15.2467 24 12.2767C24 9.30674 21.58 6.90674 18.6 6.90674Z" fill="url(#paint0_linear_2314_37854)"/>
<defs>
<linearGradient id="paint0_linear_2314_37854" x1="0" y1="6.90674" x2="29.2346" y2="32.5091" gradientUnits="userSpaceOnUse">
<stop offset="0.123989" stop-color="#6BCFCF"/>
<stop offset="1" stop-color="#41A9EF"/>
</linearGradient>
</defs>
</svg>
