<svg width="40" height="40" viewBox="0 0 40 40" fill="none" xmlns="http://www.w3.org/2000/svg">
<mask id="mask0_8_241" style="mask-type:alpha" maskUnits="userSpaceOnUse" x="0" y="0" width="40" height="40">
<rect width="40" height="40" fill="#D9D9D9"/>
</mask>
<g mask="url(#mask0_8_241)">
<path d="M11.7084 28.3334H15.0417V20H11.7084V28.3334ZM24.9584 28.3334H28.2917V11.6667H24.9584V28.3334ZM18.3334 28.3334H21.6667V23.3334H18.3334V28.3334ZM18.3334 20H21.6667V16.6667H18.3334V20ZM8.45841 35.3334C7.40286 35.3334 6.5073 34.9656 5.77175 34.23C5.03508 33.4934 4.66675 32.5972 4.66675 31.5417V8.45835C4.66675 7.4028 5.03508 6.50669 5.77175 5.77002C6.5073 5.03446 7.40286 4.66669 8.45841 4.66669H31.5417C32.5973 4.66669 33.4934 5.03446 34.2301 5.77002C34.9656 6.50669 35.3334 7.4028 35.3334 8.45835V31.5417C35.3334 32.5972 34.9656 33.4934 34.2301 34.23C33.4934 34.9656 32.5973 35.3334 31.5417 35.3334H8.45841ZM8.45841 31.5417H31.5417V8.45835H8.45841V31.5417Z" fill="#58E9E9"/>
</g>
</svg>
