<svg width="24" height="25" viewBox="0 0 24 25" fill="none" xmlns="http://www.w3.org/2000/svg">
<path d="M12 6.28662C14.62 6.28662 16.88 8.14662 17.39 10.7166L17.69 12.2166L19.22 12.3266C20.78 12.4266 22 13.7366 22 15.2866C22 16.9366 20.65 18.2866 19 18.2866H6C3.79 18.2866 2 16.4966 2 14.2866C2 12.2366 3.53 10.5266 5.56 10.3166L6.63 10.2066L7.13 9.25662C8.08 7.42662 9.94 6.28662 12 6.28662ZM12 4.28662C9.11 4.28662 6.6 5.92662 5.35 8.32662C2.34 8.64662 0 11.1966 0 14.2866C0 17.5966 2.69 20.2866 6 20.2866H19C21.76 20.2866 24 18.0466 24 15.2866C24 12.6466 21.95 10.5066 19.35 10.3266C18.67 6.87662 15.64 4.28662 12 4.28662Z" fill="url(#paint0_linear_2256_39089)"/>
<defs>
<linearGradient id="paint0_linear_2256_39089" x1="0" y1="4.28662" x2="38.353" y2="26.8744" gradientUnits="userSpaceOnUse">
<stop offset="0.123989" stop-color="#6BCFCF"/>
<stop offset="1" stop-color="#41A9EF"/>
</linearGradient>
</defs>
</svg>
