<svg width="100" height="100" viewBox="0 0 100 100" fill="none" xmlns="http://www.w3.org/2000/svg">
<g clip-path="url(#clip0_2252_38281)">
<path d="M80.625 41.8337C77.7917 27.4587 65.1667 16.667 50 16.667C37.9583 16.667 27.5 23.5003 22.2917 33.5003C9.75 34.8337 0 45.4587 0 58.3337C0 72.1253 11.2083 83.3337 25 83.3337H79.1667C90.6667 83.3337 100 74.0003 100 62.5003C100 51.5003 91.4583 42.5837 80.625 41.8337ZM79.1667 75.0003H25C15.7917 75.0003 8.33333 67.542 8.33333 58.3337C8.33333 49.1253 15.7917 41.667 25 41.667H27.9583C30.7083 32.042 39.5 25.0003 50 25.0003C62.6667 25.0003 72.9167 35.2503 72.9167 47.917V50.0003H79.1667C86.0833 50.0003 91.6667 55.5837 91.6667 62.5003C91.6667 69.417 86.0833 75.0003 79.1667 75.0003Z" fill="url(#paint0_linear_2252_38281)"/>
</g>
<defs>
<linearGradient id="paint0_linear_2252_38281" x1="0" y1="16.667" x2="159.804" y2="110.783" gradientUnits="userSpaceOnUse">
<stop offset="0.123989" stop-color="#6BCFCF"/>
<stop offset="1" stop-color="#41A9EF"/>
</linearGradient>
<clipPath id="clip0_2252_38281">
<rect width="100" height="100" fill="white"/>
</clipPath>
</defs>
</svg>
