<svg width="24" height="25" viewBox="0 0 24 25" fill="none" xmlns="http://www.w3.org/2000/svg">
<g clip-path="url(#clip0_2256_38828)">
<path d="M23 2.28662H1C0.734784 2.28662 0.48043 2.39198 0.292893 2.57951C0.105357 2.76705 0 3.0214 0 3.28662L0 21.2866C0 21.5518 0.105357 21.8062 0.292893 21.9937C0.48043 22.1813 0.734784 22.2866 1 22.2866H23C23.2652 22.2866 23.5196 22.1813 23.7071 21.9937C23.8946 21.8062 24 21.5518 24 21.2866V3.28662C24 3.0214 23.8946 2.76705 23.7071 2.57951C23.5196 2.39198 23.2652 2.28662 23 2.28662ZM22 20.2866H20V19.2866H15V20.2866H2V4.28662H22V20.2866ZM10.29 9.99662C10.29 9.5431 10.4702 9.10816 10.7908 8.78747C11.1115 8.46678 11.5465 8.28662 12 8.28662C12.95 8.28662 13.71 9.05662 13.71 9.99662C13.71 10.9466 12.95 11.7166 12 11.7166C11.05 11.7166 10.29 10.9466 10.29 9.99662ZM5.71 11.5766C5.71 10.8666 6.29 10.2866 7 10.2866C7.34213 10.2866 7.67025 10.4225 7.91217 10.6645C8.15409 10.9064 8.29 11.2345 8.29 11.5766C8.29 12.2866 7.71 12.8566 7 12.8566C6.29 12.8566 5.71 12.2866 5.71 11.5766ZM15.71 11.5766C15.71 11.2345 15.8459 10.9064 16.0878 10.6645C16.3298 10.4225 16.6579 10.2866 17 10.2866C17.3421 10.2866 17.6702 10.4225 17.9122 10.6645C18.1541 10.9064 18.29 11.2345 18.29 11.5766C18.29 12.2866 17.71 12.8566 17 12.8566C16.29 12.8566 15.71 12.2866 15.71 11.5766ZM20 15.4266V16.2866H16H14H10H8H4V15.4266C4 14.4866 5.55 13.7166 7 13.7166C7.55 13.7166 8.11 13.8266 8.6 14.0166C9.35 13.3266 10.7 12.8566 12 12.8566C13.3 12.8566 14.65 13.3266 15.4 14.0166C15.89 13.8266 16.45 13.7166 17 13.7166C18.45 13.7166 20 14.4866 20 15.4266Z" fill="url(#paint0_linear_2256_38828)"/>
</g>
<defs>
<linearGradient id="paint0_linear_2256_38828" x1="0" y1="2.28662" x2="42.272" y2="22.2033" gradientUnits="userSpaceOnUse">
<stop offset="0.123989" stop-color="#6BCFCF"/>
<stop offset="1" stop-color="#41A9EF"/>
</linearGradient>
<clipPath id="clip0_2256_38828">
<rect width="24" height="24" fill="white" transform="translate(0 0.286621)"/>
</clipPath>
</defs>
</svg>
