<svg width="25" height="24" viewBox="0 0 25 24" fill="none" xmlns="http://www.w3.org/2000/svg">
<g clip-path="url(#clip0_2252_38268)">
<path d="M23.5 2H1.5C1.23478 2 0.98043 2.10536 0.792893 2.29289C0.605357 2.48043 0.5 2.73478 0.5 3L0.5 21C0.5 21.2652 0.605357 21.5196 0.792893 21.7071C0.98043 21.8946 1.23478 22 1.5 22H23.5C23.7652 22 24.0196 21.8946 24.2071 21.7071C24.3946 21.5196 24.5 21.2652 24.5 21V3C24.5 2.73478 24.3946 2.48043 24.2071 2.29289C24.0196 2.10536 23.7652 2 23.5 2M22.5 20H20.5V19H15.5V20H2.5V4H22.5V20ZM10.79 9.71C10.79 9.25648 10.9702 8.82154 11.2908 8.50085C11.6115 8.18016 12.0465 8 12.5 8C13.45 8 14.21 8.77 14.21 9.71C14.21 10.66 13.45 11.43 12.5 11.43C11.55 11.43 10.79 10.66 10.79 9.71ZM6.21 11.29C6.21 10.58 6.79 10 7.5 10C7.84213 10 8.17025 10.1359 8.41217 10.3778C8.65409 10.6198 8.79 10.9479 8.79 11.29C8.79 12 8.21 12.57 7.5 12.57C6.79 12.57 6.21 12 6.21 11.29ZM16.21 11.29C16.21 10.9479 16.3459 10.6198 16.5878 10.3778C16.8298 10.1359 17.1579 10 17.5 10C17.8421 10 18.1702 10.1359 18.4122 10.3778C18.6541 10.6198 18.79 10.9479 18.79 11.29C18.79 12 18.21 12.57 17.5 12.57C16.79 12.57 16.21 12 16.21 11.29ZM20.5 15.14V16H16.5H14.5H10.5H8.5H4.5V15.14C4.5 14.2 6.05 13.43 7.5 13.43C8.05 13.43 8.61 13.54 9.1 13.73C9.85 13.04 11.2 12.57 12.5 12.57C13.8 12.57 15.15 13.04 15.9 13.73C16.39 13.54 16.95 13.43 17.5 13.43C18.95 13.43 20.5 14.2 20.5 15.14Z" fill="url(#paint0_linear_2252_38268)"/>
</g>
<defs>
<linearGradient id="paint0_linear_2252_38268" x1="0.5" y1="2" x2="42.772" y2="21.9167" gradientUnits="userSpaceOnUse">
<stop offset="0.123989" stop-color="#6BCFCF"/>
<stop offset="1" stop-color="#41A9EF"/>
</linearGradient>
<clipPath id="clip0_2252_38268">
<rect width="24" height="24" fill="white" transform="translate(0.5)"/>
</clipPath>
</defs>
</svg>
