<svg width="40" height="40" viewBox="0 0 40 40" fill="none" xmlns="http://www.w3.org/2000/svg">
<mask id="mask0_8_223" style="mask-type:alpha" maskUnits="userSpaceOnUse" x="0" y="0" width="40" height="40">
<rect width="40" height="40" fill="#D9D9D9"/>
</mask>
<g mask="url(#mask0_8_223)">
<path d="M19.9999 37.9584C17.9721 36.0417 15.6388 34.5695 12.9999 33.5417C10.361 32.514 7.59714 32.0001 4.70825 32.0001V13.5001C7.59714 13.5001 10.3544 13.9934 12.9799 14.9801C15.6044 15.9656 17.9444 17.389 19.9999 19.2501C22.0555 17.389 24.3955 15.9656 27.0199 14.9801C29.6455 13.9934 32.4027 13.5001 35.2916 13.5001V32.0001C32.3749 32.0001 29.6044 32.514 26.9799 33.5417C24.3544 34.5695 22.0277 36.0417 19.9999 37.9584ZM19.9999 33.1667C21.6944 31.889 23.5066 30.8545 25.4366 30.0634C27.3677 29.2712 29.3888 28.7362 31.4999 28.4584V17.7084C29.4999 18.014 27.5349 18.7012 25.6049 19.7701C23.6738 20.8401 21.8055 22.264 19.9999 24.0417C18.2221 22.2917 16.3683 20.889 14.4383 19.8334C12.5071 18.7778 10.5277 18.0695 8.49992 17.7084V28.4584C10.5833 28.7362 12.5905 29.2639 14.5216 30.0417C16.4516 30.8195 18.2777 31.8612 19.9999 33.1667ZM19.9999 15.0001C18.1388 15.0001 16.5349 14.3334 15.1883 13.0001C13.8405 11.6667 13.1666 10.0556 13.1666 8.16673C13.1666 6.30562 13.8405 4.70839 15.1883 3.37506C16.5349 2.04173 18.1388 1.37506 19.9999 1.37506C21.861 1.37506 23.4655 2.04173 24.8133 3.37506C26.1599 4.70839 26.8333 6.30562 26.8333 8.16673C26.8333 10.0556 26.1599 11.6667 24.8133 13.0001C23.4655 14.3334 21.861 15.0001 19.9999 15.0001ZM19.9999 11.3751C20.8888 11.3751 21.6388 11.0623 22.2499 10.4367C22.861 9.81228 23.1666 9.05562 23.1666 8.16673C23.1666 7.30562 22.861 6.56228 22.2499 5.93673C21.6388 5.31228 20.8888 5.00006 19.9999 5.00006C19.111 5.00006 18.361 5.31228 17.7499 5.93673C17.1388 6.56228 16.8333 7.30562 16.8333 8.16673C16.8333 9.05562 17.1388 9.81228 17.7499 10.4367C18.361 11.0623 19.111 11.3751 19.9999 11.3751Z" fill="#58E9E9"/>
</g>
</svg>
