<svg width="24" height="25" viewBox="0 0 24 25" fill="none" xmlns="http://www.w3.org/2000/svg">
<path d="M7 8.78662H2V6.78662H7V8.78662ZM7 11.7866H2V13.7866H7V11.7866ZM20.59 18.7866L16.76 14.9566C15.96 15.4766 15.02 15.7866 14 15.7866C11.24 15.7866 9 13.5466 9 10.7866C9 8.02662 11.24 5.78662 14 5.78662C16.76 5.78662 19 8.02662 19 10.7866C19 11.8066 18.69 12.7466 18.17 13.5366L22 17.3766L20.59 18.7866ZM17 10.7866C17 9.13662 15.65 7.78662 14 7.78662C12.35 7.78662 11 9.13662 11 10.7866C11 12.4366 12.35 13.7866 14 13.7866C15.65 13.7866 17 12.4366 17 10.7866ZM2 18.7866H12V16.7866H2V18.7866Z" fill="url(#paint0_linear_2256_38391)"/>
<defs>
<linearGradient id="paint0_linear_2256_38391" x1="2" y1="5.78662" x2="33.5389" y2="24.8376" gradientUnits="userSpaceOnUse">
<stop offset="0.123989" stop-color="#6BCFCF"/>
<stop offset="1" stop-color="#41A9EF"/>
</linearGradient>
</defs>
</svg>
