<svg width="100" height="100" viewBox="0 0 100 100" fill="none" xmlns="http://www.w3.org/2000/svg">
<path fill-rule="evenodd" clip-rule="evenodd" d="M85.7139 51.3976C85.7119 51.7755 85.7045 52.1521 85.6917 52.5272L77.9629 50.2652C77.4768 33.6731 63.9184 20.3284 47.1893 20.239C30.095 20.1477 16.1633 33.9314 16.072 51.0257C15.9807 68.1199 29.7644 82.0516 46.8587 82.1429C50.6189 82.163 54.2261 81.5117 57.5667 80.3015L59.8228 87.7144C55.7539 89.1404 51.3756 89.9053 46.8173 89.8809C25.4495 89.7668 8.21993 72.3522 8.33406 50.9843C8.44819 29.6165 25.8628 12.3869 47.2306 12.5011C68.5985 12.6152 85.828 30.0298 85.7139 51.3976ZM38.0955 60.119H32.1431C32.1431 65.4464 36.5181 69.9702 42.5598 71.4881V77.9762H51.4883V71.4881C52.5721 71.2158 53.6022 70.8468 54.563 70.3938L52.8265 64.6C51.2546 65.5111 49.2185 66.0714 47.024 66.0714C42.1729 66.0714 38.0955 63.3333 38.0955 60.119ZM49.9602 55.0365C48.8915 54.7187 47.6758 54.4064 46.3098 54.0774C40.0002 52.5 32.1431 50.5357 32.1431 42.2619C32.1431 36.9345 36.5181 32.4107 42.5598 30.8928V24.4047H51.4883V30.8928C57.53 32.4107 61.905 36.9345 61.905 42.2619H55.9526C55.9526 39.0476 51.8752 36.3095 47.024 36.3095C42.1729 36.3095 38.0955 39.0476 38.0955 42.2619C38.0955 45.5357 41.1907 46.7262 47.7383 48.3036L47.9588 48.3587L49.9602 55.0365ZM89.7891 59.2696L75.9106 63.9124L91.6666 79.6097L84.3776 86.9056L68.6585 71.1715L64.02 85.0632L52.9761 48.2151L89.7891 59.2696Z" fill="url(#paint0_linear_2379_37970)"/>
<defs>
<linearGradient id="paint0_linear_2379_37970" x1="8.3335" y1="12.5005" x2="160.49" y2="76.8371" gradientUnits="userSpaceOnUse">
<stop offset="0.123989" stop-color="#6BCFCF"/>
<stop offset="1" stop-color="#41A9EF"/>
</linearGradient>
</defs>
</svg>
