<svg width="24" height="25" viewBox="0 0 24 25" fill="none" xmlns="http://www.w3.org/2000/svg">
<mask id="mask0_27_444" style="mask-type:alpha" maskUnits="userSpaceOnUse" x="0" y="0" width="24" height="25">
<rect y="0.5" width="24" height="24" fill="#D9D9D9"/>
</mask>
<g mask="url(#mask0_27_444)">
<path d="M12 12.4C10.8334 12.4 9.84171 11.9873 9.02505 11.162C8.20838 10.3373 7.80005 9.35 7.80005 8.2C7.80005 7.03333 8.20838 6.04167 9.02505 5.225C9.84171 4.40833 10.8334 4 12 4C13.1667 4 14.1584 4.40833 14.975 5.225C15.7917 6.04167 16.2 7.03333 16.2 8.2C16.2 9.35 15.7917 10.3373 14.975 11.162C14.1584 11.9873 13.1667 12.4 12 12.4ZM3.80005 20.8V17.8C3.80005 17.1833 3.95438 16.625 4.26305 16.125C4.57105 15.625 4.98338 15.2417 5.50005 14.975C6.55005 14.4417 7.61671 14.0457 8.70005 13.787C9.78338 13.529 10.8834 13.4 12 13.4C13.1167 13.4 14.2167 13.529 15.3 13.787C16.3834 14.0457 17.45 14.4333 18.5 14.95C19.0167 15.2167 19.4294 15.6043 19.738 16.113C20.046 16.621 20.2001 17.1833 20.2001 17.8V20.8H3.80005ZM6.07505 18.525H17.925V17.825C17.925 17.6417 17.8794 17.475 17.788 17.325C17.696 17.175 17.575 17.0667 17.425 17C16.5584 16.55 15.6707 16.2167 14.762 16C13.854 15.7833 12.9334 15.675 12 15.675C11.0667 15.675 10.146 15.7833 9.23805 16C8.32938 16.2167 7.44172 16.55 6.57505 17C6.42505 17.0667 6.30438 17.175 6.21305 17.325C6.12105 17.475 6.07505 17.6417 6.07505 17.825V18.525ZM12 10.125C12.5334 10.125 12.9877 9.93733 13.363 9.562C13.7377 9.18733 13.925 8.73333 13.925 8.2C13.925 7.66667 13.7377 7.21233 13.363 6.837C12.9877 6.46233 12.5334 6.275 12 6.275C11.4667 6.275 11.0127 6.46233 10.638 6.837C10.2627 7.21233 10.075 7.66667 10.075 8.2C10.075 8.73333 10.2627 9.18733 10.638 9.562C11.0127 9.93733 11.4667 10.125 12 10.125Z" fill="#58E9E9"/>
</g>
</svg>
