<svg width="24" height="25" viewBox="0 0 24 25" fill="none" xmlns="http://www.w3.org/2000/svg">
<path d="M4 6.28662H2V20.2866C2 21.3866 2.9 22.2866 4 22.2866H18V20.2866H4V6.28662ZM20 2.28662H8C6.9 2.28662 6 3.18662 6 4.28662V16.2866C6 17.3866 6.9 18.2866 8 18.2866H20C21.1 18.2866 22 17.3866 22 16.2866V4.28662C22 3.18662 21.1 2.28662 20 2.28662ZM20 16.2866H8V4.28662H20V16.2866ZM13.51 10.4466C13.92 9.71662 14.69 9.28662 15.14 8.64662C15.62 7.96662 15.35 6.70662 14 6.70662C13.12 6.70662 12.68 7.37662 12.5 7.93662L11.13 7.36662C11.51 6.24662 12.52 5.28662 13.99 5.28662C15.22 5.28662 16.07 5.84662 16.5 6.54662C16.87 7.14662 17.08 8.27662 16.51 9.11662C15.88 10.0466 15.28 10.3266 14.95 10.9266C14.82 11.1666 14.77 11.3266 14.77 12.1066H13.25C13.26 11.6966 13.19 11.0266 13.51 10.4466ZM12.95 14.2366C12.95 13.6466 13.42 13.1966 14 13.1966C14.59 13.1966 15.04 13.6466 15.04 14.2366C15.04 14.8166 14.6 15.2866 14 15.2866C13.42 15.2866 12.95 14.8166 12.95 14.2366Z" fill="url(#paint0_linear_2256_38406)"/>
<defs>
<linearGradient id="paint0_linear_2256_38406" x1="2" y1="2.28662" x2="39.297" y2="16.9305" gradientUnits="userSpaceOnUse">
<stop offset="0.123989" stop-color="#6BCFCF"/>
<stop offset="1" stop-color="#41A9EF"/>
</linearGradient>
</defs>
</svg>
