<svg width="40" height="40" viewBox="0 0 40 40" fill="none" xmlns="http://www.w3.org/2000/svg">
<mask id="mask0_8_235" style="mask-type:alpha" maskUnits="userSpaceOnUse" x="0" y="0" width="40" height="40">
<rect width="40" height="40" fill="#D9D9D9"/>
</mask>
<g mask="url(#mask0_8_235)">
<path d="M8.33319 35.3333C6.77763 35.3333 5.66652 34.6389 4.99985 33.25C4.33319 31.8611 4.49985 30.5694 5.49985 29.375L14.6665 18.2083V8.58333H13.2915C12.7637 8.58333 12.3193 8.39556 11.9582 8.02C11.5971 7.64556 11.4165 7.19444 11.4165 6.66667C11.4165 6.13889 11.5971 5.68722 11.9582 5.31167C12.3193 4.93722 12.7637 4.75 13.2915 4.75H26.7082C27.236 4.75 27.6804 4.93722 28.0415 5.31167C28.4026 5.68722 28.5832 6.13889 28.5832 6.66667C28.5832 7.19444 28.4026 7.64556 28.0415 8.02C27.6804 8.39556 27.236 8.58333 26.7082 8.58333H25.3332V18.2083L34.4999 29.375C35.4999 30.5694 35.6665 31.8611 34.9999 33.25C34.3332 34.6389 33.2221 35.3333 31.6665 35.3333H8.33319ZM8.58319 31.5417H31.4165L21.5415 19.5417V8.58333H18.4582V19.5417L8.58319 31.5417Z" fill="#58E9E9"/>
</g>
</svg>
