<svg width="24" height="25" viewBox="0 0 24 25" fill="none" xmlns="http://www.w3.org/2000/svg">
<path d="M4 6.42114H2V20.4211C2 21.5211 2.9 22.4211 4 22.4211H18V20.4211H4V6.42114ZM14 11.4211C15.66 11.4211 17 10.0811 17 8.42114C17 6.76114 15.66 5.42114 14 5.42114C12.34 5.42114 11 6.76114 11 8.42114C11 10.0811 12.34 11.4211 14 11.4211ZM14 7.42114C14.55 7.42114 15 7.87114 15 8.42114C15 8.97114 14.55 9.42114 14 9.42114C13.45 9.42114 13 8.97114 13 8.42114C13 7.87114 13.45 7.42114 14 7.42114ZM20 2.42114H8C6.9 2.42114 6 3.32114 6 4.42114V16.4211C6 17.5211 6.9 18.4211 8 18.4211H20C21.1 18.4211 22 17.5211 22 16.4211V4.42114C22 3.32114 21.1 2.42114 20 2.42114ZM10.69 16.4211C11.64 15.7911 12.78 15.4211 14 15.4211C15.22 15.4211 16.36 15.7911 17.31 16.4211H10.69ZM20 16.1511C18.53 14.4811 16.4 13.4211 14 13.4211C11.6 13.4211 9.47 14.4811 8 16.1511V4.42114H20V16.1511Z" fill="url(#paint0_linear_2252_40354)"/>
<defs>
<linearGradient id="paint0_linear_2252_40354" x1="2" y1="2.42114" x2="39.297" y2="17.065" gradientUnits="userSpaceOnUse">
<stop offset="0.123989" stop-color="#6BCFCF"/>
<stop offset="1" stop-color="#41A9EF"/>
</linearGradient>
</defs>
</svg>
