<?xml version="1.0" encoding="UTF-8"?><svg id="Layer_2" xmlns="http://www.w3.org/2000/svg" xmlns:xlink="http://www.w3.org/1999/xlink" viewBox="0 0 514.01 113.94"><defs><style>.cls-1{fill:url(#linear-gradient);fill-rule:evenodd;}.cls-2{fill:#6bcfcf;}.cls-3{opacity:.4;}</style><linearGradient id="linear-gradient" x1="0" y1="56.97" x2="113.77" y2="56.97" gradientUnits="userSpaceOnUse"><stop offset="0" stop-color="#41a9ef"/><stop offset=".02" stop-color="#43aaed"/><stop offset=".3" stop-color="#59bedc"/><stop offset=".56" stop-color="#66cad2"/><stop offset=".8" stop-color="#6bcfcf"/></linearGradient></defs><g id="Layer_1-2"><g><g><path class="cls-2" d="M153.71,78.64h32.19v9.47h-51.76l31.4-42.55h11.75l-23.6,33.07Zm-13.77-42.46v-9.47h50.53l-6.84,9.47h-43.69Z"/><path class="cls-2" d="M227.14,88.11h-9.47V26.7h9.47v61.41Z"/><path class="cls-2" d="M252.58,56.97c0-18.07,12.11-31.14,28.86-31.14,9.47,0,17.54,4.12,22.9,11.58l2.81,3.86-7.72,5.61-2.81-3.86c-3.51-4.91-8.86-7.63-15.18-7.63-11.32,0-19.3,8.86-19.3,21.58s7.98,21.58,19.3,21.58c6.32,0,11.67-2.72,15.18-7.63l2.81-3.86,7.72,5.61-2.81,3.86c-5.35,7.46-13.42,11.58-22.9,11.58-16.75,0-28.86-13.07-28.86-31.14Z"/><path class="cls-2" d="M373.82,56.97c0,7.46-2.28,14.21-6.58,19.74-5.79,7.37-14.47,11.4-24.56,11.4-18.07,0-31.14-13.07-31.14-31.14s13.07-31.14,31.14-31.14c10.09,0,18.77,4.04,24.56,11.4,4.3,5.53,6.58,12.28,6.58,19.74Zm-9.56,0c0-5.26-1.58-10-4.56-13.77-3.86-5.09-10-7.81-17.02-7.81-12.72,0-21.58,8.86-21.58,21.58s8.86,21.58,21.58,21.58c7.02,0,13.16-2.72,17.02-7.81,2.98-3.77,4.56-8.51,4.56-13.77Z"/><path class="cls-2" d="M441.81,45.56c0,12.02-6.93,18.95-18.95,18.95h-14.12v23.6h-9.47V55.04h23.6c6.84,0,9.47-2.63,9.47-9.47s-2.63-9.39-9.47-9.39h-23.6v-9.47h23.6c12.02,0,18.95,6.93,18.95,18.86Z"/><path class="cls-2" d="M471.29,82.15l-4.04-2.54,5.09-8.16,4.04,2.54c.26,.18,7.46,4.56,14.21,4.56,4.47,0,12.02-1.23,12.02-9.56,0-7.02-10.79-7.19-12.02-7.19-10.7,0-21.49-5.18-21.49-16.75s8.42-19.21,21.49-19.21c9.74,0,18.95,5.79,19.39,6.05l4.04,2.54-5.09,8.07-4.04-2.54c-.09,0-7.37-4.56-14.3-4.56-4.47,0-11.93,1.23-11.93,9.65,0,6.93,10.7,7.11,11.93,7.11,10.79,0,21.58,5.26,21.58,16.84s-8.42,19.12-21.58,19.12c-9.65,0-18.86-5.79-19.3-5.97Z"/></g><g><path class="cls-2" d="M0,26.38L101.8,112.89l11.97-25.34L15.15,4.22,0,26.38Z"/><path class="cls-3" d="M15.15,4.22L0,26.38,101.8,112.89l11.97-25.34"/><path class="cls-1" d="M0,0H95.14l.06,.2,18.56,18.56L44.97,87.56H113.77v26.38H18.75l-.02-.14-.07,.07L0,95.22,68.85,26.38H0V0Z"/></g></g></g></svg>