<svg width="522" height="119" viewBox="0 0 522 119" fill="none" xmlns="http://www.w3.org/2000/svg">
<g clip-path="url(#clip0_1264_589)">
<path fill-rule="evenodd" clip-rule="evenodd" d="M7.5376 76.9557C5.49128 79.5714 3.73654 82.4058 2.30503 85.4079C0.906054 88.1944 0.155643 91.2654 0.110783 94.3879C0.0473929 97.7115 0.679468 101.011 1.96583 104.072C3.01918 106.634 4.63496 108.922 6.69178 110.763H73.1961C76.3467 110.763 78.9067 109.766 80.876 107.77C82.8453 105.774 83.8299 102.488 83.8299 97.9097C83.8412 95.5242 83.4999 93.1503 82.8172 90.8661C82.3032 89.0214 81.5663 87.2473 80.6229 85.5837H37.4131L75.7278 37.3391C77.7127 34.8242 79.3849 32.074 80.7073 29.15C81.9686 26.419 82.6308 23.4461 82.6485 20.4339C82.6485 13.3907 80.1728 7.75607 75.2216 3.53007H12.2636C9.11292 3.53007 6.55295 4.52791 4.58366 6.52356C2.61437 8.51921 1.62986 11.806 1.63016 16.3839C1.61851 18.7694 1.95969 21.1433 2.64248 23.4274C3.15426 25.2729 3.89132 27.0472 4.83674 28.7098H46.3589L7.5376 76.9557ZM126.026 17.0884C126.026 14.0371 125.689 11.5719 125.014 9.69284C124.441 7.96234 123.386 6.43429 121.975 5.29073C120.505 4.18197 118.802 3.42895 116.996 3.08992C114.744 2.65313 112.454 2.44661 110.16 2.4735C107.56 2.48375 104.965 2.6898 102.396 3.08992C99.6954 3.50234 97.7263 3.82515 96.4884 4.05837V97.0315C96.4884 100.085 96.826 102.55 97.5012 104.427C98.0736 106.158 99.1283 107.686 100.539 108.829C102.009 109.939 103.713 110.693 105.519 111.03C107.771 111.467 110.061 111.673 112.354 111.646C114.979 111.644 117.601 111.467 120.203 111.118C122.165 110.893 124.11 110.54 126.026 110.062V17.0884ZM208.311 27.6533C211.592 29.0422 214.73 30.7524 217.679 32.7594C219.699 31.3566 221.42 29.5605 222.741 27.477C224.241 25.1161 225.005 22.3571 224.935 19.5549C224.935 14.0386 222.094 9.5191 216.411 5.9966C210.728 2.47409 202.711 0.712845 192.359 0.712845C185.328 0.661474 178.347 1.91488 171.767 4.4104C165.462 6.80487 159.736 10.5268 154.972 15.3277C150.188 20.1424 146.419 26.0411 143.665 33.0238C140.912 40.0065 139.533 48.0769 139.53 57.2351C139.53 67.0959 140.965 75.5771 143.834 82.6788C146.703 89.7805 150.614 95.6499 155.565 100.287C160.552 104.948 166.483 108.462 172.95 110.588C179.813 112.853 186.996 113.983 194.218 113.933C204.682 113.933 212.474 112.26 217.595 108.915C222.715 105.57 225.275 101.49 225.274 96.676C225.334 93.919 224.786 91.183 223.671 88.6649C222.617 86.3982 221.091 84.3864 219.198 82.766C216.229 84.4314 213.156 85.9018 209.999 87.1681C206.792 88.4615 202.882 89.1071 198.268 89.105C189.602 89.105 182.71 86.3464 177.591 80.8291C172.473 75.3118 169.913 67.4469 169.912 57.2342C169.912 47.1399 172.219 39.3337 176.832 33.8156C181.446 28.2974 188.085 25.5388 196.749 25.5397C201.137 25.54 204.99 26.2445 208.309 27.6533H208.311ZM234.894 81.3578C237.595 88.4014 241.308 94.3294 246.034 99.142C250.811 103.99 256.568 107.743 262.913 110.147C269.71 112.72 276.92 114.003 284.18 113.933C291.433 114.003 298.639 112.75 305.45 110.235C311.802 107.88 317.584 104.188 322.41 99.4064C327.194 94.6522 330.934 88.7242 333.633 81.6222C336.336 74.5211 337.688 66.3913 337.688 57.2329C337.688 48.0744 336.308 39.9743 333.549 32.9326C330.793 25.8896 326.996 19.9909 322.158 15.2365C317.312 10.478 311.534 6.78983 305.194 4.40729C291.612 -0.522808 276.748 -0.522808 263.166 4.40729C256.845 6.7764 251.092 10.467 246.287 15.2365C241.503 19.9907 237.734 25.8893 234.98 32.9326C232.226 39.9758 230.848 48.0759 230.845 57.2329C230.844 66.275 232.194 74.3167 234.894 81.3578ZM267.555 33.3758C271.774 28.1538 277.373 25.5419 284.349 25.5401C291.44 25.5401 297.038 28.1808 301.143 33.4622C305.249 38.7436 307.303 46.6671 307.305 57.2329C307.305 67.9161 305.223 75.8986 301.059 81.1803C296.896 86.462 291.27 89.1026 284.18 89.1023C277.202 89.1023 271.632 86.4617 267.47 81.1803C263.309 75.8989 261.227 67.9164 261.225 57.2329C261.225 46.5538 263.335 38.6015 267.555 33.3758ZM380.557 53.5371V26.2446C381.755 26.0159 382.966 25.8689 384.183 25.8045C385.367 25.7466 386.855 25.7155 388.657 25.7155C393.722 25.7155 397.576 26.9186 400.22 29.3249C402.865 31.7312 404.187 35.1648 404.187 39.6258C404.187 44.3221 402.921 47.8144 400.388 50.1026C397.856 52.3908 394.227 53.5353 389.501 53.5362H380.557V53.5371ZM380.725 77.6594H392.708C399.571 77.6594 405.619 76.7497 410.852 74.9303C416.084 73.1109 420.417 70.5283 423.85 67.1827C427.291 63.8245 429.944 59.7341 431.615 55.2105C433.36 50.5745 434.231 45.38 434.23 39.6272C434.23 27.7722 430.124 18.3815 421.911 11.4548C413.699 4.5282 401.827 1.06518 386.294 1.06578C381.356 1.0661 376.422 1.3896 371.525 2.03423C367.067 2.57608 362.681 3.60946 358.447 5.11582C356.451 5.77837 354.631 6.89264 353.129 8.37322C351.835 9.72413 351.187 11.6317 351.185 14.0958V97.0293C351.185 100.083 351.524 102.548 352.201 104.424C352.773 106.156 353.828 107.684 355.24 108.827C356.708 109.938 358.412 110.691 360.218 111.028C362.47 111.465 364.761 111.671 367.055 111.644C369.68 111.641 372.302 111.465 374.904 111.115C376.865 110.891 378.809 110.538 380.725 110.059V77.659V77.6594ZM481.154 70.7921C484.418 71.9671 486.95 73.1704 488.75 74.402C490.551 75.6336 491.451 77.4238 491.449 79.7725C491.449 82.1219 490.324 84.1761 488.075 85.9353C485.825 87.6945 481.943 88.5748 476.428 88.5763C471.313 88.6314 466.238 87.6742 461.49 85.759C457.33 84.1147 453.433 81.86 449.927 79.068C447.517 80.5022 445.399 82.3848 443.686 84.6157C441.769 87.0235 440.812 89.9288 440.815 93.3318C440.766 96.4664 441.744 99.53 443.598 102.048C445.457 104.573 448.045 106.686 451.362 108.387C455.049 110.213 458.968 111.516 463.009 112.259C467.767 113.169 472.601 113.611 477.443 113.579C492.067 113.579 503.151 110.498 510.693 104.335C518.228 98.1724 521.997 90.1019 522 80.1237C522 70.7335 519.158 63.3087 513.476 57.8493C507.793 52.3899 499.663 47.9009 489.086 44.3822L480.142 41.3887C477.214 40.4505 475.02 39.4235 473.561 38.3076C472.873 37.8242 472.313 37.1782 471.93 36.4261C471.548 35.6739 471.354 34.8387 471.366 33.9936C471.366 31.7647 472.547 29.9158 474.908 28.4468C477.27 26.9778 480.984 26.2442 486.052 26.246C490.673 26.2006 495.276 26.8225 499.722 28.093C503.882 29.3255 507.202 30.7635 509.682 32.4069C511.617 30.8555 513.273 28.9792 514.575 26.8606C515.927 24.6896 516.601 22.0777 516.598 19.0249C516.653 16.1465 515.763 13.3304 514.067 11.0138C512.218 8.59358 509.814 6.66027 507.062 5.37885C503.663 3.78322 500.055 2.68629 496.347 2.12145C491.882 1.393 487.364 1.03959 482.841 1.06488C469.564 1.06488 459.24 4.05836 451.87 10.0453C444.5 16.0323 440.815 24.0146 440.815 33.9923C440.815 39.1591 441.631 43.5317 443.262 47.11C444.859 50.6484 447.191 53.8006 450.099 56.3543C453.237 59.0734 456.765 61.2994 460.563 62.9573C464.613 64.7787 469.113 66.5689 474.065 68.3278L481.154 70.7921Z" fill="white"/>
</g>
<defs>
<clipPath id="clip0_1264_589">
<rect width="521.893" height="117.581" fill="white" transform="translate(0.106445 0.709717)"/>
</clipPath>
</defs>
</svg>
