<svg width="735" height="135" viewBox="0 0 735 135" fill="none" xmlns="http://www.w3.org/2000/svg">
<g clip-path="url(#clip0_1247_13641)">
<path fill-rule="evenodd" clip-rule="evenodd" d="M220.538 84.9558C218.491 87.5714 216.737 90.4058 215.305 93.4079C213.906 96.1944 213.156 99.2654 213.111 102.388C213.047 105.711 213.679 109.011 214.966 112.072C216.019 114.634 217.635 116.922 219.692 118.763H286.196C289.347 118.763 291.907 117.766 293.876 115.77C295.845 113.774 296.83 110.488 296.83 105.91C296.841 103.524 296.5 101.15 295.817 98.8661C295.303 97.0214 294.566 95.2473 293.623 93.5837H250.413L288.728 45.3391C290.713 42.8242 292.385 40.074 293.707 37.15C294.969 34.419 295.631 31.4461 295.648 28.4339C295.648 21.3907 293.173 15.7561 288.222 11.5301H225.264C222.113 11.5301 219.553 12.5279 217.584 14.5236C215.614 16.5192 214.63 19.806 214.63 24.3839C214.619 26.7694 214.96 29.1433 215.642 31.4274C216.154 33.2729 216.891 35.0472 217.837 36.7098H259.359L220.538 84.9558ZM339.026 25.0884C339.026 22.0371 338.689 19.5719 338.014 17.6928C337.441 15.9623 336.386 14.4343 334.975 13.2907C333.505 12.182 331.802 11.429 329.996 11.0899C327.744 10.6531 325.454 10.4466 323.16 10.4735C320.56 10.4838 317.965 10.6898 315.396 11.0899C312.695 11.5023 310.726 11.8252 309.488 12.0584V105.032C309.488 108.085 309.826 110.55 310.501 112.427C311.074 114.158 312.128 115.686 313.539 116.829C315.009 117.939 316.713 118.693 318.519 119.03C320.771 119.467 323.061 119.673 325.354 119.646C327.979 119.644 330.601 119.467 333.203 119.118C335.165 118.893 337.11 118.54 339.026 118.062V25.0884ZM421.311 35.6533C424.592 37.0421 427.73 38.7524 430.679 40.7594C432.699 39.3566 434.42 37.5605 435.741 35.477C437.241 33.1161 438.005 30.3571 437.935 27.5549C437.935 22.0386 435.094 17.5191 429.411 13.9966C423.728 10.4741 415.711 8.71285 405.359 8.71285C398.328 8.66147 391.347 9.91488 384.767 12.4104C378.462 14.8049 372.736 18.5268 367.972 23.3277C363.188 28.1424 359.419 34.0411 356.665 41.0238C353.912 48.0065 352.533 56.0769 352.53 65.2351C352.53 75.0959 353.965 83.5771 356.834 90.6788C359.703 97.7805 363.614 103.65 368.565 108.287C373.552 112.948 379.483 116.462 385.95 118.588C392.813 120.853 399.996 121.983 407.218 121.933C417.682 121.933 425.474 120.261 430.595 116.915C435.715 113.57 438.275 109.49 438.274 104.676C438.334 101.919 437.786 99.183 436.671 96.6649C435.617 94.3982 434.091 92.3864 432.198 90.766C429.229 92.4313 426.156 93.9018 422.999 95.1681C419.792 96.4615 415.882 97.1071 411.268 97.105C402.602 97.105 395.71 94.3464 390.591 88.8291C385.473 83.3118 382.913 75.4469 382.912 65.2342C382.912 55.1399 385.219 47.3337 389.832 41.8156C394.446 36.2974 401.085 33.5388 409.749 33.5397C414.137 33.54 417.99 34.2445 421.309 35.6533H421.311ZM447.894 89.3578C450.595 96.4014 454.308 102.329 459.034 107.142C463.811 111.99 469.568 115.743 475.913 118.147C482.71 120.72 489.92 122.003 497.18 121.933C504.433 122.003 511.639 120.75 518.45 118.235C524.802 115.88 530.584 112.188 535.41 107.406C540.194 102.652 543.934 96.7242 546.633 89.6222C549.336 82.5211 550.688 74.3913 550.688 65.2329C550.688 56.0744 549.308 47.9743 546.549 40.9326C543.793 33.8896 539.996 27.9909 535.158 23.2365C530.312 18.478 524.534 14.7898 518.194 12.4073C504.612 7.47719 489.748 7.47719 476.166 12.4073C469.845 14.7764 464.092 18.467 459.287 23.2365C454.503 27.9906 450.734 33.8893 447.98 40.9326C445.226 47.9758 443.848 56.0759 443.845 65.2329C443.844 74.275 445.194 82.3167 447.894 89.3578ZM480.555 41.3758C484.774 36.1538 490.373 33.5419 497.349 33.5401C504.44 33.5401 510.038 36.1808 514.143 41.4622C518.249 46.7436 520.303 54.6671 520.305 65.2329C520.305 75.9161 518.223 83.8986 514.059 89.1803C509.896 94.462 504.269 97.1026 497.18 97.1023C490.202 97.1023 484.632 94.4617 480.47 89.1803C476.309 83.8989 474.227 75.9164 474.225 65.2329C474.225 54.5538 476.335 46.6015 480.555 41.3758V41.3758ZM593.557 61.5371V34.2446C594.755 34.0159 595.966 33.8689 597.183 33.8045C598.367 33.7466 599.855 33.7155 601.657 33.7155C606.722 33.7155 610.576 34.9186 613.22 37.3249C615.865 39.7312 617.187 43.1648 617.187 47.6258C617.187 52.3221 615.921 55.8144 613.388 58.1026C610.856 60.3908 607.227 61.5353 602.501 61.5362H593.557V61.5371ZM593.725 85.6594H605.708C612.571 85.6594 618.619 84.7497 623.852 82.9303C629.084 81.1109 633.417 78.5283 636.85 75.1827C640.291 71.8245 642.944 67.7341 644.615 63.2105C646.36 58.5745 647.231 53.38 647.23 47.6272C647.23 35.7722 643.124 26.3815 634.911 19.4548C626.699 12.5282 614.827 9.06518 599.294 9.06578C594.356 9.0661 589.422 9.3896 584.525 10.0342C580.067 10.5761 575.681 11.6095 571.447 13.1158C569.451 13.7784 567.631 14.8926 566.129 16.3732C564.835 17.7241 564.187 19.6317 564.185 22.0958V105.029C564.185 108.083 564.524 110.548 565.201 112.424C565.773 114.156 566.828 115.684 568.24 116.827C569.708 117.938 571.412 118.691 573.218 119.028C575.47 119.465 577.761 119.671 580.055 119.644C582.68 119.641 585.302 119.465 587.904 119.115C589.865 118.891 591.809 118.538 593.725 118.059V85.659V85.6594ZM694.154 78.7921C697.418 79.9671 699.95 81.1704 701.75 82.402C703.551 83.6336 704.451 85.4238 704.449 87.7725C704.449 90.1219 703.324 92.1761 701.075 93.9353C698.825 95.6945 694.943 96.5748 689.428 96.5763C684.313 96.6314 679.238 95.6742 674.49 93.759C670.33 92.1147 666.433 89.86 662.927 87.068C660.517 88.5022 658.399 90.3848 656.686 92.6157C654.769 95.0235 653.812 97.9288 653.815 101.332C653.766 104.466 654.744 107.53 656.598 110.048C658.457 112.573 661.045 114.686 664.362 116.387C668.049 118.213 671.968 119.516 676.009 120.259C680.767 121.169 685.601 121.611 690.443 121.579C705.067 121.579 716.151 118.498 723.693 112.335C731.228 106.172 734.997 98.1019 735 88.1237C735 78.7335 732.158 71.3087 726.476 65.8493C720.793 60.3899 712.663 55.9009 702.086 52.3822L693.142 49.3887C690.214 48.4505 688.02 47.4235 686.561 46.3076C685.873 45.8242 685.313 45.1782 684.93 44.4261C684.548 43.6739 684.354 42.8387 684.366 41.9936C684.366 39.7647 685.547 37.9158 687.908 36.4468C690.27 34.9778 693.984 34.2442 699.052 34.246C703.673 34.2006 708.276 34.8225 712.722 36.093C716.882 37.3255 720.202 38.7635 722.682 40.4069C724.617 38.8555 726.273 36.9792 727.575 34.8606C728.927 32.6896 729.601 30.0777 729.598 27.0249C729.653 24.1465 728.763 21.3304 727.067 19.0138C725.218 16.5936 722.814 14.6603 720.062 13.3789C716.663 11.7832 713.055 10.6863 709.347 10.1215C704.882 9.393 700.364 9.03959 695.841 9.06488C682.564 9.06488 672.24 12.0584 664.87 18.0453C657.5 24.0323 653.815 32.0146 653.815 41.9923C653.815 47.1591 654.631 51.5317 656.262 55.11C657.859 58.6484 660.191 61.8006 663.099 64.3543C666.237 67.0734 669.765 69.2994 673.563 70.9573C677.613 72.7787 682.113 74.5689 687.065 76.3278L694.154 78.7921Z" fill="white"/>
</g>
<path fill-rule="evenodd" clip-rule="evenodd" d="M119.793 3.43595C121.939 4.88273 122.486 7.7667 121.015 9.87748L79.4896 69.4507L120.851 122.123C121.134 122.483 121.334 122.879 121.455 123.291C121.703 123.855 121.841 124.477 121.841 125.13C121.841 127.689 119.731 129.763 117.128 129.763H26.0232L113.242 4.63822C114.713 2.52744 117.646 1.98916 119.793 3.43595ZM43.9082 120.496L75.2516 75.5307L110.561 120.496H43.9082ZM4.69112 8.82828C4.69112 6.26926 6.80079 4.19477 9.4032 4.19477H100.508L13.2899 129.32C11.8186 131.43 8.88571 131.969 6.73914 130.522C4.59257 129.075 4.04517 126.191 5.51649 124.08L82.6234 13.4618H16.1825L34.0051 36.1576C35.209 37.6907 34.9211 39.8932 33.362 41.077C31.8029 42.2608 29.5631 41.9777 28.3592 40.4446L6.20046 12.227C5.27213 11.3807 4.69112 10.1712 4.69112 8.82828ZM56.7688 26.5958C56.7688 31.3399 52.8577 35.1858 48.0331 35.1858C43.2085 35.1858 39.2974 31.3399 39.2974 26.5958C39.2974 21.8517 43.2085 18.0058 48.0331 18.0058C52.8577 18.0058 56.7688 21.8517 56.7688 26.5958Z" fill="white"/>
<defs>
<clipPath id="clip0_1247_13641">
<rect width="521.893" height="117.581" fill="white" transform="translate(213.106 8.70972)"/>
</clipPath>
</defs>
</svg>
