<svg width="127" height="135" viewBox="0 0 127 135" fill="none" xmlns="http://www.w3.org/2000/svg">
<path fill-rule="evenodd" clip-rule="evenodd" d="M119.793 3.43595C121.939 4.88273 122.486 7.7667 121.015 9.87748L79.4896 69.4507L120.851 122.123C121.134 122.483 121.334 122.879 121.455 123.291C121.703 123.855 121.841 124.477 121.841 125.13C121.841 127.689 119.731 129.763 117.128 129.763H26.0232L113.242 4.63822C114.713 2.52744 117.646 1.98916 119.793 3.43595ZM43.9082 120.496L75.2516 75.5307L110.561 120.496H43.9082ZM4.69112 8.82828C4.69112 6.26926 6.80079 4.19477 9.4032 4.19477H100.508L13.2899 129.32C11.8186 131.43 8.88571 131.969 6.73914 130.522C4.59257 129.075 4.04517 126.191 5.51649 124.08L82.6234 13.4618H16.1825L34.0051 36.1576C35.209 37.6907 34.9211 39.8932 33.362 41.077C31.8029 42.2608 29.5631 41.9777 28.3592 40.4446L6.20046 12.227C5.27213 11.3807 4.69112 10.1712 4.69112 8.82828ZM56.7688 26.5958C56.7688 31.3399 52.8577 35.1858 48.0331 35.1858C43.2085 35.1858 39.2974 31.3399 39.2974 26.5958C39.2974 21.8517 43.2085 18.0058 48.0331 18.0058C52.8577 18.0058 56.7688 21.8517 56.7688 26.5958Z" fill="white"/>
</svg>
