<svg width="394" height="215" viewBox="0 0 394 215" fill="none" xmlns="http://www.w3.org/2000/svg">
<path fill-rule="evenodd" clip-rule="evenodd" d="M196.833 214.201C305.541 214.201 393.666 172.406 393.666 120.85C393.666 69.2935 305.541 27.4988 196.833 27.4988C88.1251 27.4988 -0.000244141 69.2935 -0.000244141 120.85C-0.000244141 172.406 88.1251 214.201 196.833 214.201ZM196.833 180.913C281.561 180.913 350.247 154.022 350.247 120.85C350.247 87.6779 281.561 60.7867 196.833 60.7867C112.105 60.7867 43.4188 87.6779 43.4188 120.85C43.4188 154.022 112.105 180.913 196.833 180.913Z" fill="url(#paint0_linear_2252_39420)"/>
<mask id="mask0_2252_39420" style="mask-type:alpha" maskUnits="userSpaceOnUse" x="-1" y="27" width="395" height="188">
<path fill-rule="evenodd" clip-rule="evenodd" d="M196.833 214.201C305.541 214.201 393.666 172.406 393.666 120.85C393.666 69.2935 305.541 27.4988 196.833 27.4988C88.1251 27.4988 -0.000244141 69.2935 -0.000244141 120.85C-0.000244141 172.406 88.1251 214.201 196.833 214.201ZM196.833 180.913C281.561 180.913 350.247 154.022 350.247 120.85C350.247 87.6779 281.561 60.7867 196.833 60.7867C112.105 60.7867 43.4188 87.6779 43.4188 120.85C43.4188 154.022 112.105 180.913 196.833 180.913Z" fill="#397CBC"/>
</mask>
<g mask="url(#mask0_2252_39420)">
<path d="M23.1562 106.377L53.5496 109.271L100.587 82.4963L193.938 71.6415L304.657 88.2855L353.865 109.271L358.931 78.878L325.643 36.9062L248.936 20.9858L110.718 30.3933L45.5895 60.063L23.1562 106.377Z" fill="url(#paint1_linear_2252_39420)"/>
</g>
<path fill-rule="evenodd" clip-rule="evenodd" d="M196.833 186.702C305.541 186.702 393.667 144.908 393.667 93.3511C393.667 41.7947 305.541 0 196.833 0C88.1253 0 0 41.7947 0 93.3511C0 144.908 88.1253 186.702 196.833 186.702ZM196.833 153.414C281.562 153.414 350.247 126.523 350.247 93.3511C350.247 60.1791 281.562 33.288 196.833 33.288C112.105 33.288 43.419 60.1791 43.419 93.3511C43.419 126.523 112.105 153.414 196.833 153.414Z" fill="url(#paint2_linear_2252_39420)"/>
<defs>
<linearGradient id="paint0_linear_2252_39420" x1="-9.40772" y1="214.201" x2="393.666" y2="206.964" gradientUnits="userSpaceOnUse">
<stop offset="0.0220636" stop-color="#23384C"/>
<stop offset="0.521871" stop-color="#528C8C"/>
<stop offset="1" stop-color="#23384C"/>
</linearGradient>
<linearGradient id="paint1_linear_2252_39420" x1="104.929" y1="37.6298" x2="335.774" y2="120.85" gradientUnits="userSpaceOnUse">
<stop stop-color="#C7F1F1"/>
<stop offset="1" stop-color="#CBEEEE"/>
</linearGradient>
<linearGradient id="paint2_linear_2252_39420" x1="354.59" y1="-151.967" x2="500.783" y2="99.2628" gradientUnits="userSpaceOnUse">
<stop stop-color="#6BCFCF"/>
<stop offset="1" stop-color="#23384C"/>
</linearGradient>
</defs>
</svg>
