<svg width="185" height="109" viewBox="0 0 185 109" fill="none" xmlns="http://www.w3.org/2000/svg">
<path fill-rule="evenodd" clip-rule="evenodd" d="M92.6961 108.882C143.378 108.882 184.463 87.7026 184.463 61.5761C184.463 35.4495 143.378 14.2698 92.6961 14.2698C42.0146 14.2698 0.929199 35.4495 0.929199 61.5761C0.929199 87.7026 42.0146 108.882 92.6961 108.882ZM92.6954 92.0134C132.197 92.0134 164.22 78.3861 164.22 61.576C164.22 44.7659 132.197 31.1386 92.6954 31.1386C53.1936 31.1386 21.1712 44.7659 21.1712 61.576C21.1712 78.3861 53.1936 92.0134 92.6954 92.0134Z" fill="url(#paint0_linear_2252_39395)"/>
<mask id="mask0_2252_39395" style="mask-type:alpha" maskUnits="userSpaceOnUse" x="0" y="14" width="185" height="95">
<path fill-rule="evenodd" clip-rule="evenodd" d="M92.6961 108.882C143.378 108.882 184.463 87.7026 184.463 61.5761C184.463 35.4495 143.378 14.2698 92.6961 14.2698C42.0146 14.2698 0.929199 35.4495 0.929199 61.5761C0.929199 87.7026 42.0146 108.882 92.6961 108.882ZM92.6954 92.0134C132.197 92.0134 164.22 78.3861 164.22 61.576C164.22 44.7659 132.197 31.1386 92.6954 31.1386C53.1936 31.1386 21.1712 44.7659 21.1712 61.576C21.1712 78.3861 53.1936 92.0134 92.6954 92.0134Z" fill="#397CBC"/>
</mask>
<g mask="url(#mask0_2252_39395)">
<path d="M11.7251 54.2417L25.895 55.7085L47.8246 42.1401L91.3464 36.6393L142.965 45.0738L165.907 55.7085L168.269 40.3065L152.749 19.037L116.987 10.9692L52.5479 15.7365L22.1838 30.7719L11.7251 54.2417Z" fill="white"/>
</g>
<path fill-rule="evenodd" clip-rule="evenodd" d="M92.6964 94.9471C143.378 94.9471 184.463 73.7673 184.463 47.6408C184.463 21.5142 143.378 0.334473 92.6964 0.334473C42.0149 0.334473 0.929443 21.5142 0.929443 47.6408C0.929443 73.7673 42.0149 94.9471 92.6964 94.9471ZM92.6956 78.0783C132.197 78.0783 164.22 64.451 164.22 47.6409C164.22 30.8308 132.197 17.2035 92.6956 17.2035C53.1939 17.2035 21.1714 30.8308 21.1714 47.6409C21.1714 64.451 53.1939 78.0783 92.6956 78.0783Z" fill="url(#paint1_linear_2252_39395)"/>
<defs>
<linearGradient id="paint0_linear_2252_39395" x1="-3.45672" y1="108.882" x2="184.472" y2="105.778" gradientUnits="userSpaceOnUse">
<stop offset="0.0220636" stop-color="#23384C"/>
<stop offset="0.521871" stop-color="#528C8C"/>
<stop offset="1" stop-color="#23384C"/>
</linearGradient>
<linearGradient id="paint1_linear_2252_39395" x1="166.245" y1="-76.6758" x2="243.237" y2="45.0486" gradientUnits="userSpaceOnUse">
<stop stop-color="#6BCFCF"/>
<stop offset="1" stop-color="#23384C"/>
</linearGradient>
</defs>
</svg>
