<svg width="267" height="161" viewBox="0 0 267 161" fill="none" xmlns="http://www.w3.org/2000/svg">
<path fill-rule="evenodd" clip-rule="evenodd" d="M133.833 160.448C207.371 160.448 266.985 129.21 266.985 90.6762C266.985 52.1421 207.371 20.9041 133.833 20.9041C60.2953 20.9041 0.681152 52.1421 0.681152 90.6762C0.681152 129.21 60.2953 160.448 133.833 160.448ZM133.833 135.568C191.149 135.568 237.613 115.469 237.613 90.6762C237.613 65.8829 191.149 45.784 133.833 45.784C76.5168 45.784 30.0528 65.8829 30.0528 90.6762C30.0528 115.469 76.5168 135.568 133.833 135.568Z" fill="url(#paint0_linear_2252_39408)"/>
<mask id="mask0_2252_39408" style="mask-type:alpha" maskUnits="userSpaceOnUse" x="0" y="20" width="267" height="141">
<path fill-rule="evenodd" clip-rule="evenodd" d="M133.833 160.448C207.371 160.448 266.985 129.21 266.985 90.6762C266.985 52.1421 207.371 20.9041 133.833 20.9041C60.2953 20.9041 0.681152 52.1421 0.681152 90.6762C0.681152 129.21 60.2953 160.448 133.833 160.448ZM133.833 135.568C191.149 135.568 237.613 115.469 237.613 90.6762C237.613 65.8829 191.149 45.784 133.833 45.784C76.5168 45.784 30.0528 65.8829 30.0528 90.6762C30.0528 115.469 76.5168 135.568 133.833 135.568Z" fill="#397CBC"/>
</mask>
<g mask="url(#mask0_2252_39408)">
<path d="M16.3467 79.8587L36.9069 82.0222L68.7263 62.01L131.876 53.897L206.774 66.337L240.062 82.0222L243.488 59.3057L220.97 27.9353L169.08 16.0361L75.5797 23.0674L31.5221 45.2431L16.3467 79.8587Z" fill="white"/>
</g>
<path fill-rule="evenodd" clip-rule="evenodd" d="M133.833 139.895C207.371 139.895 266.985 108.657 266.985 70.1232C266.985 31.5891 207.371 0.351074 133.833 0.351074C60.2953 0.351074 0.681152 31.5891 0.681152 70.1232C0.681152 108.657 60.2953 139.895 133.833 139.895ZM133.833 115.015C191.149 115.015 237.613 94.9165 237.613 70.1233C237.613 45.33 191.149 25.2311 133.833 25.2311C76.5168 25.2311 30.0528 45.33 30.0528 70.1233C30.0528 94.9165 76.5168 115.015 133.833 115.015Z" fill="url(#paint1_linear_2252_39408)"/>
<defs>
<linearGradient id="paint0_linear_2252_39408" x1="-5.68273" y1="160.448" x2="267.001" y2="156.018" gradientUnits="userSpaceOnUse">
<stop offset="0.0220636" stop-color="#23384C"/>
<stop offset="0.521871" stop-color="#528C8C"/>
<stop offset="1" stop-color="#23384C"/>
</linearGradient>
<linearGradient id="paint1_linear_2252_39408" x1="240.551" y1="-113.232" x2="354.893" y2="64.6106" gradientUnits="userSpaceOnUse">
<stop stop-color="#6BCFCF"/>
<stop offset="1" stop-color="#23384C"/>
</linearGradient>
</defs>
</svg>
