<svg width="60" height="60" viewBox="0 0 60 60" fill="none" xmlns="http://www.w3.org/2000/svg">
<mask id="mask0_428_2908" style="mask-type:alpha" maskUnits="userSpaceOnUse" x="0" y="0" width="60" height="60">
<rect width="60" height="60" fill="#D9D9D9"/>
</mask>
<g mask="url(#mask0_428_2908)">
<path d="M15.0625 43.25C17.1875 41.6667 19.5 40.4167 22 39.5C24.5 38.5833 27.1667 38.125 30 38.125C32.8333 38.125 35.5 38.5833 38 39.5C40.5 40.4167 42.8125 41.6667 44.9375 43.25C46.4792 41.5417 47.7083 39.5625 48.625 37.3125C49.5417 35.0625 50 32.625 50 30C50 24.4583 48.0525 19.7392 44.1575 15.8425C40.2608 11.9475 35.5417 10 30 10C24.4583 10 19.74 11.9475 15.845 15.8425C11.9483 19.7392 10 24.4583 10 30C10 32.625 10.4583 35.0625 11.375 37.3125C12.2917 39.5625 13.5208 41.5417 15.0625 43.25ZM30 31.875C27.7083 31.875 25.7817 31.0933 24.22 29.53C22.6567 27.9683 21.875 26.0417 21.875 23.75C21.875 21.4583 22.6567 19.5317 24.22 17.97C25.7817 16.4067 27.7083 15.625 30 15.625C32.2917 15.625 34.2183 16.4067 35.78 17.97C37.3433 19.5317 38.125 21.4583 38.125 23.75C38.125 26.0417 37.3433 27.9683 35.78 29.53C34.2183 31.0933 32.2917 31.875 30 31.875ZM30 53.75C26.7083 53.75 23.615 53.125 20.72 51.875C17.8233 50.625 15.3125 48.9375 13.1875 46.8125C11.0625 44.6875 9.375 42.1767 8.125 39.28C6.875 36.385 6.25 33.2917 6.25 30C6.25 26.7083 6.875 23.6142 8.125 20.7175C9.375 17.8225 11.0625 15.3125 13.1875 13.1875C15.3125 11.0625 17.8233 9.375 20.72 8.125C23.615 6.875 26.7083 6.25 30 6.25C33.2917 6.25 36.3858 6.875 39.2825 8.125C42.1775 9.375 44.6875 11.0625 46.8125 13.1875C48.9375 15.3125 50.625 17.8225 51.875 20.7175C53.125 23.6142 53.75 26.7083 53.75 30C53.75 33.2917 53.125 36.385 51.875 39.28C50.625 42.1767 48.9375 44.6875 46.8125 46.8125C44.6875 48.9375 42.1775 50.625 39.2825 51.875C36.3858 53.125 33.2917 53.75 30 53.75ZM30 50C32.25 50 34.4275 49.635 36.5325 48.905C38.6358 48.1767 40.5 47.1667 42.125 45.875C40.5 44.625 38.6558 43.6458 36.5925 42.9375C34.5308 42.2292 32.3333 41.875 30 41.875C27.6667 41.875 25.4692 42.2192 23.4075 42.9075C21.3442 43.5942 19.5 44.5833 17.875 45.875C19.5 47.1667 21.3642 48.1767 23.4675 48.905C25.5725 49.635 27.75 50 30 50ZM30 28.125C31.25 28.125 32.2917 27.7083 33.125 26.875C33.9583 26.0417 34.375 25 34.375 23.75C34.375 22.5 33.9583 21.4583 33.125 20.625C32.2917 19.7917 31.25 19.375 30 19.375C28.75 19.375 27.7083 19.7917 26.875 20.625C26.0417 21.4583 25.625 22.5 25.625 23.75C25.625 25 26.0417 26.0417 26.875 26.875C27.7083 27.7083 28.75 28.125 30 28.125Z" fill="#6BCFCF"/>
</g>
</svg>
