<svg width="33" height="34" viewBox="0 0 33 34" fill="none" xmlns="http://www.w3.org/2000/svg">
<path d="M23.1667 30.6667H24.8333V26.5001H29V24.8334H24.8333V20.6667H23.1667V24.8334H19V26.5001H23.1667V30.6667ZM24 34.0001C21.6944 34.0001 19.7294 33.1879 18.105 31.5634C16.4794 29.9379 15.6667 27.9723 15.6667 25.6667C15.6667 23.3612 16.4794 21.3956 18.105 19.7701C19.7294 18.1456 21.6944 17.3334 24 17.3334C26.3055 17.3334 28.2711 18.1456 29.8967 19.7701C31.5211 21.3956 32.3333 23.3612 32.3333 25.6667C32.3333 27.9723 31.5211 29.9379 29.8967 31.5634C28.2711 33.1879 26.3055 34.0001 24 34.0001ZM0.666656 30.6667V10.6667L14 0.666748L27.3333 10.6667V14.5001C26.8055 14.3334 26.2639 14.2084 25.7083 14.1251C25.1528 14.0417 24.5833 14.0001 24 14.0001V12.3334L14 4.83341L3.99999 12.3334V27.3334H12.4583C12.5417 27.9167 12.6667 28.4862 12.8333 29.0417C13 29.5973 13.2083 30.139 13.4583 30.6667H0.666656Z" fill="#6BCFCF"/>
</svg>
