<svg width="32" height="34" viewBox="0 0 32 34" fill="none" xmlns="http://www.w3.org/2000/svg">
<path d="M10.1254 6.99996C9.15318 6.99996 8.32707 6.6594 7.64707 5.97829C6.96596 5.29829 6.62541 4.47218 6.62541 3.49996C6.62541 2.55552 6.96596 1.74274 7.64707 1.06163C8.32707 0.381626 9.15318 0.041626 10.1254 0.041626C11.0699 0.041626 11.8893 0.381626 12.5837 1.06163C13.2782 1.74274 13.6254 2.55552 13.6254 3.49996C13.6254 4.47218 13.2782 5.29829 12.5837 5.97829C11.8893 6.6594 11.0699 6.99996 10.1254 6.99996ZM5.04207 30.625L0.70874 8.66663H4.41707L8.08374 27H19.3337V30.625H5.04207ZM28.3754 33.7083L23.5004 25.3333H9.37541L7.04207 14C6.73652 12.5833 7.04207 11.34 7.95874 10.27C8.87541 9.20107 10.056 8.66663 11.5004 8.66663C12.4449 8.66663 13.341 8.95829 14.1887 9.54163C15.0354 10.125 15.5837 10.9583 15.8337 12.0416L17.5837 20.1666H24.5421L31.4171 32L28.3754 33.7083Z" fill="#6BCFCF"/>
</svg>
