<svg width="24" height="24" viewBox="0 0 24 24" fill="none" xmlns="http://www.w3.org/2000/svg">
<path d="M13.5 4H9.5V8H13.5V4Z" fill="#C4C4C4"/>
<path d="M7.5 16H3.5V20H7.5V16Z" fill="#C4C4C4"/>
<path d="M7.5 10H3.5V14H7.5V10Z" fill="#C4C4C4"/>
<path d="M7.5 4H3.5V8H7.5V4Z" fill="#C4C4C4"/>
<path d="M19.5 4H15.5V8H19.5V4Z" fill="#C4C4C4"/>
<path d="M10.5 17.86V20H12.6L18.58 14.03L16.46 11.91L10.5 17.86Z" fill="#C4C4C4"/>
<path d="M13.5 12.03V10H9.5V14H11.53L13.5 12.03Z" fill="#C4C4C4"/>
<path d="M20.35 11.56L18.94 10.15C18.74 9.95 18.43 9.95 18.23 10.15L17.17 11.21L19.29 13.33L20.35 12.27C20.55 12.07 20.55 11.76 20.35 11.56Z" fill="#C4C4C4"/>
</svg>
