<svg width="60" height="60" viewBox="0 0 60 60" fill="none" xmlns="http://www.w3.org/2000/svg">
<mask id="mask0_430_3473" style="mask-type:alpha" maskUnits="userSpaceOnUse" x="0" y="0" width="60" height="60">
<rect width="60" height="60" fill="#D9D9D9"/>
</mask>
<g mask="url(#mask0_430_3473)">
<path d="M13.25 51.25C12 51.25 10.9375 50.8125 10.0625 49.9375C9.1875 49.0625 8.75 48 8.75 46.75V13.25C8.75 12 9.1875 10.9375 10.0625 10.0625C10.9375 9.1875 12 8.75 13.25 8.75H24.375C24.5833 7.33333 25.2083 6.14583 26.25 5.1875C27.2917 4.22917 28.5417 3.75 30 3.75C31.4583 3.75 32.7083 4.22917 33.75 5.1875C34.7917 6.14583 35.4167 7.33333 35.625 8.75H46.75C48 8.75 49.0625 9.1875 49.9375 10.0625C50.8125 10.9375 51.25 12 51.25 13.25V46.75C51.25 48 50.8125 49.0625 49.9375 49.9375C49.0625 50.8125 48 51.25 46.75 51.25H13.25ZM30 10.875C30.5417 10.875 30.99 10.6975 31.345 10.3425C31.6983 9.98917 31.875 9.54167 31.875 9C31.875 8.45833 31.6983 8.01 31.345 7.655C30.99 7.30167 30.5417 7.125 30 7.125C29.4583 7.125 29.0108 7.30167 28.6575 7.655C28.3025 8.01 28.125 8.45833 28.125 9C28.125 9.54167 28.3025 9.98917 28.6575 10.3425C29.0108 10.6975 29.4583 10.875 30 10.875ZM12.5 45.125C14.75 42.9167 17.365 41.1775 20.345 39.9075C23.3233 38.6358 26.5417 38 30 38C33.4583 38 36.6775 38.6358 39.6575 39.9075C42.6358 41.1775 45.25 42.9167 47.5 45.125V13.25C47.5 13.0833 47.4167 12.9167 47.25 12.75C47.0833 12.5833 46.9167 12.5 46.75 12.5H13.25C13.0833 12.5 12.9167 12.5833 12.75 12.75C12.5833 12.9167 12.5 13.0833 12.5 13.25V45.125ZM30 32.625C32.25 32.625 34.1667 31.8333 35.75 30.25C37.3333 28.6667 38.125 26.75 38.125 24.5C38.125 22.2083 37.3333 20.2808 35.75 18.7175C34.1667 17.1558 32.25 16.375 30 16.375C27.75 16.375 25.8333 17.1558 24.25 18.7175C22.6667 20.2808 21.875 22.2083 21.875 24.5C21.875 26.75 22.6667 28.6667 24.25 30.25C25.8333 31.8333 27.75 32.625 30 32.625ZM16.125 47.5H43.875C43.875 47.375 43.875 47.2817 43.875 47.22C43.875 47.1567 43.875 47.0833 43.875 47C41.9167 45.2083 39.7608 43.885 37.4075 43.03C35.0525 42.1767 32.5833 41.75 30 41.75C27.4583 41.75 25 42.1767 22.625 43.03C20.25 43.885 18.0833 45.1875 16.125 46.9375C16.125 47.0625 16.125 47.1567 16.125 47.22C16.125 47.2817 16.125 47.375 16.125 47.5ZM30 28.875C28.7917 28.875 27.76 28.4375 26.905 27.5625C26.0517 26.6875 25.625 25.6667 25.625 24.5C25.625 23.2917 26.0517 22.26 26.905 21.405C27.76 20.5517 28.7917 20.125 30 20.125C31.2083 20.125 32.24 20.5517 33.095 21.405C33.9483 22.26 34.375 23.2917 34.375 24.5C34.375 25.6667 33.9483 26.6875 33.095 27.5625C32.24 28.4375 31.2083 28.875 30 28.875Z" fill="#6BCFCF"/>
</g>
</svg>
