<svg width="41" height="40" viewBox="0 0 41 40" fill="none" xmlns="http://www.w3.org/2000/svg">
<path d="M28.6667 21.6667H23.6667V15.0001H17V21.6667H12L20.3333 30.0001L28.6667 21.6667ZM32 6.66675H25.0333C24.3333 4.73342 22.5 3.33342 20.3333 3.33342C18.1667 3.33342 16.3333 4.73342 15.6333 6.66675H8.66668C8.43334 6.66675 8.21668 6.68342 8.00001 6.73342C7.35001 6.86675 6.76668 7.20008 6.31668 7.65008C6.01668 7.95008 5.76668 8.31675 5.60001 8.71675C5.43334 9.10008 5.33334 9.53342 5.33334 10.0001V33.3334C5.33334 33.7834 5.43334 34.2334 5.60001 34.6334C5.76668 35.0334 6.01668 35.3834 6.31668 35.7001C6.76668 36.1501 7.35001 36.4834 8.00001 36.6167C8.21668 36.6501 8.43334 36.6668 8.66668 36.6668H32C33.8333 36.6668 35.3333 35.1667 35.3333 33.3334V10.0001C35.3333 8.16675 33.8333 6.66675 32 6.66675ZM20.3333 6.25008C21.0167 6.25008 21.5833 6.81675 21.5833 7.50008C21.5833 8.18342 21.0167 8.75008 20.3333 8.75008C19.65 8.75008 19.0833 8.18342 19.0833 7.50008C19.0833 6.81675 19.65 6.25008 20.3333 6.25008ZM32 33.3334H8.66668V10.0001H32V33.3334Z" fill="#EAEAEA"/>
</svg>
