<svg width="24" height="25" viewBox="0 0 24 25" fill="none" xmlns="http://www.w3.org/2000/svg">
<g clip-path="url(#clip0_735_6353)">
<path d="M17 15.745V22.617C17 22.7055 16.9766 22.7924 16.932 22.8688C16.8875 22.9452 16.8235 23.0085 16.7465 23.0521C16.6696 23.0957 16.5824 23.1181 16.4939 23.1171C16.4055 23.116 16.3189 23.0915 16.243 23.046L12 20.5L7.757 23.046C7.68104 23.0915 7.59436 23.116 7.50581 23.1171C7.41727 23.1181 7.33004 23.0956 7.25304 23.0519C7.17605 23.0081 7.11205 22.9447 7.06759 22.8682C7.02313 22.7916 6.9998 22.7046 7 22.616V15.746C5.70615 14.7101 4.76599 13.2979 4.30946 11.7045C3.85293 10.1112 3.90256 8.41539 4.45149 6.85148C5.00043 5.28756 6.02156 3.93275 7.37378 2.97428C8.726 2.01581 10.3425 1.50101 12 1.50101C13.6575 1.50101 15.274 2.01581 16.6262 2.97428C17.9784 3.93275 18.9996 5.28756 19.5485 6.85148C20.0974 8.41539 20.1471 10.1112 19.6905 11.7045C19.234 13.2979 18.2939 14.7101 17 15.746V15.745ZM9 16.918V19.968L12 18.168L15 19.968V16.918C14.0468 17.3035 13.0282 17.5011 12 17.5C10.9718 17.5011 9.95316 17.3035 9 16.918ZM12 15.5C13.5913 15.5 15.1174 14.8679 16.2426 13.7426C17.3679 12.6174 18 11.0913 18 9.50001C18 7.90871 17.3679 6.38258 16.2426 5.25736C15.1174 4.13215 13.5913 3.50001 12 3.50001C10.4087 3.50001 8.88258 4.13215 7.75736 5.25736C6.63214 6.38258 6 7.90871 6 9.50001C6 11.0913 6.63214 12.6174 7.75736 13.7426C8.88258 14.8679 10.4087 15.5 12 15.5Z" fill="#6BCFCF"/>
</g>
<defs>
<clipPath id="clip0_735_6353">
<rect width="24" height="24" fill="white" transform="translate(0 0.5)"/>
</clipPath>
</defs>
</svg>
