<svg width="60" height="60" viewBox="0 0 60 60" fill="none" xmlns="http://www.w3.org/2000/svg">
<mask id="mask0_430_3457" style="mask-type:alpha" maskUnits="userSpaceOnUse" x="0" y="0" width="60" height="60">
<rect width="60" height="60" fill="#D9D9D9"/>
</mask>
<g mask="url(#mask0_430_3457)">
<path d="M21.25 16.25V12C21.25 10.75 21.6875 9.6875 22.5625 8.8125C23.4375 7.9375 24.5 7.5 25.75 7.5H34.25C35.5 7.5 36.5625 7.9375 37.4375 8.8125C38.3125 9.6875 38.75 10.75 38.75 12V16.25H49.25C50.5 16.25 51.5625 16.6875 52.4375 17.5625C53.3125 18.4375 53.75 19.5 53.75 20.75V46.75C53.75 48 53.3125 49.0625 52.4375 49.9375C51.5625 50.8125 50.5 51.25 49.25 51.25H10.75C9.5 51.25 8.4375 50.8125 7.5625 49.9375C6.6875 49.0625 6.25 48 6.25 46.75V20.75C6.25 19.5 6.6875 18.4375 7.5625 17.5625C8.4375 16.6875 9.5 16.25 10.75 16.25H21.25ZM25 16.25H35V12C35 11.8333 34.9167 11.6667 34.75 11.5C34.5833 11.3333 34.4167 11.25 34.25 11.25H25.75C25.5833 11.25 25.4167 11.3333 25.25 11.5C25.0833 11.6667 25 11.8333 25 12V16.25ZM50 36.875H36.25V41.25H23.75V36.875H10V46.75C10 46.9167 10.0833 47.0833 10.25 47.25C10.4167 47.4167 10.5833 47.5 10.75 47.5H49.25C49.4167 47.5 49.5833 47.4167 49.75 47.25C49.9167 47.0833 50 46.9167 50 46.75V36.875ZM27.5 37.5H32.5V32.5H27.5V37.5ZM10 33.125H23.75V28.75H36.25V33.125H50V20.75C50 20.5833 49.9167 20.4167 49.75 20.25C49.5833 20.0833 49.4167 20 49.25 20H10.75C10.5833 20 10.4167 20.0833 10.25 20.25C10.0833 20.4167 10 20.5833 10 20.75V33.125Z" fill="#6BCFCF"/>
</g>
</svg>
