<svg width="60" height="60" viewBox="0 0 60 60" fill="none" xmlns="http://www.w3.org/2000/svg">
<mask id="mask0_428_2934" style="mask-type:alpha" maskUnits="userSpaceOnUse" x="0" y="0" width="60" height="60">
<rect width="60" height="60" fill="#D9D9D9"/>
</mask>
<g mask="url(#mask0_428_2934)">
<path d="M48.5623 51.125C43.7289 51.125 38.9273 49.9683 34.1573 47.655C29.3856 45.3433 25.1248 42.3125 21.3748 38.5625C17.6248 34.8125 14.5939 30.5625 12.2823 25.8125C9.96892 21.0625 8.81226 16.25 8.81226 11.375C8.81226 10.625 9.06226 10 9.56226 9.5C10.0623 9 10.6873 8.75 11.4373 8.75H19.5623C20.2289 8.75 20.8014 8.9475 21.2798 9.3425C21.7598 9.73917 22.0623 10.25 22.1873 10.875L23.6248 18.25C23.7081 18.875 23.6873 19.4375 23.5623 19.9375C23.4373 20.4375 23.1664 20.875 22.7498 21.25L16.9998 26.875C18.9998 30.2083 21.3639 33.2292 24.0923 35.9375C26.8223 38.6458 29.9164 41 33.3748 43L38.9373 37.375C39.3539 36.9583 39.8439 36.6667 40.4073 36.5C40.9689 36.3333 41.5414 36.2917 42.1248 36.375L49.0623 37.8125C49.6873 37.9375 50.1981 38.2292 50.5948 38.6875C50.9898 39.1458 51.1873 39.7083 51.1873 40.375V48.5C51.1873 49.25 50.9373 49.875 50.4373 50.375C49.9373 50.875 49.3123 51.125 48.5623 51.125ZM15.2498 23.3125L19.6873 19.0625C19.7706 18.9792 19.8231 18.885 19.8448 18.78C19.8648 18.6767 19.8539 18.5833 19.8123 18.5L18.7498 12.875C18.7081 12.75 18.6456 12.6558 18.5623 12.5925C18.4789 12.5308 18.3748 12.5 18.2498 12.5H12.9373C12.8123 12.5 12.7181 12.5308 12.6548 12.5925C12.5931 12.6558 12.5623 12.7292 12.5623 12.8125C12.6873 14.5208 12.9689 16.26 13.4073 18.03C13.8439 19.8017 14.4581 21.5625 15.2498 23.3125ZM47.1248 47.25C47.2081 47.25 47.2814 47.2183 47.3448 47.155C47.4064 47.0933 47.4373 47.0208 47.4373 46.9375V41.6875C47.4373 41.5625 47.4064 41.4583 47.3448 41.375C47.2814 41.2917 47.1873 41.2292 47.0623 41.1875L41.8123 40.125C41.7289 40.0833 41.6456 40.0833 41.5623 40.125C41.4789 40.1667 41.3956 40.2083 41.3123 40.25L36.8748 44.75C38.5414 45.5417 40.2706 46.1458 42.0623 46.5625C43.8539 46.9792 45.5414 47.2083 47.1248 47.25Z" fill="#6BCFCF"/>
</g>
</svg>
