<svg width="60" height="60" viewBox="0 0 60 60" fill="none" xmlns="http://www.w3.org/2000/svg">
<mask id="mask0_430_3541" style="mask-type:alpha" maskUnits="userSpaceOnUse" x="0" y="0" width="60" height="60">
<rect width="60" height="60" fill="#D9D9D9"/>
</mask>
<g mask="url(#mask0_430_3541)">
<path d="M18 26.5624L30 6.81244L42 26.5624H18ZM43.75 54.0624C40.875 54.0624 38.4375 53.0624 36.4375 51.0624C34.4375 49.0624 33.4375 46.6249 33.4375 43.7499C33.4375 40.8749 34.4375 38.4374 36.4375 36.4374C38.4375 34.4374 40.875 33.4374 43.75 33.4374C46.625 33.4374 49.0625 34.4374 51.0625 36.4374C53.0625 38.4374 54.0625 40.8749 54.0625 43.7499C54.0625 46.6249 53.0625 49.0624 51.0625 51.0624C49.0625 53.0624 46.625 54.0624 43.75 54.0624ZM8.4375 52.8124V34.6874H26.5625V52.8124H8.4375ZM43.75 50.3124C45.5833 50.3124 47.1358 49.6774 48.4075 48.4074C49.6775 47.1358 50.3125 45.5833 50.3125 43.7499C50.3125 41.9166 49.6775 40.3641 48.4075 39.0924C47.1358 37.8224 45.5833 37.1874 43.75 37.1874C41.9167 37.1874 40.365 37.8224 39.095 39.0924C37.8233 40.3641 37.1875 41.9166 37.1875 43.7499C37.1875 45.5833 37.8233 47.1358 39.095 48.4074C40.365 49.6774 41.9167 50.3124 43.75 50.3124ZM12.1875 49.0624H22.8125V38.4374H12.1875V49.0624ZM24.625 22.8124H35.375L30 14.1249L24.625 22.8124Z" fill="#6BCFCF"/>
</g>
</svg>
