<svg width="103" height="102" viewBox="0 0 103 102" fill="none" xmlns="http://www.w3.org/2000/svg">
<path d="M44.375 74.625L80.125 38.875L72.25 31L44.375 59L30.5 45L22.75 52.875L44.375 74.625ZM51.5 102C44.4167 102 37.77 100.667 31.56 98C25.3533 95.3333 19.9583 91.7083 15.375 87.125C10.7917 82.5417 7.16667 77.1467 4.5 70.94C1.83333 64.73 0.5 58.0833 0.5 51C0.5 43.9167 1.83333 37.27 4.5 31.06C7.16667 24.8533 10.7917 19.4583 15.375 14.875C19.9583 10.2917 25.3533 6.66667 31.56 4C37.77 1.33333 44.4167 0 51.5 0C58.5833 0 65.23 1.33333 71.44 4C77.6467 6.66667 83.0417 10.2917 87.625 14.875C92.2083 19.4583 95.8333 24.8533 98.5 31.06C101.167 37.27 102.5 43.9167 102.5 51C102.5 58.0833 101.167 64.73 98.5 70.94C95.8333 77.1467 92.2083 82.5417 87.625 87.125C83.0417 91.7083 77.6467 95.3333 71.44 98C65.23 100.667 58.5833 102 51.5 102Z" fill="#6BCFCF"/>
</svg>
