<svg width="20" height="19" viewBox="0 0 20 19" fill="none" xmlns="http://www.w3.org/2000/svg">
<path d="M4.44444 13.3H12.2222V15.2H4.44444V13.3ZM4.44444 9.5H15.5556V11.4H4.44444V9.5ZM4.44444 5.7H15.5556V7.6H4.44444V5.7ZM17.7778 1.9H13.1333C12.6667 0.798 11.4444 0 10 0C8.55556 0 7.33333 0.798 6.86667 1.9H2.22222C2.06667 1.9 1.92222 1.9095 1.77778 1.938C1.34444 2.014 0.955555 2.204 0.655555 2.4605C0.455555 2.6315 0.288889 2.8405 0.177778 3.0685C0.0666668 3.287 0 3.534 0 3.8V17.1C0 17.3565 0.0666668 17.613 0.177778 17.841C0.288889 18.069 0.455555 18.2685 0.655555 18.449C0.955555 18.7055 1.34444 18.8955 1.77778 18.9715C1.92222 18.9905 2.06667 19 2.22222 19H17.7778C19 19 20 18.145 20 17.1V3.8C20 2.755 19 1.9 17.7778 1.9ZM10 1.6625C10.4556 1.6625 10.8333 1.9855 10.8333 2.375C10.8333 2.7645 10.4556 3.0875 10 3.0875C9.54444 3.0875 9.16667 2.7645 9.16667 2.375C9.16667 1.9855 9.54444 1.6625 10 1.6625ZM17.7778 17.1H2.22222V3.8H17.7778V17.1Z" fill="#6BCFCF"/>
</svg>
