<svg width="32" height="32" viewBox="0 0 32 32" fill="none" xmlns="http://www.w3.org/2000/svg">
<path fill-rule="evenodd" clip-rule="evenodd" d="M28.1906 6.55243L25.5469 3.80957L24.3719 5.02862L27.0154 7.77147L28.1906 6.55243ZM20.8469 6.24767H8.50951C6.8872 6.24767 5.57205 7.61214 5.57205 9.29529V23.3143C5.57205 24.9975 6.8872 26.3619 8.50951 26.3619H22.6093C24.2317 26.3619 25.5468 24.9975 25.5468 23.3143V11.7334L27.3093 9.90481V23.3143C27.3093 26.0074 25.205 28.1905 22.6093 28.1905H8.50951C5.91381 28.1905 3.80957 26.0074 3.80957 23.3143V9.29529C3.80957 6.60225 5.91381 4.4191 8.50951 4.4191H22.6093L20.8469 6.24767ZM23.4898 5.94368L12.3282 17.5238L14.972 20.2667L26.1336 8.68654L23.4898 5.94368ZM10.8596 21.7905V18.4381L14.0908 21.7905H10.8596Z" fill="#6BCFCF"/>
</svg>
