<svg width="28" height="29" viewBox="0 0 28 29" fill="none" xmlns="http://www.w3.org/2000/svg">
<mask id="mask0_598_6279" style="mask-type:alpha" maskUnits="userSpaceOnUse" x="0" y="0" width="28" height="29">
<rect y="0.666687" width="28" height="28" fill="#D9D9D9"/>
</mask>
<g mask="url(#mask0_598_6279)">
<path d="M17.5003 26.3333V24H22.167V12.3333H5.83366V17H3.50033V7.66667C3.50033 7.025 3.7286 6.47589 4.18516 6.01933C4.64249 5.562 5.19199 5.33333 5.83366 5.33333H7.00033V3H9.33366V5.33333H18.667V3H21.0003V5.33333H22.167C22.8087 5.33333 23.3582 5.562 23.8155 6.01933C24.272 6.47589 24.5003 7.025 24.5003 7.66667V24C24.5003 24.6417 24.272 25.1912 23.8155 25.6485C23.3582 26.1051 22.8087 26.3333 22.167 26.3333H17.5003ZM9.33366 28.6667L7.70033 27.0333L10.7045 24H1.16699V21.6667H10.7045L7.70033 18.6333L9.33366 17L15.167 22.8333L9.33366 28.6667ZM5.83366 10H22.167V7.66667H5.83366V10Z" fill="#6BCFCF"/>
</g>
</svg>
