<svg width="30" height="34" viewBox="0 0 30 34" fill="none" xmlns="http://www.w3.org/2000/svg">
<path d="M19.1667 26.8346C18 26.8346 17.0139 26.4319 16.2083 25.6263C15.4028 24.8207 15 23.8346 15 22.668C15 21.5013 15.4028 20.5152 16.2083 19.7096C17.0139 18.9041 18 18.5013 19.1667 18.5013C20.3333 18.5013 21.3194 18.9041 22.125 19.7096C22.9306 20.5152 23.3333 21.5013 23.3333 22.668C23.3333 23.8346 22.9306 24.8207 22.125 25.6263C21.3194 26.4319 20.3333 26.8346 19.1667 26.8346ZM3.33333 33.5013C2.41667 33.5013 1.63167 33.1752 0.978333 32.523C0.326111 31.8696 0 31.0846 0 30.168V6.83464C0 5.91797 0.326111 5.13352 0.978333 4.4813C1.63167 3.82797 2.41667 3.5013 3.33333 3.5013H5V0.167969H8.33333V3.5013H21.6667V0.167969H25V3.5013H26.6667C27.5833 3.5013 28.3683 3.82797 29.0217 4.4813C29.6739 5.13352 30 5.91797 30 6.83464V30.168C30 31.0846 29.6739 31.8696 29.0217 32.523C28.3683 33.1752 27.5833 33.5013 26.6667 33.5013H3.33333ZM3.33333 30.168H26.6667V13.5013H3.33333V30.168ZM3.33333 10.168H26.6667V6.83464H3.33333V10.168Z" fill="#6BCFCF"/>
</svg>
