<svg width="1280" height="530" viewBox="0 0 1280 530" fill="none" xmlns="http://www.w3.org/2000/svg">
<g clip-path="url(#clip0_1_36)">
<rect width="1280" height="530" fill="#0A0909"/>
<g opacity="0.3" filter="url(#filter0_f_1_36)">
<circle cx="1056" cy="412" r="312" fill="#41A9EF"/>
</g>
<g opacity="0.3" filter="url(#filter1_f_1_36)">
<circle cx="138" cy="418" r="204" fill="#41A9EF"/>
</g>
<path d="M1202.11 497.026L1221.5 305.715H1259.75C1283.4 305.715 1301.26 327.31 1296.58 350.535C1296.48 350.955 1296.43 351.428 1296.32 351.848C1286.86 396.195 1259.02 469.861 1268.53 497.026H1202.11Z" fill="#657285"/>
<path d="M1088.62 451.786C1096.5 413.114 1105.85 363.933 1112.58 329.202C1115.2 315.593 1127.13 305.715 1141 305.715H1234.69C1252.66 305.715 1266.32 321.899 1263.22 339.658L1240.63 473.014C1238 488.094 1224.13 498.55 1208.89 496.869L1113.84 486.412C1096.92 484.521 1085.2 468.495 1088.62 451.786Z" fill="#B8C1C9"/>
<path d="M1150.04 193.798C1151.09 191.853 1163.44 171.309 1196.44 186.652C1196.44 186.652 1179.52 180.452 1173.21 186.074C1173.21 186.074 1188.45 182.921 1195.91 190.172C1203.37 197.423 1200.69 215.603 1198.17 220.7C1195.65 225.849 1182.41 239.773 1176.1 238.355C1173.69 237.829 1171.32 236.41 1169.27 234.939C1169.59 238.039 1169.75 241.35 1169.69 244.922C1169.17 278.077 1142.69 297.308 1133.17 288.901C1127.08 283.489 1118.99 294.471 1118.99 294.471L1078.63 204.516C1078.63 204.516 1130.02 165.319 1150.04 193.798Z" fill="#14191F"/>
<path d="M1055.99 380.537C1064.45 386.422 1075.06 391.256 1088.36 394.304C1138.27 405.811 1157.34 363.671 1164.54 334.719C1157.77 330.831 1151.35 329.991 1147.62 329.518C1144 329.097 1140.22 328.835 1137.06 328.677C1131.44 324.368 1123.09 306.819 1121.25 279.549L1118.88 280.179L1079.58 290.951C1079.58 290.951 1081.37 303.456 1082.26 315.278C1082.94 324.526 1083.05 333.353 1081.31 335.508C1078.27 336.191 1076.43 336.611 1076.43 336.611C1076.43 336.611 1076.43 336.611 1076.43 336.664C1075.9 337.504 1064.5 356.262 1055.99 380.537Z" fill="#FBA993"/>
<path d="M1079.63 290.951C1079.63 290.951 1081.42 303.456 1082.31 315.278C1104.59 313.071 1114.94 291.844 1118.94 280.179L1079.63 290.951Z" fill="#EF6343"/>
<path d="M1067.5 295.259C1067.5 295.259 1118.94 307.922 1126.29 275.766C1133.65 243.609 1145.26 223.59 1112.74 214.185C1080.21 204.779 1071.02 215.551 1065.92 225.692C1060.87 235.78 1054.31 291.161 1067.5 295.259Z" fill="#FBA993"/>
<path d="M1071.54 208.142C1081.73 200.313 1087.25 203.781 1089.98 207.459C1121.72 198.369 1139.69 224.798 1139.69 224.798C1137.85 248.653 1146.47 266.36 1146.47 266.36C1146.47 266.36 1135.75 270.038 1115.31 259.477C1109.06 256.272 1104.22 250.177 1100.49 243.346C1105.9 260.055 1115.42 273.401 1115.42 273.401C1092.3 255.484 1090.14 217.075 1089.98 213.029C1086.2 215.13 1078.58 219.859 1075.32 225.481C1070.86 233.1 1065.87 249.652 1061.08 247.97C1061.08 247.97 1056.25 219.912 1071.54 208.142Z" fill="#14191F"/>
<path d="M1055.99 340.709C1063.19 336.874 1072.43 334.036 1082.47 331.987C1082.47 331.987 1087.67 345.333 1103.44 345.018C1118.46 344.755 1133.28 328.151 1134.7 326.522C1151.88 325.944 1164.54 326.522 1164.54 326.522C1164.54 326.522 1200.75 383.164 1196.28 396.3C1193.34 404.97 1191.03 413.482 1189.19 421.784C1180.78 460.456 1183.41 494.084 1185.56 509.847C1186.4 515.942 1187.14 519.357 1187.14 519.357L1073.12 521.984C1073.12 521.984 1063.66 488.357 1056.67 459.668C1056.46 458.827 1056.25 457.934 1056.04 457.093C1051.31 466.866 1037.81 481.578 1031.71 482.734C1031.35 482.787 1029.66 482.839 1027.19 482.839C1018.05 482.892 1000.4 483.05 1000.4 483.05C996.982 455.99 1041.17 347.12 1055.99 340.709Z" fill="url(#paint0_linear_1_36)"/>
<path d="M1185.56 509.795C1183.41 494.032 1180.73 460.351 1189.19 421.732C1189.13 421.259 1189.13 421.049 1189.13 421.049C1189.13 421.049 1157.92 450.841 1152.56 481.999C1148.83 503.279 1171.32 508.849 1185.56 509.795Z" fill="#3A6262"/>
<path d="M1096.87 482.84C1097.5 480.79 1108.11 469.389 1113.73 468.127C1119.36 466.814 1137.85 471.07 1137.85 471.07C1149.36 469.546 1175.52 465.448 1206.21 456.515C1211.62 454.939 1217.14 453.205 1222.76 451.366L1176.05 409.226L1134.75 326.47C1134.75 326.47 1167.01 329.045 1175.89 334.299C1207.79 353.32 1269.68 458.985 1268.58 481.999C1268.58 481.999 1253.6 482.84 1226.23 483.155C1205.21 483.418 1177.05 484.206 1142.58 483.313C1142.58 483.313 1138.74 483.996 1134.75 483.47L1096.87 482.84Z" fill="#FBA993"/>
<path d="M1155.56 389.89L1217.24 451.839C1213.2 453.363 1208.94 455.57 1206.16 456.515C1206.16 456.515 1209.94 472.699 1226.18 483.155C1253.55 482.787 1268.89 482.787 1268.89 482.787C1270 459.773 1210.52 347.96 1178.62 328.94C1169.75 323.633 1134.7 326.417 1134.7 326.417L1155.56 389.89Z" fill="url(#paint1_linear_1_36)"/>
<path d="M1000.4 483.05C1002.87 483.05 1031.35 482.787 1031.71 482.735C1037.81 481.579 1051.26 466.866 1056.04 457.093C1056.25 457.934 1054.52 447.846 1052.94 443.747C1049.47 434.92 1044.9 427.406 1044.9 427.406C1028.51 424.884 1000.34 467.497 1000.4 483.05Z" fill="#3A6262"/>
<path d="M1001.34 457.356C1004.97 429.823 1012.74 382.219 1027.98 327.363H1028.09C1028.98 323.895 1036.07 296.888 1039.02 293.893C1042.17 290.74 1058.88 284.12 1061.72 283.384C1061.72 283.384 1062.19 285.276 1060.45 286.799C1059.93 287.22 1058.98 287.903 1057.83 288.691L1061.77 290.793C1061.77 290.793 1060.3 292.106 1058.09 291.739C1057.04 291.581 1055.62 291.213 1054.41 290.845C1053.57 291.371 1052.78 291.844 1052.05 292.264C1050.79 293.42 1049.32 294.944 1049.21 295.469C1049.05 296.1 1048.53 298.884 1048.21 300.618C1048.84 300.093 1049.37 299.515 1049.68 298.99C1051.26 296.52 1054.57 296.783 1054.57 296.783C1054.57 296.783 1050.05 302.457 1049.63 306.136C1049 311.758 1045.85 314.7 1045.85 314.7C1044.69 316.066 1043.06 317.275 1041.7 320.112C1040.7 322.214 1040.28 326.155 1040.02 328.467C1039.33 336.768 1037.02 367.296 1037.65 389.785C1038.49 420.05 1041.38 447.215 1037.97 464.029C1037.07 468.39 1035.81 472.068 1033.92 474.905C1026.51 486.307 1000.4 482.945 1000.4 482.945C1000.4 482.945 999.241 473.224 1001.34 457.356Z" fill="#FBA993"/>
<path d="M1000.4 483.05C1000.4 483.05 1026.46 486.36 1033.92 475.011C1035.76 472.173 1037.07 468.495 1037.97 464.134C1032.4 465.553 1017.05 467.917 1001.4 457.356C999.241 473.224 1000.4 483.05 1000.4 483.05Z" fill="url(#paint2_linear_1_36)"/>
<path d="M1079.95 475.326C1084.1 475.326 1087.46 478.688 1087.46 482.839H993.199V475.326H1079.95Z" fill="#14191F"/>
<path d="M993.462 380.117H847.653L882.595 482.839H1029.35L993.462 380.117Z" fill="#14191F"/>
<path d="M991.307 380.117L1027.25 482.84H880.44L845.499 380.117H991.307Z" fill="#14191F"/>
<path d="M929.569 423.413C933.509 423.413 937.398 426.618 938.291 430.506C939.184 434.447 936.767 437.599 932.826 437.599C928.886 437.599 924.997 434.394 924.104 430.506C923.211 426.618 925.628 423.413 929.569 423.413Z" fill="url(#paint3_linear_1_36)"/>
<path d="M854.851 565.228H1372.46L1359.11 523.403C1351.34 499.075 1330.95 482.839 1308.04 482.839H904.137C887.323 482.839 872.506 495.45 867.882 513.788L854.851 565.228Z" fill="#323232"/>
<path d="M751.446 565.228H1250.66L1251.61 544.158C1253.13 510.845 1229.7 482.839 1200.22 482.839H800.732C783.918 482.839 769.1 495.45 764.477 513.788L751.446 565.228Z" fill="#657285"/>
<g style="mix-blend-mode:overlay">
<path d="M188.286 527.954C184.987 527.954 182.313 530.627 182.313 533.924C182.313 535.143 182.682 536.269 183.307 537.211L169.938 550.574V525.24L179.291 515.891V486.113L187.712 477.696C187.784 477.696 187.845 477.737 187.927 477.737C188.993 477.737 189.864 476.866 189.864 475.791C189.864 474.716 188.993 473.846 187.927 473.846C186.862 473.846 185.981 474.716 185.981 475.791C185.981 475.863 186.012 475.935 186.022 476.006L179.291 482.724V464.322C182.016 463.769 184.075 461.363 184.075 458.475C184.075 455.178 181.391 452.505 178.103 452.505C174.814 452.505 172.13 455.188 172.13 458.475C172.13 461.363 174.189 463.769 176.904 464.322V514.888L167.561 524.237V572.068L160.134 580.526L151.631 572.027V525.23L170.245 506.624V481.556C172.827 480.901 174.732 478.577 174.732 475.791C174.732 472.494 172.058 469.821 168.76 469.821C165.461 469.821 162.787 472.504 162.787 475.791C162.787 478.771 164.99 481.239 167.858 481.679V505.641L151.631 521.861V472.77H149.244V502.958L142.523 496.251C142.533 496.179 142.564 496.118 142.564 496.036C142.564 494.971 141.693 494.09 140.618 494.09C139.542 494.09 138.671 494.961 138.671 496.036C138.671 497.111 139.542 497.971 140.618 497.971C140.7 497.971 140.761 497.94 140.833 497.93L149.233 506.337V573.021L167.561 591.34V607.478L152.163 592.077C152.297 591.821 152.378 591.545 152.378 591.227C152.378 590.152 151.508 589.282 150.432 589.292C149.356 589.292 148.486 590.162 148.486 591.238C148.486 592.067 148.998 592.753 149.725 593.03L167.561 610.858V626.883L141.273 601.089V544.686L130.855 534.272V515.287L130.967 515.174L130.855 515.062V493.425C133.58 492.872 135.629 490.455 135.629 487.578C135.629 484.28 132.944 481.597 129.656 481.608C126.357 481.608 123.683 484.28 123.683 487.578C123.683 490.465 125.742 492.872 128.468 493.425V512.676L121.86 506.071C121.87 505.999 121.911 505.938 121.911 505.866C121.911 504.791 121.04 503.921 119.975 503.921C118.909 503.921 118.028 504.791 118.028 505.866C118.028 506.941 118.899 507.802 119.975 507.802C120.046 507.802 120.108 507.771 120.18 507.761L128.478 516.055V535.276L138.897 545.69V579.421L122.085 562.606C122.085 562.535 122.126 562.473 122.126 562.402C122.126 561.326 121.255 560.456 120.18 560.456C119.104 560.456 118.233 561.326 118.233 562.402C118.233 563.477 119.104 564.337 120.18 564.347C120.251 564.347 120.313 564.306 120.385 564.306L138.886 582.8V602.102L158.023 620.883L150.453 628.081L115.344 593.46V596.818L150.422 631.42L159.724 622.572L167.561 630.262V644.23H169.948V609.977L169.989 609.936L169.948 609.895V590.377L161.824 582.257L169.948 573V553.892L169.989 553.933L185.008 538.921C185.95 539.546 187.087 539.914 188.296 539.914C191.595 539.914 194.269 537.242 194.269 533.945C194.269 530.647 191.585 527.964 188.296 527.975L188.286 527.954ZM174.507 458.486C174.507 456.509 176.115 454.902 178.093 454.902C180.07 454.902 181.678 456.509 181.678 458.486C181.678 460.042 180.674 461.353 179.291 461.855V459.981C179.732 459.632 180.039 459.1 180.039 458.486C180.039 457.41 179.168 456.54 178.103 456.54C177.037 456.54 176.156 457.41 176.156 458.486C176.156 459.1 176.464 459.622 176.904 459.981V461.855C175.521 461.363 174.517 460.042 174.517 458.486H174.507ZM165.154 475.802C165.154 473.825 166.762 472.217 168.739 472.217C170.716 472.217 172.335 473.825 172.335 475.802C172.335 477.245 171.464 478.484 170.235 479.058V477.01C170.512 476.682 170.686 476.273 170.686 475.812C170.686 474.737 169.815 473.866 168.739 473.866C167.663 473.866 166.803 474.737 166.803 475.812C166.803 476.559 167.233 477.174 167.848 477.501V479.273C166.311 478.863 165.164 477.481 165.164 475.812L165.154 475.802ZM128.437 489.062V490.936C127.054 490.445 126.05 489.124 126.05 487.567C126.05 485.601 127.658 483.983 129.635 483.983C131.613 483.983 133.221 485.591 133.221 487.567C133.221 489.124 132.227 490.445 130.834 490.936V489.062C131.275 488.704 131.582 488.182 131.582 487.567C131.582 486.492 130.711 485.622 129.635 485.622C128.56 485.622 127.689 486.492 127.689 487.567C127.689 488.182 127.996 488.704 128.437 489.062V489.062ZM188.276 537.508C187.722 537.508 187.21 537.375 186.739 537.15L188.061 535.829C188.132 535.829 188.194 535.87 188.276 535.87C189.351 535.87 190.212 534.999 190.212 533.924C190.212 532.849 189.341 531.978 188.276 531.978C187.21 531.978 186.329 532.849 186.329 533.924C186.329 533.996 186.36 534.057 186.37 534.129L185.038 535.45C184.813 534.989 184.68 534.467 184.68 533.914C184.68 531.937 186.288 530.33 188.265 530.33C190.243 530.33 191.851 531.937 191.851 533.914C191.851 535.89 190.243 537.498 188.265 537.498L188.276 537.508Z" fill="#78BCED"/>
<path d="M191.605 493.578C194.904 493.578 197.578 496.251 197.578 499.548C197.578 500.767 197.209 501.893 196.584 502.835L209.953 516.198V490.865L200.6 481.515V451.737L192.179 443.32C192.107 443.32 192.046 443.361 191.964 443.361C190.898 443.361 190.017 442.491 190.017 441.415C190.017 440.34 190.888 439.47 191.964 439.47C193.039 439.47 193.91 440.34 193.91 441.415C193.91 441.497 193.88 441.559 193.869 441.63L200.6 448.358V429.957C197.875 429.404 195.816 426.987 195.816 424.099C195.816 420.802 198.5 418.13 201.788 418.13C205.077 418.13 207.761 420.812 207.761 424.099C207.761 426.987 205.702 429.394 202.987 429.957V480.522L212.33 489.871V537.703L219.758 546.161L228.261 537.662V490.865L209.646 472.248V447.181C207.064 446.515 205.159 444.201 205.159 441.415C205.159 438.118 207.833 435.445 211.132 435.445C214.43 435.445 217.104 438.118 217.104 441.415C217.104 444.395 214.902 446.863 212.033 447.303V471.265L228.261 487.485V438.395H230.648V468.582L237.358 461.865C237.348 461.793 237.317 461.732 237.317 461.66C237.317 460.585 238.188 459.714 239.263 459.714C240.329 459.714 241.21 460.585 241.21 461.66C241.21 462.735 240.339 463.595 239.263 463.606C239.181 463.606 239.12 463.565 239.048 463.565L230.648 471.972V538.655L212.32 556.974V573.113L227.718 557.712C227.584 557.456 227.502 557.179 227.502 556.862C227.502 555.787 228.373 554.926 229.449 554.926C230.525 554.926 231.385 555.797 231.385 556.862C231.385 557.691 230.873 558.377 230.156 558.664L212.32 576.492V592.518L238.608 566.723V510.321L249.026 499.907V480.922L248.914 480.809L249.026 480.696V459.059C246.301 458.506 244.252 456.1 244.252 453.212C244.252 449.915 246.937 447.242 250.225 447.242C253.514 447.242 256.198 449.925 256.198 453.212C256.198 456.1 254.139 458.506 251.413 459.059V478.3L258.021 471.695C258.021 471.624 257.97 471.562 257.97 471.49C257.97 470.415 258.841 469.545 259.916 469.545C260.992 469.545 261.863 470.405 261.863 471.49C261.863 472.576 260.992 473.426 259.916 473.436C259.845 473.436 259.783 473.395 259.712 473.395L251.413 481.69V500.91L240.995 511.324V545.055L257.806 528.251C257.806 528.179 257.765 528.118 257.765 528.046C257.765 526.971 258.636 526.101 259.712 526.101C260.787 526.101 261.658 526.971 261.658 528.046C261.658 529.121 260.787 529.982 259.712 529.992C259.64 529.992 259.578 529.961 259.507 529.951L241.005 548.444V567.747L221.858 586.527L229.428 593.726L264.537 559.104V562.463L229.459 597.064L220.157 588.217L212.32 595.907V609.874H209.933V575.621L209.892 575.581L209.933 575.54V556.022L218.057 547.902L209.933 538.645V519.537L209.892 519.578L194.873 504.566C193.931 505.19 192.794 505.559 191.585 505.559C188.286 505.559 185.612 502.886 185.612 499.589C185.612 496.292 188.296 493.609 191.585 493.619L191.605 493.578ZM205.384 424.11C205.384 422.144 203.776 420.526 201.799 420.526C199.821 420.526 198.213 422.133 198.213 424.11C198.213 425.666 199.217 426.977 200.6 427.479V425.605C200.16 425.246 199.852 424.724 199.852 424.11C199.852 423.035 200.723 422.164 201.799 422.164C202.874 422.164 203.745 423.035 203.745 424.11C203.745 424.724 203.438 425.246 202.997 425.605V427.479C204.38 426.987 205.384 425.676 205.384 424.11V424.11ZM214.738 441.426C214.738 439.449 213.129 437.842 211.152 437.842C209.175 437.842 207.566 439.449 207.566 441.426C207.566 442.869 208.437 444.109 209.667 444.682V442.634C209.39 442.306 209.216 441.897 209.216 441.426C209.216 440.35 210.087 439.48 211.162 439.48C212.238 439.48 213.109 440.35 213.109 441.426C213.109 442.173 212.678 442.788 212.064 443.125V444.887C213.6 444.487 214.748 443.095 214.748 441.426H214.738ZM251.454 454.687V456.56C252.837 456.069 253.841 454.758 253.841 453.202C253.841 451.225 252.233 449.618 250.256 449.618C248.279 449.618 246.67 451.225 246.67 453.202C246.67 454.758 247.664 456.069 249.057 456.56V454.687C248.617 454.328 248.309 453.806 248.309 453.191C248.309 452.116 249.18 451.246 250.256 451.246C251.331 451.246 252.202 452.116 252.202 453.191C252.202 453.806 251.895 454.328 251.465 454.687H251.454ZM191.615 503.132C192.169 503.132 192.681 502.999 193.152 502.774L191.831 501.453C191.759 501.453 191.697 501.494 191.615 501.494C190.54 501.494 189.669 500.623 189.669 499.548C189.669 498.473 190.54 497.603 191.615 497.603C192.691 497.603 193.562 498.473 193.562 499.548C193.562 499.62 193.531 499.681 193.521 499.753L194.843 501.084C195.068 500.613 195.201 500.091 195.201 499.548C195.201 497.572 193.593 495.964 191.615 495.964C189.638 495.964 188.03 497.572 188.03 499.548C188.03 501.524 189.638 503.132 191.615 503.132Z" fill="#78BCED"/>
<path d="M257.038 562.699C260.336 562.699 263.01 565.371 263.01 568.669C263.01 569.887 262.642 571.013 262.017 571.956L275.386 585.319V559.985L266.043 550.636V520.858L257.622 512.44C257.55 512.44 257.488 512.481 257.407 512.481C256.341 512.481 255.47 511.611 255.47 510.536C255.47 509.461 256.341 508.59 257.407 508.59C258.472 508.59 259.353 509.461 259.353 510.536C259.353 510.607 259.322 510.679 259.312 510.751L266.043 517.479V499.077C263.318 498.524 261.259 496.108 261.259 493.23C261.259 489.933 263.943 487.26 267.231 487.26C270.52 487.26 273.204 489.943 273.204 493.23C273.204 496.118 271.155 498.524 268.43 499.077V549.643L277.783 558.992V606.823L285.21 615.281L293.714 606.782V559.985L275.099 541.369V516.301C272.528 515.635 270.612 513.311 270.612 510.536C270.612 507.238 273.286 504.566 276.584 504.566C279.883 504.566 282.557 507.238 282.557 510.536C282.557 513.516 280.355 515.983 277.486 516.424V540.385L293.714 556.606V507.515H296.111V537.703L302.821 530.985C302.821 530.913 302.78 530.852 302.78 530.78C302.78 529.705 303.651 528.835 304.716 528.835C305.782 528.835 306.663 529.705 306.663 530.78C306.663 531.856 305.792 532.726 304.716 532.726C304.634 532.726 304.573 532.695 304.501 532.685L296.101 541.082V607.765L277.773 626.084V642.223L293.171 626.822C293.037 626.566 292.955 626.289 292.955 625.972C292.955 624.897 293.816 624.026 294.892 624.026C295.967 624.026 296.838 624.897 296.838 625.972C296.838 626.801 296.326 627.487 295.599 627.774L277.763 645.602V661.617L304.05 635.823V579.431L314.469 569.017V550.032L314.356 549.919L314.469 549.806V528.169C311.744 527.616 309.695 525.2 309.695 522.322C309.695 519.025 312.379 516.342 315.668 516.352C318.967 516.352 321.651 519.025 321.64 522.322C321.64 525.21 319.581 527.616 316.856 528.179V547.42L323.464 540.816C323.464 540.744 323.423 540.682 323.423 540.611C323.423 539.536 324.294 538.665 325.369 538.665C326.445 538.665 327.316 539.536 327.316 540.611C327.316 541.686 326.445 542.556 325.369 542.556C325.298 542.556 325.226 542.526 325.154 542.515L316.856 550.8V570.02L306.437 580.434V614.165L323.249 597.361C323.239 597.289 323.208 597.228 323.208 597.146C323.208 596.081 324.079 595.2 325.154 595.2C326.23 595.2 327.101 596.071 327.101 597.146C327.101 598.221 326.23 599.081 325.154 599.092C325.072 599.092 325.011 599.061 324.939 599.051L306.437 617.544V636.847L287.3 655.627L294.871 662.826L330 628.194V631.553L294.912 666.154L285.61 657.306L277.773 664.997V678.964H275.376V644.711L275.335 644.67L275.376 644.629V625.112L283.5 616.991L275.376 607.734V588.626L275.335 588.667L260.316 573.655C259.373 574.28 258.236 574.649 257.027 574.649C253.729 574.649 251.055 571.976 251.055 568.679C251.055 565.381 253.739 562.709 257.027 562.709L257.038 562.699ZM270.817 493.23C270.817 491.254 269.208 489.646 267.231 489.646C265.254 489.646 263.646 491.254 263.646 493.23C263.646 494.787 264.649 496.097 266.043 496.599V494.725C265.602 494.367 265.295 493.844 265.295 493.23C265.295 492.155 266.166 491.284 267.241 491.284C268.317 491.284 269.178 492.155 269.178 493.23C269.178 493.844 268.87 494.367 268.43 494.725V496.589C269.813 496.097 270.817 494.787 270.817 493.23V493.23ZM280.17 510.546C280.17 508.57 278.562 506.962 276.584 506.962C274.607 506.962 272.989 508.57 272.989 510.546C272.989 511.99 273.859 513.229 275.089 513.802V511.754C274.812 511.427 274.638 511.017 274.638 510.546C274.638 509.471 275.509 508.6 276.584 508.6C277.66 508.6 278.521 509.471 278.521 510.546C278.521 511.294 278.09 511.908 277.476 512.236V514.007C279.012 513.598 280.16 512.215 280.16 510.546H280.17ZM316.887 523.807V525.681C318.27 525.189 319.274 523.879 319.274 522.312C319.274 520.335 317.665 518.728 315.688 518.728C313.711 518.728 312.103 520.335 312.103 522.312C312.103 523.868 313.096 525.179 314.49 525.681V523.807C314.049 523.448 313.752 522.926 313.752 522.312C313.752 521.237 314.613 520.366 315.688 520.366C316.764 520.366 317.635 521.237 317.635 522.312C317.635 522.926 317.327 523.448 316.887 523.807V523.807ZM257.048 572.253C257.601 572.253 258.113 572.119 258.585 571.894L257.263 570.573C257.191 570.573 257.13 570.614 257.048 570.614C255.972 570.614 255.101 569.744 255.101 568.669C255.101 567.593 255.972 566.723 257.048 566.723C258.124 566.723 258.994 567.593 258.994 568.669C258.994 568.74 258.953 568.802 258.953 568.873L260.285 570.205C260.511 569.744 260.644 569.221 260.644 568.669C260.644 566.692 259.035 565.085 257.058 565.085C255.081 565.085 253.473 566.692 253.473 568.669C253.473 570.645 255.081 572.253 257.058 572.253H257.048Z" fill="#78BCED"/>
<path d="M70.7493 410.767C70.3497 410.45 70.0731 409.968 70.0731 409.415C70.0731 408.442 70.862 407.664 71.825 407.664C72.7879 407.664 73.5768 408.453 73.5768 409.415C73.5768 409.968 73.3002 410.45 72.9006 410.767V539.044L64.0698 547.871V570.338L79.826 554.588V435.824C79.4265 435.507 79.1499 435.026 79.1499 434.473C79.1499 433.5 79.9387 432.722 80.9017 432.722C81.8647 432.722 82.6535 433.51 82.6535 434.473C82.6535 435.026 82.3769 435.507 81.9774 435.824V501.719L88.2164 495.493V462.786C87.8168 462.469 87.5402 461.998 87.5402 461.435C87.5402 460.462 88.329 459.684 89.292 459.684C90.255 459.684 91.0439 460.472 91.0439 461.435C91.0439 461.988 90.7673 462.459 90.3677 462.786V496.394L81.9774 504.781V555.49L64.0595 573.399V581.663H61.8979V546.98L70.7288 538.153V410.767H70.7493Z" fill="#78BCED"/>
<path d="M97.0472 400.783L88.0319 382.535L97.6004 372.971C96.9858 372.101 96.617 371.036 96.617 369.889C96.617 366.909 99.0449 364.492 102.016 364.492C104.987 364.492 107.415 366.919 107.415 369.889C107.415 372.858 104.987 375.285 102.016 375.285C100.971 375.285 99.9977 374.968 99.1679 374.456L90.6546 382.965L98.4303 398.694L111.175 385.955C110.785 385.218 110.55 384.389 110.55 383.498C110.55 380.518 112.967 378.101 115.949 378.101C118.93 378.101 121.348 380.528 121.348 383.498C121.348 386.467 118.92 388.894 115.949 388.894C114.648 388.894 113.459 388.413 112.527 387.645L99.1986 400.967V423.393L102.108 420.495C101.545 419.635 101.207 418.621 101.207 417.515C101.207 414.535 103.624 412.119 106.605 412.119C109.587 412.119 112.004 414.546 112.004 417.515C112.004 420.485 109.587 422.912 106.605 422.912C105.509 422.912 104.485 422.574 103.624 422.011L99.1884 426.444V448.368L101.821 445.737C101.258 444.887 100.93 443.863 100.93 442.767C100.93 439.787 103.348 437.371 106.329 437.371C109.31 437.371 111.728 439.787 111.728 442.767C111.728 445.747 109.31 448.164 106.329 448.164C105.233 448.164 104.208 447.826 103.358 447.263L99.1884 451.42V512.236L90.4087 521.011V561.419L105.714 546.12V485.683L140.71 450.703V387.02C138.251 386.519 136.387 384.337 136.387 381.726C136.387 378.746 138.804 376.33 141.786 376.33C144.767 376.33 147.184 378.757 147.184 381.726C147.184 384.337 145.33 386.519 142.861 387.02V451.604L107.866 486.584V547.031L90.4087 564.48V580.998L91.0439 581.632H88.2471V520.12L97.0267 511.345V400.783H97.0472ZM99.1781 371.404L101.452 369.131L102.979 370.657L100.756 372.879C101.145 373.043 101.575 373.135 102.026 373.135C103.819 373.135 105.263 371.681 105.263 369.899C105.263 368.117 103.809 366.663 102.026 366.663C100.244 366.663 98.7888 368.117 98.7888 369.899C98.7888 370.452 98.9425 370.954 99.1781 371.404V371.404ZM112.834 384.317L114.904 382.238L116.43 383.764L114.064 386.129C114.596 386.519 115.242 386.754 115.959 386.754C117.741 386.754 119.196 385.3 119.196 383.508C119.196 381.716 117.741 380.272 115.959 380.272C114.176 380.272 112.711 381.726 112.711 383.508C112.711 383.784 112.762 384.051 112.824 384.317H112.834ZM103.706 418.928L104.905 417.73C104.905 417.669 104.864 417.607 104.864 417.536C104.864 416.563 105.653 415.785 106.616 415.785C107.579 415.785 108.368 416.573 108.368 417.536C108.368 418.498 107.579 419.287 106.616 419.287C106.544 419.287 106.493 419.256 106.431 419.246L105.233 420.444C105.653 420.638 106.124 420.772 106.626 420.772C108.409 420.772 109.863 419.317 109.863 417.525C109.863 415.733 108.409 414.29 106.626 414.29C104.843 414.29 103.378 415.744 103.378 417.525C103.378 418.027 103.501 418.488 103.706 418.918V418.928ZM103.43 444.17L104.628 442.972C104.628 442.91 104.587 442.849 104.587 442.788C104.587 441.815 105.376 441.026 106.339 441.026C107.302 441.026 108.091 441.815 108.091 442.788C108.091 443.76 107.302 444.539 106.339 444.539C106.267 444.539 106.216 444.508 106.144 444.498L104.946 445.696C105.376 445.901 105.837 446.023 106.339 446.023C108.122 446.023 109.576 444.569 109.576 442.788C109.576 441.006 108.122 439.542 106.339 439.542C104.557 439.542 103.092 440.996 103.092 442.788C103.092 443.289 103.215 443.75 103.419 444.17H103.43ZM142.882 383.109V384.798C144.142 384.348 145.043 383.16 145.043 381.757C145.043 379.975 143.589 378.521 141.806 378.521C140.023 378.521 138.558 379.975 138.558 381.757C138.558 383.16 139.46 384.358 140.72 384.798V383.109C140.321 382.791 140.044 382.31 140.044 381.757C140.044 380.784 140.833 380.006 141.796 380.006C142.759 380.006 143.548 380.794 143.548 381.757C143.548 382.31 143.271 382.791 142.871 383.109H142.882Z" fill="#78BCED"/>
<path d="M-12.5293 476.539C-9.54816 476.539 -7.1304 478.966 -7.1304 481.935C-7.1304 483.041 -7.45826 484.055 -8.02171 484.915L4.05672 496.998V474.091L-4.3951 465.643V438.722L-12.0069 431.114C-12.0683 431.114 -12.1298 431.145 -12.2015 431.145C-13.1748 431.145 -13.9533 430.366 -13.9533 429.394C-13.9533 428.421 -13.1645 427.643 -12.2015 427.643C-11.2385 427.643 -10.4497 428.431 -10.4497 429.394C-10.4497 429.465 -10.4804 429.516 -10.4906 429.588L-4.41558 435.671V419.041C-6.87429 418.539 -8.73882 416.358 -8.73882 413.747C-8.73882 410.767 -6.31085 408.34 -3.33991 408.34C-0.368963 408.34 2.05904 410.767 2.05904 413.747C2.05904 416.358 0.19451 418.539 -2.2642 419.041V464.763L6.18762 473.211V516.455L12.9081 524.104L20.6018 516.414V474.112L3.76987 457.288V434.626C1.44434 434.022 -0.286995 431.923 -0.286995 429.414C-0.286995 426.434 2.14097 424.018 5.11192 424.018C8.08286 424.018 10.5109 426.434 10.5109 429.414C10.5109 432.107 8.51314 434.34 5.92125 434.729V456.397L20.5916 471.06V420.393H29.5966V414.269H12.3037V403.742H38.2431V397.527H4.02599V386.549H47.9652V380.159H-4.97906V369.622H38.2431V362.127H3.66742V351.754H30.6825V344.923H12.3139V334.335H20.9604V314.111C18.8192 313.548 17.2313 311.613 17.2313 309.298C17.2313 306.544 19.4749 304.301 22.2307 304.301C24.9865 304.301 27.2301 306.544 27.2301 309.298C27.2301 311.746 25.4578 313.783 23.1322 314.203V336.496H14.4858V342.763H32.8544V353.914H5.83928V359.966H40.4149V371.773H-2.80717V377.989H50.1371V388.7H6.19785V395.356H40.4149V405.882H14.4755V412.088H31.7582V422.533H22.7532V453.959L28.8282 447.887C28.8282 447.826 28.7873 447.764 28.7873 447.693C28.7873 446.73 29.5761 445.942 30.5391 445.942C31.5021 445.942 32.2909 446.73 32.2909 447.693C32.2909 448.655 31.5021 449.454 30.5391 449.454C30.4674 449.454 30.4162 449.423 30.3547 449.413L22.7532 457.011V517.304L6.18762 533.863V548.455L20.1203 534.528C20.0076 534.293 19.9257 534.047 19.9257 533.76C19.9257 532.798 20.7145 532.009 21.6775 532.009C22.6405 532.009 23.4293 532.798 23.4293 533.76C23.4293 534.508 22.9581 535.132 22.3127 535.388L6.18762 551.506V565.996L29.9552 542.669V491.684L39.37 482.263V465.101L39.2675 464.998L39.37 464.896V445.337C36.9113 444.836 35.0467 442.654 35.0467 440.043C35.0467 437.063 37.4645 434.647 40.4457 434.647C43.4268 434.647 45.8446 437.074 45.8446 440.043C45.8446 442.654 43.9801 444.825 41.5214 445.337V462.735L47.494 456.765C47.494 456.704 47.453 456.642 47.453 456.571C47.453 455.598 48.2418 454.82 49.2048 454.82C50.1678 454.82 50.9567 455.608 50.9567 456.571C50.9567 457.533 50.1678 458.322 49.2048 458.322C49.1434 458.322 49.0819 458.291 49.0204 458.281L41.5214 465.777V483.154L32.0963 492.575V523.07L47.2993 507.873C47.2993 507.812 47.2584 507.75 47.2584 507.679C47.2584 506.706 48.0472 505.917 49.0102 505.917C49.9732 505.917 50.762 506.706 50.762 507.679C50.762 508.652 49.9732 509.43 49.0102 509.43C48.9487 509.43 48.8873 509.399 48.8258 509.399L32.0963 526.121V543.57L14.7931 560.548L21.6365 567.061L55.8638 533.31V353.279L38.366 335.861V306.902C36.061 306.462 34.2989 304.434 34.2989 301.997C34.2989 299.243 36.5425 297 39.2983 297C42.0541 297 44.2976 299.243 44.2976 301.997C44.2976 304.322 42.6892 306.267 40.5276 306.82V334.95L58.0255 352.368V534.201L21.6673 570.061L13.2462 562.064L6.15689 569.017V581.653H3.99525V550.687L3.95427 550.646L3.99525 550.605V532.961L11.3407 525.619L3.99525 517.253V499.978L3.95427 500.009L-9.61987 486.441C-10.4804 487.004 -11.4946 487.342 -12.6011 487.342C-15.5823 487.342 -18 484.915 -18 481.935C-18 478.955 -15.5823 476.539 -12.6011 476.539H-12.5293ZM-0.0718666 413.737C-0.0718666 411.955 -1.52661 410.501 -3.30918 410.501C-5.09174 410.501 -6.55671 411.955 -6.55671 413.737C-6.55671 415.139 -5.65519 416.327 -4.3951 416.778V415.088C-4.79464 414.761 -5.07125 414.29 -5.07125 413.737C-5.07125 412.764 -4.28239 411.975 -3.3194 411.975C-2.3564 411.975 -1.56757 412.764 -1.56757 413.737C-1.56757 414.29 -1.84418 414.761 -2.24372 415.088V416.778C-0.983634 416.327 -0.0821213 415.15 -0.0821213 413.737H-0.0718666ZM8.37996 429.394C8.37996 427.612 6.92522 426.158 5.14265 426.158C3.36008 426.158 1.90534 427.612 1.90534 429.394C1.90534 430.704 2.68394 431.82 3.8006 432.332V430.479C3.55473 430.182 3.39083 429.813 3.39083 429.394C3.39083 428.421 4.17965 427.643 5.14265 427.643C6.10564 427.643 6.89447 428.431 6.89447 429.394C6.89447 430.069 6.50519 430.622 5.95198 430.919V432.517C7.34525 432.158 8.37996 430.899 8.37996 429.394V429.394ZM22.2512 307.537C23.2244 307.537 24.003 308.315 24.003 309.288C24.003 309.923 23.6547 310.455 23.1425 310.763V311.94C24.2591 311.561 25.0787 310.527 25.0787 309.288C25.0787 307.721 23.8084 306.452 22.2409 306.452C20.6735 306.452 19.4032 307.721 19.4032 309.288C19.4032 310.394 20.0588 311.326 20.9808 311.787V310.486C20.6838 310.169 20.4891 309.749 20.4891 309.278C20.4891 308.305 21.278 307.527 22.2409 307.527L22.2512 307.537ZM41.5726 441.374V443.064C42.8327 442.614 43.7342 441.426 43.7342 440.023C43.7342 438.231 42.2795 436.777 40.4969 436.777C38.7143 436.777 37.2596 438.231 37.2596 440.023C37.2596 441.426 38.1611 442.614 39.4212 443.064V441.374C39.0216 441.057 38.7451 440.576 38.7451 440.023C38.7451 439.05 39.5339 438.272 40.4969 438.272C41.4599 438.272 42.2487 439.06 42.2487 440.023C42.2487 440.576 41.9721 441.047 41.5726 441.374V441.374ZM42.1975 301.997C42.1975 300.43 40.9272 299.161 39.3597 299.161C37.7923 299.161 36.522 300.43 36.522 301.997C36.522 303.226 37.3211 304.26 38.4275 304.639V303.441C37.946 303.124 37.6079 302.612 37.6079 301.987C37.6079 301.014 38.3967 300.236 39.3597 300.236C40.3227 300.236 41.1116 301.024 41.1116 301.987C41.1116 302.478 40.9067 302.919 40.5788 303.236V304.516C41.5213 304.055 42.1873 303.103 42.1873 301.987L42.1975 301.997ZM-12.5293 485.171C-12.0274 485.171 -11.5663 485.048 -11.1361 484.843L-12.3347 483.645C-12.3962 483.645 -12.4576 483.686 -12.5191 483.686C-13.4923 483.686 -14.2709 482.898 -14.2709 481.925C-14.2709 480.952 -13.4821 480.174 -12.5191 480.174C-11.5561 480.174 -10.7673 480.963 -10.7673 481.925C-10.7673 481.997 -10.798 482.048 -10.8083 482.12L-9.60962 483.318C-9.40473 482.898 -9.28178 482.427 -9.28178 481.925C-9.28178 480.143 -10.7365 478.689 -12.5191 478.689C-14.3017 478.689 -15.7667 480.143 -15.7667 481.925C-15.7667 483.707 -14.3119 485.161 -12.5191 485.161L-12.5293 485.171Z" fill="#78BCED"/>
</g>
</g>
<defs>
<filter id="filter0_f_1_36" x="244" y="-400" width="1624" height="1624" filterUnits="userSpaceOnUse" color-interpolation-filters="sRGB">
<feFlood flood-opacity="0" result="BackgroundImageFix"/>
<feBlend mode="normal" in="SourceGraphic" in2="BackgroundImageFix" result="shape"/>
<feGaussianBlur stdDeviation="250" result="effect1_foregroundBlur_1_36"/>
</filter>
<filter id="filter1_f_1_36" x="-666" y="-386" width="1608" height="1608" filterUnits="userSpaceOnUse" color-interpolation-filters="sRGB">
<feFlood flood-opacity="0" result="BackgroundImageFix"/>
<feBlend mode="normal" in="SourceGraphic" in2="BackgroundImageFix" result="shape"/>
<feGaussianBlur stdDeviation="300" result="effect1_foregroundBlur_1_36"/>
</filter>
<linearGradient id="paint0_linear_1_36" x1="1000.21" y1="326.266" x2="1366.2" y2="470.5" gradientUnits="userSpaceOnUse">
<stop offset="0.0362426" stop-color="#6BCFCF"/>
<stop offset="0.516817" stop-color="#0C1820"/>
</linearGradient>
<linearGradient id="paint1_linear_1_36" x1="1134.7" y1="325.687" x2="1394.47" y2="412.619" gradientUnits="userSpaceOnUse">
<stop offset="0.0417774" stop-color="#6BCFCF"/>
<stop offset="0.695332" stop-color="#0C1820"/>
</linearGradient>
<linearGradient id="paint2_linear_1_36" x1="1000.09" y1="457.356" x2="1061.68" y2="492.395" gradientUnits="userSpaceOnUse">
<stop offset="0.123989" stop-color="#6BCFCF"/>
<stop offset="1" stop-color="#101F26"/>
</linearGradient>
<linearGradient id="paint3_linear_1_36" x1="923.919" y1="423.413" x2="950.876" y2="434.273" gradientUnits="userSpaceOnUse">
<stop offset="0.123989" stop-color="#6BCFCF"/>
<stop offset="1" stop-color="#0C1820"/>
</linearGradient>
<clipPath id="clip0_1_36">
<rect width="1280" height="530" fill="white"/>
</clipPath>
</defs>
</svg>
