<svg width="130" height="130" viewBox="0 0 130 130" fill="none" xmlns="http://www.w3.org/2000/svg">
<g clip-path="url(#clip0_229_6997)">
<path d="M47.3699 15.4766C45.91 15.4766 43.1392 15.4766 43.3329 18.6297C43.3804 19.4161 43.7375 20.1517 44.326 20.6755C44.8603 21.1276 45.4809 21.4663 46.1501 21.6712C46.8193 21.876 47.5232 21.9427 48.219 21.8672C50.3351 21.7317 52.4598 21.8433 54.55 22.1999C62.331 23.6399 69.104 26.2816 71.2045 34.4002C72.3416 38.8146 71.9394 40.0163 68.2698 42.5685C65.3203 44.6193 62.341 46.6304 59.3815 48.6762C54.9522 51.725 51.7743 60.2657 52.9809 65.5441C54.411 71.8901 58.8452 75.5298 64.1981 78.3701C65.1465 78.8666 65.5537 79.2043 65.2408 80.5301C63.1603 89.4184 59.5354 97.686 55.414 105.76C53.2689 109.966 53.691 111.887 57.4847 114.375L60.0916 114.465C61.4323 113.72 62.6886 112.93 63.4433 111.485C68.3145 102.051 72.6047 92.4027 74.8194 81.9651C75.2216 80.0633 76.309 80.4258 77.4958 80.3315C78.9855 80.2123 78.7372 81.3246 78.7868 82.1638C79.2834 90.779 79.9984 99.3892 79.7551 108.024C79.6608 111.292 80.783 113.452 83.9212 114.544L85.7485 114.475C86.7007 114.079 87.5495 113.471 88.2295 112.696C88.9096 111.921 89.4029 111.001 89.6713 110.006V103.084L89.1996 92.939C88.8321 86.3696 88.6087 79.7604 87.5162 73.2804C85.8907 64.0344 82.7411 55.1226 78.1959 46.9084C77.4665 45.7212 77.1897 44.3108 77.4163 42.936C79.7055 29.9908 72.3863 20.2484 60.8265 17.3635C59.461 17.0258 58.0905 16.708 56.7398 16.3952C55.479 16.1076 54.1971 15.9216 52.9064 15.839L47.3699 15.4766ZM65.9062 72.0837C59.3269 68.7717 57.2364 63.2153 60.3597 57.7234C62.8007 62.2599 64.664 67.0842 65.9062 72.0837Z" fill="#6BCFCF"/>
<path d="M68.0167 35.8379C68.0167 30.8724 64.0443 26.7907 59.2326 26.8603C56.919 26.9261 54.7219 27.8904 53.1071 29.5487C51.4924 31.207 50.5869 33.429 50.5827 35.7436C50.5494 36.9052 50.7486 38.0618 51.1687 39.1453C51.5888 40.2289 52.2212 41.2175 53.0289 42.0531C53.8365 42.8887 54.803 43.5545 55.8716 44.0112C56.9402 44.468 58.0893 44.7065 59.2514 44.7128C60.4135 44.7191 61.5651 44.493 62.6386 44.0478C63.7121 43.6027 64.6857 42.9475 65.5024 42.1206C66.319 41.2938 66.9621 40.3121 67.3939 39.2332C67.8256 38.1542 68.0374 36.9999 68.0167 35.8379Z" fill="#6BCFCF"/>
</g>
<rect x="0.5" y="0.5" width="129" height="129" stroke="#6BCFCF"/>
<defs>
<clipPath id="clip0_229_6997">
<rect width="46.3384" height="99.0476" fill="white" transform="translate(43.333 15.4766)"/>
</clipPath>
</defs>
</svg>
