<svg width="22" height="18" viewBox="0 0 22 18" fill="none" xmlns="http://www.w3.org/2000/svg">
<path d="M0.774902 17.3V14.3C0.774902 13.7 0.929236 13.1457 1.2379 12.637C1.5459 12.129 1.95824 11.7417 2.4749 11.475C3.3249 11.0417 4.2999 10.6707 5.3999 10.362C6.4999 10.054 7.69157 9.9 8.9749 9.9C9.4749 9.9 9.99157 9.929 10.5249 9.987C11.0582 10.0457 11.5499 10.125 11.9999 10.225L9.9999 12.225C9.83324 12.1917 9.66657 12.175 9.4999 12.175C9.33324 12.175 9.15824 12.175 8.9749 12.175C7.80824 12.175 6.7539 12.3167 5.8119 12.6C4.87057 12.8833 4.11657 13.1833 3.5499 13.5C3.3999 13.5833 3.27924 13.6957 3.1879 13.837C3.0959 13.979 3.0499 14.1417 3.0499 14.325V15.025H9.1499L11.4249 17.3H0.774902ZM14.6999 17.575L11.1999 14.05L12.6499 12.6L14.6999 14.65L19.7499 9.6L21.2249 11.05L14.6999 17.575ZM8.9749 8.9C7.80824 8.9 6.81657 8.48733 5.9999 7.662C5.18324 6.83733 4.7749 5.85 4.7749 4.7C4.7749 3.53333 5.18324 2.54167 5.9999 1.725C6.81657 0.908333 7.80824 0.5 8.9749 0.5C10.1416 0.5 11.1332 0.908333 11.9499 1.725C12.7666 2.54167 13.1749 3.53333 13.1749 4.7C13.1749 5.85 12.7666 6.83733 11.9499 7.662C11.1332 8.48733 10.1416 8.9 8.9749 8.9ZM8.9749 6.625C9.50824 6.625 9.96257 6.43733 10.3379 6.062C10.7126 5.68733 10.8999 5.23333 10.8999 4.7C10.8999 4.16667 10.7126 3.71233 10.3379 3.337C9.96257 2.96233 9.50824 2.775 8.9749 2.775C8.44157 2.775 7.98757 2.96233 7.6129 3.337C7.23757 3.71233 7.0499 4.16667 7.0499 4.7C7.0499 5.23333 7.23757 5.68733 7.6129 6.062C7.98757 6.43733 8.44157 6.625 8.9749 6.625Z" fill="#6BCFCF"/>
</svg>
