<svg width="48" height="49" viewBox="0 0 48 49" fill="none" xmlns="http://www.w3.org/2000/svg">
<mask id="mask0_1319_14450" style="mask-type:alpha" maskUnits="userSpaceOnUse" x="0" y="0" width="48" height="49">
<rect y="0.5" width="48" height="48" fill="#D9D9D9"/>
</mask>
<g mask="url(#mask0_1319_14450)">
<path d="M23.9996 43.05L20.7996 40.2C17.3996 37.1334 14.5916 34.4914 12.3756 32.274C10.1583 30.058 8.39961 28.0667 7.09961 26.3C5.79961 24.5334 4.89161 22.9 4.37561 21.4C3.85828 19.9 3.59961 18.3667 3.59961 16.8C3.59961 13.5334 4.68294 10.8167 6.84961 8.65002C9.01628 6.48336 11.7329 5.40002 14.9996 5.40002C16.7329 5.40002 18.3749 5.75002 19.9256 6.45002C21.4749 7.15002 22.8329 8.15002 23.9996 9.45002C25.1329 8.15002 26.4829 7.15002 28.0496 6.45002C29.6163 5.75002 31.2663 5.40002 32.9996 5.40002C36.2329 5.40002 38.9409 6.48336 41.1236 8.65002C43.3076 10.8167 44.3996 13.5334 44.3996 16.8C44.3996 18.3667 44.1409 19.892 43.6236 21.376C43.1076 22.8587 42.1996 24.4834 40.8996 26.25C39.5996 28.0167 37.8329 30.0167 35.5996 32.25C33.3663 34.4834 30.5496 37.1334 27.1496 40.2L23.9996 43.05ZM23.9996 36.9C27.1663 34.0334 29.7829 31.5914 31.8496 29.574C33.9163 27.558 35.5416 25.7914 36.7256 24.274C37.9083 22.758 38.7243 21.4167 39.1736 20.25C39.6243 19.0834 39.8496 17.9334 39.8496 16.8C39.8496 14.8334 39.1996 13.2 37.8996 11.9C36.5996 10.6 34.9663 9.95002 32.9996 9.95002C31.4663 9.95002 30.0416 10.3914 28.7256 11.274C27.4083 12.158 26.4996 13.2834 25.9996 14.65H21.9996C21.4996 13.2834 20.5909 12.158 19.2736 11.274C17.9576 10.3914 16.5329 9.95002 14.9996 9.95002C13.0329 9.95002 11.3996 10.6 10.0996 11.9C8.79961 13.2 8.14961 14.8334 8.14961 16.8C8.14961 17.9667 8.38294 19.1334 8.84961 20.3C9.31628 21.4667 10.1416 22.8 11.3256 24.3C12.5083 25.8 14.1249 27.5667 16.1756 29.6C18.2249 31.6334 20.8329 34.0667 23.9996 36.9Z" fill="#6BCFCF"/>
</g>
</svg>
