<svg width="108" height="108" viewBox="0 0 108 108" fill="none" xmlns="http://www.w3.org/2000/svg">
<rect x="0.5" y="0.5" width="107" height="107" rx="1.5" fill="#292F2F"/>
<mask id="mask0_155_12222" style="mask-type:alpha" maskUnits="userSpaceOnUse" x="18" y="18" width="72" height="72">
<rect x="18" y="18" width="72" height="72" fill="#D9D9D9"/>
</mask>
<g mask="url(#mask0_155_12222)">
<path d="M42 56.5H66.5833V54H42V56.5ZM37.875 81C36.475 81 35.313 80.538 34.389 79.614C33.463 78.688 33 77.525 33 76.125V31.875C33 30.475 33.463 29.312 34.389 28.386C35.313 27.462 36.475 27 37.875 27H61.5L75 40.5V76.125C75 77.525 74.538 78.688 73.614 79.614C72.688 80.538 71.525 81 70.125 81H37.875ZM60 42V30H37.875C37.375 30 36.938 30.188 36.564 30.564C36.188 30.938 36 31.375 36 31.875V76.125C36 76.625 36.188 77.062 36.564 77.436C36.938 77.812 37.375 78 37.875 78H70.125C70.625 78 71.062 77.812 71.436 77.436C71.812 77.062 72 76.625 72 76.125V42H60Z" fill="white"/>
<path d="M49.0928 65.252C49.0928 65.7747 48.9668 66.2647 48.7148 66.722C48.4721 67.1794 48.0848 67.548 47.5528 67.828C47.0301 68.108 46.3675 68.248 45.5648 68.248H43.9268V72H41.9668V62.228H45.5648C46.3208 62.228 46.9648 62.3587 47.4968 62.62C48.0288 62.8814 48.4255 63.2407 48.6868 63.698C48.9575 64.1554 49.0928 64.6734 49.0928 65.252ZM45.4808 66.666C46.0221 66.666 46.4235 66.5447 46.6848 66.302C46.9461 66.05 47.0768 65.7 47.0768 65.252C47.0768 64.3 46.5448 63.824 45.4808 63.824H43.9268V66.666H45.4808Z" fill="white"/>
<path d="M53.9004 62.228C54.927 62.228 55.8277 62.4287 56.6024 62.83C57.3864 63.2314 57.9884 63.8054 58.4084 64.552C58.8377 65.2894 59.0524 66.148 59.0524 67.128C59.0524 68.108 58.8377 68.9667 58.4084 69.704C57.9884 70.432 57.3864 70.9967 56.6024 71.398C55.8277 71.7994 54.927 72 53.9004 72H50.4844V62.228H53.9004ZM53.8304 70.334C54.857 70.334 55.6504 70.054 56.2104 69.494C56.7704 68.934 57.0504 68.1454 57.0504 67.128C57.0504 66.1107 56.7704 65.3174 56.2104 64.748C55.6504 64.1694 54.857 63.88 53.8304 63.88H52.4444V70.334H53.8304Z" fill="white"/>
<path d="M66.5535 62.228V63.81H62.4795V66.316H65.6015V67.87H62.4795V72H60.5195V62.228H66.5535Z" fill="white"/>
</g>
<rect x="0.5" y="0.5" width="107" height="107" rx="1.5" stroke="#292F2F"/>
</svg>
