<svg width="14" height="28" viewBox="0 0 14 28" fill="none" xmlns="http://www.w3.org/2000/svg">
<path d="M12 6.5V20.875C12 23.6375 9.7625 25.875 7 25.875C4.2375 25.875 2 23.6375 2 20.875V5.25C2 3.525 3.4 2.125 5.125 2.125C6.85 2.125 8.25 3.525 8.25 5.25V18.375C8.25 19.0625 7.6875 19.625 7 19.625C6.3125 19.625 5.75 19.0625 5.75 18.375V6.5H3.875V18.375C3.875 20.1 5.275 21.5 7 21.5C8.725 21.5 10.125 20.1 10.125 18.375V5.25C10.125 2.4875 7.8875 0.25 5.125 0.25C2.3625 0.25 0.125 2.4875 0.125 5.25V20.875C0.125 24.675 3.2 27.75 7 27.75C10.8 27.75 13.875 24.675 13.875 20.875V6.5H12Z" fill="#6BCFCF"/>
</svg>
