<svg width="169" height="168" viewBox="0 0 169 168" fill="none" xmlns="http://www.w3.org/2000/svg">
<path fill-rule="evenodd" clip-rule="evenodd" d="M58.0308 106.643C57.1097 99.1544 58.4051 87.8425 65.0783 80.4866C69.7076 75.3787 76.4366 72.8076 85.0369 72.8076C94.9883 72.8076 102.522 77.2349 107.469 85.9439C109.905 90.314 111.513 95.0936 112.216 100.044L112.595 103.934L120.558 103.351C120.566 101.97 120.477 100.59 120.293 99.2206C120.264 98.8817 119.345 90.6255 114.719 82.3401C108.332 70.9249 98.094 64.8823 85.0581 64.8823C74.0423 64.8823 65.2694 68.3723 59.0289 75.2384C50.5746 84.5432 48.8492 98.0767 50.0277 107.636V107.723C52.1433 122.162 57.7176 133.71 67.5788 144.037L70.6579 147.008L76.2189 141.238L73.4743 138.646C64.789 129.569 59.8703 119.411 58.0308 106.643ZM52.2681 35.0031C55.2092 33.2237 65.6119 27.9146 85.0581 27.9146C107.46 27.9146 117.862 34.9826 118.683 35.5405C118.713 35.5613 118.731 35.5731 118.735 35.5751L122.424 37.9212L126.733 31.2457L123.223 28.9791C123.085 28.8785 122.942 28.7779 122.799 28.6825C119.433 26.498 107.499 20 85.0581 20C61.7762 20 49.8207 27.0117 46.9911 28.9262L43.3837 31.259L47.6839 37.9344L52.2681 35.0031ZM35.5213 70.5836L32.2489 68.6124C32.1438 68.5635 32.0412 68.5091 31.9418 68.4495C31.7913 68.3632 31.6471 68.2666 31.5103 68.1604L28.5 66.3574L30.4512 63.072C35.5636 54.6247 51.0835 34.8837 84.9906 34.8837C99.6845 34.8837 112.565 38.7131 123.264 46.2615C132.069 52.4564 137.004 59.4686 139.355 62.846L141.616 66.3574L134.833 70.6047L132.673 67.2667C128.41 61.1849 115.437 42.7029 84.9906 42.7029C55.2799 42.7029 41.8542 59.721 37.4672 67.0144L35.5213 70.5836ZM85.1554 49.7674C97.1335 49.7674 108.442 53.8258 117.881 61.4895C125.19 67.4499 131.174 75.4448 134.276 83.4874C138.247 93.7048 137.182 105.173 131.57 112.664C127.83 117.66 122.505 120.272 116.606 119.989C101.245 119.221 98.4774 108.521 96.4642 100.717C94.3926 92.7114 93.0673 88.8517 85.1554 88.8517C80.8104 88.8517 77.7588 90.0438 75.8598 92.5127C73.2703 95.8903 73.0685 101.17 73.3553 105C73.5436 107.669 73.9974 110.313 74.7098 112.892C75.3419 114.481 83.5725 134.604 103.285 139.486L107.34 140.395L105.191 148L101.269 147.15C76.6088 141.049 67.4008 116.468 67.0263 115.446L66.9679 115.22C66.7581 114.511 61.8181 97.6493 69.414 87.7735C72.8959 83.2595 78.1917 80.9602 85.1847 80.9602C91.6863 80.9602 96.3766 82.9761 99.6008 87.1484C102.234 90.5257 103.299 94.6994 104.33 98.7369L104.33 98.737L104.347 98.8042C106.506 107.234 108.06 111.66 117.039 112.116C120.981 112.314 123.57 110.015 125.039 108.057C129.009 102.712 129.7 93.9988 126.707 86.3351C122.85 76.4011 109.212 57.6961 85.1554 57.6961C74.8904 57.6961 65.4514 60.9783 57.8821 67.1638C51.6089 72.3004 46.6344 79.5376 44.2441 86.9762C39.8115 100.825 45.6252 122.595 45.681 122.794L46.9399 126.768L38.9908 128.471L37.8275 124.813L37.8165 124.771C37.4291 123.299 31.4099 100.431 36.465 84.5947C42.0477 67.2513 59.2552 49.7674 85.1554 49.7674ZM99.4766 120.123C104.757 124.346 111.815 126.022 120.512 125.043L124.15 124.48L125.74 132.234L121.416 132.78C119.551 133 117.675 133.113 115.797 133.116C107.327 133.116 100.126 130.767 94.363 126.098C82.844 116.803 81.5012 101.695 81.4315 100.911L81.4306 100.9L81.0891 96.9852L89.0462 96.4031L89.3668 100.287C89.3674 100.292 89.3685 100.302 89.3701 100.318C89.4477 101.042 90.7409 113.115 99.4766 120.123Z" fill="#6BCFCF"/>
</svg>
