<svg width="23" height="21" viewBox="0 0 23 21" fill="none" xmlns="http://www.w3.org/2000/svg">
<path d="M11 10.1998L3.07505 5.2498V14.9248H12.025V17.1998H0.800049V0.799805H21.2001V10.1998C20.85 10.1998 20.4834 10.1998 20.1 10.1998C19.7167 10.1998 19.325 10.1998 18.925 10.1998V5.2498L11 10.1998ZM11 8.0248L18.925 3.0748H3.07505L11 8.0248ZM18.1 20.2248L16.6 18.7498L18.125 17.1998H14.025V15.0748H18.125L16.575 13.5498L18.1 12.0498L22.175 16.1498L18.1 20.2248ZM3.07505 5.2498V14.9248V16.2748C3.07505 14.5915 3.07505 13.1581 3.07505 11.9748C3.07505 10.7915 3.07505 10.1998 3.07505 10.1998C3.07505 10.1998 3.07505 10.2038 3.07505 10.2118C3.07505 10.2205 3.07505 10.2415 3.07505 10.2748V5.2498Z" fill="#6BCFCF"/>
</svg>
