<svg width="24" height="24" viewBox="0 0 24 24" fill="none" xmlns="http://www.w3.org/2000/svg">
<path d="M18 14C18 17.31 15.31 20 12 20C8.69 20 6 17.31 6 14C6 10.69 8.69 8 12 8V12L17 7L12 2V6C7.58 6 4 9.58 4 14C4 18.42 7.58 22 12 22C16.42 22 20 18.42 20 14H18Z" fill="#C4C4C4"/>
<path d="M10.9 17V12.73H10.81L9.04 13.36V14.05L10.05 13.74V17H10.9Z" fill="#C4C4C4"/>
<path d="M14.32 12.78C14.14 12.71 13.95 12.68 13.73 12.68C13.51 12.68 13.32 12.71 13.14 12.78C12.96 12.85 12.81 12.96 12.69 13.11C12.57 13.26 12.46 13.45 12.4 13.68C12.34 13.91 12.3 14.18 12.3 14.5V15.24C12.3 15.56 12.34 15.84 12.41 16.06C12.48 16.28 12.58 16.48 12.71 16.63C12.84 16.78 12.99 16.89 13.17 16.96C13.35 17.03 13.54 17.06 13.76 17.06C13.98 17.06 14.17 17.03 14.35 16.96C14.53 16.89 14.68 16.78 14.8 16.63C14.92 16.48 15.02 16.29 15.09 16.06C15.16 15.83 15.19 15.56 15.19 15.24V14.5C15.19 14.18 15.15 13.9 15.08 13.68C15.01 13.46 14.91 13.26 14.78 13.11C14.65 12.96 14.49 12.85 14.32 12.78ZM14.33 15.35C14.33 15.54 14.32 15.7 14.29 15.83C14.26 15.96 14.23 16.07 14.18 16.15C14.13 16.23 14.07 16.29 13.99 16.32C13.91 16.35 13.83 16.37 13.74 16.37C13.65 16.37 13.56 16.35 13.49 16.32C13.42 16.29 13.35 16.23 13.3 16.15C13.25 16.07 13.21 15.96 13.18 15.83C13.15 15.7 13.14 15.54 13.14 15.35V14.38C13.14 14.19 13.15 14.03 13.18 13.9C13.21 13.77 13.24 13.67 13.3 13.59C13.36 13.51 13.41 13.45 13.49 13.42C13.57 13.39 13.65 13.37 13.74 13.37C13.83 13.37 13.92 13.39 13.99 13.42C14.06 13.45 14.13 13.51 14.18 13.59C14.23 13.67 14.27 13.77 14.3 13.9C14.33 14.03 14.34 14.19 14.34 14.38V15.35H14.33Z" fill="#C4C4C4"/>
</svg>
