<svg width="211" height="138" viewBox="0 0 211 138" fill="none" xmlns="http://www.w3.org/2000/svg">
<path d="M210 27.7961L125.325 45.0751L135.723 61.1559L138.312 89.6524M210 27.7961L162.531 89.6524L147.028 72.6062M210 27.7961L141.471 59.4662M210 27.7961L147.028 72.6062M147.028 72.6062L138.312 89.6524M138.312 89.6524L148.842 77.7183" stroke="#6BCFCF" stroke-linejoin="bevel" stroke-dasharray="3 3"/>
<path d="M111.987 111.182L112.029 111.529L111.987 111.182ZM64.5321 90.4245L64.256 90.2094L64.5321 90.4245ZM56.999 129.575L56.9646 129.227L56.999 129.575ZM2.28187 97.5287C1.26572 97.7026 0.582989 98.6674 0.756951 99.6836C0.930912 100.7 1.89569 101.382 2.91184 101.208C3.92798 101.035 4.61071 100.07 4.43675 99.0536C4.26279 98.0374 3.29801 97.3547 2.28187 97.5287ZM2.59685 99.3686C2.31301 99.5734 2.31302 99.5734 2.31303 99.5734C2.31303 99.5734 2.31304 99.5734 2.31305 99.5734C2.31307 99.5734 2.31309 99.5735 2.31313 99.5735C2.31319 99.5736 2.31325 99.5737 2.31335 99.5738C2.31353 99.5741 2.31379 99.5744 2.31412 99.5749C2.31479 99.5758 2.31574 99.5771 2.317 99.5789C2.31949 99.5823 2.32316 99.5874 2.328 99.594C2.33767 99.6073 2.352 99.6269 2.37094 99.6526C2.40882 99.7041 2.46512 99.7801 2.53948 99.8792C2.68822 100.077 2.90917 100.368 3.19926 100.738L3.7502 100.306C3.46324 99.9397 3.24524 99.6534 3.0993 99.4589C3.02633 99.3617 2.97136 99.2875 2.9348 99.2378C2.91652 99.213 2.90283 99.1942 2.8938 99.1818C2.88928 99.1756 2.88593 99.171 2.88374 99.168C2.88265 99.1665 2.88184 99.1654 2.88133 99.1647C2.88108 99.1643 2.8809 99.1641 2.88078 99.1639C2.88074 99.1639 2.8807 99.1638 2.88068 99.1638C2.88068 99.1638 2.88066 99.1638 2.88066 99.1638C2.88066 99.1638 2.88068 99.1638 2.88068 99.1638C2.88068 99.1638 2.88068 99.1638 2.59685 99.3686ZM5.07311 103.034C5.64072 103.705 6.29112 104.454 7.01986 105.263L7.54006 104.795C6.81645 103.991 6.17079 103.248 5.60756 102.582L5.07311 103.034ZM9.03668 107.438C9.68501 108.117 10.3759 108.822 11.1075 109.544L11.5995 109.047C10.873 108.329 10.1868 107.629 9.54292 106.955L9.03668 107.438ZM13.2459 111.596C13.9472 112.249 14.6781 112.91 15.4371 113.575L15.8983 113.048C15.1448 112.388 14.4193 111.732 13.7229 111.084L13.2459 111.596ZM17.6957 115.49C18.4472 116.106 19.2219 116.721 20.0188 117.331L20.4442 116.775C19.6539 116.171 18.8854 115.56 18.1397 114.948L17.6957 115.49ZM22.398 119.086C23.1941 119.651 24.0094 120.208 24.8429 120.753L25.2259 120.167C24.4002 119.627 23.5924 119.075 22.8032 118.515L22.398 119.086ZM27.3538 122.323C28.1965 122.826 29.0557 123.315 29.9305 123.786L30.2624 123.17C29.397 122.703 28.5468 122.22 27.7125 121.722L27.3538 122.323ZM32.5724 125.13C33.4602 125.555 34.3624 125.961 35.2782 126.343L35.5481 125.698C34.6437 125.32 33.7524 124.919 32.8748 124.499L32.5724 125.13ZM38.0452 127.413C38.974 127.742 39.9152 128.047 40.8683 128.323L41.0634 127.651C40.1239 127.379 39.1957 127.078 38.2794 126.753L38.0452 127.413ZM43.7425 129.062C44.7043 129.277 45.6768 129.462 46.6594 129.615L46.7667 128.923C45.7998 128.773 44.8425 128.591 43.8953 128.379L43.7425 129.062ZM49.608 129.969C50.5882 130.052 51.5774 130.101 52.5749 130.113L52.5837 129.414C51.6034 129.401 50.631 129.353 49.6671 129.271L49.608 129.969ZM55.5449 130.042C56.0392 130.012 56.5354 129.972 57.0333 129.923L56.9646 129.227C56.4755 129.275 55.988 129.314 55.5023 129.343L55.5449 130.042ZM57.0333 129.923C57.5292 129.875 58.0196 129.82 58.5044 129.76L58.4187 129.066C57.9396 129.125 57.4549 129.178 56.9646 129.227L57.0333 129.923ZM61.4049 129.328C62.3873 129.155 63.3451 128.959 64.2788 128.742L64.1202 128.06C63.199 128.275 62.2537 128.468 61.2838 128.638L61.4049 129.328ZM67.1146 127.996C68.0705 127.714 68.9988 127.409 69.8999 127.082L69.6612 126.424C68.7737 126.746 67.859 127.047 66.9167 127.324L67.1146 127.996ZM72.6343 125.989C73.5495 125.588 74.4334 125.164 75.2867 124.719L74.963 124.099C74.1238 124.536 73.2541 124.953 72.3534 125.348L72.6343 125.989ZM77.8406 123.272C78.692 122.749 79.5085 122.205 80.2912 121.642L79.8826 121.074C79.1136 121.627 78.3111 122.162 77.4743 122.676L77.8406 123.272ZM82.6144 119.838C83.3792 119.197 84.106 118.539 84.7957 117.866L84.307 117.365C83.6297 118.026 82.916 118.672 82.1649 119.302L82.6144 119.838ZM86.8229 115.733C87.4833 114.983 88.1021 114.22 88.6807 113.45L88.1212 113.03C87.5532 113.785 86.9457 114.534 86.2974 115.271L86.8229 115.733ZM90.3534 111.035C90.8928 110.187 91.3863 109.336 91.8356 108.487L91.217 108.16C90.7763 108.992 90.2921 109.827 89.7628 110.659L90.3534 111.035ZM93.1063 105.83C93.5051 104.898 93.8515 103.976 94.1477 103.073L93.4825 102.855C93.1928 103.739 92.8536 104.641 92.4628 105.554L93.1063 105.83ZM94.9324 100.23C95.1582 99.2182 95.3173 98.2431 95.4133 97.3176L94.7171 97.2453C94.624 98.1423 94.4694 99.0906 94.2492 100.077L94.9324 100.23ZM95.4997 94.3444C95.4706 93.8234 95.416 93.3289 95.3366 92.8649L94.6466 92.9831C94.7211 93.4183 94.773 93.8862 94.8008 94.3835L95.4997 94.3444ZM95.3366 92.8649C95.2455 92.3326 95.1045 91.8116 94.918 91.3044L94.261 91.546C94.4333 92.0145 94.563 92.4943 94.6466 92.9831L95.3366 92.8649ZM93.34 88.514C92.7027 87.7003 91.9403 86.9485 91.0783 86.2725L90.6463 86.8233C91.4681 87.4678 92.1894 88.1803 92.7889 88.9456L93.34 88.514ZM88.3985 84.5747C87.4772 84.1069 86.4932 83.7093 85.4637 83.3921L85.2576 84.0611C86.2499 84.3668 87.1967 84.7496 88.0816 85.1989L88.3985 84.5747ZM82.3781 82.7082C81.3475 82.565 80.2908 82.5005 79.2219 82.5235L79.2369 83.2234C80.2679 83.2012 81.2873 83.2633 82.2817 83.4015L82.3781 82.7082ZM76.0771 82.8475C75.0551 83.0383 74.0343 83.315 73.0267 83.6849L73.268 84.342C74.238 83.9859 75.221 83.7194 76.2056 83.5356L76.0771 82.8475ZM70.161 85.021C69.2682 85.5327 68.3967 86.1291 67.5559 86.8154L67.9986 87.3577C68.8096 86.6956 69.6494 86.1211 70.5091 85.6283L70.161 85.021ZM65.2698 88.9986C64.9236 89.3832 64.5854 89.7866 64.256 90.2094L64.8082 90.6397C65.1275 90.2298 65.4551 89.839 65.79 89.467L65.2698 88.9986ZM64.256 90.2094C63.9215 90.6387 63.6374 91.0667 63.4021 91.4935L64.0151 91.8315C64.2309 91.44 64.4942 91.0426 64.8082 90.6397L64.256 90.2094ZM62.5363 94.4862C62.5069 95.5338 62.7662 96.546 63.2649 97.5141L63.8872 97.1936C63.4353 96.3163 63.2103 95.4204 63.236 94.5058L62.5363 94.4862ZM65.1013 99.9631C65.7684 100.635 66.5503 101.283 67.4288 101.905L67.8334 101.334C66.9813 100.731 66.2317 100.108 65.5982 99.47L65.1013 99.9631ZM69.9813 103.5C70.8198 103.966 71.7133 104.416 72.653 104.849L72.9459 104.213C72.0203 103.787 71.1428 103.345 70.3215 102.888L69.9813 103.5ZM75.4128 106.021C76.319 106.377 77.2558 106.719 78.2175 107.045L78.4427 106.383C77.4906 106.059 76.5639 105.721 75.6685 105.37L75.4128 106.021ZM81.063 107.949C82.0071 108.23 82.9684 108.496 83.9418 108.749L84.1176 108.071C83.1517 107.821 82.1982 107.556 81.2621 107.278L81.063 107.949ZM86.8406 109.452C87.8081 109.671 88.7827 109.876 89.7598 110.066L89.8937 109.379C88.9233 109.19 87.9556 108.986 86.995 108.769L86.8406 109.452ZM92.6957 110.594C93.6819 110.757 94.6661 110.904 95.6438 111.036L95.7372 110.342C94.7664 110.211 93.789 110.065 92.8096 109.903L92.6957 110.594ZM98.6103 111.389C99.6156 111.492 100.609 111.578 101.584 111.645L101.632 110.947C100.665 110.88 99.6798 110.795 98.6821 110.692L98.6103 111.389ZM104.561 111.794C105.591 111.825 106.592 111.833 107.558 111.816L107.546 111.116C106.592 111.132 105.602 111.125 104.582 111.094L104.561 111.794ZM110.543 111.676C111.053 111.636 111.549 111.587 112.029 111.529L111.946 110.834C111.475 110.891 110.989 110.939 110.488 110.978L110.543 111.676ZM112.029 111.529C112.573 111.464 113.106 111.386 113.63 111.297L113.512 110.607C113 110.694 112.478 110.77 111.946 110.834L112.029 111.529ZM116.786 110.588C117.856 110.289 118.878 109.94 119.853 109.55L119.593 108.9C118.641 109.28 117.643 109.622 116.597 109.914L116.786 110.588ZM122.79 108.186C123.77 107.665 124.692 107.105 125.56 106.518L125.167 105.938C124.32 106.512 123.418 107.059 122.461 107.568L122.79 108.186ZM128.142 104.567C129 103.846 129.789 103.107 130.51 102.369L130.01 101.88C129.304 102.603 128.532 103.326 127.692 104.031L128.142 104.567ZM132.657 99.9517C133.396 99.0342 134.03 98.1505 134.564 97.3396L133.98 96.9545C133.457 97.7482 132.836 98.6136 132.112 99.5124L132.657 99.9517ZM136.2 94.5411C136.415 94.1148 136.576 93.7629 136.683 93.5041C136.737 93.3751 136.778 93.2665 136.807 93.1818C136.821 93.1397 136.833 93.1 136.843 93.0646C136.849 93.0395 136.863 92.9836 136.863 92.924L136.163 92.924C136.163 92.8853 136.171 92.8644 136.165 92.888C136.162 92.9012 136.155 92.9236 136.144 92.9566C136.122 93.0221 136.086 93.1156 136.036 93.236C135.937 93.4759 135.784 93.8117 135.575 94.2253L136.2 94.5411Z" fill="#6BCFCF"/>
</svg>
