<svg width="60" height="60" viewBox="0 0 60 60" fill="none" xmlns="http://www.w3.org/2000/svg">
<mask id="mask0_430_3486" style="mask-type:alpha" maskUnits="userSpaceOnUse" x="0" y="0" width="60" height="60">
<rect width="60" height="60" fill="#D9D9D9"/>
</mask>
<g mask="url(#mask0_430_3486)">
<path d="M4.49951 48.25V42.6875C4.49951 41.3958 4.83285 40.25 5.49951 39.25C6.16618 38.25 7.06201 37.4583 8.18701 36.875C10.562 35.75 12.9478 34.865 15.3445 34.22C17.7395 33.5733 20.3745 33.25 23.2495 33.25C26.1245 33.25 28.7603 33.5733 31.157 34.22C33.552 34.865 35.937 35.75 38.312 36.875C39.437 37.4583 40.3328 38.25 40.9995 39.25C41.6662 40.25 41.9995 41.3958 41.9995 42.6875V48.25H4.49951ZM46.9995 48.25V42.375C46.9995 40.75 46.5928 39.1975 45.7795 37.7175C44.9678 36.2392 43.8328 34.9583 42.3745 33.875C44.0412 34.125 45.6245 34.51 47.1245 35.03C48.6245 35.5517 50.062 36.1667 51.437 36.875C52.7287 37.5833 53.7287 38.4067 54.437 39.345C55.1453 40.2817 55.4995 41.2917 55.4995 42.375V48.25H46.9995ZM23.2495 29.25C20.8328 29.25 18.7703 28.385 17.062 26.655C15.3537 24.9267 14.4995 22.875 14.4995 20.5C14.4995 18.0833 15.3537 16.0208 17.062 14.3125C18.7703 12.6042 20.8328 11.75 23.2495 11.75C25.6662 11.75 27.7287 12.6042 29.437 14.3125C31.1453 16.0208 31.9995 18.0833 31.9995 20.5C31.9995 22.875 31.1453 24.9267 29.437 26.655C27.7287 28.385 25.6662 29.25 23.2495 29.25ZM36.062 29.25C36.062 28.875 35.927 28.4375 35.657 27.9375C35.3853 27.4375 35.1037 26.8958 34.812 26.3125C35.5203 25.0208 35.9787 23.6558 36.187 22.2175C36.3953 20.7808 36.3537 19.3333 36.062 17.875C36.062 16.7917 35.8745 15.75 35.4995 14.75C35.1245 13.75 34.6037 12.8542 33.937 12.0625C35.0203 11.9375 35.9895 12.1042 36.8445 12.5625C37.6978 13.0208 38.312 13.6042 38.687 14.3125C40.3537 15.0625 41.5412 16.2917 42.2495 18C42.9578 19.7083 42.9578 21.3958 42.2495 23.0625C42.2495 24.7708 41.6453 26.2292 40.437 27.4375C39.2287 28.6458 37.7703 29.25 36.062 29.25ZM8.24951 44.5H38.2495V42.6875C38.2495 42.1875 38.1145 41.7292 37.8445 41.3125C37.5728 40.8958 37.1662 40.5417 36.6245 40.25C34.5412 39.2083 32.4162 38.4058 30.2495 37.8425C28.0828 37.2808 25.7495 37 23.2495 37C20.7495 37 18.4062 37.2808 16.2195 37.8425C14.0312 38.4058 11.9162 39.2083 9.87451 40.25C9.29118 40.5417 8.87451 40.8958 8.62451 41.3125C8.37451 41.7292 8.24951 42.1875 8.24951 42.6875V44.5ZM23.2495 25.5C24.6245 25.5 25.802 25.01 26.782 24.03C27.7603 23.0517 28.2495 21.875 28.2495 20.5C28.2495 19.125 27.7603 17.9475 26.782 16.9675C25.802 15.9892 24.6245 15.5 23.2495 15.5C21.8745 15.5 20.6978 15.9892 19.7195 16.9675C18.7395 17.9475 18.2495 19.125 18.2495 20.5C18.2495 21.875 18.7395 23.0517 19.7195 24.03C20.6978 25.01 21.8745 25.5 23.2495 25.5Z" fill="#6BCFCF"/>
</g>
</svg>
