<svg width="48" height="48" viewBox="0 0 48 48" fill="none" xmlns="http://www.w3.org/2000/svg">
<g clip-path="url(#clip0_532_18102)">
<rect width="48" height="48" fill="url(#paint0_linear_532_18102)"/>
<path d="M20.0054 24.0614C20.0054 21.8504 21.7968 20.0576 24.0072 20.0576C26.2176 20.0576 28.0099 21.8504 28.0099 24.0614C28.0099 26.2725 26.2176 28.0653 24.0072 28.0653C21.7968 28.0653 20.0054 26.2725 20.0054 24.0614ZM17.8416 24.0614C17.8416 27.4677 20.602 30.2288 24.0072 30.2288C27.4124 30.2288 30.1728 27.4677 30.1728 24.0614C30.1728 20.6552 27.4124 17.8941 24.0072 17.8941C20.602 17.8941 17.8416 20.6552 17.8416 24.0614ZM28.976 17.6496C28.9759 17.9346 29.0603 18.2133 29.2185 18.4504C29.3767 18.6875 29.6017 18.8723 29.8649 18.9815C30.1281 19.0907 30.4178 19.1194 30.6974 19.0639C30.9769 19.0084 31.2337 18.8712 31.4353 18.6697C31.6369 18.4682 31.7742 18.2115 31.8299 17.9319C31.8856 17.6523 31.8572 17.3625 31.7482 17.0991C31.6393 16.8357 31.4547 16.6106 31.2178 16.4521C30.9809 16.2936 30.7024 16.209 30.4174 16.2089H30.4168C30.0349 16.2091 29.6686 16.3609 29.3984 16.631C29.1282 16.9011 28.9763 17.2675 28.976 17.6496V17.6496ZM19.1563 33.8378C17.9856 33.7845 17.3494 33.5895 16.9265 33.4247C16.3659 33.2064 15.9659 32.9464 15.5454 32.5263C15.1248 32.1062 14.8645 31.7065 14.6473 31.1457C14.4824 30.7229 14.2874 30.0863 14.2342 28.9153C14.176 27.6493 14.1644 27.269 14.1644 24.0615C14.1644 20.8541 14.177 20.4749 14.2342 19.2078C14.2875 18.0368 14.484 17.4014 14.6473 16.9774C14.8655 16.4166 15.1254 16.0165 15.5454 15.5959C15.9654 15.1752 16.365 14.9148 16.9265 14.6975C17.3492 14.5326 17.9856 14.3375 19.1563 14.2843C20.4219 14.2261 20.8021 14.2144 24.0072 14.2144C27.2123 14.2144 27.5928 14.227 28.8596 14.2843C30.0302 14.3376 30.6654 14.5341 31.0893 14.6975C31.6499 14.9148 32.0499 15.1758 32.4705 15.5959C32.891 16.0159 33.1503 16.4166 33.3686 16.9774C33.5334 17.4001 33.7284 18.0368 33.7816 19.2078C33.8399 20.4749 33.8515 20.8541 33.8515 24.0615C33.8515 27.269 33.8399 27.6482 33.7816 28.9153C33.7283 30.0863 33.5324 30.7228 33.3686 31.1457C33.1503 31.7065 32.8904 32.1066 32.4705 32.5263C32.0505 32.946 31.6499 33.2064 31.0893 33.4247C30.6667 33.5896 30.0302 33.7846 28.8596 33.8378C27.5939 33.8961 27.2137 33.9077 24.0072 33.9077C20.8007 33.9077 20.4216 33.8961 19.1563 33.8378V33.8378ZM19.0569 12.1235C17.7786 12.1817 16.9052 12.3845 16.1424 12.6814C15.3524 12.988 14.6837 13.3993 14.0154 14.0667C13.3471 14.7342 12.9369 15.4042 12.6304 16.1944C12.3336 16.9579 12.1309 17.8311 12.0727 19.1097C12.0135 20.3903 12 20.7997 12 24.0614C12 27.3232 12.0135 27.7326 12.0727 29.0132C12.1309 30.2919 12.3336 31.165 12.6304 31.9285C12.9369 32.7183 13.3472 33.389 14.0154 34.0561C14.6836 34.7233 15.3524 35.134 16.1424 35.4415C16.9066 35.7384 17.7786 35.9412 19.0569 35.9994C20.3378 36.0576 20.7464 36.0721 24.0072 36.0721C27.268 36.0721 27.6773 36.0586 28.9575 35.9994C30.2359 35.9412 31.1087 35.7384 31.872 35.4415C32.6615 35.134 33.3307 34.7236 33.999 34.0561C34.6673 33.3887 35.0766 32.7183 35.384 31.9285C35.6808 31.165 35.8844 30.2918 35.9417 29.0132C35.9999 27.7316 36.0134 27.3232 36.0134 24.0614C36.0134 20.7997 35.9999 20.3903 35.9417 19.1097C35.8835 17.831 35.6808 16.9574 35.384 16.1944C35.0766 15.4046 34.6662 14.7352 33.999 14.0667C33.3318 13.3983 32.6615 12.988 31.873 12.6814C31.1087 12.3845 30.2358 12.1808 28.9585 12.1235C27.6782 12.0653 27.2689 12.0508 24.0082 12.0508C20.7474 12.0508 20.3378 12.0643 19.0569 12.1235Z" fill="white"/>
</g>
<defs>
<linearGradient id="paint0_linear_532_18102" x1="47.0774" y1="48" x2="-0.922559" y2="-1.29202e-06" gradientUnits="userSpaceOnUse">
<stop stop-color="#FBE18A"/>
<stop offset="0.21" stop-color="#FCBB45"/>
<stop offset="0.38" stop-color="#F75274"/>
<stop offset="0.52" stop-color="#D53692"/>
<stop offset="0.74" stop-color="#8F39CE"/>
<stop offset="1" stop-color="#5B4FE9"/>
</linearGradient>
<clipPath id="clip0_532_18102">
<rect width="48" height="48" rx="4" fill="white"/>
</clipPath>
</defs>
</svg>
