<svg width="24" height="22" viewBox="0 0 24 22" fill="none" xmlns="http://www.w3.org/2000/svg">
<path d="M11.9 21.1752L16.525 8.9752H18.675L23.3 21.1752H21.175L20.1 18.0752H15.175L14.025 21.1752H11.9ZM15.775 16.3002H19.4501L17.65 11.2502H17.55L15.775 16.3002ZM3.85005 18.1252L2.42505 16.7002L7.57505 11.5502C6.92505 10.8502 6.35838 10.1169 5.87505 9.3502C5.39172 8.58353 4.97505 7.7752 4.62505 6.9252H6.75005C7.06672 7.54186 7.40005 8.09586 7.75005 8.5872C8.10005 9.0792 8.51672 9.59186 9.00005 10.1252C9.75005 9.30853 10.371 8.4752 10.863 7.6252C11.3544 6.7752 11.7667 5.86686 12.1 4.9002H0.800049V2.8502H7.92505V0.825195H9.97505V2.8502H17.1V4.9002H14.15C13.7834 6.10019 13.296 7.27086 12.688 8.4122C12.0794 9.5542 11.325 10.6169 10.425 11.6002L12.875 14.1002L12.1 16.2002L8.95005 13.0252L3.85005 18.1252Z" fill="#6BCFCF"/>
</svg>
