<svg width="48" height="48" viewBox="0 0 48 48" fill="none" xmlns="http://www.w3.org/2000/svg">
<g clip-path="url(#clip0_532_18107)">
<rect width="48" height="48" fill="#006699"/>
<path d="M18.4787 33.7264V20.7602H14.1728V33.7264H18.4791H18.4787ZM16.3266 18.9902C17.8279 18.9902 18.7625 17.9945 18.7625 16.7503C18.7344 15.4776 17.8279 14.5098 16.3552 14.5098C14.8815 14.5098 13.9189 15.4776 13.9189 16.7501C13.9189 17.9944 14.8532 18.9901 16.2984 18.9901H16.3263L16.3266 18.9902ZM20.8621 33.7264H25.1677V26.4863C25.1677 26.0992 25.1958 25.7112 25.3095 25.4348C25.6207 24.6602 26.3291 23.8584 27.5189 23.8584C29.0766 23.8584 29.7001 25.0473 29.7001 26.7906V33.7264H34.0056V26.292C34.0056 22.3095 31.8816 20.4562 29.0487 20.4562C26.7261 20.4562 25.7061 21.7555 25.1393 22.6405H25.168V20.7606H20.8623C20.9185 21.977 20.862 33.7268 20.862 33.7268L20.8621 33.7264Z" fill="white"/>
</g>
<defs>
<clipPath id="clip0_532_18107">
<rect width="48" height="48" rx="4" fill="white"/>
</clipPath>
</defs>
</svg>
