<svg width="24" height="24" viewBox="0 0 24 24" fill="none" xmlns="http://www.w3.org/2000/svg">
<path d="M12 9.22498C14.21 9.22498 16 7.43498 16 5.22498C16 3.01498 14.21 1.22498 12 1.22498C9.79 1.22498 8 3.01498 8 5.22498C8 7.43498 9.79 9.22498 12 9.22498ZM12 3.22498C13.1 3.22498 14 4.12498 14 5.22498C14 6.32498 13.1 7.22498 12 7.22498C10.9 7.22498 10 6.32498 10 5.22498C10 4.12498 10.9 3.22498 12 3.22498ZM12 11.775C9.64 9.57498 6.48 8.22498 3 8.22498V19.225C6.48 19.225 9.64 20.575 12 22.775C14.36 20.585 17.52 19.225 21 19.225V8.22498C17.52 8.22498 14.36 9.57498 12 11.775ZM19 17.355C16.47 17.695 14.07 18.655 12 20.175C9.94 18.655 7.53 17.685 5 17.345V10.395C7.1 10.775 9.05 11.745 10.64 13.225L12 14.505L13.36 13.235C14.95 11.755 16.9 10.785 19 10.405V17.355Z" fill="#EAEAEA"/>
</svg>
