<svg width="212" height="36" viewBox="0 0 212 36" fill="none" xmlns="http://www.w3.org/2000/svg">
<path d="M10.7978 30.6006H27.9421V36H0.375L17.1027 11.7482H23.3602L10.7884 30.6006H10.7978ZM3.46115 6.39942V1H30.375L26.7303 6.39942H3.46115Z" fill="#E6E7E8"/>
<path d="M48.375 36H43.375V1H48.375V36Z" fill="#E6E7E8"/>
<path d="M61.375 17.49C61.375 7.33742 67.8079 0 76.7157 0C81.7506 0 86.0392 2.31603 88.8825 6.50884L90.375 8.67513L86.2753 11.8297L84.7828 9.66343C82.9219 6.90816 80.0691 5.38078 76.7157 5.38078C70.6985 5.38078 66.4571 10.3622 66.4571 17.5C66.4571 24.6378 70.6985 29.6192 76.7157 29.6192C80.0691 29.6192 82.9125 28.0918 84.7828 25.3366L86.2753 23.1703L90.375 26.3249L88.8825 28.4912C86.0392 32.684 81.7506 35 76.7157 35C67.8079 35 61.375 27.6626 61.375 17.51V17.49Z" fill="#E6E7E8"/>
<path d="M137.375 17.49C137.375 21.6852 136.133 25.4809 133.785 28.5873C130.622 32.7326 125.886 35 120.375 35C110.507 35 103.375 27.6584 103.375 17.5C103.375 7.34161 110.517 0 120.375 0C125.886 0 130.622 2.26741 133.785 6.41267C136.133 9.51912 137.375 13.3148 137.375 17.51V17.49ZM132.155 17.49C132.155 14.5334 131.291 11.8664 129.661 9.74885C127.555 6.89212 124.198 5.36386 120.365 5.36386C113.418 5.36386 108.586 10.3482 108.586 17.49C108.586 24.6318 113.428 29.6162 120.365 29.6162C124.198 29.6162 127.546 28.0879 129.661 25.2312C131.291 23.1136 132.155 20.4466 132.155 17.49Z" fill="#E6E7E8"/>
<path d="M173.375 11.7482C173.375 18.5962 169.628 22.547 163.134 22.547H155.496V36H150.375V17.1476H163.134C166.832 17.1476 168.254 15.6483 168.254 11.7482C168.254 7.84805 166.832 6.39942 163.134 6.39942H150.375V1H163.134C169.628 1 173.375 4.9508 173.375 11.7482Z" fill="#E6E7E8"/>
<path d="M188.532 31.6448L186.375 30.2168L189.093 25.6334L191.25 27.0613C191.392 27.1612 195.24 29.6277 198.851 29.6277C201.246 29.6277 205.275 28.9387 205.275 24.2553C205.275 20.311 199.507 20.2111 198.851 20.2111C193.131 20.2111 187.363 17.3053 187.363 10.7946C187.363 4.28388 191.867 0 198.851 0C204.058 0 208.98 3.25535 209.218 3.40513L211.375 4.83309L208.657 9.36662L206.5 7.93866C206.5 7.93866 202.557 5.37232 198.851 5.37232C196.457 5.37232 192.475 6.06134 192.475 10.7946C192.475 14.689 198.196 14.7889 198.851 14.7889C204.619 14.7889 210.387 17.7446 210.387 24.2553C210.387 30.766 205.883 35 198.851 35C193.692 35 188.77 31.7446 188.532 31.6448Z" fill="#E6E7E8"/>
</svg>
