<svg width="60" height="60" viewBox="0 0 60 60" fill="none" xmlns="http://www.w3.org/2000/svg">
<mask id="mask0_428_2925" style="mask-type:alpha" maskUnits="userSpaceOnUse" x="0" y="0" width="60" height="60">
<rect width="60" height="60" fill="#D9D9D9"/>
</mask>
<g mask="url(#mask0_428_2925)">
<path d="M10.75 48.75C9.5 48.75 8.4375 48.3125 7.5625 47.4375C6.6875 46.5625 6.25 45.5 6.25 44.25V15.75C6.25 14.5 6.6875 13.4375 7.5625 12.5625C8.4375 11.6875 9.5 11.25 10.75 11.25H49.25C50.5 11.25 51.5625 11.6875 52.4375 12.5625C53.3125 13.4375 53.75 14.5 53.75 15.75V44.25C53.75 45.5 53.3125 46.5625 52.4375 47.4375C51.5625 48.3125 50.5 48.75 49.25 48.75H10.75ZM30 31.375L10 18.625V44.25C10 44.4583 10.0733 44.6358 10.22 44.7825C10.365 44.9275 10.5417 45 10.75 45H49.25C49.4583 45 49.6358 44.9275 49.7825 44.7825C49.9275 44.6358 50 44.4583 50 44.25V18.625L30 31.375ZM30 27.5L49.625 15H10.375L30 27.5ZM10 44.25C10 44.4583 10.0733 44.6358 10.22 44.7825C10.365 44.9275 10.5417 45 10.75 45H10C10 45 10 44.9275 10 44.7825C10 44.6358 10 44.4583 10 44.25Z" fill="#6BCFCF"/>
</g>
</svg>
