<svg width="22" height="22" viewBox="0 0 22 22" fill="none" xmlns="http://www.w3.org/2000/svg">
<mask id="mask0_668_5268" style="mask-type:alpha" maskUnits="userSpaceOnUse" x="0" y="0" width="22" height="22">
<rect x="0.166016" width="21.3333" height="21.3333" fill="#D9D9D9"/>
</mask>
<g mask="url(#mask0_668_5268)">
<path d="M9.05451 10.5778C8.01748 10.5778 7.136 10.211 6.41007 9.47732C5.68414 8.74428 5.32118 7.86665 5.32118 6.84443C5.32118 5.8074 5.68414 4.92591 6.41007 4.19999C7.136 3.47406 8.01748 3.1111 9.05451 3.1111C10.0916 3.1111 10.973 3.47406 11.699 4.19999C12.4249 4.92591 12.7878 5.8074 12.7878 6.84443C12.7878 7.86665 12.4249 8.74428 11.699 9.47732C10.973 10.211 10.0916 10.5778 9.05451 10.5778ZM1.76562 18.0444V15.3778C1.76562 14.8296 1.90637 14.3298 2.18785 13.8782C2.46933 13.4261 2.83229 13.0889 3.27674 12.8667C4.03229 12.4815 4.89896 12.1517 5.87674 11.8773C6.85451 11.6035 7.91377 11.4667 9.05451 11.4667H9.41007C9.52859 11.4667 9.6397 11.4815 9.7434 11.5111C9.62488 11.7778 9.51022 12.0924 9.3994 12.4551C9.28799 12.8184 9.20266 13.163 9.1434 13.4889H9.07674C8.0397 13.4889 7.10637 13.6187 6.27674 13.8782C5.44711 14.1372 4.76562 14.4 4.23229 14.6667C4.09896 14.7407 3.9917 14.8406 3.91051 14.9662C3.82874 15.0924 3.78785 15.237 3.78785 15.4V16.0222H9.32118C9.41007 16.3778 9.54725 16.7333 9.73274 17.0889C9.91762 17.4444 10.1064 17.763 10.299 18.0444H1.76562ZM14.4767 18.8444L14.1878 17.4889C14.0249 17.4148 13.8693 17.3407 13.7212 17.2667C13.573 17.1926 13.4249 17.0963 13.2767 16.9778L11.9656 17.4L11.0101 15.7778L12.0545 14.8667C12.0249 14.6741 12.0101 14.4924 12.0101 14.3218C12.0101 14.1517 12.0249 13.9704 12.0545 13.7778L11.0101 12.8667L11.9656 11.2444L13.2767 11.6444C13.4249 11.5407 13.573 11.448 13.7212 11.3662C13.8693 11.285 14.0249 11.2148 14.1878 11.1555L14.4767 9.79999H16.3878L16.6545 11.1555C16.8175 11.2148 16.973 11.2889 17.1212 11.3778C17.2693 11.4667 17.4175 11.5704 17.5656 11.6889L18.8767 11.2444L19.8323 12.9111L18.7878 13.8222C18.8323 13.9852 18.851 14.1591 18.8438 14.344C18.8361 14.5295 18.8175 14.7037 18.7878 14.8667L19.8323 15.7778L18.8767 17.4L17.5656 16.9778C17.4175 17.0963 17.2693 17.1926 17.1212 17.2667C16.973 17.3407 16.8175 17.4148 16.6545 17.4889L16.3878 18.8444H14.4767ZM15.4323 16.0667C15.9064 16.0667 16.3138 15.8924 16.6545 15.544C16.9953 15.1961 17.1656 14.7852 17.1656 14.3111C17.1656 13.837 16.9953 13.4296 16.6545 13.0889C16.3138 12.7481 15.9064 12.5778 15.4323 12.5778C14.9582 12.5778 14.5473 12.7481 14.1994 13.0889C13.851 13.4296 13.6767 13.837 13.6767 14.3111C13.6767 14.7852 13.851 15.1961 14.1994 15.544C14.5473 15.8924 14.9582 16.0667 15.4323 16.0667ZM9.05451 8.55554C9.52859 8.55554 9.93244 8.38873 10.2661 8.0551C10.5991 7.72206 10.7656 7.31851 10.7656 6.84443C10.7656 6.37036 10.5991 5.96651 10.2661 5.63288C9.93244 5.29984 9.52859 5.13332 9.05451 5.13332C8.58044 5.13332 8.17688 5.29984 7.84385 5.63288C7.51022 5.96651 7.3434 6.37036 7.3434 6.84443C7.3434 7.31851 7.51022 7.72206 7.84385 8.0551C8.17688 8.38873 8.58044 8.55554 9.05451 8.55554Z" fill="#6BCFCF"/>
</g>
</svg>
