<svg width="22" height="22" viewBox="0 0 22 22" fill="none" xmlns="http://www.w3.org/2000/svg">
<mask id="mask0_668_5361" style="mask-type:alpha" maskUnits="userSpaceOnUse" x="0" y="0" width="22" height="22">
<rect x="0.166016" y="0.333344" width="21.3333" height="21.3333" fill="#D9D9D9"/>
</mask>
<g mask="url(#mask0_668_5361)">
<path d="M9.05451 10.9111C8.01748 10.9111 7.136 10.5443 6.41007 9.81068C5.68414 9.07764 5.32118 8.20001 5.32118 7.17779C5.32118 6.14075 5.68414 5.25927 6.41007 4.53335C7.136 3.80742 8.01748 3.44446 9.05451 3.44446C10.0916 3.44446 10.973 3.80742 11.699 4.53335C12.4249 5.25927 12.7878 6.14075 12.7878 7.17779C12.7878 8.20001 12.4249 9.07764 11.699 9.81068C10.973 10.5443 10.0916 10.9111 9.05451 10.9111ZM1.76562 18.3778V15.7111C1.76562 15.163 1.90637 14.6631 2.18785 14.2116C2.46933 13.7594 2.83229 13.4222 3.27674 13.2C4.03229 12.8148 4.89896 12.4851 5.87674 12.2107C6.85451 11.9369 7.91377 11.8 9.05451 11.8H9.41007C9.52859 11.8 9.6397 11.8148 9.7434 11.8445C9.62488 12.1111 9.51022 12.4258 9.3994 12.7885C9.28799 13.1517 9.20266 13.4963 9.1434 13.8222H9.07674C8.0397 13.8222 7.10637 13.952 6.27674 14.2116C5.44711 14.4705 4.76562 14.7333 4.23229 15C4.09896 15.0741 3.9917 15.1739 3.91051 15.2996C3.82874 15.4258 3.78785 15.5704 3.78785 15.7333V16.3556H9.32118C9.41007 16.7111 9.54725 17.0667 9.73274 17.4222C9.91762 17.7778 10.1064 18.0963 10.299 18.3778H1.76562ZM14.4767 19.1778L14.1878 17.8222C14.0249 17.7482 13.8693 17.6741 13.7212 17.6C13.573 17.5259 13.4249 17.4296 13.2767 17.3111L11.9656 17.7333L11.0101 16.1111L12.0545 15.2C12.0249 15.0074 12.0101 14.8258 12.0101 14.6551C12.0101 14.4851 12.0249 14.3037 12.0545 14.1111L11.0101 13.2L11.9656 11.5778L13.2767 11.9778C13.4249 11.8741 13.573 11.7813 13.7212 11.6996C13.8693 11.6184 14.0249 11.5482 14.1878 11.4889L14.4767 10.1333H16.3878L16.6545 11.4889C16.8175 11.5482 16.973 11.6222 17.1212 11.7111C17.2693 11.8 17.4175 11.9037 17.5656 12.0222L18.8767 11.5778L19.8323 13.2445L18.7878 14.1556C18.8323 14.3185 18.851 14.4925 18.8438 14.6773C18.8361 14.8628 18.8175 15.0371 18.7878 15.2L19.8323 16.1111L18.8767 17.7333L17.5656 17.3111C17.4175 17.4296 17.2693 17.5259 17.1212 17.6C16.973 17.6741 16.8175 17.7482 16.6545 17.8222L16.3878 19.1778H14.4767ZM15.4323 16.4C15.9064 16.4 16.3138 16.2258 16.6545 15.8773C16.9953 15.5295 17.1656 15.1185 17.1656 14.6445C17.1656 14.1704 16.9953 13.763 16.6545 13.4222C16.3138 13.0815 15.9064 12.9111 15.4323 12.9111C14.9582 12.9111 14.5473 13.0815 14.1994 13.4222C13.851 13.763 13.6767 14.1704 13.6767 14.6445C13.6767 15.1185 13.851 15.5295 14.1994 15.8773C14.5473 16.2258 14.9582 16.4 15.4323 16.4ZM9.05451 8.8889C9.52859 8.8889 9.93244 8.72209 10.2661 8.38846C10.5991 8.05542 10.7656 7.65187 10.7656 7.17779C10.7656 6.70372 10.5991 6.29987 10.2661 5.96624C9.93244 5.6332 9.52859 5.46668 9.05451 5.46668C8.58044 5.46668 8.17688 5.6332 7.84385 5.96624C7.51022 6.29987 7.3434 6.70372 7.3434 7.17779C7.3434 7.65187 7.51022 8.05542 7.84385 8.38846C8.17688 8.72209 8.58044 8.8889 9.05451 8.8889Z" fill="white"/>
</g>
</svg>
