<svg width="24" height="24" viewBox="0 0 24 24" fill="none" xmlns="http://www.w3.org/2000/svg">
<path d="M12 3C11.2044 3 10.4413 3.31607 9.8787 3.87868C9.31609 4.44129 9.00002 5.20435 9.00002 6V12C9.00002 12.7956 9.31609 13.5587 9.8787 14.1213C10.4413 14.6839 11.2044 15 12 15C12.7957 15 13.5587 14.6839 14.1213 14.1213C14.6839 13.5587 15 12.7956 15 12V6C15 5.20435 14.6839 4.44129 14.1213 3.87868C13.5587 3.31607 12.7957 3 12 3ZM12 1C12.6566 1 13.3068 1.12933 13.9134 1.3806C14.5201 1.63188 15.0713 2.00017 15.5356 2.46447C15.9998 2.92876 16.3681 3.47995 16.6194 4.08658C16.8707 4.69321 17 5.34339 17 6V12C17 13.3261 16.4732 14.5979 15.5356 15.5355C14.5979 16.4732 13.3261 17 12 17C10.6739 17 9.40216 16.4732 8.46448 15.5355C7.5268 14.5979 7.00002 13.3261 7.00002 12V6C7.00002 4.67392 7.5268 3.40215 8.46448 2.46447C9.40216 1.52678 10.6739 1 12 1ZM2.19202 13.962L4.15402 13.569C4.51841 15.3814 5.49905 17.0118 6.92933 18.1832C8.3596 19.3545 10.1513 19.9946 12 19.9946C13.8487 19.9946 15.6404 19.3545 17.0707 18.1832C18.501 17.0118 19.4816 15.3814 19.846 13.569L21.808 13.962C20.896 18.545 16.85 22 12 22C7.15002 22 3.10402 18.545 2.19202 13.962Z" fill="white"/>
</svg>
