<svg width="24" height="24" viewBox="0 0 24 24" fill="none" xmlns="http://www.w3.org/2000/svg">
<path d="M12 1C12.6566 1 13.3068 1.12933 13.9134 1.3806C14.52 1.63188 15.0712 2.00017 15.5355 2.46447C15.9998 2.92876 16.3681 3.47995 16.6194 4.08658C16.8707 4.69321 17 5.34339 17 6V12C17 13.3261 16.4732 14.5979 15.5355 15.5355C14.5979 16.4732 13.3261 17 12 17C10.6739 17 9.40215 16.4732 8.46447 15.5355C7.52679 14.5979 7 13.3261 7 12V6C7 4.67392 7.52679 3.40215 8.46447 2.46447C9.40215 1.52678 10.6739 1 12 1ZM2.192 13.962L4.154 13.569C4.51839 15.3814 5.49903 17.0118 6.92931 18.1832C8.35959 19.3545 10.1513 19.9946 12 19.9946C13.8487 19.9946 15.6404 19.3545 17.0707 18.1832C18.501 17.0118 19.4816 15.3814 19.846 13.569L21.808 13.962C20.896 18.545 16.85 22 12 22C7.15 22 3.104 18.545 2.192 13.962Z" fill="white"/>
</svg>
