<svg width="24" height="24" viewBox="0 0 24 24" fill="none" xmlns="http://www.w3.org/2000/svg">
<path d="M16.425 17.839C15.3701 18.436 14.2048 18.8123 13 18.945V23H11V18.945C8.97114 18.7176 7.07979 17.8074 5.63618 16.3638C4.19257 14.9202 3.28242 13.0289 3.05501 11H5.07001C5.22591 12.0794 5.63179 13.1075 6.25532 14.0023C6.87885 14.8971 7.70277 15.6338 8.66143 16.1539C9.62008 16.6739 10.687 16.9628 11.777 16.9975C12.8671 17.0323 13.9502 16.8119 14.94 16.354L13.389 14.804C12.6442 15.0194 11.8595 15.0586 11.0969 14.9186C10.3344 14.7785 9.61479 14.4631 8.9951 13.9971C8.37541 13.5312 7.87257 12.9275 7.52632 12.2338C7.18006 11.5401 6.99988 10.7753 7.00001 9.99999V8.41399L1.39301 2.80799L2.80801 1.39299L22.607 21.193L21.192 22.607L16.425 17.839ZM9.03301 10.447L11.553 12.967C10.9189 12.8712 10.3321 12.5749 9.8786 12.1214C9.42512 11.6679 9.12878 11.0811 9.03301 10.447ZM19.375 15.16L17.932 13.718C18.441 12.908 18.788 11.988 18.929 11H20.945C20.7799 12.4966 20.2399 13.9275 19.375 15.16ZM16.465 12.251L14.917 10.703C14.971 10.477 15 10.243 15 9.99999V5.99999C15.0007 5.2947 14.7529 4.61171 14.3001 4.07096C13.8473 3.53022 13.2184 3.1663 12.524 3.04312C11.8295 2.91993 11.1139 3.04536 10.5027 3.39738C9.89153 3.74939 9.42392 4.30549 9.18201 4.96799L7.68601 3.47099C8.24111 2.52361 9.09264 1.7853 10.1091 1.37005C11.1256 0.9548 12.2505 0.885706 13.3102 1.17343C14.3699 1.46116 15.3054 2.08971 15.9722 2.96204C16.6391 3.83436 17.0003 4.90196 17 5.99999V9.99999C17.0012 10.7818 16.8182 11.553 16.466 12.251H16.465Z" fill="white"/>
</svg>
