<svg width="24" height="24" viewBox="0 0 24 24" fill="none" xmlns="http://www.w3.org/2000/svg">
<path d="M12 1C12.6566 1 13.3068 1.12933 13.9134 1.3806C14.52 1.63188 15.0712 2.00017 15.5355 2.46447C15.9998 2.92876 16.3681 3.47995 16.6194 4.08658C16.8707 4.69321 17 5.34339 17 6V10C17 11.3261 16.4732 12.5979 15.5355 13.5355C14.5979 14.4732 13.3261 15 12 15C10.6739 15 9.40215 14.4732 8.46447 13.5355C7.52678 12.5979 7 11.3261 7 10V6C7 4.67392 7.52678 3.40215 8.46447 2.46447C9.40215 1.52678 10.6739 1 12 1ZM3.055 11H5.07C5.31229 12.6648 6.14587 14.1867 7.41823 15.2873C8.6906 16.3879 10.3167 16.9936 11.999 16.9936C13.6813 16.9936 15.3074 16.3879 16.5798 15.2873C17.8521 14.1867 18.6857 12.6648 18.928 11H20.944C20.7166 13.0287 19.8066 14.9199 18.3632 16.3635C16.9198 17.8071 15.0287 18.7174 13 18.945V23H11V18.945C8.97114 18.7176 7.07978 17.8074 5.63618 16.3638C4.19257 14.9202 3.28241 13.0289 3.055 11Z" fill="white"/>
</svg>
