<svg width="24" height="24" viewBox="0 0 24 24" fill="none" xmlns="http://www.w3.org/2000/svg">
<path d="M2 3.993C2.00183 3.73038 2.1069 3.47902 2.29251 3.29322C2.47813 3.10742 2.72938 3.00209 2.992 3H21.008C21.556 3 22 3.445 22 3.993V20.007C21.9982 20.2696 21.8931 20.521 21.7075 20.7068C21.5219 20.8926 21.2706 20.9979 21.008 21H2.992C2.72881 20.9997 2.4765 20.895 2.29049 20.7088C2.10448 20.5226 2 20.2702 2 20.007V3.993ZM4 5V19H20V5H4ZM10.622 8.415L15.501 11.667C15.5559 11.7035 15.6009 11.753 15.632 11.8111C15.6631 11.8692 15.6794 11.9341 15.6794 12C15.6794 12.0659 15.6631 12.1308 15.632 12.1889C15.6009 12.247 15.5559 12.2965 15.501 12.333L10.621 15.585C10.5608 15.6249 10.491 15.6477 10.4189 15.6512C10.3468 15.6546 10.2751 15.6384 10.2114 15.6043C10.1477 15.5703 10.0945 15.5197 10.0573 15.4578C10.02 15.396 10.0003 15.3252 10 15.253V8.747C10.0001 8.67465 10.0199 8.60369 10.0572 8.54168C10.0944 8.47967 10.1478 8.42893 10.2116 8.39486C10.2755 8.36079 10.3473 8.34467 10.4196 8.34822C10.4919 8.35177 10.5618 8.37485 10.622 8.415Z" fill="white"/>
</svg>
