<svg width="20" height="20" viewBox="0 0 20 20" fill="none" xmlns="http://www.w3.org/2000/svg">
<path d="M3.07505 19.1998C2.44172 19.1998 1.90438 18.9791 1.46305 18.5378C1.02105 18.0958 0.800049 17.5581 0.800049 16.9248V3.0748C0.800049 2.44147 1.02105 1.9038 1.46305 1.4618C1.90438 1.02047 2.44172 0.799805 3.07505 0.799805H10V3.0748H3.07505V16.9248H16.925V9.9998H19.2001V16.9248C19.2001 17.5581 18.9794 18.0958 18.538 18.5378C18.0961 18.9791 17.5584 19.1998 16.925 19.1998H3.07505ZM7.87505 13.6998L6.30005 12.1248L15.35 3.0748H12V0.799805H19.2001V7.9998H16.925V4.6498L7.87505 13.6998Z" fill="#6BCFCF"/>
</svg>
