<svg width="300" height="300" viewBox="0 0 300 300" fill="none" xmlns="http://www.w3.org/2000/svg">
<g clip-path="url(#clip0_744_2106)">
<path opacity="0.2" d="M150.112 266.522C214.895 266.522 267.411 214.294 267.411 149.868C267.411 85.4423 214.895 33.2146 150.112 33.2146C85.3292 33.2146 32.8125 85.4423 32.8125 149.868C32.8125 214.294 85.3292 266.522 150.112 266.522Z" stroke="url(#paint0_linear_744_2106)" stroke-width="0.966044" stroke-miterlimit="10" stroke-linecap="round" stroke-dasharray="0.48 5.31"/>
<path opacity="0.1" d="M220.898 220.556C260 181.669 260 118.621 220.898 79.7344C181.796 40.8475 118.399 40.8475 79.2967 79.7344C40.1946 118.621 40.1946 181.669 79.2967 220.556C118.399 259.443 181.796 259.443 220.898 220.556Z" fill="url(#paint1_linear_744_2106)"/>
<path opacity="0.2" d="M206.854 206.379C238.201 175.205 238.201 124.662 206.854 93.4879C175.508 62.3139 124.685 62.3139 93.3382 93.4879C61.9915 124.662 61.9915 175.205 93.3382 206.379C124.685 237.553 175.508 237.553 206.854 206.379Z" fill="url(#paint2_linear_744_2106)"/>
<path opacity="0.15" d="M194.248 193.843C218.633 169.592 218.633 130.275 194.248 106.024C169.863 81.7739 130.328 81.7739 105.943 106.024C81.5587 130.275 81.5587 169.592 105.943 193.843C130.328 218.093 169.863 218.093 194.248 193.843Z" fill="url(#paint3_linear_744_2106)"/>
<g opacity="0.32" filter="url(#filter0_i_744_2106)">
<path d="M180.149 180.438C197.026 163.654 197.026 136.443 180.149 119.659C163.273 102.876 135.911 102.876 119.034 119.659C102.158 136.443 102.158 163.654 119.034 180.438C135.911 197.221 163.273 197.221 180.149 180.438Z" fill="url(#paint4_linear_744_2106)"/>
</g>
<g filter="url(#filter1_i_744_2106)">
<path d="M71.1406 174.735C72.2452 174.735 73.1406 173.839 73.1406 172.735C73.1406 171.63 72.2452 170.735 71.1406 170.735C70.0361 170.735 69.1406 171.63 69.1406 172.735C69.1406 173.839 70.0361 174.735 71.1406 174.735Z" fill="url(#paint5_linear_744_2106)"/>
</g>
<g filter="url(#filter2_i_744_2106)">
<path d="M193.602 84.4143C194.706 84.4143 195.602 83.5189 195.602 82.4143C195.602 81.3097 194.706 80.4143 193.602 80.4143C192.497 80.4143 191.602 81.3097 191.602 82.4143C191.602 83.5189 192.497 84.4143 193.602 84.4143Z" fill="url(#paint6_linear_744_2106)"/>
</g>
<g filter="url(#filter3_i_744_2106)">
<path d="M181.931 201.417C183.035 201.417 183.931 200.522 183.931 199.417C183.931 198.312 183.035 197.417 181.931 197.417C180.826 197.417 179.931 198.312 179.931 199.417C179.931 200.522 180.826 201.417 181.931 201.417Z" fill="url(#paint7_linear_744_2106)"/>
</g>
<g filter="url(#filter4_i_744_2106)">
<path d="M101.316 111.219C102.421 111.219 103.316 110.324 103.316 109.219C103.316 108.115 102.421 107.219 101.316 107.219C100.212 107.219 99.3164 108.115 99.3164 109.219C99.3164 110.324 100.212 111.219 101.316 111.219Z" fill="url(#paint8_linear_744_2106)"/>
</g>
<path d="M47.2717 208.427C48.3289 208.427 49.1859 207.575 49.1859 206.524C49.1859 205.472 48.3289 204.62 47.2717 204.62C46.2145 204.62 45.3574 205.472 45.3574 206.524C45.3574 207.575 46.2145 208.427 47.2717 208.427Z" fill="#BEA5FB"/>
<path d="M174.113 37.7486C175.17 37.7486 176.027 36.8963 176.027 35.8449C176.027 34.7935 175.17 33.9412 174.113 33.9412C173.055 33.9412 172.198 34.7935 172.198 35.8449C172.198 36.8963 173.055 37.7486 174.113 37.7486Z" fill="#BEA5FB"/>
<path d="M246.096 127.303C247.2 127.303 248.096 126.407 248.096 125.303C248.096 124.198 247.2 123.303 246.096 123.303C244.991 123.303 244.096 124.198 244.096 125.303C244.096 126.407 244.991 127.303 246.096 127.303Z" fill="#BEA5FB" stroke="#231F20" stroke-width="0.483022" stroke-miterlimit="10"/>
<path d="M71.1885 61.7983C72.293 61.7983 73.1885 60.9029 73.1885 59.7983C73.1885 58.6938 72.293 57.7983 71.1885 57.7983C70.0839 57.7983 69.1885 58.6938 69.1885 59.7983C69.1885 60.9029 70.0839 61.7983 71.1885 61.7983Z" fill="#BEA5FB" stroke="#231F20" stroke-width="0.483022" stroke-miterlimit="10"/>
<path d="M259.944 173.658C261.049 173.658 261.944 172.768 261.944 171.669C261.944 170.571 261.049 169.68 259.944 169.68C258.84 169.68 257.944 170.571 257.944 171.669C257.944 172.768 258.84 173.658 259.944 173.658Z" fill="url(#paint9_linear_744_2106)"/>
<path d="M31.8896 173.658C32.9942 173.658 33.8896 172.768 33.8896 171.669C33.8896 170.571 32.9942 169.68 31.8896 169.68C30.7851 169.68 29.8896 170.571 29.8896 171.669C29.8896 172.768 30.7851 173.658 31.8896 173.658Z" fill="url(#paint10_linear_744_2106)"/>
<path d="M119.896 34.2534C121.001 34.2534 121.896 33.3629 121.896 32.2644C121.896 31.1659 121.001 30.2754 119.896 30.2754C118.792 30.2754 117.896 31.1659 117.896 32.2644C117.896 33.3629 118.792 34.2534 119.896 34.2534Z" fill="url(#paint11_linear_744_2106)"/>
<g clip-path="url(#clip1_744_2106)">
<path d="M136.409 137.324L135.572 140.874C135.439 141.435 134.878 141.782 134.316 141.65C133.755 141.518 133.408 140.956 133.54 140.395L134.378 136.845C134.51 136.284 135.072 135.936 135.633 136.069C136.194 136.201 136.541 136.763 136.409 137.324Z" fill="#E65C64"/>
<path d="M128.471 145.265C128.339 145.826 127.777 146.173 127.216 146.041L123.666 145.204C123.105 145.071 122.758 144.509 122.89 143.948C123.022 143.387 123.584 143.04 124.145 143.172L127.695 144.009C128.256 144.142 128.604 144.704 128.471 145.265Z" fill="#F26D76"/>
<path d="M116.351 140.695C114.88 141.599 114.424 143.536 115.336 145.002C116.241 146.466 118.178 146.923 119.642 146.018C120.354 145.578 120.852 144.888 121.044 144.075C121.236 143.263 121.098 142.422 120.658 141.711C119.754 140.24 117.818 139.783 116.351 140.695ZM118.88 142.804C119.195 143.314 119.029 143.942 118.545 144.242C118.064 144.54 117.408 144.385 117.111 143.904C116.804 143.41 116.961 142.771 117.444 142.474C117.953 142.157 118.589 142.331 118.88 142.804Z" fill="#FFC033"/>
<path d="M131.521 132.337C131.653 131.776 131.306 131.214 130.745 131.082C130.184 130.949 129.622 131.297 129.49 131.858C129.357 132.419 129.705 132.981 130.266 133.113C130.827 133.245 131.389 132.898 131.521 132.337Z" fill="#43BFBF"/>
<path d="M122.644 137.825C122.776 137.264 122.429 136.702 121.868 136.57C121.307 136.438 120.745 136.785 120.613 137.346C120.48 137.907 120.828 138.469 121.389 138.602C121.95 138.734 122.512 138.386 122.644 137.825Z" fill="#36D9D9"/>
<path d="M143.011 135.047C143.143 134.486 142.796 133.924 142.235 133.792C141.674 133.659 141.112 134.007 140.98 134.568C140.847 135.129 141.195 135.691 141.756 135.823C142.317 135.955 142.879 135.608 143.011 135.047Z" fill="#43BFBF"/>
<path d="M119.934 149.316C120.066 148.755 119.719 148.193 119.158 148.061C118.597 147.929 118.035 148.276 117.903 148.837C117.77 149.398 118.118 149.96 118.679 150.092C119.24 150.225 119.802 149.877 119.934 149.316Z" fill="#36D9D9"/>
<path d="M121.531 128.908C121.398 129.47 120.837 129.817 120.276 129.685L119.26 129.445C118.699 129.313 118.351 128.751 118.484 128.19C118.616 127.629 119.178 127.281 119.739 127.414L120.755 127.653C121.316 127.786 121.663 128.347 121.531 128.908Z" fill="#FFC033"/>
<path d="M126.609 130.106C126.477 130.667 125.915 131.015 125.354 130.882L124.338 130.643C123.777 130.511 123.429 129.949 123.562 129.388C123.694 128.827 124.256 128.479 124.817 128.611L125.833 128.851C126.394 128.983 126.741 129.545 126.609 130.106Z" fill="#F9A926"/>
<path d="M123.083 131.419L122.843 132.435C122.711 132.996 122.149 133.343 121.588 133.211C121.027 133.078 120.679 132.517 120.812 131.955L121.051 130.94C121.184 130.379 121.746 130.031 122.307 130.164C122.868 130.296 123.215 130.858 123.083 131.419Z" fill="#FFC033"/>
<path d="M124.281 126.341L124.041 127.356C123.909 127.917 123.347 128.265 122.786 128.132C122.225 128 121.878 127.438 122.01 126.877L122.25 125.861C122.382 125.301 122.944 124.953 123.505 125.085C124.066 125.218 124.413 125.78 124.281 126.341Z" fill="#F9A926"/>
<path d="M134.922 128.635C133.451 129.539 132.994 131.475 133.906 132.941C134.812 134.406 136.748 134.863 138.213 133.957C138.924 133.517 139.423 132.827 139.614 132.015C139.806 131.202 139.668 130.362 139.228 129.651C138.324 128.179 136.388 127.723 134.922 128.635ZM137.45 130.743C137.764 131.251 137.602 131.88 137.115 132.182C136.635 132.479 135.978 132.324 135.681 131.844C135.374 131.35 135.532 130.71 136.014 130.413C136.522 130.098 137.158 130.268 137.45 130.743Z" fill="#F9A926"/>
<path d="M131.7 142.549C131.639 142.809 131.479 143.045 131.233 143.197C130.744 143.5 130.1 143.349 129.797 142.858L124.952 135.022C124.649 134.532 124.8 133.889 125.291 133.586C125.781 133.283 126.424 133.435 126.727 133.925L131.572 141.761C131.724 142.006 131.762 142.289 131.7 142.549Z" fill="#FFC033"/>
<path d="M131.233 143.197C131.478 143.046 131.639 142.809 131.7 142.549C131.761 142.289 131.723 142.006 131.572 141.761L126.726 133.925C126.424 133.435 125.78 133.283 125.29 133.586L131.233 143.197Z" fill="#F9A926"/>
<path d="M139.783 153.355L142.65 154.031L143.41 161.104C143.456 161.539 143.242 161.904 142.924 162.102C142.603 162.302 142.178 162.331 141.808 162.094L135.828 158.253L136.505 155.379L138.141 154.369L139.783 153.355Z" fill="#F26D76"/>
<path d="M139.782 153.355L142.65 154.031L143.409 161.105C143.456 161.539 143.241 161.904 142.923 162.102L138.141 154.369L139.782 153.355Z" fill="#E65C64"/>
<path d="M132.608 154.722L140.941 149.571L141.784 145.999L141.34 141.878C141.275 141.304 140.765 140.892 140.187 140.949L125.223 150.207C124.91 150.689 125.049 151.338 125.534 151.646L128.999 153.871L132.608 154.722L132.608 154.722Z" fill="#F26D76"/>
<path d="M140.941 149.572L141.784 145.999L141.34 141.878C141.275 141.304 140.765 140.892 140.187 140.949L132.705 145.578L136.769 152.15L140.941 149.572Z" fill="#E65C64"/>
<path d="M129.01 153.881L135.827 158.255L142.648 154.031L142.646 154.009L141.78 145.985L129.01 153.881Z" fill="#FFC033"/>
<path d="M142.648 154.031L142.647 154.009L141.78 145.985L135.397 149.931L139.238 156.143L142.648 154.031Z" fill="#F9A926"/>
<path d="M143.093 141.131C143.032 141.391 142.871 141.628 142.626 141.779L124.874 152.756C124.384 153.059 123.741 152.907 123.438 152.417C123.135 151.927 123.286 151.284 123.777 150.981L141.529 140.004C142.019 139.701 142.662 139.853 142.965 140.343C143.116 140.588 143.154 140.871 143.093 141.131Z" fill="#36D9D9"/>
<path d="M142.626 141.779C142.871 141.627 143.031 141.391 143.093 141.131C143.154 140.871 143.116 140.588 142.964 140.343C142.662 139.853 142.018 139.701 141.528 140.004L132.652 145.492L133.75 147.267L142.626 141.779Z" fill="#43BFBF"/>
</g>
<g clip-path="url(#clip2_744_2106)">
<path d="M174.603 154.91L170.515 155.259C169.869 155.314 169.3 154.835 169.245 154.189C169.19 153.543 169.669 152.974 170.315 152.919L174.404 152.571C175.05 152.516 175.618 152.995 175.673 153.641C175.728 154.287 175.249 154.855 174.603 154.91Z" fill="#E65C64"/>
<path d="M163.334 149.206C162.688 149.261 162.12 148.782 162.065 148.136L161.716 144.048C161.661 143.402 162.14 142.833 162.786 142.778C163.432 142.723 164 143.202 164.055 143.848L164.404 147.937C164.459 148.583 163.98 149.151 163.334 149.206Z" fill="#F26D76"/>
<path d="M163.972 134.648C162.491 133.392 160.26 133.582 159.013 135.071C157.764 136.552 157.955 138.782 159.436 140.031C160.155 140.637 161.067 140.928 162.003 140.849C162.939 140.769 163.789 140.327 164.395 139.608C165.652 138.126 165.461 135.896 163.972 134.648ZM162.604 138.09C162.17 138.605 161.439 138.648 160.949 138.236C160.463 137.826 160.399 137.07 160.808 136.584C161.229 136.083 161.968 136.027 162.454 136.439C162.971 136.872 163.008 137.613 162.604 138.09Z" fill="#FFC033"/>
<path d="M178.223 147.937C178.869 147.882 179.348 147.313 179.293 146.667C179.238 146.021 178.669 145.542 178.023 145.597C177.377 145.652 176.898 146.221 176.953 146.867C177.008 147.513 177.577 147.992 178.223 147.937Z" fill="#43BFBF"/>
<path d="M169.245 140.37C169.891 140.315 170.37 139.747 170.315 139.101C170.26 138.455 169.692 137.976 169.046 138.031C168.4 138.086 167.921 138.654 167.976 139.3C168.031 139.946 168.599 140.425 169.245 140.37Z" fill="#36D9D9"/>
<path d="M179.351 161.171C179.997 161.116 180.476 160.547 180.421 159.901C180.366 159.255 179.797 158.776 179.151 158.831C178.505 158.886 178.026 159.455 178.081 160.101C178.136 160.747 178.705 161.226 179.351 161.171Z" fill="#43BFBF"/>
<path d="M156.012 141.499C156.658 141.444 157.137 140.875 157.082 140.229C157.027 139.583 156.458 139.104 155.812 139.159C155.166 139.214 154.687 139.783 154.742 140.429C154.797 141.075 155.366 141.554 156.012 141.499Z" fill="#36D9D9"/>
<path d="M178.388 136.056C177.742 136.111 177.174 135.632 177.118 134.986L177.019 133.816C176.964 133.17 177.443 132.602 178.089 132.546C178.735 132.491 179.303 132.97 179.358 133.617L179.458 134.786C179.513 135.432 179.034 136.001 178.388 136.056Z" fill="#FFC033"/>
<path d="M178.887 141.905C178.241 141.96 177.673 141.481 177.617 140.835L177.518 139.665C177.463 139.019 177.942 138.45 178.588 138.395C179.234 138.34 179.802 138.819 179.857 139.465L179.957 140.635C180.012 141.281 179.533 141.85 178.887 141.905Z" fill="#F9A926"/>
<path d="M176.248 138.595L175.078 138.695C174.432 138.75 173.864 138.271 173.809 137.625C173.754 136.978 174.233 136.41 174.879 136.355L176.049 136.255C176.695 136.2 177.263 136.679 177.318 137.325C177.373 137.971 176.894 138.54 176.248 138.595Z" fill="#FFC033"/>
<path d="M182.097 138.096L180.927 138.196C180.281 138.251 179.712 137.772 179.657 137.126C179.602 136.48 180.081 135.911 180.727 135.856L181.897 135.757C182.543 135.701 183.112 136.18 183.167 136.827C183.222 137.473 182.742 138.041 182.097 138.096Z" fill="#F9A926"/>
<path d="M183.372 150.275C181.89 149.019 179.66 149.209 178.412 150.698C177.164 152.179 177.354 154.41 178.835 155.658C179.554 156.264 180.467 156.556 181.403 156.476C182.338 156.396 183.189 155.954 183.795 155.235C185.051 153.753 184.861 151.523 183.372 150.275ZM182.004 153.716C181.571 154.231 180.841 154.277 180.348 153.863C179.862 153.453 179.798 152.697 180.208 152.211C180.628 151.71 181.367 151.654 181.854 152.066C182.368 152.498 182.41 153.238 182.004 153.716Z" fill="#F9A926"/>
<path d="M167.368 151.707C167.069 151.732 166.76 151.643 166.512 151.434C166.016 151.017 165.953 150.276 166.371 149.78L173.05 141.855C173.468 141.359 174.208 141.296 174.704 141.714C175.2 142.132 175.263 142.873 174.845 143.368L168.166 151.293C167.957 151.541 167.667 151.681 167.368 151.707Z" fill="#FFC033"/>
<path d="M166.512 151.434C166.76 151.643 167.069 151.732 167.368 151.706C167.667 151.681 167.957 151.541 168.166 151.293L174.845 143.368C175.263 142.873 175.2 142.132 174.704 141.714L166.512 151.434Z" fill="#F9A926"/>
<path d="M158.648 164.133L158.929 167.435L151.633 170.725C151.185 170.927 150.72 170.826 150.397 170.555C150.071 170.282 149.89 169.838 150.014 169.359L152.025 161.62L155.336 161.338L156.989 162.733L158.648 164.133Z" fill="#F26D76"/>
<path d="M158.648 164.132L158.929 167.435L151.634 170.725C151.185 170.927 150.72 170.825 150.397 170.554L156.989 162.733L158.648 164.132Z" fill="#E65C64"/>
<path d="M154.672 156.941L163.098 164.046L167.212 163.695L171.462 161.777C172.053 161.507 172.315 160.817 172.052 160.219L156.912 147.465C156.286 147.299 155.642 147.675 155.483 148.302L154.317 152.786L154.672 156.941L154.672 156.941Z" fill="#F26D76"/>
<path d="M163.098 164.046L167.212 163.695L171.462 161.777C172.053 161.507 172.315 160.817 172.052 160.219L164.482 153.842L158.88 160.489L163.098 164.046Z" fill="#E65C64"/>
<path d="M154.311 152.801L152.023 161.621L158.929 167.434L158.951 167.424L167.226 163.686L154.311 152.801Z" fill="#FFC033"/>
<path d="M158.929 167.434L158.951 167.424L167.226 163.686L160.771 158.245L155.476 164.527L158.929 167.434Z" fill="#F9A926"/>
<path d="M172.875 163.389C172.576 163.415 172.267 163.326 172.019 163.117L154.065 147.985C153.569 147.567 153.506 146.826 153.924 146.331C154.342 145.835 155.082 145.772 155.578 146.19L173.532 161.322C174.027 161.739 174.091 162.48 173.673 162.976C173.464 163.224 173.174 163.364 172.875 163.389Z" fill="#36D9D9"/>
<path d="M172.018 163.117C172.266 163.326 172.575 163.415 172.875 163.389C173.174 163.364 173.463 163.224 173.672 162.976C174.09 162.481 174.027 161.74 173.531 161.322L164.555 153.756L163.041 155.551L172.018 163.117Z" fill="#43BFBF"/>
</g>
<path opacity="0.78" d="M89.504 -2.44823L88.8745 0.512938C88.7751 0.980926 88.3152 1.27956 87.8472 1.18008C87.3792 1.08061 87.0806 0.620758 87.1801 0.15277L87.8095 -2.8084C87.909 -3.27639 88.3688 -3.57502 88.8368 -3.47554C89.3049 -3.37606 89.6034 -2.91622 89.504 -2.44823Z" fill="#E65C64"/>
<path opacity="0.86" d="M131.223 23.7596L129.343 21.6725C129.046 21.3426 129.073 20.8347 129.403 20.5377C129.733 20.2407 130.241 20.2673 130.538 20.5971L132.417 22.6843C132.714 23.0141 132.687 23.5221 132.357 23.8191C132.028 24.1161 131.52 24.0895 131.223 23.7596Z" fill="#E65C64"/>
<path opacity="0.89" d="M272.316 113.646L272.395 115.906C272.407 116.264 272.128 116.563 271.771 116.576C271.413 116.588 271.114 116.309 271.101 115.952L271.023 113.692C271.01 113.334 271.289 113.035 271.647 113.022C272.004 113.01 272.303 113.289 272.316 113.646Z" fill="#E65C64"/>
<path opacity="0.89" d="M270.015 219.091L266.893 218.077C266.399 217.916 266.13 217.387 266.29 216.893C266.45 216.4 266.98 216.13 267.473 216.29L270.595 217.305C271.089 217.465 271.359 217.995 271.198 218.488C271.038 218.982 270.508 219.251 270.015 219.091Z" fill="#E65C64"/>
<path opacity="0.75" d="M139.922 202.518L138.668 199.563C138.47 199.096 138.688 198.557 139.155 198.359C139.622 198.161 140.161 198.378 140.359 198.845L141.613 201.8C141.811 202.267 141.593 202.806 141.126 203.004C140.659 203.202 140.12 202.984 139.922 202.518Z" fill="#E65C64"/>
<path opacity="0.7" d="M225.847 195.711H222.856C222.383 195.711 222 195.328 222 194.856C222 194.383 222.383 194 222.856 194H225.847C226.319 194 226.702 194.383 226.702 194.856C226.702 195.328 226.319 195.711 225.847 195.711Z" fill="#E65C64"/>
<path opacity="0.88" d="M30.8186 205.71L34.5543 205.051C35.1446 204.947 35.7074 205.341 35.8115 205.931C35.9156 206.522 35.5216 207.084 34.9312 207.188L31.1955 207.847C30.6052 207.951 30.0424 207.557 29.9383 206.967C29.8342 206.376 30.2282 205.814 30.8186 205.71Z" fill="#E65C64"/>
<path opacity="0.95" d="M24.2665 73.2568L24.3857 74.0092C24.4515 74.4249 24.168 74.815 23.7524 74.8808C23.3368 74.9467 22.9467 74.6632 22.8808 74.2476L22.7617 73.4952C22.6958 73.0795 22.9793 72.6894 23.3949 72.6236C23.8105 72.5577 24.2007 72.8411 24.2665 73.2568Z" fill="#FFC033"/>
<path opacity="0.88" d="M115.611 42.4218L115.853 43.4691C115.986 44.0476 115.626 44.6246 115.047 44.7582C114.469 44.8918 113.892 44.5312 113.758 43.9527L113.516 42.9054C113.383 42.3268 113.743 41.7498 114.322 41.6162C114.9 41.4827 115.477 41.8432 115.611 42.4218Z" fill="#FFC033"/>
<path opacity="0.89" d="M239.483 54.2114L239.809 55.2792C239.99 55.8691 239.658 56.4932 239.068 56.6735C238.478 56.8539 237.854 56.522 237.674 55.9322L237.347 54.8644C237.167 54.2745 237.499 53.6504 238.088 53.4701C238.678 53.2897 239.302 53.6215 239.483 54.2114Z" fill="#FFC033"/>
<path opacity="0.79" d="M13.4714 150.958L13.8641 151.586C14.0809 151.933 13.9754 152.39 13.6283 152.607C13.2813 152.824 12.8242 152.719 12.6074 152.372L12.2147 151.743C11.9979 151.396 12.1034 150.939 12.4504 150.722C12.7975 150.505 13.2545 150.611 13.4714 150.958Z" fill="#FFC033"/>
<path opacity="0.95" d="M128.702 146.037L128.017 145.703C127.639 145.519 127.482 145.063 127.666 144.685C127.851 144.306 128.306 144.149 128.685 144.334L129.369 144.668C129.748 144.852 129.905 145.308 129.72 145.687C129.536 146.065 129.08 146.222 128.702 146.037Z" fill="#FFC033"/>
<path opacity="0.9" d="M204.552 172.172L205.371 172.767C205.823 173.096 205.924 173.729 205.595 174.181C205.266 174.633 204.633 174.734 204.181 174.405L203.362 173.81C202.91 173.481 202.81 172.848 203.138 172.396C203.467 171.944 204.1 171.843 204.552 172.172Z" fill="#FFC033"/>
<path opacity="0.98" d="M148.975 198.313L150.153 198.478C150.804 198.57 151.257 199.171 151.166 199.822C151.074 200.473 150.473 200.926 149.822 200.834L148.644 200.669C147.993 200.577 147.54 199.976 147.631 199.325C147.723 198.674 148.324 198.221 148.975 198.313Z" fill="#FFC033"/>
<path opacity="0.91" d="M188.563 54.9893C187.895 54.5189 186.968 54.6823 186.501 55.3529C186.034 56.0202 186.197 56.9473 186.864 57.4145C187.189 57.6415 187.582 57.7293 187.971 57.6607C188.36 57.5921 188.699 57.3751 188.926 57.051C189.397 56.3831 189.233 55.456 188.563 54.9893ZM188.119 56.4822C187.957 56.7138 187.653 56.7609 187.431 56.6057C187.212 56.4524 187.157 56.1381 187.31 55.9191C187.467 55.6935 187.775 55.6423 187.994 55.7965C188.226 55.9582 188.271 56.2664 188.119 56.4822Z" fill="#F9A926"/>
<path opacity="0.74" d="M209.4 77.6299C208.673 78.4319 208.739 79.6768 209.545 80.3985C210.346 81.1204 211.591 81.0552 212.313 80.2534C212.664 79.864 212.843 79.3614 212.815 78.839C212.788 78.3166 212.558 77.8354 212.168 77.4848C211.366 76.7585 210.121 76.8238 209.4 77.6299ZM211.29 78.4542C211.569 78.7044 211.581 79.1116 211.342 79.3783C211.105 79.6414 210.683 79.6635 210.42 79.4266C210.148 79.1834 210.131 78.7711 210.369 78.5076C210.619 78.229 211.031 78.2195 211.29 78.4542Z" fill="#F9A926"/>
<path opacity="0.9" d="M34.9689 144.364C33.9705 144.686 33.4219 145.762 33.7488 146.759C34.072 147.754 35.1488 148.302 36.1434 147.979C36.6266 147.822 37.0203 147.487 37.2505 147.035C37.4807 146.583 37.5205 146.068 37.3636 145.585C37.0423 144.586 35.9655 144.037 34.9689 144.364ZM36.1566 145.973C36.269 146.318 36.0824 146.666 35.7519 146.774C35.4255 146.88 35.0604 146.694 34.9543 146.367C34.8446 146.032 35.0296 145.677 35.3572 145.571C35.702 145.458 36.0529 145.65 36.1566 145.973Z" fill="#F9A926"/>
<path opacity="0.73" d="M163.684 182.076C164.115 182.743 165.011 182.934 165.677 182.499C166.341 182.067 166.532 181.171 166.1 180.507C165.891 180.184 165.568 179.961 165.192 179.881C164.816 179.802 164.431 179.874 164.108 180.083C163.44 180.514 163.25 181.41 163.684 182.076ZM164.629 180.891C164.859 180.741 165.151 180.809 165.294 181.03C165.436 181.248 165.371 181.552 165.153 181.693C164.929 181.84 164.633 181.774 164.492 181.555C164.341 181.324 164.413 181.03 164.629 180.891Z" fill="#F9A926"/>
<path opacity="0.7" d="M221.299 165.413C221.523 166.584 222.662 167.353 223.832 167.122C224.999 166.895 225.767 165.756 225.54 164.589C225.43 164.022 225.106 163.531 224.629 163.209C224.151 162.886 223.574 162.77 223.007 162.88C221.836 163.104 221.068 164.243 221.299 165.413ZM223.278 164.296C223.683 164.217 224.05 164.476 224.126 164.863C224.2 165.246 223.94 165.633 223.557 165.707C223.163 165.784 222.788 165.527 222.714 165.142C222.635 164.738 222.9 164.368 223.278 164.296Z" fill="#F9A926"/>
<path opacity="0.79" d="M93.1107 38.0814C93.2513 38.3973 93.6214 38.5393 93.9373 38.3987C94.2533 38.258 94.3953 37.8879 94.2547 37.572C94.114 37.2561 93.7439 37.114 93.428 37.2547C93.1121 37.3953 92.97 37.7654 93.1107 38.0814Z" fill="#43BFBF"/>
<path opacity="0.79" d="M148.391 53.5829C148.121 53.34 147.706 53.3618 147.463 53.6316C147.22 53.9014 147.242 54.3171 147.511 54.5601C147.781 54.803 148.197 54.7813 148.44 54.5114C148.683 54.2416 148.661 53.8259 148.391 53.5829Z" fill="#43BFBF"/>
<path opacity="0.82" d="M260.291 2.52681C260.881 2.74167 261.534 2.4373 261.749 1.84697C261.964 1.25664 261.659 0.603904 261.069 0.389042C260.479 0.17418 259.826 0.478557 259.611 1.06889C259.396 1.65921 259.7 2.31195 260.291 2.52681Z" fill="#43BFBF"/>
<path opacity="0.72" d="M60.6784 196.458C60.9651 196.691 61.3856 196.646 61.6178 196.36C61.8499 196.073 61.8057 195.652 61.519 195.42C61.2324 195.188 60.8118 195.232 60.5797 195.519C60.3476 195.806 60.3918 196.226 60.6784 196.458Z" fill="#43BFBF"/>
<path opacity="0.92" d="M186.425 172.092C185.94 172.56 185.927 173.333 186.395 173.818C186.864 174.303 187.637 174.317 188.122 173.848C188.607 173.38 188.62 172.607 188.152 172.122C187.683 171.637 186.91 171.623 186.425 172.092Z" fill="#43BFBF"/>
<path opacity="0.85" d="M259.533 220.585C259.058 220.2 258.361 220.273 257.977 220.748C257.592 221.223 257.666 221.919 258.14 222.304C258.615 222.688 259.312 222.615 259.696 222.14C260.081 221.666 260.007 220.969 259.533 220.585Z" fill="#43BFBF"/>
<path opacity="0.9" d="M26.5958 20.0503C26.8937 20.0347 27.1225 19.7806 27.1069 19.4828C27.0913 19.1849 26.8372 18.9561 26.5393 18.9717C26.2415 18.9873 26.0127 19.2415 26.0283 19.5393C26.0439 19.8372 26.298 20.066 26.5958 20.0503Z" fill="#43BFBF"/>
<path opacity="0.77" d="M122.674 56.6448C122.449 56.3462 122.024 56.2866 121.726 56.5115C121.427 56.7365 121.368 57.1609 121.593 57.4594C121.818 57.758 122.242 57.8176 122.541 57.5927C122.839 57.3677 122.899 56.9433 122.674 56.6448Z" fill="#43BFBF"/>
<path opacity="0.72" d="M217.201 58.16C216.927 58.2437 216.773 58.5336 216.857 58.8074C216.941 59.0812 217.23 59.2353 217.504 59.1516C217.778 59.0679 217.932 58.778 217.848 58.5042C217.765 58.2304 217.475 58.0763 217.201 58.16Z" fill="#43BFBF"/>
<path opacity="0.89" d="M15.472 153.388C15.4994 152.996 15.2033 152.655 14.8106 152.627C14.4178 152.6 14.0772 152.896 14.0497 153.289C14.0223 153.682 14.3184 154.022 14.7111 154.05C15.1039 154.077 15.4445 153.781 15.472 153.388Z" fill="#43BFBF"/>
<path opacity="0.84" d="M185.481 116.011C185.647 115.685 185.518 115.286 185.192 115.12C184.866 114.954 184.467 115.084 184.301 115.41C184.135 115.736 184.264 116.135 184.59 116.301C184.916 116.467 185.315 116.337 185.481 116.011Z" fill="#43BFBF"/>
<path opacity="0.73" d="M216.465 182.829C216.147 182.817 215.88 183.066 215.869 183.384C215.858 183.702 216.106 183.969 216.424 183.98C216.742 183.991 217.009 183.742 217.02 183.424C217.031 183.106 216.782 182.84 216.465 182.829Z" fill="#43BFBF"/>
<path opacity="0.75" d="M54.7393 218.373C54.4615 218.03 53.9582 217.977 53.6152 218.255C53.2721 218.533 53.2192 219.036 53.497 219.379C53.7748 219.722 54.2781 219.775 54.6211 219.497C54.9642 219.219 55.0171 218.716 54.7393 218.373Z" fill="#43BFBF"/>
</g>
<defs>
<filter id="filter0_i_744_2106" x="106.377" y="107.072" width="86.4297" height="87.8862" filterUnits="userSpaceOnUse" color-interpolation-filters="sRGB">
<feFlood flood-opacity="0" result="BackgroundImageFix"/>
<feBlend mode="normal" in="SourceGraphic" in2="BackgroundImageFix" result="shape"/>
<feColorMatrix in="SourceAlpha" type="matrix" values="0 0 0 0 0 0 0 0 0 0 0 0 0 0 0 0 0 0 127 0" result="hardAlpha"/>
<feOffset dy="1.93209"/>
<feGaussianBlur stdDeviation="14.4907"/>
<feComposite in2="hardAlpha" operator="arithmetic" k2="-1" k3="1"/>
<feColorMatrix type="matrix" values="0 0 0 0 1 0 0 0 0 1 0 0 0 0 1 0 0 0 0.25 0"/>
<feBlend mode="normal" in2="shape" result="effect1_innerShadow_744_2106"/>
</filter>
<filter id="filter1_i_744_2106" x="69.1406" y="170.735" width="4" height="5.93209" filterUnits="userSpaceOnUse" color-interpolation-filters="sRGB">
<feFlood flood-opacity="0" result="BackgroundImageFix"/>
<feBlend mode="normal" in="SourceGraphic" in2="BackgroundImageFix" result="shape"/>
<feColorMatrix in="SourceAlpha" type="matrix" values="0 0 0 0 0 0 0 0 0 0 0 0 0 0 0 0 0 0 127 0" result="hardAlpha"/>
<feOffset dy="1.93209"/>
<feGaussianBlur stdDeviation="1.69058"/>
<feComposite in2="hardAlpha" operator="arithmetic" k2="-1" k3="1"/>
<feColorMatrix type="matrix" values="0 0 0 0 1 0 0 0 0 1 0 0 0 0 1 0 0 0 0.25 0"/>
<feBlend mode="normal" in2="shape" result="effect1_innerShadow_744_2106"/>
</filter>
<filter id="filter2_i_744_2106" x="191.602" y="80.4143" width="4" height="5.93209" filterUnits="userSpaceOnUse" color-interpolation-filters="sRGB">
<feFlood flood-opacity="0" result="BackgroundImageFix"/>
<feBlend mode="normal" in="SourceGraphic" in2="BackgroundImageFix" result="shape"/>
<feColorMatrix in="SourceAlpha" type="matrix" values="0 0 0 0 0 0 0 0 0 0 0 0 0 0 0 0 0 0 127 0" result="hardAlpha"/>
<feOffset dy="1.93209"/>
<feGaussianBlur stdDeviation="1.69058"/>
<feComposite in2="hardAlpha" operator="arithmetic" k2="-1" k3="1"/>
<feColorMatrix type="matrix" values="0 0 0 0 1 0 0 0 0 1 0 0 0 0 1 0 0 0 0.25 0"/>
<feBlend mode="normal" in2="shape" result="effect1_innerShadow_744_2106"/>
</filter>
<filter id="filter3_i_744_2106" x="179.931" y="197.417" width="4" height="5.93209" filterUnits="userSpaceOnUse" color-interpolation-filters="sRGB">
<feFlood flood-opacity="0" result="BackgroundImageFix"/>
<feBlend mode="normal" in="SourceGraphic" in2="BackgroundImageFix" result="shape"/>
<feColorMatrix in="SourceAlpha" type="matrix" values="0 0 0 0 0 0 0 0 0 0 0 0 0 0 0 0 0 0 127 0" result="hardAlpha"/>
<feOffset dy="1.93209"/>
<feGaussianBlur stdDeviation="1.69058"/>
<feComposite in2="hardAlpha" operator="arithmetic" k2="-1" k3="1"/>
<feColorMatrix type="matrix" values="0 0 0 0 1 0 0 0 0 1 0 0 0 0 1 0 0 0 0.25 0"/>
<feBlend mode="normal" in2="shape" result="effect1_innerShadow_744_2106"/>
</filter>
<filter id="filter4_i_744_2106" x="99.3164" y="107.219" width="4" height="5.93209" filterUnits="userSpaceOnUse" color-interpolation-filters="sRGB">
<feFlood flood-opacity="0" result="BackgroundImageFix"/>
<feBlend mode="normal" in="SourceGraphic" in2="BackgroundImageFix" result="shape"/>
<feColorMatrix in="SourceAlpha" type="matrix" values="0 0 0 0 0 0 0 0 0 0 0 0 0 0 0 0 0 0 127 0" result="hardAlpha"/>
<feOffset dy="1.93209"/>
<feGaussianBlur stdDeviation="1.69058"/>
<feComposite in2="hardAlpha" operator="arithmetic" k2="-1" k3="1"/>
<feColorMatrix type="matrix" values="0 0 0 0 1 0 0 0 0 1 0 0 0 0 1 0 0 0 0.25 0"/>
<feBlend mode="normal" in2="shape" result="effect1_innerShadow_744_2106"/>
</filter>
<linearGradient id="paint0_linear_744_2106" x1="150.112" y1="33.2146" x2="150.112" y2="332.5" gradientUnits="userSpaceOnUse">
<stop stop-color="white"/>
<stop offset="1" stop-color="white" stop-opacity="0"/>
</linearGradient>
<linearGradient id="paint1_linear_744_2106" x1="144.03" y1="283.928" x2="159.094" y2="-51.5006" gradientUnits="userSpaceOnUse">
<stop stop-color="#001111"/>
<stop offset="0.479167" stop-color="#867CDA"/>
<stop offset="1" stop-color="#41FFFF"/>
</linearGradient>
<linearGradient id="paint2_linear_744_2106" x1="145.233" y1="257.182" x2="157.308" y2="-11.718" gradientUnits="userSpaceOnUse">
<stop stop-color="#001111"/>
<stop offset="0.479167" stop-color="#867CDA"/>
<stop offset="1" stop-color="#41FFFF"/>
</linearGradient>
<linearGradient id="paint3_linear_744_2106" x1="146.312" y1="233.363" x2="155.706" y2="24.1842" gradientUnits="userSpaceOnUse">
<stop stop-color="#001111"/>
<stop offset="0.479167" stop-color="#867CDA"/>
<stop offset="1" stop-color="#41FFFF"/>
</linearGradient>
<linearGradient id="paint4_linear_744_2106" x1="149.594" y1="247.743" x2="146.004" y2="110.597" gradientUnits="userSpaceOnUse">
<stop offset="0.131661" stop-color="#693BBB"/>
<stop offset="0.999184" stop-color="#6BCFCF"/>
</linearGradient>
<linearGradient id="paint5_linear_744_2106" x1="67.926" y1="175.95" x2="72.3201" y2="171.318" gradientUnits="userSpaceOnUse">
<stop offset="0.131661" stop-color="#693BBB"/>
<stop offset="0.999184" stop-color="#6BCFCF"/>
</linearGradient>
<linearGradient id="paint6_linear_744_2106" x1="190.387" y1="85.6291" x2="194.781" y2="80.9974" gradientUnits="userSpaceOnUse">
<stop offset="0.131661" stop-color="#693BBB"/>
<stop offset="0.999184" stop-color="#6BCFCF"/>
</linearGradient>
<linearGradient id="paint7_linear_744_2106" x1="178.716" y1="202.632" x2="183.11" y2="198" gradientUnits="userSpaceOnUse">
<stop offset="0.131661" stop-color="#693BBB"/>
<stop offset="0.999184" stop-color="#6BCFCF"/>
</linearGradient>
<linearGradient id="paint8_linear_744_2106" x1="98.1017" y1="112.434" x2="102.496" y2="107.802" gradientUnits="userSpaceOnUse">
<stop offset="0.131661" stop-color="#693BBB"/>
<stop offset="0.999184" stop-color="#6BCFCF"/>
</linearGradient>
<linearGradient id="paint9_linear_744_2106" x1="262.033" y1="169.851" x2="258" y2="174.139" gradientUnits="userSpaceOnUse">
<stop stop-color="white"/>
<stop offset="0.973958" stop-color="#ABB4CE"/>
</linearGradient>
<linearGradient id="paint10_linear_744_2106" x1="33.9784" y1="169.851" x2="29.9456" y2="174.139" gradientUnits="userSpaceOnUse">
<stop stop-color="white"/>
<stop offset="0.973958" stop-color="#ABB4CE"/>
</linearGradient>
<linearGradient id="paint11_linear_744_2106" x1="121.985" y1="30.4458" x2="117.952" y2="34.7343" gradientUnits="userSpaceOnUse">
<stop stop-color="white"/>
<stop offset="0.973958" stop-color="#ABB4CE"/>
</linearGradient>
<clipPath id="clip0_744_2106">
<rect width="300" height="300" fill="white"/>
</clipPath>
<clipPath id="clip1_744_2106">
<rect width="32" height="32" fill="white" transform="translate(112 155.146) rotate(-76.7301)"/>
</clipPath>
<clipPath id="clip2_744_2106">
<rect width="36" height="36" fill="white" transform="translate(147 135.059) rotate(-4.87395)"/>
</clipPath>
</defs>
</svg>
