<svg width="24" height="24" viewBox="0 0 24 24" fill="none" xmlns="http://www.w3.org/2000/svg">
<path d="M4 6H2L2 20C2 21.1 2.9 22 4 22L18 22V20L4 20L4 6ZM20 2L8 2C6.9 2 6 2.9 6 4L6 16C6 17.1 6.9 18 8 18L20 18C21.1 18 22 17.1 22 16L22 4C22 2.9 21.1 2 20 2ZM20 16L8 16L8 4L20 4L20 16ZM13.51 10.16C13.92 9.43 14.69 9 15.14 8.36C15.62 7.68 15.35 6.42 14 6.42C13.12 6.42 12.68 7.09 12.5 7.65L11.13 7.08C11.51 5.96 12.52 5 13.99 5C15.22 5 16.07 5.56 16.5 6.26C16.87 6.86 17.08 7.99 16.51 8.83C15.88 9.76 15.28 10.04 14.95 10.64C14.82 10.88 14.77 11.04 14.77 11.82L13.25 11.82C13.26 11.41 13.19 10.74 13.51 10.16ZM12.95 13.95C12.95 13.36 13.42 12.91 14 12.91C14.59 12.91 15.04 13.36 15.04 13.95C15.04 14.53 14.6 15 14 15C13.42 15 12.95 14.53 12.95 13.95Z" fill="white"/>
</svg>
