<svg width="26" height="26" viewBox="0 0 26 26" fill="none" xmlns="http://www.w3.org/2000/svg">
<path d="M9.03341 25.25L6.81675 21.5167L2.61675 20.5833L3.02508 16.2667L0.166748 13L3.02508 9.73333L2.61675 5.41667L6.81675 4.48333L9.03341 0.75L13.0001 2.44167L16.9667 0.75L19.1834 4.48333L23.3834 5.41667L22.9751 9.73333L25.8334 13L22.9751 16.2667L23.3834 20.5833L19.1834 21.5167L16.9667 25.25L13.0001 23.5583L9.03341 25.25ZM13.0001 18.8333C13.3306 18.8333 13.6077 18.7215 13.8313 18.4979C14.0549 18.2743 14.1667 17.9972 14.1667 17.6667C14.1667 17.3361 14.0549 17.059 13.8313 16.8354C13.6077 16.6118 13.3306 16.5 13.0001 16.5C12.6695 16.5 12.3924 16.6118 12.1688 16.8354C11.9452 17.059 11.8334 17.3361 11.8334 17.6667C11.8334 17.9972 11.9452 18.2743 12.1688 18.4979C12.3924 18.7215 12.6695 18.8333 13.0001 18.8333ZM11.8334 14.1667H14.1667V7.16667H11.8334V14.1667Z" fill="#F6AC3C"/>
</svg>
