<svg width="24" height="24" viewBox="0 0 24 24" fill="none" xmlns="http://www.w3.org/2000/svg">
<path d="M12 10.667L21.223 4.51801C21.2983 4.4679 21.3858 4.43916 21.4761 4.43484C21.5665 4.43051 21.6563 4.45078 21.736 4.49347C21.8157 4.53616 21.8824 4.59967 21.9289 4.67725C21.9754 4.75483 22 4.84356 22 4.93401V19.066C22 19.1564 21.9754 19.2452 21.9289 19.3228C21.8824 19.4003 21.8157 19.4639 21.736 19.5065C21.6563 19.5492 21.5665 19.5695 21.4761 19.5652C21.3858 19.5609 21.2983 19.5321 21.223 19.482L12 13.333V19.066C12 19.1564 11.9754 19.2452 11.9289 19.3228C11.8824 19.4003 11.8157 19.4639 11.736 19.5065C11.6563 19.5492 11.5665 19.5695 11.4761 19.5652C11.3858 19.5609 11.2983 19.5321 11.223 19.482L0.62401 12.416C0.555531 12.3703 0.499383 12.3085 0.46055 12.2359C0.421716 12.1633 0.401398 12.0823 0.401398 12C0.401398 11.9177 0.421716 11.8367 0.46055 11.7641C0.499383 11.6915 0.555531 11.6297 0.62401 11.584L11.223 4.51801C11.2983 4.4679 11.3858 4.43916 11.4761 4.43484C11.5665 4.43051 11.6563 4.45078 11.736 4.49347C11.8157 4.53616 11.8824 4.59967 11.9289 4.67725C11.9754 4.75483 12 4.84356 12 4.93401V10.667Z" fill="#ff0000"/>
</svg>
