<svg width="28" height="29" viewBox="0 0 28 29" fill="none" xmlns="http://www.w3.org/2000/svg">
<mask id="mask0_598_6288" style="mask-type:alpha" maskUnits="userSpaceOnUse" x="0" y="0" width="28" height="29">
<rect y="0.666687" width="28" height="28" fill="#D9D9D9"/>
</mask>
<g mask="url(#mask0_598_6288)">
<path d="M17.8497 20.15L19.483 18.5167L15.1663 14.2V8.83333H12.833V15.1333L17.8497 20.15ZM13.9997 26.3333C12.3858 26.3333 10.8691 26.0269 9.44968 25.414C8.03023 24.8019 6.79551 23.9708 5.74551 22.9208C4.69551 21.8708 3.86445 20.6361 3.25234 19.2167C2.63945 17.7972 2.33301 16.2806 2.33301 14.6667C2.33301 13.0528 2.63945 11.5361 3.25234 10.1167C3.86445 8.69722 4.69551 7.4625 5.74551 6.4125C6.79551 5.3625 8.03023 4.53106 9.44968 3.91817C10.8691 3.30606 12.3858 3 13.9997 3C15.6136 3 17.1302 3.30606 18.5497 3.91817C19.9691 4.53106 21.2038 5.3625 22.2538 6.4125C23.3038 7.4625 24.1349 8.69722 24.747 10.1167C25.3599 11.5361 25.6663 13.0528 25.6663 14.6667C25.6663 16.2806 25.3599 17.7972 24.747 19.2167C24.1349 20.6361 23.3038 21.8708 22.2538 22.9208C21.2038 23.9708 19.9691 24.8019 18.5497 25.414C17.1302 26.0269 15.6136 26.3333 13.9997 26.3333ZM13.9997 24C16.5858 24 18.7881 23.0912 20.6065 21.2735C22.4242 19.4551 23.333 17.2528 23.333 14.6667C23.333 12.0806 22.4242 9.87828 20.6065 8.05983C18.7881 6.24217 16.5858 5.33333 13.9997 5.33333C11.4136 5.33333 9.21167 6.24217 7.39401 8.05983C5.57556 9.87828 4.66634 12.0806 4.66634 14.6667C4.66634 17.2528 5.57556 19.4551 7.39401 21.2735C9.21167 23.0912 11.4136 24 13.9997 24Z" fill="#6BCFCF"/>
</g>
</svg>
