<svg width="20" height="20" viewBox="0 0 20 20" fill="none" xmlns="http://www.w3.org/2000/svg">
<path fill-rule="evenodd" clip-rule="evenodd" d="M13.2738 7.77771C13.2738 10.8459 10.7976 13.3332 7.74305 13.3332C4.6885 13.3332 2.2123 10.8459 2.2123 7.77771C2.2123 4.70949 4.6885 2.2222 7.74305 2.2222C10.7976 2.2222 13.2738 4.70949 13.2738 7.77771ZM12.431 13.9684C11.1297 14.9642 9.50513 15.5554 7.74305 15.5554C3.46668 15.5554 0 12.0732 0 7.77771C0 3.4822 3.46668 0 7.74305 0C12.0194 0 15.4861 3.4822 15.4861 7.77771C15.4861 9.50177 14.9276 11.0948 13.9825 12.3843L20 18.4287L18.4357 20L12.431 13.9684Z" fill="#ACACAC"/>
</svg>
