<svg width="37" height="37" viewBox="0 0 37 37" fill="none" xmlns="http://www.w3.org/2000/svg">
<path d="M19.3752 36.5011L0.875244 18.0011V0.709473H18.1669L36.6669 19.2511L19.3752 36.5011ZM19.3752 31.1678L31.2919 19.2511L16.5836 4.50114H4.66691V16.4178L19.3752 31.1678ZM8.83358 11.1678C9.52802 11.1678 10.118 10.9245 10.6036 10.4378C11.0902 9.95225 11.3336 9.36225 11.3336 8.66781C11.3336 7.97336 11.0902 7.38336 10.6036 6.89781C10.118 6.41114 9.52802 6.16781 8.83358 6.16781C8.13913 6.16781 7.54913 6.41114 7.06358 6.89781C6.57691 7.38336 6.33358 7.97336 6.33358 8.66781C6.33358 9.36225 6.57691 9.95225 7.06358 10.4378C7.54913 10.9245 8.13913 11.1678 8.83358 11.1678Z" fill="#6BCFCF"/>
</svg>
