<svg width="24" height="18" viewBox="0 0 24 18" fill="none" xmlns="http://www.w3.org/2000/svg">
<path d="M3.74648 17.2542C2.69648 16.1847 1.86523 14.9451 1.25273 13.5354C0.640234 12.1257 0.333984 10.6139 0.333984 9C0.333984 7.36667 0.640234 5.84514 1.25273 4.43542C1.86523 3.0257 2.69648 1.79583 3.74648 0.745834L5.40898 2.40833C4.55343 3.26389 3.8826 4.25556 3.39648 5.38333C2.91037 6.51111 2.66732 7.71667 2.66732 9C2.66732 10.3028 2.91037 11.5181 3.39648 12.6458C3.8826 13.7736 4.55343 14.7556 5.40898 15.5917L3.74648 17.2542ZM7.04232 13.9583C6.4201 13.3167 5.92426 12.5729 5.55482 11.7271C5.18537 10.8813 5.00065 9.97222 5.00065 9C5.00065 8.00833 5.18537 7.08958 5.55482 6.24375C5.92426 5.39792 6.4201 4.66389 7.04232 4.04167L8.70482 5.70417C8.27704 6.13195 7.94162 6.62778 7.69857 7.19167C7.45551 7.75556 7.33398 8.35833 7.33398 9C7.33398 9.64167 7.45551 10.2444 7.69857 10.8083C7.94162 11.3722 8.27704 11.8681 8.70482 12.2958L7.04232 13.9583ZM12.0007 11.3333C11.359 11.3333 10.8097 11.1049 10.3527 10.6479C9.89579 10.191 9.66732 9.64167 9.66732 9C9.66732 8.35833 9.89579 7.80903 10.3527 7.35208C10.8097 6.89514 11.359 6.66667 12.0007 6.66667C12.6423 6.66667 13.1916 6.89514 13.6486 7.35208C14.1055 7.80903 14.334 8.35833 14.334 9C14.334 9.64167 14.1055 10.191 13.6486 10.6479C13.1916 11.1049 12.6423 11.3333 12.0007 11.3333ZM16.959 13.9583L15.2965 12.2958C15.7243 11.8681 16.0597 11.3722 16.3027 10.8083C16.5458 10.2444 16.6673 9.64167 16.6673 9C16.6673 8.35833 16.5458 7.75556 16.3027 7.19167C16.0597 6.62778 15.7243 6.13195 15.2965 5.70417L16.959 4.04167C17.5812 4.66389 18.077 5.39792 18.4465 6.24375C18.8159 7.08958 19.0007 8.00833 19.0007 9C19.0007 9.97222 18.8159 10.8813 18.4465 11.7271C18.077 12.5729 17.5812 13.3167 16.959 13.9583ZM20.2548 17.2542L18.5923 15.5917C19.4479 14.7361 20.1187 13.7444 20.6048 12.6167C21.0909 11.4889 21.334 10.2833 21.334 9C21.334 7.69722 21.0909 6.48195 20.6048 5.35417C20.1187 4.22639 19.4479 3.24445 18.5923 2.40833L20.2548 0.745834C21.3048 1.79583 22.1361 3.0257 22.7486 4.43542C23.3611 5.84514 23.6673 7.36667 23.6673 9C23.6673 10.6139 23.3611 12.1257 22.7486 13.5354C22.1361 14.9451 21.3048 16.1847 20.2548 17.2542Z" fill="#F6AC3C"/>
</svg>
