<svg width="32" height="32" viewBox="0 0 32 32" fill="none" xmlns="http://www.w3.org/2000/svg">
<path fill-rule="evenodd" clip-rule="evenodd" d="M23.9707 10.3737C25.2655 10.3737 26.3151 9.32408 26.3151 8.02935C26.3151 6.73462 25.2655 5.68503 23.9707 5.68503C22.676 5.68503 21.6264 6.73462 21.6264 8.02935C21.6264 9.32408 22.676 10.3737 23.9707 10.3737ZM23.9707 12.2491C26.3013 12.2491 28.1905 10.3599 28.1905 8.02935C28.1905 5.69883 26.3013 3.80957 23.9707 3.80957C21.6402 3.80957 19.751 5.69883 19.751 8.02935C19.751 8.3377 19.784 8.63832 19.8468 8.92787L11.7759 13.5876C11.0729 12.2352 9.65898 11.3114 8.02935 11.3114C5.69883 11.3114 3.80957 13.2007 3.80957 15.5312C3.80957 17.8617 5.69883 19.751 8.02935 19.751C9.36065 19.751 10.5479 19.1345 11.3213 18.1714L19.8428 23.0912C19.7826 23.3749 19.751 23.6691 19.751 23.9707C19.751 26.3013 21.6402 28.1905 23.9707 28.1905C26.3013 28.1905 28.1905 26.3013 28.1905 23.9707C28.1905 21.6402 26.3013 19.751 23.9707 19.751C22.615 19.751 21.4086 20.3903 20.6366 21.3839L12.1421 16.4797C12.2121 16.1748 12.2491 15.8573 12.2491 15.5312C12.2491 15.5142 12.249 15.4971 12.2488 15.4802L20.6481 10.6309C21.4205 11.6161 22.6217 12.2491 23.9707 12.2491ZM8.02935 17.8755C9.32408 17.8755 10.3737 16.8259 10.3737 15.5312C10.3737 14.2364 9.32408 13.1869 8.02935 13.1869C6.73462 13.1869 5.68503 14.2364 5.68503 15.5312C5.68503 16.8259 6.73462 17.8755 8.02935 17.8755ZM26.3151 23.9707C26.3151 25.2655 25.2655 26.3151 23.9707 26.3151C22.676 26.3151 21.6264 25.2655 21.6264 23.9707C21.6264 22.676 22.676 21.6264 23.9707 21.6264C25.2655 21.6264 26.3151 22.676 26.3151 23.9707Z" fill="#6BCFCF"/>
</svg>
