<svg width="21" height="20" viewBox="0 0 21 20" fill="#6bcfcf" xmlns="http://www.w3.org/2000/svg">
<path d="M5 0H16V13L9 20L7.75 18.75C7.63333 18.6333 7.53767 18.475 7.463 18.275C7.38767 18.075 7.35 17.8833 7.35 17.7V17.35L8.45 13H2C1.46667 13 1 12.8 0.6 12.4C0.2 12 0 11.5333 0 11V9C0 8.88333 0.0166666 8.75833 0.05 8.625C0.0833333 8.49167 0.116667 8.36667 0.15 8.25L3.15 1.2C3.3 0.866666 3.55 0.583333 3.9 0.35C4.25 0.116667 4.61667 0 5 0ZM14 2H5L2 9V11H11L9.65 16.5L14 12.15V2ZM16 13V11H19V2H16V0H21V13H16Z" fill="#6bcfcf"/>
</svg>
