<svg width="31" height="31" viewBox="0 0 31 31" fill="none" xmlns="http://www.w3.org/2000/svg">
<mask id="mask0_598_6270" style="mask-type:alpha" maskUnits="userSpaceOnUse" x="0" y="0" width="31" height="32">
<rect y="0.333435" width="30.6667" height="30.6667" fill="#D9D9D9"/>
</mask>
<g mask="url(#mask0_598_6270)">
<path d="M15.3331 23.3334C17.4628 23.3334 19.273 22.5881 20.7637 21.0973C22.2544 19.6066 22.9998 17.7964 22.9998 15.6668C22.9998 13.5371 22.2544 11.7269 20.7637 10.2362C19.273 8.74546 17.4628 8.00009 15.3331 8.00009V15.6668L9.90258 21.0973C10.648 21.8001 11.484 22.3487 12.4109 22.7431C13.3368 23.1366 14.3109 23.3334 15.3331 23.3334ZM15.3331 28.7001C13.523 28.7001 11.8244 28.3594 10.2374 27.6779C8.65121 26.9964 7.27249 26.07 6.10119 24.8987C4.9299 23.7274 4.00351 22.3487 3.32203 20.7625C2.64055 19.1755 2.2998 17.4769 2.2998 15.6668C2.2998 13.8566 2.64055 12.158 3.32203 10.571C4.00351 8.98483 4.9299 7.60611 6.10119 6.43481C7.27249 5.26352 8.65121 4.33713 10.2374 3.65565C11.8244 2.97416 13.523 2.63342 15.3331 2.63342C17.1433 2.63342 18.8419 2.97416 20.4289 3.65565C22.0151 4.33713 23.3938 5.26352 24.5651 6.43481C25.7364 7.60611 26.6628 8.98483 27.3442 10.571C28.0257 12.158 28.3665 13.8566 28.3665 15.6668C28.3665 17.4769 28.0257 19.1755 27.3442 20.7625C26.6628 22.3487 25.7364 23.7274 24.5651 24.8987C23.3938 26.07 22.0151 26.9964 20.4289 27.6779C18.8419 28.3594 17.1433 28.7001 15.3331 28.7001ZM15.3331 25.7931C18.1655 25.7931 20.5614 24.8135 22.5206 22.8543C24.4799 20.895 25.4595 18.4992 25.4595 15.6668C25.4595 12.8343 24.4799 10.4385 22.5206 8.47926C20.5614 6.52 18.1655 5.54037 15.3331 5.54037C12.5007 5.54037 10.1049 6.52 8.14564 8.47926C6.18638 10.4385 5.20675 12.8343 5.20675 15.6668C5.20675 18.4992 6.18638 20.895 8.14564 22.8543C10.1049 24.8135 12.5007 25.7931 15.3331 25.7931Z" fill="#6BCFCF"/>
</g>
</svg>
