<svg width="130" height="130" viewBox="0 0 130 130" fill="none" xmlns="http://www.w3.org/2000/svg">
<path fill-rule="evenodd" clip-rule="evenodd" d="M111.621 81.9503C108.159 93.3116 101.054 102.994 91.5743 109.318L94.9921 114.642L72.5856 112.526L82.085 95.6153L86.7007 101.778C94.6326 96.5986 100.579 88.5701 103.456 79.1277C106.412 69.4276 105.924 58.9095 102.084 49.5672C98.2438 40.2249 91.3193 32.7078 82.6227 28.4408C73.926 24.1738 64.0618 23.4535 54.8998 26.4164C49.0894 28.2954 43.8176 31.5729 39.4625 35.9376L33.4199 29.4396C38.7616 24.0365 45.2487 19.982 52.4057 17.6675C63.579 14.0542 75.6087 14.9327 86.2145 20.1364C96.8202 25.3401 105.265 34.5074 109.948 45.9005C114.63 57.2936 115.226 70.1207 111.621 81.9503ZM28.7823 34.8609C27.6359 36.4127 26.5703 38.0413 25.5932 39.7406C22.5769 44.9858 20.506 50.7238 19.4318 56.6652L28.0433 57.4476C28.966 52.9131 30.6009 48.538 32.9137 44.5161C33.5275 43.4487 34.1839 42.4153 34.88 41.4181L28.7823 34.8609ZM27.1863 64.6276L18.6255 63.8498C18.4563 67.6256 18.6823 71.4356 19.3158 75.2098C19.5297 76.4836 19.7884 77.7441 20.0906 78.9889L28.2191 75.9166C28.0481 75.1512 27.897 74.3789 27.7663 73.6006C27.266 70.6198 27.0756 67.6116 27.1863 64.6276ZM30.8165 100.253C27.2216 95.9993 24.3304 91.1322 22.2618 85.8625L30.367 82.7991C31.964 86.733 34.1233 90.3851 36.7703 93.6227L30.8165 100.253ZM30.9849 100.451C32.7431 102.51 34.6671 104.422 36.7434 106.165C40.8782 109.635 45.4872 112.323 50.3705 114.161L52.2166 105.142C48.5881 103.655 45.1596 101.588 42.0568 98.9835C41.9465 98.8909 41.8367 98.7977 41.7274 98.704L35.8916 105.203L30.9849 100.451ZM69.0759 116.975C62.7479 117.374 56.4647 116.422 50.5753 114.238L57.1747 115.694L58.9175 107.18C62.0732 107.822 65.3139 108.053 68.5692 107.848L69.0759 116.975ZM66.2611 33.2543H63.8155V61.3508C61.7059 61.9147 60.1471 63.9034 60.1471 66.2701C60.1471 69.0754 62.337 71.3495 65.0383 71.3495C66.8487 71.3495 68.4295 70.328 69.2752 68.8098L87.0489 68.8098V65.0003H69.7754C69.3331 63.2154 67.9799 61.8102 66.2611 61.3508V33.2543Z" fill="#6BCFCF"/>
<rect x="0.5" y="0.5" width="129" height="129" stroke="#6BCFCF"/>
</svg>
