<svg width="41" height="41" viewBox="0 0 41 41" fill="none" xmlns="http://www.w3.org/2000/svg">
<path d="M20.65 3.83342C11.45 3.83342 4 11.3001 4 20.5001C4 29.7001 11.45 37.1668 20.65 37.1668C29.8667 37.1668 37.3333 29.7001 37.3333 20.5001C37.3333 11.3001 29.8667 3.83342 20.65 3.83342ZM20.6667 33.8334C13.3 33.8334 7.33333 27.8668 7.33333 20.5001C7.33333 13.1334 13.3 7.16675 20.6667 7.16675C28.0333 7.16675 34 13.1334 34 20.5001C34 27.8668 28.0333 33.8334 20.6667 33.8334ZM21.5 12.1668H19V22.1668L27.75 27.4168L29 25.3668L21.5 20.9168V12.1668Z" fill="#EAEAEA"/>
</svg>
