<svg width="60" height="60" viewBox="0 0 60 60" fill="none" xmlns="http://www.w3.org/2000/svg">
<mask id="mask0_430_3530" style="mask-type:alpha" maskUnits="userSpaceOnUse" x="0" y="0" width="60" height="60">
<rect width="60" height="60" fill="#D9D9D9"/>
</mask>
<g mask="url(#mask0_430_3530)">
<path d="M29.8125 53.0626L40.3125 25.3751H45.125L55.625 53.0626H50.8125L48.375 46.0001H37.1875L34.6875 53.0626H29.8125ZM38.5625 42.0001H46.875L42.8125 30.5626H42.625L38.5625 42.0001ZM11.5625 46.1251L8.3125 42.8751L20 31.2501C18.5417 29.6251 17.2708 27.9476 16.1875 26.2176C15.1042 24.4892 14.1458 22.6667 13.3125 20.7501H18.125C18.8333 22.1667 19.5833 23.4267 20.375 24.5301C21.1667 25.6351 22.1042 26.7917 23.1875 28.0001C24.8958 26.1667 26.3125 24.2817 27.4375 22.3451C28.5625 20.4067 29.5 18.3334 30.25 16.1251H4.6875V11.5626H20.8125V6.93756H25.4375V11.5626H41.5625V16.1251H34.875C34.0417 18.8751 32.9375 21.5309 31.5625 24.0926C30.1875 26.6559 28.4792 29.0834 26.4375 31.3751L32 37.0001L30.25 41.7501L23.125 34.6251L11.5625 46.1251Z" fill="#6BCFCF"/>
</g>
</svg>
