<svg width="48" height="48" viewBox="0 0 48 48" fill="none" xmlns="http://www.w3.org/2000/svg">
<g clip-path="url(#clip0_532_18112)">
<rect width="48" height="48" fill="#33CCFF"/>
<path d="M35.9131 16.401C35.1206 16.7424 34.2874 16.9801 33.4341 17.1083C33.833 17.0399 34.42 16.3212 34.6537 16.0303C35.0086 15.5915 35.2792 15.0905 35.4515 14.5529C35.4515 14.513 35.4914 14.456 35.4515 14.4274C35.4314 14.4165 35.4089 14.4107 35.386 14.4107C35.3631 14.4107 35.3405 14.4165 35.3204 14.4274C34.3939 14.9296 33.4078 15.3129 32.3855 15.5682C32.3499 15.5791 32.3119 15.5801 32.2758 15.5711C32.2396 15.562 32.2066 15.5433 32.1803 15.5169C32.1008 15.4221 32.0151 15.3325 31.9239 15.2488C31.5069 14.8749 31.0338 14.5688 30.5219 14.3419C29.831 14.0581 29.0846 13.9353 28.3392 13.9825C27.616 14.0282 26.9099 14.2224 26.2648 14.5529C25.6296 14.9014 25.0713 15.3748 24.6235 15.9447C24.1525 16.5313 23.8124 17.212 23.6262 17.9411C23.4727 18.6346 23.4552 19.3514 23.5749 20.0516C23.5749 20.1714 23.5749 20.1885 23.4723 20.1714C19.409 19.5725 16.0751 18.1293 13.351 15.0321C13.2313 14.8952 13.1687 14.8952 13.0718 15.0321C11.8864 16.8345 12.462 19.6865 13.9437 21.0954C14.1432 21.2837 14.3483 21.4662 14.5649 21.6373C13.8855 21.589 13.2228 21.4048 12.6159 21.0954C12.5019 21.0213 12.4392 21.0612 12.4335 21.1981C12.4173 21.3879 12.4173 21.5787 12.4335 21.7685C12.5524 22.6781 12.9105 23.5397 13.4713 24.2653C14.032 24.9909 14.7752 25.5544 15.6249 25.8982C15.832 25.987 16.0479 26.0539 16.2689 26.0978C15.64 26.2218 14.9949 26.241 14.3597 26.1549C14.223 26.1264 14.1717 26.2005 14.223 26.3317C15.0607 28.6133 16.8787 29.3092 18.2122 29.6971C18.3946 29.7256 18.577 29.7256 18.7821 29.7712C18.7821 29.7712 18.7821 29.7712 18.7479 29.8054C18.3547 30.5241 16.7647 31.009 16.0352 31.26C14.7038 31.7386 13.2842 31.9216 11.875 31.7961C11.6527 31.7619 11.6015 31.7676 11.5445 31.7961C11.4875 31.8247 11.5445 31.8874 11.6071 31.9444C11.8921 32.1327 12.177 32.2981 12.4734 32.4578C13.3556 32.9394 14.2883 33.322 15.2545 33.5986C20.2581 34.979 25.8887 33.9637 29.6443 30.2275C32.5964 27.2957 33.6336 23.2515 33.6336 19.2017C33.6336 19.0477 33.8216 18.9564 33.9299 18.8766C34.6768 18.2941 35.3352 17.6063 35.8846 16.8345C35.9798 16.7195 36.0286 16.573 36.0214 16.4238V16.4238C36.0214 16.3383 36.0214 16.3554 35.9131 16.401Z" fill="white"/>
</g>
<defs>
<clipPath id="clip0_532_18112">
<rect width="48" height="48" rx="4" fill="white"/>
</clipPath>
</defs>
</svg>
