<svg width="373" height="408" viewBox="0 0 373 408" fill="rgba(255, 255, 255, 0.92)" xmlns="http://www.w3.org/2000/svg">
<path fill-rule="evenodd" clip-rule="evenodd" d="M365.919 2.88426C372.726 7.46624 374.463 16.5998 369.796 23.2847L238.099 211.954L369.276 378.767C370.172 379.907 370.807 381.163 371.191 382.467C371.978 384.252 372.414 386.221 372.414 388.291C372.414 396.395 365.723 402.965 357.47 402.965H68.5316L345.143 6.69186C349.809 0.00700054 359.111 -1.69772 365.919 2.88426ZM125.254 373.616L224.658 231.209L336.642 373.616H125.254ZM0.87739 19.9618C0.87739 11.8574 7.56816 5.28746 15.8217 5.28746H304.76L28.1483 401.559C23.482 408.244 14.1804 409.949 7.37264 405.367C0.564846 400.785 -1.17121 391.651 3.49505 384.966L248.038 34.6362H37.3221L93.846 106.514C97.6641 111.369 96.751 118.345 91.8064 122.094C86.8618 125.843 79.7582 124.946 75.9401 120.091L5.66422 30.7256C2.72005 28.0455 0.87739 24.215 0.87739 19.9618ZM166.04 76.2318C166.04 91.2565 153.636 103.436 138.335 103.436C123.034 103.436 110.63 91.2565 110.63 76.2318C110.63 61.2071 123.034 49.0272 138.335 49.0272C153.636 49.0272 166.04 61.2071 166.04 76.2318Z" fill="white" fill-opacity="0.04"/>
</svg>
