<svg width="1057" height="369" viewBox="0 0 1057 369" fill="none" xmlns="http://www.w3.org/2000/svg">
<rect width="1057" height="369" fill="#F5F5F5"/>
<g clip-path="url(#clip0_0_1)">
<rect width="1057" height="369" fill="url(#paint0_linear_0_1)"/>
<g opacity="0.2">
<path d="M49.0146 74.0161C51.1555 74.0161 52.8909 75.7521 52.8909 77.8939C52.8909 78.6854 52.6515 79.4171 52.246 80.029L60.9228 88.7091V72.2535L54.8523 66.1808V46.8385L49.3869 41.3711C49.3404 41.3711 49.3005 41.3977 49.2473 41.3977C48.5558 41.3977 47.9907 40.8323 47.9907 40.1339C47.9907 39.4355 48.5558 38.8701 49.2473 38.8701C49.9388 38.8701 50.5106 39.4355 50.5106 40.1339C50.5106 40.1805 50.4906 40.227 50.484 40.2736L54.8523 44.6369V32.6843C53.0837 32.3252 51.7473 30.7621 51.7473 28.8864C51.7473 26.7446 53.4893 25.0086 55.6236 25.0086C57.7579 25.0086 59.4999 26.7513 59.4999 28.8864C59.4999 30.7621 58.1635 32.3252 56.4015 32.6843V65.5289L62.4653 71.6017V102.67L67.2857 108.164L72.8043 102.644V72.2468L60.7233 60.1613V43.8786C59.0478 43.453 57.8111 41.9431 57.8111 40.1339C57.8111 37.9922 59.5464 36.2561 61.6874 36.2561C63.8283 36.2561 65.5637 37.9988 65.5637 40.1339C65.5637 42.0695 64.1342 43.6724 62.2725 43.9585V59.5227L72.8043 70.0585V38.1717H74.3535V57.7801L78.7152 53.4234C78.7085 53.3768 78.6886 53.3369 78.6886 53.2837C78.6886 52.592 79.2537 52.02 79.9519 52.02C80.65 52.02 81.2151 52.5853 81.2151 53.2837C81.2151 53.9821 80.65 54.5408 79.9519 54.5408C79.8987 54.5408 79.8588 54.5209 79.8122 54.5142L74.3601 59.975V103.289L62.4653 115.188V125.671L72.4586 115.667C72.3721 115.501 72.3189 115.321 72.3189 115.115C72.3189 114.417 72.8841 113.851 73.5822 113.858C74.2804 113.858 74.8455 114.423 74.8455 115.122C74.8455 115.661 74.5131 116.106 74.041 116.286L62.4653 127.866V138.275L79.5263 121.52V84.8845L86.2882 78.12V65.7883L86.2151 65.7152L86.2882 65.642V51.5876C84.5196 51.2284 83.1899 49.6587 83.1899 47.7897C83.1899 45.6479 84.9319 43.9053 87.0662 43.9119C89.2071 43.9119 90.9425 45.6479 90.9425 47.7897C90.9425 49.6654 89.606 51.2284 87.8374 51.5876V64.0922L92.126 59.8021C92.1193 59.7555 92.0927 59.7156 92.0927 59.6691C92.0927 58.9707 92.6579 58.4053 93.3494 58.4053C94.0408 58.4053 94.6127 58.9707 94.6127 59.6691C94.6127 60.3675 94.0475 60.9262 93.3494 60.9262C93.3028 60.9262 93.2629 60.9062 93.2164 60.8996L87.8308 66.2872V78.7719L81.0689 85.5363V107.446L91.9797 96.5244C91.9797 96.4779 91.9531 96.438 91.9531 96.3914C91.9531 95.693 92.5183 95.1276 93.2164 95.1276C93.9145 95.1276 94.4797 95.693 94.4797 96.3914C94.4797 97.0898 93.9145 97.6485 93.2164 97.6552C93.1698 97.6552 93.13 97.6286 93.0834 97.6286L81.0755 109.641V122.179L68.6554 134.378L73.5689 139.053L96.3547 116.565V118.747L73.5889 141.222L67.5517 135.475L62.4653 140.47V149.543H60.9161V127.294L60.8895 127.267L60.9161 127.241V114.563L66.1887 109.288L60.9161 103.276V90.8641L60.8895 90.8907L51.1422 81.1398C50.5305 81.5455 49.7925 81.785 49.008 81.785C46.867 81.785 45.1317 80.0489 45.1317 77.9072C45.1317 75.7654 46.8737 74.0228 49.008 74.0294L49.0146 74.0161ZM57.9573 28.893C57.9573 27.6093 56.9135 26.5651 55.6302 26.5651C54.347 26.5651 53.3031 27.6093 53.3031 28.893C53.3031 29.9041 53.9547 30.7554 54.8523 31.0814V29.8641C54.5664 29.638 54.367 29.2921 54.367 28.893C54.367 28.1947 54.9321 27.6293 55.6236 27.6293C56.3151 27.6293 56.8869 28.1947 56.8869 28.893C56.8869 29.2921 56.6874 29.6313 56.4015 29.8641V31.0814C57.2991 30.7621 57.9507 29.9041 57.9507 28.893H57.9573ZM64.0278 40.1406C64.0278 38.8568 62.9839 37.8126 61.7007 37.8126C60.4174 37.8126 59.3669 38.8568 59.3669 40.1406C59.3669 41.0784 59.9321 41.8832 60.7299 42.2557V40.9254C60.5504 40.7126 60.4374 40.4465 60.4374 40.1472C60.4374 39.4488 61.0025 38.8834 61.7007 38.8834C62.3988 38.8834 62.9573 39.4488 62.9573 40.1472C62.9573 40.6328 62.6781 41.0318 62.2791 41.2447V42.3954C63.2765 42.1293 64.0211 41.2314 64.0211 40.1472L64.0278 40.1406ZM87.8574 48.7541V49.9713C88.755 49.6521 89.4066 48.794 89.4066 47.783C89.4066 46.5059 88.3627 45.455 87.0795 45.455C85.7962 45.455 84.7524 46.4993 84.7524 47.783C84.7524 48.794 85.3973 49.6521 86.3015 49.9713V48.7541C86.0156 48.5213 85.8162 48.1821 85.8162 47.783C85.8162 47.0846 86.3813 46.5192 87.0795 46.5192C87.7776 46.5192 88.3428 47.0846 88.3428 47.783C88.3428 48.1821 88.1433 48.5213 87.8574 48.7541V48.7541ZM49.0212 80.2219C49.3803 80.2219 49.7127 80.1354 50.0186 79.9891L49.1609 79.131C49.1143 79.131 49.0744 79.1576 49.0212 79.1576C48.3231 79.1576 47.7646 78.5923 47.7646 77.8939C47.7646 77.1955 48.3298 76.6301 49.0212 76.6301C49.7127 76.6301 50.2845 77.1955 50.2845 77.8939C50.2845 77.9404 50.2646 77.9803 50.2579 78.0269L51.1223 78.8849C51.2686 78.5856 51.355 78.2464 51.355 77.8872C51.355 76.6035 50.3111 75.5592 49.0279 75.5592C47.7447 75.5592 46.7008 76.6035 46.7008 77.8872C46.7008 79.171 47.7447 80.2152 49.0279 80.2152L49.0212 80.2219Z" fill="#86D7D7"/>
<path d="M46.8605 51.6872C44.7195 51.6872 42.9842 53.4232 42.9842 55.565C42.9842 56.3565 43.2235 57.0882 43.6291 57.7001L34.9523 66.3802V49.9246L41.0227 43.8519V24.5096L46.4881 19.0422C46.5347 19.0422 46.5746 19.0688 46.6278 19.0688C47.3192 19.0688 47.891 18.5034 47.891 17.805C47.891 17.1066 47.3259 16.5413 46.6278 16.5413C45.9296 16.5413 45.3645 17.1066 45.3645 17.805C45.3645 17.8582 45.3844 17.8981 45.3911 17.9447L41.0227 22.3147V10.3621C42.7913 10.0029 44.1278 8.43321 44.1278 6.55751C44.1278 4.41576 42.3858 2.67975 40.2515 2.67975C38.1172 2.67975 36.3752 4.42242 36.3752 6.55751C36.3752 8.43321 37.7116 9.99629 39.4735 10.3621V43.2067L33.4098 49.2794V80.3481L28.5893 85.8422L23.0707 80.3215V49.9246L35.1518 37.8324V21.5498C36.8273 21.1174 38.064 19.6142 38.064 17.805C38.064 15.6633 36.3286 13.9273 34.1877 13.9273C32.0467 13.9273 30.3114 15.6633 30.3114 17.805C30.3114 19.7406 31.7409 21.3436 33.6026 21.6296V37.1938L23.0707 47.7297V15.8429H21.5216V35.4512L17.1665 31.0879C17.1732 31.0413 17.1931 31.0014 17.1931 30.9548C17.1931 30.2564 16.628 29.6911 15.9298 29.6911C15.2384 29.6911 14.6666 30.2564 14.6666 30.9548C14.6666 31.6532 15.2317 32.2119 15.9298 32.2186C15.983 32.2186 16.0229 32.192 16.0695 32.192L21.5216 37.6528V80.9667L33.4164 92.866V103.349L23.4231 93.3449C23.5096 93.1786 23.5628 92.9991 23.5628 92.7929C23.5628 92.0945 22.9976 91.5357 22.2995 91.5357C21.6013 91.5357 21.0428 92.1011 21.0428 92.7929C21.0428 93.3316 21.3753 93.7773 21.8407 93.9635L33.4164 105.544V115.953L16.3554 99.1982V62.5623L9.59345 55.7978V43.4661L9.66659 43.3929L9.59345 43.3198V29.2654C11.3621 28.9062 12.6918 27.3431 12.6918 25.4674C12.6918 23.3257 10.9498 21.5897 8.81553 21.5897C6.68124 21.5897 4.93923 23.3323 4.93923 25.4674C4.93923 27.3431 6.27566 28.9062 8.04426 29.2654V41.7633L3.75573 37.4732C3.75573 37.4266 3.78897 37.3867 3.78897 37.3402C3.78897 36.6418 3.22382 36.0764 2.52569 36.0764C1.82755 36.0764 1.2624 36.6351 1.2624 37.3402C1.2624 38.0452 1.82755 38.5973 2.52569 38.6039C2.57223 38.6039 2.61212 38.5773 2.65866 38.5773L8.04426 43.965V56.4496L14.8062 63.2141V85.1238L3.89536 74.2089C3.89536 74.1623 3.92195 74.1224 3.92195 74.0758C3.92195 73.3774 3.3568 72.8121 2.65866 72.8121C1.96053 72.8121 1.39537 73.3774 1.39537 74.0758C1.39537 74.7742 1.96053 75.333 2.65866 75.3396C2.70521 75.3396 2.7451 75.3196 2.79164 75.313L14.7995 87.3254V99.8633L27.2263 112.062L22.3128 116.738L-0.472961 94.2495V96.4312L22.2928 118.906L28.33 113.159L33.4164 118.155V127.227H34.9656V104.978L34.9922 104.952L34.9656 104.925V92.2475L29.693 86.9729L34.9656 80.96V68.5485L34.9922 68.5751L44.7395 58.8242C45.3512 59.2299 46.0892 59.4694 46.8738 59.4694C49.0147 59.4694 50.7501 57.7334 50.7501 55.5916C50.7501 53.4499 49.008 51.7072 46.8738 51.7138L46.8605 51.6872ZM37.9177 6.56417C37.9177 5.2871 38.9616 4.23618 40.2448 4.23618C41.5281 4.23618 42.5719 5.28045 42.5719 6.56417C42.5719 7.57518 41.9203 8.42656 41.0227 8.75248V7.53527C41.3086 7.30247 41.5081 6.96325 41.5081 6.56417C41.5081 5.86577 40.9429 5.3004 40.2448 5.3004C39.5467 5.3004 38.9815 5.86577 38.9815 6.56417C38.9815 6.96325 39.181 7.30247 39.4669 7.53527V8.75248C38.5693 8.43321 37.9177 7.58183 37.9177 6.56417V6.56417ZM31.8473 17.8117C31.8473 16.528 32.8911 15.4837 34.1744 15.4837C35.4576 15.4837 36.5015 16.528 36.5015 17.8117C36.5015 18.7495 35.9363 19.5543 35.1385 19.9268V18.5965C35.318 18.3837 35.431 18.1176 35.431 17.8117C35.431 17.1133 34.8659 16.5479 34.1677 16.5479C33.4696 16.5479 32.9044 17.1133 32.9044 17.8117C32.9044 18.2972 33.1837 18.6963 33.5826 18.9158V20.0598C32.5853 19.8004 31.8406 18.8959 31.8406 17.8117H31.8473ZM8.01766 26.4252V27.6424C7.12006 27.3232 6.46847 26.4718 6.46847 25.4608C6.46847 24.1771 7.51235 23.1328 8.79558 23.1328C10.0788 23.1328 11.1227 24.1771 11.1227 25.4608C11.1227 26.4718 10.4778 27.3232 9.57351 27.6424V26.4252C9.85941 26.1924 10.0589 25.8532 10.0589 25.4541C10.0589 24.7557 9.49372 24.1904 8.79558 24.1904C8.09745 24.1904 7.5323 24.7557 7.5323 25.4541C7.5323 25.8532 7.73177 26.1924 8.01102 26.4252H8.01766ZM46.8538 57.893C46.4948 57.893 46.1623 57.8065 45.8565 57.6602L46.7142 56.8022C46.7607 56.8022 46.8006 56.8288 46.8538 56.8288C47.5519 56.8288 48.1171 56.2634 48.1171 55.565C48.1171 54.8666 47.5519 54.3012 46.8538 54.3012C46.1557 54.3012 45.5905 54.8666 45.5905 55.565C45.5905 55.6116 45.6105 55.6515 45.6171 55.698L44.7594 56.5627C44.6131 56.2567 44.5267 55.9175 44.5267 55.565C44.5267 54.2813 45.5706 53.237 46.8538 53.237C48.137 53.237 49.1809 54.2813 49.1809 55.565C49.1809 56.8487 48.137 57.893 46.8538 57.893Z" fill="#86D7D7"/>
<path d="M4.39401 96.5842C2.25307 96.5842 0.517712 98.3202 0.517712 100.462C0.517712 101.254 0.757073 101.985 1.16265 102.597L-7.51414 111.277V94.8216L-1.45036 88.7489V69.4066L4.01503 63.9392C4.06157 63.9392 4.10146 63.9658 4.15465 63.9658C4.84614 63.9658 5.41129 63.4004 5.41129 62.702C5.41129 62.0036 4.84614 61.4382 4.15465 61.4382C3.46317 61.4382 2.89136 62.0036 2.89136 62.702C2.89136 62.7486 2.91131 62.7951 2.91796 62.8417L-1.45036 67.2117V55.2591C0.318246 54.8999 1.65467 53.3302 1.65467 51.4611C1.65467 49.3194 -0.0873359 47.5834 -2.22163 47.5834C-4.35592 47.5834 -6.09793 49.326 -6.09793 51.4611C-6.09793 53.3368 -4.76815 54.8999 -2.99955 55.2591V88.1037L-9.06998 94.1764V125.245L-13.8904 130.739L-19.409 125.218V94.8216L-7.32797 82.7294V66.4467C-5.6591 66.0144 -4.41576 64.5045 -4.41576 62.702C-4.41576 60.5603 -6.15112 58.8242 -8.29206 58.8242C-10.433 58.8242 -12.1684 60.5603 -12.1684 62.702C-12.1684 64.6376 -10.7389 66.2405 -8.87716 66.5266V82.0908L-19.409 92.6266V60.7398H-20.9648V80.3482L-25.3199 75.9848C-25.3199 75.9383 -25.2933 75.8984 -25.2933 75.8518C-25.2933 75.1534 -25.8584 74.588 -26.5499 74.588C-27.2414 74.588 -27.8132 75.1534 -27.8132 75.8518C-27.8132 76.5502 -27.248 77.1156 -26.5499 77.1156C-26.4967 77.1156 -26.4568 77.0956 -26.4103 77.089L-20.9582 82.5431V125.857L-9.06333 137.756V148.239L-19.0566 138.235C-18.9702 138.069 -18.917 137.889 -18.917 137.683C-18.917 136.985 -19.4755 136.419 -20.1736 136.419C-20.8718 136.419 -21.4369 136.985 -21.4369 137.683C-21.4369 138.222 -21.1045 138.668 -20.6324 138.854L-9.05668 150.434V160.837L-26.1177 144.082V107.453L-32.8796 100.688V88.3564L-32.8065 88.2833L-32.8796 88.2101V74.1557C-31.111 73.7965 -29.7813 72.2268 -29.7813 70.3578C-29.7813 68.216 -31.5233 66.4733 -33.6576 66.48C-35.7985 66.48 -37.5405 68.216 -37.5339 70.3578C-37.5339 72.2335 -36.1974 73.7965 -34.4288 74.1624V86.6603L-38.7174 82.3702C-38.7174 82.3236 -38.6908 82.2837 -38.6908 82.2372C-38.6908 81.5388 -39.2559 80.9734 -39.9541 80.9734C-40.6522 80.9734 -41.2173 81.5388 -41.2173 82.2372C-41.2173 82.9356 -40.6522 83.5009 -39.9541 83.5009C-39.9075 83.5009 -39.861 83.481 -39.8144 83.4743L-34.4288 88.8553V101.34L-27.6669 108.104V130.014L-38.5777 119.099C-38.5711 119.053 -38.5511 119.013 -38.5511 118.96C-38.5511 118.268 -39.1163 117.696 -39.8144 117.696C-40.5126 117.696 -41.0777 118.261 -41.0777 118.96C-41.0777 119.658 -40.5126 120.217 -39.8144 120.223C-39.7612 120.223 -39.7213 120.203 -39.6748 120.197L-27.6669 132.209V144.747L-15.2468 156.946L-20.1603 161.622L-42.9594 139.127V141.308L-20.1869 163.783L-14.1497 158.036L-9.06333 163.032V172.104H-7.50749V149.855L-7.4809 149.829L-7.50749 149.802V137.124L-12.7801 131.85L-7.50749 125.837V113.426L-7.4809 113.452L2.26637 103.701C2.87806 104.107 3.6161 104.346 4.40066 104.346C6.54161 104.346 8.27696 102.61 8.27696 100.469C8.27696 98.3269 6.53496 96.5909 4.40066 96.5909L4.39401 96.5842ZM-4.54874 51.4611C-4.54874 50.1774 -3.50486 49.1332 -2.22163 49.1332C-0.938393 49.1332 0.105479 50.1774 0.105479 51.4611C0.105479 52.4722 -0.546109 53.3235 -1.45036 53.6495V52.4322C-1.16446 52.1994 -0.964989 51.8602 -0.964989 51.4611C-0.964989 50.7627 -1.53015 50.1974 -2.22828 50.1974C-2.92641 50.1974 -3.48492 50.7627 -3.48492 51.4611C-3.48492 51.8602 -3.28545 52.1994 -2.99955 52.4322V53.6428C-3.89715 53.3235 -4.54874 52.4722 -4.54874 51.4611V51.4611ZM-10.6192 62.7087C-10.6192 61.4249 -9.5753 60.3807 -8.29206 60.3807C-7.00883 60.3807 -5.9583 61.4249 -5.9583 62.7087C-5.9583 63.6465 -6.52346 64.4513 -7.32132 64.8238V63.4935C-7.1418 63.2807 -7.02877 63.0146 -7.02877 62.7087C-7.02877 62.0103 -7.59393 61.4449 -8.29206 61.4449C-8.99019 61.4449 -9.5487 62.0103 -9.5487 62.7087C-9.5487 63.1942 -9.26945 63.5933 -8.87051 63.8061V64.9568C-9.86785 64.6908 -10.6125 63.7928 -10.6125 62.7087H-10.6192ZM-34.4488 71.3222V72.5394C-35.3464 72.2202 -35.998 71.3688 -35.998 70.3511C-35.998 69.0674 -34.9541 68.0231 -33.6709 68.0231C-32.3876 68.0231 -31.3437 69.0674 -31.3437 70.3511C-31.3437 71.3621 -31.9887 72.2135 -32.8929 72.5394V71.3222C-32.607 71.0894 -32.4142 70.7502 -32.4142 70.3511C-32.4142 69.6527 -32.9727 69.0873 -33.6709 69.0873C-34.369 69.0873 -34.9341 69.6527 -34.9341 70.3511C-34.9341 70.7502 -34.7347 71.0894 -34.4488 71.3222V71.3222ZM4.38736 102.79C4.02832 102.79 3.69588 102.704 3.39003 102.557L4.24774 101.699C4.29428 101.699 4.33417 101.726 4.38736 101.726C5.0855 101.726 5.65065 101.16 5.65065 100.462C5.65065 99.7636 5.0855 99.1982 4.38736 99.1982C3.68923 99.1982 3.12407 99.7636 3.12407 100.462C3.12407 100.509 3.15067 100.548 3.15067 100.595L2.28632 101.46C2.14004 101.16 2.0536 100.821 2.0536 100.462C2.0536 99.1783 3.09748 98.134 4.38071 98.134C5.66395 98.134 6.70782 99.1783 6.70782 100.462C6.70782 101.746 5.66395 102.79 4.38071 102.79H4.38736Z" fill="#86D7D7"/>
<path d="M125.297 -2.10252C125.557 -2.30871 125.736 -2.62133 125.736 -2.9805C125.736 -3.61238 125.224 -4.11789 124.599 -4.11789C123.974 -4.11789 123.462 -3.60573 123.462 -2.9805C123.462 -2.62133 123.642 -2.30871 123.901 -2.10252V81.2195L129.632 86.953V101.546L119.406 91.3163V14.1735C119.666 13.9673 119.845 13.6546 119.845 13.2955C119.845 12.6636 119.333 12.1581 118.708 12.1581C118.083 12.1581 117.571 12.6702 117.571 13.2955C117.571 13.6546 117.751 13.9673 118.01 14.1735V56.9752L113.961 52.9311V31.6866C114.22 31.4804 114.4 31.1744 114.4 30.8086C114.4 30.1767 113.888 29.6712 113.263 29.6712C112.638 29.6712 112.126 30.1834 112.126 30.8086C112.126 31.1678 112.305 31.4737 112.565 31.6866V53.5165L118.01 58.9639V91.9017L129.639 103.535V108.903H131.042V86.3744L125.311 80.6409V-2.10252H125.297Z" fill="#86D7D7"/>
<path d="M108.23 -8.58762L114.081 -20.4404L107.871 -26.6528C108.27 -27.2182 108.509 -27.9099 108.509 -28.6549C108.509 -30.5904 106.933 -32.1602 105.005 -32.1602C103.077 -32.1602 101.501 -30.5838 101.501 -28.6549C101.501 -26.726 103.077 -25.1496 105.005 -25.1496C105.683 -25.1496 106.315 -25.3558 106.853 -25.6884L112.379 -20.1611L107.332 -9.94451L99.0609 -18.2188C99.3135 -18.6977 99.4665 -19.2365 99.4665 -19.8152C99.4665 -21.7507 97.8973 -23.3205 95.9625 -23.3205C94.0277 -23.3205 92.4585 -21.7441 92.4585 -19.8152C92.4585 -17.8863 94.0343 -16.3099 95.9625 -16.3099C96.8069 -16.3099 97.5782 -16.6225 98.1832 -17.1214L106.833 -8.4679V6.09866L104.945 4.21631C105.311 3.6576 105.53 2.99911 105.53 2.28076C105.53 0.345204 103.961 -1.22452 102.026 -1.22452C100.091 -1.22452 98.5223 0.351855 98.5223 2.28076C98.5223 4.20967 100.091 5.78604 102.026 5.78604C102.738 5.78604 103.403 5.56655 103.961 5.20072L106.84 8.08078V22.3214L105.131 20.612C105.497 20.0599 105.71 19.3948 105.71 18.6831C105.71 16.7475 104.141 15.1778 102.206 15.1778C100.271 15.1778 98.7018 16.7475 98.7018 18.6831C98.7018 20.6187 100.271 22.1884 102.206 22.1884C102.917 22.1884 103.582 21.9689 104.134 21.6031L106.84 24.3035V63.8062L112.538 69.5064V95.7528L102.605 85.8156V46.5591L79.8921 23.8379V-17.5271C81.4879 -17.853 82.698 -19.2698 82.698 -20.9659C82.698 -22.9014 81.1288 -24.4712 79.194 -24.4712C77.2592 -24.4712 75.69 -22.8948 75.69 -20.9659C75.69 -19.2698 76.8935 -17.853 78.4959 -17.5271V24.4233L101.208 47.1444V86.4076L112.538 97.7416V108.47L112.126 108.883H113.941V68.9278L108.243 63.2275V-8.58762H108.23ZM106.847 -27.6705L105.371 -29.1471L104.38 -28.156L105.823 -26.7127C105.57 -26.6063 105.291 -26.5464 104.998 -26.5464C103.835 -26.5464 102.897 -27.4909 102.897 -28.6482C102.897 -29.8056 103.841 -30.7501 104.998 -30.7501C106.155 -30.7501 107.099 -29.8056 107.099 -28.6482C107.099 -28.2891 107 -27.9631 106.847 -27.6705V-27.6705ZM97.9837 -19.2831L96.6407 -20.6333L95.65 -19.6422L97.1859 -18.1058C96.8401 -17.853 96.4213 -17.7 95.9558 -17.7C94.7989 -17.7 93.8548 -18.6445 93.8548 -19.8085C93.8548 -20.9725 94.7989 -21.9104 95.9558 -21.9104C97.1127 -21.9104 98.0635 -20.9659 98.0635 -19.8085C98.0635 -19.6289 98.0303 -19.456 97.9904 -19.2831H97.9837ZM103.908 3.19865L103.13 2.42044C103.13 2.38053 103.157 2.34062 103.157 2.29406C103.157 1.66218 102.645 1.15667 102.02 1.15667C101.395 1.15667 100.883 1.66883 100.883 2.29406C100.883 2.91929 101.395 3.43145 102.02 3.43145C102.066 3.43145 102.099 3.4115 102.139 3.40485L102.917 4.18306C102.645 4.30944 102.339 4.3959 102.013 4.3959C100.856 4.3959 99.9119 3.45141 99.9119 2.28741C99.9119 1.12342 100.856 0.185569 102.013 0.185569C103.17 0.185569 104.121 1.13007 104.121 2.28741C104.121 2.61333 104.041 2.91264 103.908 3.192V3.19865ZM104.087 19.5944L103.31 18.8161C103.31 18.7762 103.336 18.7363 103.336 18.6964C103.336 18.0645 102.824 17.5524 102.199 17.5524C101.574 17.5524 101.062 18.0645 101.062 18.6964C101.062 19.3283 101.574 19.8338 102.199 19.8338C102.246 19.8338 102.279 19.8138 102.325 19.8072L103.103 20.5854C102.824 20.7184 102.525 20.7983 102.199 20.7983C101.042 20.7983 100.098 19.8538 100.098 18.6964C100.098 17.5391 101.042 16.5879 102.199 16.5879C103.356 16.5879 104.307 17.5324 104.307 18.6964C104.307 19.0223 104.227 19.3216 104.094 19.5944H104.087ZM78.4826 -20.0679V-18.9705C77.6647 -19.2631 77.0796 -20.0347 77.0796 -20.9459C77.0796 -22.1033 78.0238 -23.0478 79.1807 -23.0478C80.3376 -23.0478 81.2884 -22.1033 81.2884 -20.9459C81.2884 -20.0347 80.7033 -19.2565 79.8855 -18.9705V-20.0679C80.1448 -20.2741 80.3243 -20.5867 80.3243 -20.9459C80.3243 -21.5778 79.8123 -22.0833 79.1874 -22.0833C78.5624 -22.0833 78.0504 -21.5711 78.0504 -20.9459C78.0504 -20.5867 78.2299 -20.2741 78.4892 -20.0679H78.4826Z" fill="#86D7D7"/>
<path d="M179.346 40.6192C177.411 40.6192 175.842 42.1956 175.842 44.1245C175.842 44.8429 176.055 45.5014 176.421 46.0601L168.582 53.9087V39.0295L174.067 33.5421V16.0556L179.007 11.1136C179.047 11.1136 179.087 11.1336 179.133 11.1336C179.765 11.1336 180.27 10.6281 180.27 9.9962C180.27 9.36432 179.758 8.85882 179.133 8.85882C178.508 8.85882 177.997 9.37097 177.997 9.9962C177.997 10.0428 178.016 10.076 178.023 10.1226L174.08 14.0735V3.27164C175.676 2.94573 176.886 1.52898 176.886 -0.167126C176.886 -2.10268 175.31 -3.67906 173.382 -3.67906C171.454 -3.67906 169.878 -2.10268 169.878 -0.167126C169.878 1.52898 171.088 2.94573 172.684 3.27164V32.9701L167.199 38.4575V66.5464L162.837 71.515L157.844 66.5198V39.0428L168.768 28.1146V13.3951C170.277 13.0026 171.401 11.6391 171.401 10.0095C171.401 8.07395 169.825 6.50422 167.897 6.50422C165.969 6.50422 164.393 8.07395 164.393 10.0095C164.393 11.7588 165.689 13.2088 167.372 13.4616V27.5359L157.85 37.0607V4.14963H152.006V0.172097H163.229V-6.66554H146.394V-10.7029H168.602V-17.8332H140.085V-21.9837H174.446V-28.828H146.394V-33.6968H168.834V-40.4347H151.301V-44.8712H163.223V-51.7487H157.611V-64.8852C159.001 -65.251 160.031 -66.5082 160.031 -68.0114C160.031 -69.8006 158.575 -71.2572 156.787 -71.2572C154.998 -71.2572 153.542 -69.8006 153.542 -68.0114C153.542 -66.4217 154.692 -65.0981 156.201 -64.8253V-50.3453H161.813V-46.2746H149.892V-39.0312H167.425V-35.1003H144.985V-27.4312H173.036V-23.3938H138.675V-16.4364H167.192V-12.113H144.985V-5.2754H161.82V-1.24465H150.603V5.53977H156.447V25.9529L152.505 22.0086C152.505 21.9687 152.531 21.9288 152.531 21.8822C152.531 21.257 152.019 20.7449 151.394 20.7449C150.769 20.7449 150.257 21.257 150.257 21.8822C150.257 22.5075 150.769 23.0263 151.394 23.0263C151.441 23.0263 151.474 23.0063 151.514 22.9997L156.447 27.935V67.0984L167.199 77.8537V87.332L158.156 78.2861C158.229 78.1331 158.283 77.9735 158.283 77.7872C158.283 77.162 157.771 76.6498 157.146 76.6498C156.521 76.6498 156.009 77.162 156.009 77.7872C156.009 78.2728 156.314 78.6785 156.733 78.8448L167.199 89.3141V98.7258L151.773 83.5739V50.4566L145.663 44.3374V33.1896L145.729 33.1231L145.663 33.0566V20.3524C147.259 20.0265 148.469 18.6098 148.469 16.9136C148.469 14.9781 146.9 13.4084 144.965 13.4084C143.03 13.4084 141.461 14.9847 141.461 16.9136C141.461 18.6098 142.671 20.0199 144.267 20.3524V31.6531L140.39 27.7754C140.39 27.7355 140.417 27.6956 140.417 27.649C140.417 27.0171 139.905 26.5116 139.28 26.5116C138.655 26.5116 138.143 27.0238 138.143 27.649C138.143 28.2742 138.655 28.7864 139.28 28.7864C139.32 28.7864 139.36 28.7664 139.4 28.7598L144.267 33.6286V44.916L150.384 51.0353V70.8432L140.517 60.9725C140.517 60.9326 140.543 60.8927 140.543 60.8461C140.543 60.2142 140.031 59.7021 139.406 59.7021C138.781 59.7021 138.269 60.2142 138.269 60.8461C138.269 61.478 138.781 61.9835 139.406 61.9835C139.446 61.9835 139.486 61.9636 139.526 61.9636L150.384 72.8253V84.1593L161.614 95.1873L157.172 99.4176L134.958 77.4946V-39.4436L146.315 -50.7576V-69.5678C147.811 -69.8538 148.954 -71.1708 148.954 -72.7538C148.954 -74.543 147.498 -75.9997 145.71 -75.9997C143.921 -75.9997 142.465 -74.543 142.465 -72.7538C142.465 -71.2439 143.509 -69.9802 144.912 -69.621V-51.3496L133.555 -40.0356V78.0732L157.152 101.366L162.618 96.1717L167.219 100.688V108.896H168.622V88.782L168.648 88.7554L168.622 88.7288V77.2684L163.854 72.4994L168.622 67.0652V55.8443L168.648 55.8642L177.458 47.0511C178.016 47.417 178.675 47.6365 179.393 47.6365C181.328 47.6365 182.897 46.0601 182.897 44.1245C182.897 42.189 181.328 40.6192 179.393 40.6192H179.346ZM171.261 -0.173779C171.261 -1.33112 172.205 -2.27562 173.362 -2.27562C174.519 -2.27562 175.47 -1.33112 175.47 -0.173779C175.47 0.737463 174.885 1.50903 174.067 1.80169V0.704205C174.326 0.491361 174.506 0.185397 174.506 -0.173779C174.506 -0.805661 173.994 -1.31782 173.369 -1.31782C172.744 -1.31782 172.232 -0.805661 172.232 -0.173779C172.232 0.185397 172.411 0.491361 172.671 0.704205V1.80169C171.853 1.50903 171.268 0.744114 171.268 -0.173779H171.261ZM165.776 9.9962C165.776 8.83886 166.72 7.89437 167.877 7.89437C169.034 7.89437 169.978 8.83886 169.978 9.9962C169.978 10.8476 169.473 11.5726 168.748 11.9051V10.7012C168.907 10.5084 169.014 10.2689 169.014 9.9962C169.014 9.36432 168.502 8.85882 167.877 8.85882C167.252 8.85882 166.74 9.37097 166.74 9.9962C166.74 10.4352 166.993 10.7944 167.352 10.9873V12.0249C166.447 11.7921 165.776 10.974 165.776 9.9962V9.9962ZM156.773 -69.1554C156.142 -69.1554 155.636 -68.6499 155.636 -68.018C155.636 -67.6056 155.862 -67.2598 156.195 -67.0602V-66.2953C155.47 -66.5414 154.938 -67.2132 154.938 -68.018C154.938 -69.0357 155.763 -69.8605 156.78 -69.8605C157.797 -69.8605 158.622 -69.0357 158.622 -68.018C158.622 -67.2997 158.196 -66.6944 157.598 -66.3951V-67.2398C157.791 -67.446 157.917 -67.7187 157.917 -68.0247C157.917 -68.6566 157.405 -69.1621 156.78 -69.1621L156.773 -69.1554ZM144.233 17.7783V18.8758C143.416 18.5832 142.831 17.8116 142.831 16.9004C142.831 15.7364 143.775 14.7919 144.932 14.7919C146.088 14.7919 147.033 15.7364 147.033 16.9004C147.033 17.8116 146.448 18.5832 145.63 18.8758V17.7783C145.889 17.5721 146.069 17.2595 146.069 16.9004C146.069 16.2685 145.557 15.763 144.932 15.763C144.307 15.763 143.795 16.2751 143.795 16.9004C143.795 17.2595 143.974 17.5655 144.233 17.7783V17.7783ZM143.828 -72.7538C143.828 -73.7715 144.652 -74.5963 145.67 -74.5963C146.687 -74.5963 147.511 -73.7715 147.511 -72.7538C147.511 -71.9556 146.993 -71.2839 146.275 -71.0378V-71.816C146.587 -72.0222 146.807 -72.3547 146.807 -72.7605C146.807 -73.3923 146.295 -73.8979 145.67 -73.8979C145.045 -73.8979 144.533 -73.3857 144.533 -72.7605C144.533 -72.4412 144.666 -72.1552 144.878 -71.949V-71.1176C144.267 -71.4169 143.835 -72.0355 143.835 -72.7605L143.828 -72.7538ZM179.346 46.2264C179.02 46.2264 178.721 46.1465 178.442 46.0135L179.22 45.2353C179.26 45.2353 179.3 45.2619 179.34 45.2619C179.971 45.2619 180.477 44.7497 180.477 44.1179C180.477 43.486 179.965 42.9805 179.34 42.9805C178.715 42.9805 178.203 43.4926 178.203 44.1179C178.203 44.1644 178.223 44.1977 178.229 44.2442L177.451 45.0225C177.318 44.7497 177.239 44.4438 177.239 44.1179C177.239 42.9605 178.183 42.016 179.34 42.016C180.496 42.016 181.447 42.9605 181.447 44.1179C181.447 45.2752 180.503 46.2197 179.34 46.2197L179.346 46.2264Z" fill="#86D7D7"/>
</g>
<g opacity="0.4">
<path d="M924.547 19.1853C924.023 17.9482 923.532 16.3268 923.532 14.9077C923.532 9.05053 928.451 4.30237 934.519 4.30237C940.588 4.30237 945.507 9.05053 945.507 14.9077C945.507 20.7649 940.588 25.513 934.519 25.513C932.869 25.513 931.303 25.1618 929.899 24.5325" stroke="white" stroke-width="1.1"/>
<path d="M919.046 15.9768C919.02 15.6235 919.007 15.2669 919.007 14.9073C919.007 6.63841 925.952 -0.0648804 934.519 -0.0648804C943.086 -0.0648804 950.031 6.63841 950.031 14.9073C950.031 23.1763 943.086 29.8796 934.519 29.8796C932.671 29.8796 930.345 29.1148 928.702 28.5428" stroke="white" stroke-width="1.1"/>
<path d="M930.622 28.0921C930.436 29.5095 884.659 31.2816 884.659 28.0921C884.659 24.9026 886.9 22.5275 893.74 21.5362C905.569 10.5711 910.815 7.74651 921.726 18.3467C929.797 20.186 930.807 26.6747 930.622 28.0921Z" stroke="white" stroke-width="1.1"/>
</g>
<path d="M758.07 199.87V210.899C758.412 222.007 717.073 235.583 719.289 238.209C721.505 240.834 817.902 240.572 819.564 238.209C821.226 235.845 777.404 222.191 777.183 210.899V199.87" stroke="white" stroke-width="1.1"/>
<path d="M742.178 139.102C742.399 144.561 739.108 148.875 735.098 149.021C731.088 149.167 727.459 145.103 727.238 139.645C727.018 134.186 730.309 129.871 734.318 129.726C738.328 129.58 741.958 133.644 742.178 139.102Z" stroke="white" stroke-width="1.1" stroke-linecap="round"/>
<path d="M728.269 125.356C721.776 126.548 720.738 130.167 721.569 135.99C722.954 144.862 722.954 145.417 725.17 146.526C725.724 146.993 729.602 147.358 729.79 146.993C730.458 148.456 730.759 149.319 729.79 151.733C728.459 154.737 721.262 155.527 717.904 156.473L714.58 159.362M728.269 125.356C732.868 121.436 738.189 122.377 740.659 123.296C743.268 124.266 746.704 128.58 747.18 134.835C747.615 140.545 744.137 140.605 744.789 142.048C745.441 143.49 748.05 146.169 748.05 146.169C750.194 149.162 745.114 149.853 742.833 148.642C740.552 147.43 740.626 146.929 740.46 145.669M728.269 125.356C728.486 125.916 731.28 125.998 732.15 129.914M734.573 149.201C734.223 150.591 733.689 151.115 734.355 152.763C735.022 154.412 742.898 156.021 745.446 156.923L747.741 158.143L750.036 159.639" stroke="white" stroke-width="1.1" stroke-linecap="round"/>
<path d="M810.172 143.294C810.232 144.932 811.742 146.357 813.658 146.672C818.425 147.445 821.123 144.987 819.701 141.955C818.279 138.922 816.493 138.97 816.146 135.046C815.655 130.084 808.068 126.803 806.904 126.453C805.74 126.104 802.97 126.936 802.97 126.936C796.933 129.175 796.315 131.179 796.595 137.237C796.876 143.294 791.263 143.976 791.263 143.976C789.674 144.404 790.696 148.056 794.818 147.515C797.251 147.295 798.872 146.667 800.991 145.624C801.907 147.14 803.083 151.342 801.928 152.57C799.835 154.792 789.308 155.939 787.709 159.983M823.165 159.983C820.141 156.95 808.861 154.591 807.793 152.233C806.725 149.874 807.41 148.206 807.568 146.672" stroke="white" stroke-width="1.1" stroke-linecap="round"/>
<path d="M810.917 140.694C810.589 142.798 809.658 144.592 808.443 145.796C807.228 147 805.76 147.591 804.321 147.389C802.881 147.188 801.657 146.219 800.862 144.733C800.067 143.247 799.722 141.274 800.051 139.171C800.379 137.067 801.31 135.273 802.525 134.068C803.74 132.864 805.208 132.273 806.647 132.475C808.087 132.677 809.311 133.645 810.106 135.131C810.901 136.617 811.246 138.59 810.917 140.694Z" stroke="white" stroke-width="1.1"/>
<rect x="656.96" y="52.0564" width="224.379" height="147.527" rx="10.45" stroke="white" stroke-width="1.1"/>
<path d="M813.091 91.4124C813.311 96.871 810.02 101.186 806.01 101.331C802 101.477 798.371 97.4134 798.151 91.9548C797.93 86.4962 801.221 82.1816 805.231 82.0361C809.241 81.8905 812.87 85.9538 813.091 91.4124Z" stroke="white" stroke-width="1.1" stroke-linecap="round"/>
<path d="M799.181 77.6666C792.689 78.8585 791.65 82.4777 792.481 88.3003C793.866 97.1727 793.866 97.7272 796.082 98.8363C796.636 99.3035 800.514 99.6681 800.703 99.3035C801.37 100.767 801.672 101.629 800.703 104.043C799.371 107.047 792.175 107.837 788.817 108.783L785.493 111.672M799.181 77.6666C803.78 73.7462 809.102 74.6875 811.572 75.606C814.18 76.5759 817.617 80.8908 818.093 87.1456C818.528 92.8551 815.05 92.9153 815.702 94.3579C816.354 95.8006 818.962 98.4793 818.962 98.4793C821.106 101.472 816.026 102.163 813.745 100.952C811.465 99.7407 811.539 99.2396 811.372 97.9795M799.181 77.6666C799.399 78.2262 802.193 78.3088 803.062 82.224M805.485 101.512C805.135 102.901 804.601 103.425 805.268 105.073C805.935 106.722 813.81 108.331 816.358 109.233L818.654 110.453L820.949 111.95" stroke="white" stroke-width="1.1" stroke-linecap="round"/>
<rect x="771.084" y="67.2865" width="68.7043" height="44.8161" rx="7.45" stroke="white" stroke-width="1.1"/>
<rect x="700.205" y="115.603" width="67.5637" height="44.0658" rx="7.45" stroke="white" stroke-width="1.1"/>
<path d="M707.622 67.2864H760.319C764.433 67.2864 767.769 70.6219 767.769 74.7364V103.924C767.769 108.038 764.433 111.374 760.319 111.374H707.622C703.508 111.374 700.172 108.038 700.172 103.924V74.7364C700.172 70.6219 703.508 67.2864 707.622 67.2864Z" stroke="white" stroke-width="1.1"/>
<path d="M739.259 94.496C739.319 96.1333 740.83 97.5589 742.746 97.8739C747.513 98.6465 750.211 96.1889 748.789 93.1561C747.367 90.1233 745.581 90.1713 745.234 86.248C744.742 81.2855 737.156 78.0042 735.992 77.6549C734.827 77.3056 732.057 78.1373 732.057 78.1373C726.02 80.3762 725.403 82.3807 725.683 88.4383C725.963 94.496 720.351 95.178 720.351 95.178C718.761 95.6051 719.783 99.2578 723.906 98.7163C726.338 98.4965 727.96 97.8682 730.079 96.8255C730.994 98.3415 732.171 102.544 731.015 103.771C728.923 105.993 718.396 107.141 716.796 111.185M752.252 111.185C749.229 108.152 737.949 105.793 736.88 103.434C735.812 101.075 736.497 99.4077 736.655 97.8739" stroke="white" stroke-width="1.1" stroke-linecap="round"/>
<path d="M740.005 91.8953C739.677 93.9992 738.745 95.7933 737.531 96.9975C736.316 98.2017 734.848 98.7926 733.409 98.5909C731.969 98.3891 730.745 97.4208 729.95 95.9349C729.154 94.4489 728.81 92.4759 729.138 90.3721C729.467 88.2682 730.398 86.4741 731.613 85.2699C732.828 84.0657 734.296 83.4748 735.735 83.6765C737.175 83.8783 738.399 84.8466 739.194 86.3325C739.989 87.8185 740.333 89.7915 740.005 91.8953Z" stroke="white" stroke-width="1.1"/>
<rect x="771.084" y="115.603" width="68.7043" height="44.8161" rx="7.45" stroke="white" stroke-width="1.1"/>
<path d="M656.964 185.428H882.066" stroke="white" stroke-width="1.1"/>
<path d="M755.58 173.348C755.58 177.078 752.382 180.151 748.374 180.151C744.367 180.151 741.168 177.078 741.168 173.348C741.168 169.619 744.367 166.546 748.374 166.546C752.382 166.546 755.58 169.619 755.58 173.348Z" stroke="white" stroke-width="1.1"/>
<mask id="mask0_0_1" style="mask-type:alpha" maskUnits="userSpaceOnUse" x="744" y="169" width="10" height="9">
<rect x="744.164" y="169.357" width="8.86404" height="8.40294" fill="#D9D9D9"/>
</mask>
<g mask="url(#mask0_0_1)">
<path d="M750.72 174.592L750.184 174.084C750.27 173.95 750.335 173.81 750.378 173.664C750.421 173.518 750.443 173.366 750.443 173.209H751.181C751.181 173.465 751.141 173.709 751.061 173.939C750.981 174.17 750.867 174.387 750.72 174.592ZM749.63 173.541L748.965 172.911V171.108C748.965 171.009 748.93 170.925 748.859 170.858C748.788 170.791 748.701 170.758 748.596 170.758C748.491 170.758 748.404 170.791 748.333 170.858C748.262 170.925 748.227 171.009 748.227 171.108V172.211L747.488 171.511V171.108C747.488 170.816 747.596 170.568 747.811 170.364C748.026 170.16 748.288 170.058 748.596 170.058C748.904 170.058 749.165 170.16 749.381 170.364C749.596 170.568 749.704 170.816 749.704 171.108V173.209C749.704 173.273 749.696 173.331 749.681 173.384C749.665 173.436 749.648 173.489 749.63 173.541ZM748.227 176.71V175.633C747.586 175.552 747.057 175.28 746.638 174.819C746.22 174.358 746.011 173.821 746.011 173.209H746.749C746.749 173.693 746.926 174.106 747.28 174.447C747.634 174.789 748.073 174.959 748.596 174.959C748.805 174.959 749.004 174.929 749.192 174.868C749.379 174.806 749.55 174.72 749.704 174.609L750.23 175.108C750.052 175.242 749.856 175.356 749.644 175.449C749.432 175.543 749.205 175.604 748.965 175.633V176.71H748.227ZM751.477 177.27L744.681 170.828L745.198 170.338L751.994 176.78L751.477 177.27Z" fill="white"/>
</g>
<path d="M776.079 173.348C776.079 177.078 772.88 180.151 768.873 180.151C764.865 180.151 761.667 177.078 761.667 173.348C761.667 169.619 764.865 166.546 768.873 166.546C772.88 166.546 776.079 169.619 776.079 173.348Z" stroke="white" stroke-width="1.1"/>
<mask id="mask1_0_1" style="mask-type:alpha" maskUnits="userSpaceOnUse" x="764" y="169" width="10" height="9">
<rect x="764.662" y="169.357" width="8.86404" height="8.40294" fill="#D9D9D9"/>
</mask>
<g mask="url(#mask1_0_1)">
<path d="M765.401 176.36V170.758H771.31V173.034L772.788 171.633V175.484L771.31 174.084V176.36H765.401ZM766.139 175.659H770.571V171.458H766.139V175.659Z" fill="white"/>
</g>
<path d="M796.577 173.348C796.577 177.078 793.378 180.151 789.371 180.151C785.363 180.151 782.165 177.078 782.165 173.348C782.165 169.619 785.363 166.546 789.371 166.546C793.378 166.546 796.577 169.619 796.577 173.348Z" stroke="white" stroke-width="1.1"/>
<mask id="mask2_0_1" style="mask-type:alpha" maskUnits="userSpaceOnUse" x="785" y="169" width="10" height="9">
<rect x="785.16" y="169.357" width="8.86404" height="8.40294" fill="#D9D9D9"/>
</mask>
<g mask="url(#mask2_0_1)">
<path d="M789.592 172.158C790.319 172.158 791.034 172.297 791.739 172.574C792.444 172.851 793.07 173.267 793.618 173.821C793.692 173.891 793.729 173.973 793.729 174.066C793.729 174.16 793.692 174.242 793.618 174.312L792.769 175.099C792.701 175.163 792.623 175.199 792.533 175.204C792.444 175.21 792.362 175.187 792.289 175.134L791.218 174.364C791.168 174.329 791.131 174.288 791.107 174.242C791.082 174.195 791.07 174.142 791.07 174.084V173.086C790.836 173.016 790.596 172.961 790.35 172.92C790.103 172.879 789.851 172.859 789.592 172.859C789.334 172.859 789.082 172.879 788.835 172.92C788.589 172.961 788.349 173.016 788.115 173.086V174.084C788.115 174.142 788.103 174.195 788.078 174.242C788.054 174.288 788.017 174.329 787.967 174.364L786.896 175.134C786.822 175.187 786.741 175.21 786.652 175.204C786.562 175.199 786.484 175.163 786.416 175.099L785.567 174.312C785.493 174.242 785.456 174.16 785.456 174.066C785.456 173.973 785.493 173.891 785.567 173.821C786.108 173.267 786.733 172.851 787.441 172.574C788.149 172.297 788.866 172.158 789.592 172.158ZM787.376 173.366C787.198 173.454 787.026 173.554 786.859 173.668C786.693 173.782 786.521 173.909 786.342 174.049L786.712 174.399L787.376 173.909V173.366ZM791.808 173.384V173.909L792.473 174.399L792.843 174.066C792.664 173.915 792.492 173.783 792.326 173.673C792.159 173.562 791.987 173.465 791.808 173.384Z" fill="white"/>
</g>
<path d="M548.102 248.363C513.687 258.47 493.533 271.005 493.533 284.684C493.533 313.932 585.815 338.321 709.594 343.741M587.714 238.936C630.042 230.878 685.061 225.468 743.942 224.518M792.971 224.796C858.164 226.436 919.078 234.338 961.665 244.481M995.182 254.74C1016.88 263.414 1032.02 274.04 1032.02 284.684C1032.02 314.367 935.836 339.029 809.315 343.955M733.97 344.573C742.179 344.742 754.373 344.851 762.778 344.851C770.712 344.851 784.382 344.723 792.14 344.573" stroke="url(#paint1_linear_0_1)" stroke-width="1.1"/>
<path d="M979.67 223.632L982.31 220.71" stroke="white" stroke-width="1.1" stroke-linecap="round" stroke-linejoin="round"/>
<path d="M979.745 196.277V202.007M979.745 233.615V218.004M979.745 210.252V206.443" stroke="white" stroke-width="1.1" stroke-linecap="round" stroke-linejoin="round"/>
<path d="M973.48 217.415C973.48 217.415 967.818 211.228 962.157 212.258C956.495 213.287 953.909 220.003 953.909 224.13C953.909 228.258 959.571 241.67 959.571 241.67C959.571 241.67 963.695 237.032 972.98 230.336C982.265 223.639 982.765 216.895 973.48 217.415Z" stroke="white" stroke-width="1.1" stroke-linecap="round" stroke-linejoin="round"/>
<path d="M973.479 217.414C968.619 220.169 964.68 224.299 962.156 229.286" stroke="white" stroke-width="1.1" stroke-linecap="round" stroke-linejoin="round"/>
<path d="M982.727 210.152C982.727 210.152 987.446 205.061 992.079 205.92C996.712 206.78 998.863 212.315 998.854 215.715C998.844 219.115 994.136 230.166 994.136 230.166C990.78 226.684 987.092 223.54 983.124 220.778C975.49 215.233 975.075 209.708 982.727 210.152Z" stroke="white" stroke-width="1.1" stroke-linecap="round" stroke-linejoin="round"/>
<path d="M982.728 210.152C986.733 212.426 989.974 215.838 992.042 219.956" stroke="white" stroke-width="1.1" stroke-linecap="round" stroke-linejoin="round"/>
<path d="M979.67 202.284L982.31 195.667" stroke="white" stroke-width="1.1" stroke-linecap="round" stroke-linejoin="round"/>
<path d="M977.736 200.375C977.736 200.375 977.623 193.461 973.556 190.996C969.489 188.531 964.252 191.251 961.996 193.83C959.741 196.408 955.882 207.724 955.882 207.724C955.882 207.724 960.958 207.11 970.347 208.054C979.736 208.999 983.737 205.136 977.736 200.375Z" stroke="white" stroke-width="1.1" stroke-linecap="round" stroke-linejoin="round"/>
<path d="M977.735 200.376C973.232 199.41 968.544 199.797 964.26 201.49" stroke="white" stroke-width="1.1" stroke-linecap="round" stroke-linejoin="round"/>
<path d="M983.84 191.101C983.84 191.101 983.925 186.01 986.916 184.196C989.908 182.383 993.776 184.385 995.409 186.255C997.041 188.125 999.891 196.503 999.891 196.503C996.344 196.237 992.779 196.32 989.247 196.749C982.359 197.438 979.471 194.605 983.84 191.101Z" stroke="white" stroke-width="1.1" stroke-linecap="round" stroke-linejoin="round"/>
<path d="M983.842 191.1C987.156 190.389 990.606 190.675 993.759 191.922" stroke="white" stroke-width="1.1" stroke-linecap="round" stroke-linejoin="round"/>
<path d="M968.786 233.528H997.109L993.4 271.687H964.195L961.348 240.339" stroke="white" stroke-width="1.1" stroke-linecap="round" stroke-linejoin="round"/>
<path d="M547.271 220.115H587.622M587.622 220.115V213.555C587.622 212.451 586.727 211.555 585.622 211.555H576.399H572.123H562.77H560.632H555.689H550.745H549.806C548.701 211.555 547.806 212.451 547.806 213.555V224.394M587.622 220.115V224.394M547.806 224.394H587.622M547.806 224.394V250.875M587.622 224.394V250.875M547.806 250.875H587.622M547.806 250.875V254.084M587.622 250.875V254.084M547.806 254.084V256.899C547.806 258.004 548.701 258.899 549.806 258.899H585.622C586.727 258.899 587.622 258.004 587.622 256.899V254.084M547.806 254.084H587.622" stroke="white" stroke-width="1.1"/>
<path d="M550.353 198.595L555.216 204.265L559.424 198.093M550.353 198.595L552.416 194.769M550.353 198.595L551.069 211.555M559.424 198.093L556.952 194.518M559.424 198.093L560.168 211.555M556.952 194.518L554.479 190.943L552.416 194.769M556.952 194.518L554.888 198.344L552.416 194.769" stroke="white" stroke-width="1.1"/>
<path d="M576.864 199.266L581.327 206.733L587.374 200.482M576.864 199.266L579.986 195.283M576.864 199.266L575.446 211.556M587.374 200.482L585.241 195.891M587.374 200.482L586.096 211.556M585.241 195.891L583.109 191.3L579.986 195.283M585.241 195.891L582.119 199.874L579.986 195.283" stroke="white" stroke-width="1.1"/>
<path d="M563.135 207.194L565.532 203.568M563.135 207.194L562.995 211.288M563.135 207.194L566.108 211.487M572.215 207.506L570.072 203.724M572.215 207.506L572.086 211.288M572.215 207.506L568.878 211.764M570.072 203.724L567.93 199.942L565.532 203.568M570.072 203.724L567.675 207.35L565.532 203.568" stroke="white" stroke-width="1.1"/>
<path d="M634.371 313.989C622.879 312.483 617.595 314.706 608.031 318.3L597.135 279.197M634.371 313.989L622.685 272.052M634.371 313.989C635.456 313.159 636.491 312.406 637.492 311.72C644.343 307.027 649.383 306.44 658.314 305.111L656.879 299.962L655.217 294.001L646.576 265.372M622.685 272.052C625.646 266.369 631.735 264.184 645.189 260.872L646.576 265.372M622.685 272.052C613.273 268.579 606.934 271.139 595.871 274.663L597.135 279.197M646.576 265.372L652.989 263.578L665.307 307.782L656.965 310.162L641.894 314.329L604.105 324.896L591.787 280.692L597.135 279.197" stroke="white" stroke-width="1.1"/>
<path d="M628.792 278.313L641.292 274.818M630.001 282.649L641.08 279.552M631.965 289.695L644.465 286.201M633.023 293.489L642.966 290.71M634.761 299.722L652.942 294.64M635.667 302.975L655.269 297.495M606.918 284.427L620.554 280.615M621.762 284.952L612.672 287.493M623.727 291.998L610.091 295.81M624.784 295.792L614.273 298.73M626.522 302.025L613.454 305.678M627.429 305.278L618.906 307.66" stroke="white" stroke-width="1.1"/>
<path d="M890.917 269.47C889.923 264.874 887.072 263.027 881.712 260.698M884.78 279.492C883.459 277.872 882.177 276.213 881.397 274.541C886.027 273.404 888.772 272.615 891.38 270.514C893.792 268.572 894.643 266.26 895.853 262.972C895.977 262.635 896.105 262.288 896.239 261.929C897.746 262.986 899.176 264.306 900.451 265.87C903.249 269.302 904.744 273.228 904.92 276.786C905.096 280.345 903.956 283.493 901.538 285.469C899.126 287.439 896.39 287.678 893.526 286.574C890.631 285.458 887.614 282.968 884.78 279.492ZM882.239 260.327C885.733 258.065 890.733 258.487 895.297 261.308C895.124 261.767 894.963 262.204 894.809 262.62C893.73 265.539 893.026 267.441 891.383 269.044C890.85 266.823 889.867 265.201 888.355 263.856C886.836 262.504 884.801 261.452 882.239 260.327ZM890.435 269.858C888.085 271.662 885.557 272.388 880.973 273.511C879.951 270.854 879.226 268.44 879.157 266.335C879.089 264.254 879.659 262.498 881.234 261.09C884.064 262.31 886.138 263.356 887.624 264.678C889.071 265.965 889.982 267.533 890.435 269.858Z" stroke="white" stroke-width="1.1"/>
<path d="M902.11 284.962C907.617 288.483 912.082 282.467 914.575 287.18C917.068 291.894 927.594 292.448 924.824 282.467C922.054 272.485 924.547 273.594 930.364 269.712C936.181 265.831 931.749 246.422 924.824 248.086C917.899 249.75 907.096 245.036 907.373 238.382V234.223" stroke="white" stroke-width="1.1"/>
<ellipse cx="1.48102" cy="2.89798" rx="1.48102" ry="2.89798" transform="matrix(0.698979 -0.715143 0.714482 0.699654 885.114 263.808)" fill="white"/>
<g opacity="0.4">
<path d="M619.85 55.1104C619.85 68.7418 608.81 79.7914 595.192 79.7914C581.575 79.7914 570.535 68.7418 570.535 55.1104C570.535 41.479 581.575 30.4295 595.192 30.4295C608.81 30.4295 619.85 41.479 619.85 55.1104Z" stroke="white" stroke-width="1.1"/>
<path d="M596.554 55.2846C596.554 55.9421 596.022 56.4743 595.366 56.4743C594.71 56.4743 594.178 55.9421 594.178 55.2846C594.178 54.627 594.71 54.0948 595.366 54.0948C596.022 54.0948 596.554 54.627 596.554 55.2846Z" fill="white" stroke="white" stroke-width="1.1"/>
<path d="M585.979 48.3247L595.193 55.285L608.405 43.2785M585.979 48.3247L589.456 49.0207M585.979 48.3247L587.37 51.4568M608.405 43.2785L604.406 43.9745M608.405 43.2785L607.188 46.4106" stroke="white" stroke-width="1.1"/>
</g>
<g opacity="0.4">
<path d="M561.156 107.923C561.125 106.544 561.085 105.116 561.038 103.627H561.12H561.282H561.443H561.605H561.766H561.927H562.087H562.248H562.408H562.567H562.727H562.886H563.045H563.204H563.362H563.52H563.678H563.836H563.993H564.151H564.307H564.464H564.62H564.777H564.932H565.088H565.244H565.399H565.554H565.708H565.863H566.017H566.171H566.324H566.478H566.631H566.784H566.937H567.089H567.241H567.393H567.545H567.697H567.848H567.999H568.15H568.301H568.451H568.601H568.751H568.901H569.051H569.2H569.349H569.498H569.647H569.795H569.943H570.091H570.239H570.387H570.534H570.681H570.828H570.975H571.122H571.268H571.414H571.56H571.706H571.851H571.997H572.142H572.287H572.431H572.576H572.72H572.865H573.009H573.152H573.296H573.439H573.583H573.726H573.869H574.011H574.154H574.296H574.438H574.58H574.722H574.863H575.005H575.146H575.287H575.428H575.569H575.709H575.85H575.99H576.13H576.27H576.41H576.549H576.688H576.828H576.967H577.106H577.244H577.383H577.521H577.66H577.798H577.936H578.074H578.211H578.349H578.486H578.623H578.761H578.897H579.034H579.171H579.307H579.444H579.58H579.716H579.852H579.988H580.123H580.259H580.394H580.53H580.665H580.8H580.935H581.069H581.204H581.339H581.473H581.607H581.741H581.875H582.009H582.143H582.277H582.41H582.544H582.677H582.81H582.943H583.076H583.209H583.342H583.474H583.607H583.739H583.872H584.004H584.136H584.268H584.4H584.532H584.663H584.795H584.926H585.058H585.189H585.32H585.452H585.583H585.714H585.844H585.975H586.106H586.237H586.367H586.498H586.628H586.758H586.888H587.018H587.149H587.279H587.408H587.538H587.668H587.798H587.927H588.057H588.186H588.316H588.445H588.574H588.703H588.833H588.962H589.091H589.22H589.349H589.477H589.606H589.735H589.864H589.992H590.121H590.249H590.378H590.506H590.634H590.763H590.891H591.019H591.147H591.276H591.404H591.532H591.66H591.788H591.916H592.044H592.171H592.299H592.427H592.555H592.683H592.81H592.938H593.066H593.193H593.321H593.448H593.576H593.704H593.831H593.959H594.086H594.213H594.341H594.468H594.596H594.723H594.851H594.978H595.105H595.233H595.36H595.487H595.615H595.742H595.869H595.997H596.124H596.251H596.379H596.506H596.633H596.761H596.888H597.015H597.143H597.27H597.397H597.525H597.652H597.78H597.907H598.035H598.162H598.289H598.417H598.544H598.672H598.8H598.927H599.055H599.182H599.31H599.438H599.565H599.693H599.821H599.949H600.077H600.204H600.332H600.46H600.588H600.716H600.844H600.972H601.101H601.229H601.357H601.485H601.614H601.742H601.87H601.999H602.127H602.256H602.385H602.513H602.642H602.771H602.9H603.028H603.157H603.286H603.415H603.545H603.674H603.803H603.932H604.062H604.191H604.321H604.45H604.58H604.71H604.84H604.97H605.099H605.23H605.36H605.49H605.62H605.751H605.881H606.011H606.142H606.273H606.404H606.534H606.665H606.796H606.928H607.059H607.19H607.322H607.453H607.585H607.716H607.848H607.98H608.112H608.244H608.376H608.509H608.641H608.774H608.906H609.039H609.172H609.305H609.438H609.571H609.704H609.838H609.971H610.105H610.239H610.373H610.507H610.641H610.775H610.909H611.044H611.179H611.313H611.448H611.583H611.718H611.854H611.989H612.125H612.26H612.396H612.532H612.668H612.804H612.941H613.077H613.214H613.351H613.488H613.625H613.762H613.899H614.037H614.174H614.312H614.45H614.588H614.727H614.865H615.004H615.142H615.281H615.42H615.56H615.699H615.838H615.978H616.118H616.258H616.398H616.539H616.679H616.82H616.961H617.102H617.243H617.385H617.526H617.668H617.81H617.952H618.094H618.237H618.38H618.522H618.665H618.809H618.952H619.096H619.239H619.383H619.528H619.672H619.817H619.961H620.106H620.251H620.397H620.542H620.688H620.834H620.98H621.126H621.273H621.42H621.567H621.714H621.861H622.009H622.157H622.305H622.453H622.601H622.75H622.899H623.048H623.197H623.347H623.497H623.647H623.797H623.947H624.098H624.249H624.4H624.551H624.703H624.855H625.007H625.159H625.311H625.464H625.617H625.77H625.924H626.077H626.231H626.385H626.54H626.695H626.849H627.005H627.16H627.316H627.471H627.628H627.784H627.941H628.097H628.255H628.412H628.57H628.728H628.886H629.044H629.203H629.362H629.521H629.681H629.84H630H630.161H630.321H630.482H630.643H630.805H630.966H631.128H631.195C631.108 105.116 631.039 106.544 630.985 107.923H561.156ZM561.179 109.023H630.946C630.537 121.413 631.506 129.858 633.606 143.162H558.986C560.894 129.866 561.417 121.398 561.179 109.023Z" stroke="white" stroke-width="1.1"/>
<path d="M565.962 111.401H571.569V115.954H565.962V111.401Z" stroke="white" stroke-width="1.1"/>
<path d="M570.525 113.013V120.286H569.644V113.936H569.602L567.826 115.115V114.22L569.644 113.013H570.525Z" fill="white"/>
<path d="M577.024 120.286V119.647L579.425 117.019C579.706 116.711 579.938 116.443 580.121 116.216C580.303 115.987 580.438 115.771 580.526 115.57C580.616 115.366 580.661 115.153 580.661 114.931C580.661 114.675 580.599 114.454 580.476 114.267C580.355 114.08 580.189 113.935 579.979 113.833C579.768 113.732 579.531 113.681 579.268 113.681C578.989 113.681 578.745 113.739 578.537 113.855C578.331 113.968 578.171 114.128 578.058 114.334C577.946 114.54 577.891 114.782 577.891 115.059H577.053C577.053 114.632 577.151 114.258 577.347 113.936C577.544 113.614 577.811 113.363 578.15 113.184C578.491 113.004 578.873 112.914 579.297 112.914C579.723 112.914 580.101 113.004 580.43 113.184C580.759 113.363 581.017 113.606 581.204 113.912C581.391 114.217 581.484 114.557 581.484 114.931C581.484 115.198 581.436 115.46 581.339 115.716C581.244 115.969 581.078 116.252 580.842 116.564C580.607 116.874 580.282 117.253 579.865 117.701L578.232 119.448V119.505H581.612V120.286H577.024Z" fill="white"/>
<path d="M588.107 120.385C587.638 120.385 587.22 120.305 586.853 120.144C586.488 119.983 586.198 119.759 585.983 119.473C585.77 119.184 585.654 118.849 585.635 118.468H586.53C586.549 118.702 586.629 118.904 586.771 119.075C586.913 119.243 587.099 119.373 587.329 119.466C587.558 119.558 587.813 119.604 588.092 119.604C588.405 119.604 588.682 119.55 588.923 119.441C589.165 119.332 589.354 119.18 589.491 118.986C589.629 118.792 589.697 118.567 589.697 118.311C589.697 118.044 589.631 117.808 589.499 117.605C589.366 117.399 589.172 117.238 588.916 117.122C588.66 117.006 588.348 116.948 587.979 116.948H587.396V116.167H587.979C588.267 116.167 588.521 116.114 588.739 116.01C588.959 115.906 589.13 115.759 589.254 115.57C589.379 115.381 589.442 115.158 589.442 114.902C589.442 114.656 589.387 114.442 589.278 114.26C589.169 114.077 589.016 113.935 588.817 113.833C588.62 113.732 588.388 113.681 588.121 113.681C587.87 113.681 587.633 113.727 587.41 113.819C587.19 113.909 587.01 114.041 586.871 114.213C586.731 114.384 586.655 114.59 586.643 114.831H585.791C585.805 114.45 585.92 114.116 586.136 113.83C586.351 113.541 586.633 113.316 586.981 113.155C587.331 112.994 587.716 112.914 588.135 112.914C588.585 112.914 588.971 113.005 589.293 113.187C589.615 113.367 589.862 113.605 590.035 113.901C590.208 114.197 590.294 114.516 590.294 114.86C590.294 115.269 590.186 115.618 589.971 115.907C589.758 116.196 589.468 116.396 589.101 116.507V116.564C589.56 116.64 589.919 116.835 590.177 117.15C590.435 117.463 590.564 117.85 590.564 118.311C590.564 118.707 590.456 119.062 590.241 119.377C590.028 119.689 589.736 119.935 589.367 120.115C588.998 120.295 588.578 120.385 588.107 120.385Z" fill="white"/>
<rect x="565.962" y="118.468" width="5.6073" height="4.55359" stroke="white" stroke-width="1.1"/>
<rect x="565.962" y="125.535" width="5.6073" height="4.55359" stroke="white" stroke-width="1.1"/>
<rect x="565.962" y="132.602" width="5.6073" height="4.55359" stroke="white" stroke-width="1.1"/>
<rect x="574.787" y="111.401" width="5.6073" height="4.55359" stroke="white" stroke-width="1.1"/>
<rect x="574.787" y="118.468" width="5.6073" height="4.55359" stroke="white" stroke-width="1.1"/>
<rect x="574.787" y="125.535" width="5.6073" height="4.55359" stroke="white" stroke-width="1.1"/>
<rect x="574.787" y="132.602" width="5.6073" height="4.55359" stroke="white" stroke-width="1.1"/>
<rect x="583.612" y="111.401" width="5.6073" height="4.55359" stroke="white" stroke-width="1.1"/>
<rect x="583.612" y="118.468" width="5.6073" height="4.55359" stroke="white" stroke-width="1.1"/>
<rect x="583.612" y="125.535" width="5.6073" height="4.55359" stroke="white" stroke-width="1.1"/>
<rect x="583.612" y="132.602" width="5.6073" height="4.55359" stroke="white" stroke-width="1.1"/>
<rect x="592.438" y="111.401" width="5.6073" height="4.55359" stroke="white" stroke-width="1.1"/>
<rect x="592.438" y="118.468" width="5.6073" height="4.55359" stroke="white" stroke-width="1.1"/>
<rect x="592.438" y="125.535" width="5.6073" height="4.55359" stroke="white" stroke-width="1.1"/>
<rect x="592.438" y="132.602" width="5.6073" height="4.55359" stroke="white" stroke-width="1.1"/>
<rect x="601.263" y="111.401" width="5.6073" height="4.55359" stroke="white" stroke-width="1.1"/>
<rect x="601.263" y="118.468" width="5.6073" height="4.55359" stroke="white" stroke-width="1.1"/>
<rect x="601.263" y="125.535" width="5.6073" height="4.55359" stroke="white" stroke-width="1.1"/>
<rect x="601.263" y="132.602" width="5.6073" height="4.55359" stroke="white" stroke-width="1.1"/>
<rect x="610.089" y="111.401" width="5.6073" height="4.55359" stroke="white" stroke-width="1.1"/>
<rect x="610.089" y="118.468" width="5.6073" height="4.55359" stroke="white" stroke-width="1.1"/>
<rect x="610.089" y="125.535" width="5.6073" height="4.55359" stroke="white" stroke-width="1.1"/>
<rect x="610.089" y="132.602" width="5.6073" height="4.55359" stroke="white" stroke-width="1.1"/>
<rect x="618.914" y="111.401" width="5.6073" height="4.55359" stroke="white" stroke-width="1.1"/>
<rect x="618.914" y="118.468" width="5.6073" height="4.55359" stroke="white" stroke-width="1.1"/>
<rect x="618.914" y="125.535" width="5.6073" height="4.55359" stroke="white" stroke-width="1.1"/>
<rect x="618.914" y="132.602" width="5.6073" height="4.55359" stroke="white" stroke-width="1.1"/>
</g>
<g opacity="0.4">
<path d="M936.181 166.293C909.198 214.92 871.053 197.745 894.997 184.611C918.941 171.478 913.843 218.141 887.983 218.141C870.024 217.417 862.266 211.651 849.757 200.119" stroke="white" stroke-width="1.1" stroke-dasharray="3 3"/>
<path d="M975.975 121.931L918.965 148.701L933.57 153.676M975.975 121.931L954.642 162.523L941.518 157.178M975.975 121.931C962.025 132.205 934.015 152.938 933.57 153.676M975.975 121.931L941.518 157.178M941.518 157.178L939.839 166.218L933.57 153.676" stroke="white" stroke-width="1.1"/>
<path d="M956.635 52.0563C952.44 104.343 946.529 127.901 917.341 137.128M965.689 52.0563C982.281 114.34 991.81 136.227 1008.76 142.192M1008.76 143.131C1003.17 150.923 1001.58 158.374 1002.63 177.388M922.791 52.0563H956.083C953.98 78.2583 951.448 97.1527 945.806 110.639C942.97 117.42 939.353 122.818 934.619 127.084C930.039 131.213 924.39 134.303 917.341 136.551V57.5063C917.341 54.4964 919.781 52.0563 922.791 52.0563ZM1003.18 177.388C1002.64 167.662 1002.8 161.01 1003.81 155.807C1004.72 151.139 1006.32 147.622 1008.76 144.087V171.938C1008.76 174.948 1006.32 177.388 1003.31 177.388H1003.18ZM946.821 111.064C952.546 97.3775 955.084 78.2849 957.187 52.0563H965.12C973.498 83.517 980.086 104.733 986.748 118.807C993.262 132.569 999.891 139.598 1008.42 142.657C1005.59 146.573 1003.74 150.404 1002.73 155.596C1001.69 160.927 1001.54 167.673 1002.08 177.388H925.027C921.579 151.945 920.044 146.169 917.475 137.663C924.735 135.371 930.594 132.194 935.356 127.901C940.232 123.506 943.935 117.964 946.821 111.064ZM987.742 118.336C981.149 104.407 974.602 83.3669 966.259 52.0563H966.328H966.415H966.501H966.587H966.674H966.76H966.846H966.931H967.017H967.103H967.188H967.273H967.359H967.444H967.529H967.614H967.698H967.783H967.867H967.952H968.036H968.12H968.204H968.288H968.372H968.455H968.539H968.622H968.706H968.789H968.872H968.955H969.038H969.12H969.203H969.285H969.368H969.45H969.532H969.614H969.696H969.778H969.86H969.941H970.023H970.104H970.185H970.267H970.348H970.429H970.51H970.59H970.671H970.751H970.832H970.912H970.993H971.073H971.153H971.233H971.312H971.392H971.472H971.551H971.631H971.71H971.789H971.868H971.947H972.026H972.105H972.184H972.263H972.341H972.42H972.498H972.576H972.654H972.732H972.81H972.888H972.966H973.044H973.121H973.199H973.276H973.354H973.431H973.508H973.585H973.662H973.739H973.816H973.893H973.969H974.046H974.122H974.199H974.275H974.351H974.427H974.503H974.579H974.655H974.731H974.807H974.883H974.958H975.034H975.109H975.184H975.26H975.335H975.41H975.485H975.56H975.635H975.71H975.784H975.859H975.933H976.008H976.082H976.157H976.231H976.305H976.379H976.453H976.527H976.601H976.675H976.749H976.823H976.896H976.97H977.043H977.117H977.19H977.264H977.337H977.41H977.483H977.556H977.629H977.702H977.775H977.848H977.92H977.993H978.066H978.138H978.211H978.283H978.356H978.428H978.5H978.572H978.645H978.717H978.789H978.861H978.933H979.004H979.076H979.148H979.22H979.291H979.363H979.434H979.506H979.577H979.649H979.72H979.791H979.863H979.934H980.005H980.076H980.147H980.218H980.289H980.36H980.431H980.502H980.572H980.643H980.714H980.784H980.855H980.925H980.996H981.066H981.137H981.207H981.278H981.348H981.418H981.488H981.558H981.629H981.699H981.769H981.839H981.909H981.979H982.049H982.119H982.188H982.258H982.328H982.398H982.467H982.537H982.607H982.676H982.746H982.816H982.885H982.955H983.024H983.093H983.163H983.232H983.302H983.371H983.44H983.509H983.579H983.648H983.717H983.786H983.855H983.925H983.994H984.063H984.132H984.201H984.27H984.339H984.408H984.477H984.546H984.615H984.684H984.752H984.821H984.89H984.959H985.028H985.097H985.165H985.234H985.303H985.372H985.44H985.509H985.578H985.646H985.715H985.784H985.852H985.921H985.99H986.058H986.127H986.195H986.264H986.333H986.401H986.47H986.538H986.607H986.675H986.744H986.813H986.881H986.95H987.018H987.087H987.155H987.224H987.292H987.361H987.429H987.498H987.566H987.635H987.703H987.772H987.84H987.909H987.978H988.046H988.115H988.183H988.252H988.32H988.389H988.457H988.526H988.595H988.663H988.732H988.8H988.869H988.938H989.006H989.075H989.144H989.212H989.281H989.35H989.418H989.487H989.556H989.625H989.693H989.762H989.831H989.9H989.968H990.037H990.106H990.175H990.244H990.313H990.382H990.451H990.52H990.589H990.658H990.727H990.796H990.865H990.934H991.003H991.072H991.141H991.211H991.28H991.349H991.418H991.488H991.557H991.626H991.696H991.765H991.835H991.904H991.974H992.043H992.113H992.182H992.252H992.322H992.391H992.461H992.531H992.6H992.67H992.74H992.81H992.88H992.95H993.02H993.09H993.16H993.23H993.3H993.37H993.441H993.511H993.581H993.652H993.722H993.792H993.863H993.933H994.004H994.074H994.145H994.216H994.286H994.357H994.428H994.499H994.57H994.641H994.712H994.783H994.854H994.925H994.996H995.067H995.139H995.21H995.281H995.353H995.424H995.496H995.568H995.639H995.711H995.783H995.854H995.926H995.998H996.07H996.142H996.214H996.286H996.359H996.431H996.503H996.576H996.648H996.721H996.793H996.866H996.938H997.011H997.084H997.157H997.23H997.303H997.376H997.449H997.522H997.595H997.669H997.742H997.816H997.889H997.963H998.036H998.11H998.184H998.258H998.332H998.406H998.48H998.554H998.628H998.702H998.777H998.851H998.926H999H999.075H999.15H999.224H999.299H999.374H999.449H999.524H999.6H999.675H999.75H999.826H999.901H999.977H1000.05H1000.13H1000.2H1000.28H1000.36H1000.43H1000.51H1000.58H1000.66H1000.74H1000.81H1000.89H1000.97H1001.04H1001.12H1001.2H1001.27H1001.35H1001.43H1001.51H1001.58H1001.66H1001.74H1001.82H1001.89H1001.97H1002.05H1002.13H1002.21H1002.28H1002.36H1002.44H1002.52H1002.6H1002.68H1002.75H1002.83H1002.91H1002.99H1003.07H1003.15H1003.23H1003.31C1006.32 52.0563 1008.76 54.4965 1008.76 57.5063V141.608C1000.64 138.684 994.189 131.957 987.742 118.336ZM917.341 141.079C919.378 148.147 920.92 155.295 923.917 177.388H922.791C919.781 177.388 917.341 174.948 917.341 171.938V141.079Z" stroke="white" stroke-width="1.1"/>
</g>
<path d="M699.785 299.431L663.887 301.497M702.982 299.247L705.475 299.103M711.846 298.736L714.894 298.561M723.204 298.083L727.636 297.828M732.899 297.525L763.923 295.739M770.017 295.388L781.929 294.702M788.023 294.352L791.347 294.16M799.657 293.682L802.704 293.507M808.521 293.172L811.568 292.996M815.131 292.996L853.635 290.575L870.532 289.389L867.349 281.074L856.162 249.62L659.922 261.272L655.855 273.86" stroke="white" stroke-width="1.1"/>
<rect x="0.581521" y="0.516437" width="8.81966" height="4.48789" transform="matrix(0.998241 -0.0592777 0.0590696 0.998254 664.686 265.991)" stroke="white" stroke-width="1.1"/>
<rect x="0.581521" y="0.516437" width="8.81966" height="4.48789" transform="matrix(0.998241 -0.0592777 0.0590696 0.998254 677.289 265.243)" stroke="white" stroke-width="1.1"/>
<rect x="0.581521" y="0.516437" width="8.81966" height="4.48789" transform="matrix(0.998241 -0.0592777 0.0590696 0.998254 689.891 264.495)" stroke="white" stroke-width="1.1"/>
<rect x="0.581521" y="0.516437" width="8.81966" height="4.48789" transform="matrix(0.998241 -0.0592777 0.0590696 0.998254 702.494 263.748)" stroke="white" stroke-width="1.1"/>
<rect x="0.581521" y="0.516437" width="8.81966" height="4.48789" transform="matrix(0.998241 -0.0592777 0.0590696 0.998254 715.096 263)" stroke="white" stroke-width="1.1"/>
<rect x="0.581521" y="0.516437" width="8.81966" height="4.48789" transform="matrix(0.998241 -0.0592777 0.0590696 0.998254 727.699 262.252)" stroke="white" stroke-width="1.1"/>
<rect x="0.581521" y="0.516437" width="8.81966" height="4.48789" transform="matrix(0.998241 -0.0592777 0.0590696 0.998254 740.301 261.504)" stroke="white" stroke-width="1.1"/>
<rect x="0.581521" y="0.516437" width="8.81966" height="4.48789" transform="matrix(0.998241 -0.0592777 0.0590696 0.998254 752.904 260.756)" stroke="white" stroke-width="1.1"/>
<rect x="0.581521" y="0.516437" width="8.81966" height="4.48789" transform="matrix(0.998241 -0.0592777 0.0590696 0.998254 765.506 260.009)" stroke="white" stroke-width="1.1"/>
<rect x="0.581521" y="0.516437" width="8.81966" height="4.48789" transform="matrix(0.998241 -0.0592777 0.0590696 0.998254 778.108 259.261)" stroke="white" stroke-width="1.1"/>
<rect x="0.581521" y="0.516437" width="8.81966" height="4.48789" transform="matrix(0.998241 -0.0592777 0.0590696 0.998254 790.711 258.513)" stroke="white" stroke-width="1.1"/>
<rect x="0.581521" y="0.516437" width="8.81966" height="4.48789" transform="matrix(0.998241 -0.0592777 0.0590696 0.998254 803.314 257.765)" stroke="white" stroke-width="1.1"/>
<rect x="0.581521" y="0.516437" width="8.81966" height="4.48789" transform="matrix(0.998241 -0.0592777 0.0590696 0.998254 815.916 257.017)" stroke="white" stroke-width="1.1"/>
<rect x="0.581521" y="0.516437" width="8.81966" height="4.48789" transform="matrix(0.998241 -0.0592777 0.0590696 0.998254 828.518 256.27)" stroke="white" stroke-width="1.1"/>
<rect x="0.581521" y="0.516437" width="8.81966" height="4.48789" transform="matrix(0.998241 -0.0592777 0.0590696 0.998254 841.12 255.523)" stroke="white" stroke-width="1.1"/>
<rect x="0.581521" y="0.516437" width="8.81966" height="4.48789" transform="matrix(0.998241 -0.0592777 0.0590696 0.998254 665.127 273.429)" stroke="white" stroke-width="1.1"/>
<rect x="0.581521" y="0.516437" width="8.81966" height="4.48789" transform="matrix(0.998241 -0.0592777 0.0590696 0.998254 728.139 269.69)" stroke="white" stroke-width="1.1"/>
<rect x="0.581521" y="0.516437" width="8.81966" height="4.48789" transform="matrix(0.998241 -0.0592777 0.0590696 0.998254 728.579 277.129)" stroke="white" stroke-width="1.1"/>
<rect x="0.581521" y="0.516437" width="8.81966" height="4.48789" transform="matrix(0.998241 -0.0592777 0.0590696 0.998254 791.152 265.951)" stroke="white" stroke-width="1.1"/>
<path d="M797.013 280.498L801.057 280.258L801.379 285.699L798.1 285.855" stroke="white" stroke-width="1.1"/>
<rect x="0.581521" y="0.516437" width="8.81966" height="4.48789" transform="matrix(0.998241 -0.0592777 0.0590696 0.998254 665.567 280.867)" stroke="white" stroke-width="1.1"/>
<rect x="0.581521" y="0.516437" width="8.81966" height="4.48789" transform="matrix(0.998241 -0.0592777 0.0590696 0.998254 666.008 288.305)" stroke="white" stroke-width="1.1"/>
<rect x="0.581521" y="0.516437" width="8.81966" height="4.48789" transform="matrix(0.998241 -0.0592777 0.0590696 0.998254 677.73 272.681)" stroke="white" stroke-width="1.1"/>
<rect x="0.581521" y="0.516437" width="8.81966" height="4.48789" transform="matrix(0.998241 -0.0592777 0.0590696 0.998254 740.741 268.942)" stroke="white" stroke-width="1.1"/>
<rect x="0.581521" y="0.516437" width="8.81966" height="4.48789" transform="matrix(0.998241 -0.0592777 0.0590696 0.998254 741.182 276.381)" stroke="white" stroke-width="1.1"/>
<rect x="0.581521" y="0.516437" width="8.81966" height="4.48789" transform="matrix(0.998241 -0.0592777 0.0590696 0.998254 803.754 265.204)" stroke="white" stroke-width="1.1"/>
<rect x="0.581521" y="0.516437" width="7.89527" height="4.44067" transform="matrix(0.998241 -0.059278 0.0590693 0.998254 805.118 272.587)" stroke="white" stroke-width="1.1"/>
<path d="M806.306 279.947L814.567 279.457L814.897 285.035L812.736 285.163M807.413 285.479L810.575 285.291" stroke="white" stroke-width="1.1"/>
<rect x="0.581521" y="0.516437" width="8.81966" height="4.48789" transform="matrix(0.998241 -0.0592777 0.0590696 0.998254 678.17 280.119)" stroke="white" stroke-width="1.1"/>
<rect x="0.581521" y="0.516437" width="8.81966" height="4.48789" transform="matrix(0.998241 -0.0592777 0.0590696 0.998254 678.611 287.557)" stroke="white" stroke-width="1.1"/>
<rect x="0.581521" y="0.516437" width="8.81966" height="4.48789" transform="matrix(0.998241 -0.0592777 0.0590696 0.998254 690.332 271.933)" stroke="white" stroke-width="1.1"/>
<rect x="0.581521" y="0.516437" width="8.81966" height="4.48789" transform="matrix(0.998241 -0.0592777 0.0590696 0.998254 753.344 268.195)" stroke="white" stroke-width="1.1"/>
<rect x="0.581521" y="0.516437" width="8.81966" height="4.48789" transform="matrix(0.998241 -0.0592777 0.0590696 0.998254 753.784 275.633)" stroke="white" stroke-width="1.1"/>
<rect x="0.581521" y="0.516437" width="8.81966" height="4.48789" transform="matrix(0.998241 -0.0592777 0.0590696 0.998254 816.356 264.456)" stroke="white" stroke-width="1.1"/>
<rect x="0.581521" y="0.516437" width="8.81966" height="4.48789" transform="matrix(0.998241 -0.0592777 0.0590696 0.998254 816.797 271.894)" stroke="white" stroke-width="1.1"/>
<rect x="0.581521" y="0.516437" width="8.81966" height="4.48789" transform="matrix(0.998241 -0.0592777 0.0590696 0.998254 817.237 279.332)" stroke="white" stroke-width="1.1"/>
<rect x="0.581521" y="0.516437" width="8.81966" height="4.48789" transform="matrix(0.998241 -0.0592777 0.0590696 0.998254 690.773 279.372)" stroke="white" stroke-width="1.1"/>
<rect x="0.581521" y="0.516437" width="8.81966" height="4.48789" transform="matrix(0.998241 -0.0592777 0.0590696 0.998254 691.213 286.81)" stroke="white" stroke-width="1.1"/>
<rect x="0.581521" y="0.516437" width="8.81966" height="4.48789" transform="matrix(0.998241 -0.0592777 0.0590696 0.998254 702.934 271.185)" stroke="white" stroke-width="1.1"/>
<rect x="0.581521" y="0.516437" width="8.81966" height="4.48789" transform="matrix(0.998241 -0.0592777 0.0590696 0.998254 765.947 267.446)" stroke="white" stroke-width="1.1"/>
<rect x="0.581521" y="0.516437" width="8.81966" height="4.48789" transform="matrix(0.998241 -0.0592777 0.0590696 0.998254 766.387 274.885)" stroke="white" stroke-width="1.1"/>
<rect x="0.581521" y="0.516437" width="8.81966" height="4.48789" transform="matrix(0.998241 -0.0592777 0.0590696 0.998254 828.959 263.708)" stroke="white" stroke-width="1.1"/>
<rect x="0.581521" y="0.516437" width="8.81966" height="4.48789" transform="matrix(0.998241 -0.0592777 0.0590696 0.998254 829.4 271.146)" stroke="white" stroke-width="1.1"/>
<rect x="0.581521" y="0.516437" width="8.81966" height="4.48789" transform="matrix(0.998241 -0.0592777 0.0590696 0.998254 829.839 278.585)" stroke="white" stroke-width="1.1"/>
<rect x="0.581521" y="0.516437" width="8.81966" height="4.48789" transform="matrix(0.998241 -0.0592777 0.0590696 0.998254 703.375 278.624)" stroke="white" stroke-width="1.1"/>
<path d="M707.693 285.846L703.845 286.026L704.175 291.604L705.878 291.503M709.909 285.569L713.747 285.438L714.077 291.016L711.421 291.174" stroke="white" stroke-width="1.1"/>
<rect x="0.581521" y="0.516437" width="8.81966" height="4.48789" transform="matrix(0.998241 -0.0592777 0.0590696 0.998254 715.537 270.438)" stroke="white" stroke-width="1.1"/>
<rect x="0.581521" y="0.516437" width="8.81966" height="4.48789" transform="matrix(0.998241 -0.0592777 0.0590696 0.998254 778.549 266.699)" stroke="white" stroke-width="1.1"/>
<rect x="0.581521" y="0.516437" width="8.81966" height="4.48789" transform="matrix(0.998241 -0.0592777 0.0590696 0.998254 778.99 274.138)" stroke="white" stroke-width="1.1"/>
<rect x="0.581521" y="0.516437" width="8.81966" height="4.48789" transform="matrix(0.998241 -0.0592777 0.0590696 0.998254 841.561 262.961)" stroke="white" stroke-width="1.1"/>
<rect x="0.581521" y="0.516437" width="8.81966" height="4.48789" transform="matrix(0.998241 -0.0592777 0.0590696 0.998254 842.002 270.398)" stroke="white" stroke-width="1.1"/>
<rect x="0.581521" y="0.516437" width="8.81966" height="4.48789" transform="matrix(0.998241 -0.0592777 0.0590696 0.998254 842.442 277.837)" stroke="white" stroke-width="1.1"/>
<path d="M716.932 283.383L716.337 283.419L716.007 277.841L725.909 277.253L726.239 282.831L720.712 283.159" stroke="white" stroke-width="1.1"/>
<path d="M721.266 285.015L726.348 284.691L726.678 290.268L722.097 290.558" stroke="white" stroke-width="1.1"/>
<path d="M731.792 290.559L781.098 287.656M729.299 288.065L729.086 285.152L780.822 282.081M783.869 281.9L789.398 281.572L789.728 287.148L785.807 287.379" stroke="white" stroke-width="1.1"/>
<path d="M714.462 369.025C715.95 361.646 715.561 357.38 713.611 349.621C712.566 346.212 705.716 340.692 703.817 335.761C697.747 314.192 697.607 305.746 699.984 299.299C701.064 297.007 702.561 296.884 702.752 299.299C703.757 312.022 703.554 315.976 706.159 318.063C708.763 320.15 708.288 318.063 708.288 318.063C704.458 296.71 705.026 288.522 707.223 286.291C707.223 286.291 709.353 284.159 710.417 286.291C711.481 288.424 710.705 304.245 714.462 312.945C715.411 314.629 716.168 313.397 715.953 310.6C714.135 292.608 714.329 285.753 717.869 282.027C718.7 281.311 719.167 281.105 719.998 282.027C723.376 286.043 724.257 309.066 724.257 310.6C724.257 312.134 726.599 312.945 727.025 309.107C727.45 305.269 727.96 290.839 729.792 286.291C730.483 285.148 731.654 286.138 731.709 286.718C733.199 302.497 734.089 313.029 738.309 319.982C739.615 322.363 741.449 320.175 741.716 318.063C742.116 314.895 741.449 304.093 745.761 300.365C749.751 297.185 752.575 298.232 751.51 302.923C750.47 308.254 749.865 311.733 750.036 315.738C750.095 325.353 743.634 333.76 743.111 334.592C740.645 338.521 735.541 343.049 731.477 345.406C730.597 354.465 733.9 359.138 737.294 364.537" stroke="url(#paint2_linear_0_1)" stroke-width="1.1" stroke-linecap="round"/>
<path d="M812.107 355.002C809.337 348.26 808.924 344.133 809.353 336.397C809.721 332.964 814.105 327.255 816.123 321.417C818.141 315.579 816.516 291.737 813.071 286.045C811.623 284.065 810.385 283.694 810.438 286.554C811.82 298.836 812.453 302.894 810.645 305.022C808.836 307.149 808.62 305.414 808.62 305.414C808.341 284.407 806.296 276.727 803.797 275.011C803.797 275.011 801.38 273.376 800.759 275.599C800.138 277.822 803.783 292.721 801.807 301.685C801.244 303.102 800.267 302.428 799.959 299.729C798.383 282.289 796.939 275.807 792.888 272.916C791.966 272.389 791.484 272.279 790.863 273.308C788.388 277.748 792.103 299.22 792.061 301.258C792.019 303.295 790.264 303.919 789.154 300.348C788.044 296.778 784.909 283.152 782.33 279.166C781.464 278.206 780.532 279.363 780.586 279.924C782.067 295.201 783.155 305.378 780.418 312.765C779.613 315.269 776.599 314.49 776.825 311.568C777.064 308.485 774.379 297.641 769.727 295.486C765.349 293.197 762.855 294.713 764.729 298.977C766.697 303.853 767.845 306.621 768.418 310.461C770.128 319.613 772 320.856 775.206 325.838C775.76 326.699 786.458 335.873 790.756 337.365C793.257 345.816 795.486 358.224 793.249 363.982" stroke="url(#paint3_linear_0_1)" stroke-width="1.1" stroke-linecap="round"/>
</g>
<defs>
<linearGradient id="paint0_linear_0_1" x1="1198.37" y1="17.9512" x2="-171.107" y2="325.65" gradientUnits="userSpaceOnUse">
<stop stop-color="#6BCFCF"/>
<stop offset="0.084377" stop-color="#52B7BD"/>
<stop offset="0.669972" stop-color="#369CAA"/>
<stop offset="0.931461" stop-color="#369CAA"/>
</linearGradient>
<linearGradient id="paint1_linear_0_1" x1="762.778" y1="224.518" x2="771.104" y2="344.849" gradientUnits="userSpaceOnUse">
<stop stop-color="white"/>
<stop offset="1" stop-color="white" stop-opacity="0"/>
</linearGradient>
<linearGradient id="paint2_linear_0_1" x1="725.144" y1="281.41" x2="724.467" y2="379.487" gradientUnits="userSpaceOnUse">
<stop offset="0.0798613" stop-color="white"/>
<stop offset="0.798808" stop-color="white" stop-opacity="0"/>
</linearGradient>
<linearGradient id="paint3_linear_0_1" x1="785.579" y1="273.723" x2="805.473" y2="372.57" gradientUnits="userSpaceOnUse">
<stop offset="0.0798613" stop-color="white"/>
<stop offset="0.798808" stop-color="white" stop-opacity="0"/>
</linearGradient>
<clipPath id="clip0_0_1">
<rect width="1057" height="369" fill="white"/>
</clipPath>
</defs>
</svg>
