<svg width="36" height="36" viewBox="0 0 36 36" fill="none" xmlns="http://www.w3.org/2000/svg">
<mask id="mask0_173_679" style="mask-type:alpha" maskUnits="userSpaceOnUse" x="0" y="0" width="36" height="36">
<rect width="36" height="36" fill="#D9D9D9"/>
</mask>
<g mask="url(#mask0_173_679)">
<path d="M18.0001 23.7375C19.8001 23.7375 21.3313 23.1063 22.5937 21.8439C23.8561 20.5815 24.4873 19.0503 24.4873 17.2503C24.4873 15.4503 23.8561 13.9191 22.5937 12.6567C21.3313 11.3937 19.8001 10.7622 18.0001 10.7622C16.2001 10.7622 14.6689 11.3937 13.4065 12.6567C12.1441 13.9191 11.5129 15.4503 11.5129 17.2503C11.5129 19.0503 12.1441 20.5815 13.4065 21.8439C14.6689 23.1063 16.2001 23.7375 18.0001 23.7375ZM18.0001 21.2247C16.8751 21.2247 15.9313 20.8374 15.1687 20.0628C14.4061 19.2876 14.0248 18.3501 14.0248 17.2503C14.0248 16.1253 14.4124 15.1815 15.1876 14.4189C15.9628 13.6563 16.9003 13.275 18.0001 13.275C19.1251 13.275 20.0689 13.6626 20.8315 14.4378C21.5941 15.2124 21.9754 16.1499 21.9754 17.2503C21.9754 18.3753 21.5878 19.3188 20.8126 20.0808C20.0374 20.8434 19.0999 21.2247 18.0001 21.2247ZM18.0001 28.7253C14.2999 28.7253 10.9435 27.669 7.93089 25.5564C4.91889 23.4438 2.70039 20.6751 1.27539 17.2503C2.70039 13.8249 4.91889 11.0562 7.93089 8.94423C10.9435 6.83163 14.2999 5.77533 18.0001 5.77533C21.7003 5.77533 25.0564 6.83163 28.0684 8.94423C31.081 11.0562 33.2998 13.8249 34.7248 17.2503C33.2998 20.6751 31.081 23.4438 28.0684 25.5564C25.0564 27.669 21.7003 28.7253 18.0001 28.7253ZM18.0001 25.9875C20.9503 25.9875 23.6629 25.1937 26.1379 23.6061C28.6129 22.0185 30.5002 19.8999 31.7998 17.2503C30.5002 14.6001 28.6129 12.4812 26.1379 10.8936C23.6629 9.30603 20.9503 8.51223 18.0001 8.51223C15.0499 8.51223 12.3373 9.30603 9.86229 10.8936C7.38729 12.4812 5.48739 14.6001 4.16259 17.2503C5.48739 19.8999 7.38729 22.0185 9.86229 23.6061C12.3373 25.1937 15.0499 25.9875 18.0001 25.9875Z" fill="#747474"/>
</g>
</svg>
