<svg width="24" height="21" viewBox="0 0 24 21" fill="none" xmlns="http://www.w3.org/2000/svg">
<path d="M16.125 11.2L14.425 9.49998C14.5416 8.84998 14.3543 8.24598 13.863 7.68798C13.371 7.12931 12.7333 6.90831 11.95 7.02498L10.3 5.37498C10.5666 5.24164 10.8416 5.14598 11.125 5.08798C11.4083 5.02931 11.7 4.99998 12 4.99998C13.25 4.99998 14.3126 5.43731 15.188 6.31198C16.0626 7.18731 16.5 8.24998 16.5 9.49998C16.5 9.79998 16.471 10.0916 16.413 10.375C16.3543 10.6583 16.2583 10.9333 16.125 11.2ZM19.5 14.525L17.9249 12.975C18.525 12.5083 19.0626 11.996 19.538 11.438C20.0126 10.8793 20.4333 10.2333 20.7999 9.49998C19.9499 7.81664 18.75 6.47898 17.2 5.48698C15.65 4.49564 13.9166 3.99998 12 3.99998C11.5166 3.99998 11.0543 4.03331 10.613 4.09998C10.171 4.16664 9.73328 4.25831 9.29995 4.37498L7.59995 2.67498C8.28328 2.39164 8.99162 2.17898 9.72495 2.03698C10.4583 1.89564 11.2166 1.82498 12 1.82498C14.5333 1.82498 16.804 2.52898 18.812 3.93698C20.8206 5.34564 22.275 7.19998 23.1749 9.49998C22.7916 10.4833 22.2833 11.404 21.65 12.262C21.0166 13.1206 20.2999 13.875 19.5 14.525ZM19.725 20.675L15.625 16.625C15.0583 16.8083 14.475 16.946 13.875 17.038C13.275 17.1293 12.65 17.175 12 17.175C9.44995 17.175 7.17495 16.4706 5.17495 15.062C3.17495 13.654 1.72495 11.8 0.824951 9.49998C1.15828 8.61664 1.59595 7.79164 2.13795 7.02498C2.67928 6.25831 3.28328 5.56664 3.94995 4.94998L1.22495 2.17498L2.69995 0.724976L21.2 19.2L19.725 20.675ZM5.49995 6.47498C5.01662 6.90831 4.58762 7.37098 4.21295 7.86298C3.83762 8.35431 3.50828 8.89998 3.22495 9.49998C4.05828 11.1833 5.24995 12.5206 6.79995 13.512C8.34995 14.504 10.0833 15 12 15C12.3 15 12.6 14.9833 12.9 14.95C13.2 14.9166 13.5166 14.875 13.85 14.825L12.95 13.875C12.7833 13.9083 12.625 13.9373 12.475 13.962C12.325 13.9873 12.1666 14 12 14C10.75 14 9.68728 13.5626 8.81195 12.688C7.93728 11.8126 7.49995 10.75 7.49995 9.49998C7.49995 9.33331 7.50828 9.17498 7.52495 9.02498C7.54162 8.87498 7.57495 8.71664 7.62495 8.54998L5.49995 6.47498Z" fill="#919397"/>
</svg>
