<svg width="26" height="23" viewBox="0 0 26 23" fill="none" xmlns="http://www.w3.org/2000/svg">
<path d="M0.166504 22.5L12.9998 0.333328L25.8332 22.5H0.166504ZM12.9998 19C13.3304 19 13.6075 18.8882 13.8311 18.6646C14.0547 18.441 14.1665 18.1639 14.1665 17.8333C14.1665 17.5028 14.0547 17.2257 13.8311 17.0021C13.6075 16.7785 13.3304 16.6667 12.9998 16.6667C12.6693 16.6667 12.3922 16.7785 12.1686 17.0021C11.945 17.2257 11.8332 17.5028 11.8332 17.8333C11.8332 18.1639 11.945 18.441 12.1686 18.6646C12.3922 18.8882 12.6693 19 12.9998 19ZM11.8332 15.5H14.1665V9.66666H11.8332V15.5Z" fill="#F6AC3C"/>
</svg>
