<svg width="48" height="48" viewBox="0 0 48 48" fill="none" xmlns="http://www.w3.org/2000/svg">
<g clip-path="url(#clip0_1242_16792)">
<rect width="48" height="48" rx="4" fill="#2B60EA"/>
<mask id="mask0_1242_16792" style="mask-type:alpha" maskUnits="userSpaceOnUse" x="8" y="8" width="32" height="32">
<rect x="8" y="8" width="32" height="32" fill="#D9D9D9"/>
</mask>
<g mask="url(#mask0_1242_16792)">
<path d="M22.667 30.6668H17.3337C15.4892 30.6668 13.9172 30.0166 12.6177 28.7162C11.3172 27.4166 10.667 25.8446 10.667 24.0002C10.667 22.1557 11.3172 20.5833 12.6177 19.2828C13.9172 17.9833 15.4892 17.3335 17.3337 17.3335H22.667V20.0002H17.3337C16.2225 20.0002 15.2781 20.3891 14.5003 21.1668C13.7225 21.9446 13.3337 22.8891 13.3337 24.0002C13.3337 25.1113 13.7225 26.0557 14.5003 26.8335C15.2781 27.6113 16.2225 28.0002 17.3337 28.0002H22.667V30.6668ZM18.667 25.3335V22.6668H29.3337V25.3335H18.667ZM25.3337 30.6668V28.0002H30.667C31.7781 28.0002 32.7225 27.6113 33.5003 26.8335C34.2781 26.0557 34.667 25.1113 34.667 24.0002C34.667 22.8891 34.2781 21.9446 33.5003 21.1668C32.7225 20.3891 31.7781 20.0002 30.667 20.0002H25.3337V17.3335H30.667C32.5114 17.3335 34.0839 17.9833 35.3843 19.2828C36.6839 20.5833 37.3337 22.1557 37.3337 24.0002C37.3337 25.8446 36.6839 27.4166 35.3843 28.7162C34.0839 30.0166 32.5114 30.6668 30.667 30.6668H25.3337Z" fill="white"/>
</g>
</g>
<defs>
<clipPath id="clip0_1242_16792">
<rect width="48" height="48" rx="4" fill="white"/>
</clipPath>
</defs>
</svg>
