<svg width="60" height="60" viewBox="0 0 60 60" fill="none" xmlns="http://www.w3.org/2000/svg">
<mask id="mask0_428_2917" style="mask-type:alpha" maskUnits="userSpaceOnUse" x="0" y="0" width="60" height="60">
<rect width="60" height="60" fill="#D9D9D9"/>
</mask>
<g mask="url(#mask0_428_2917)">
<path d="M27.375 32.4375L38.875 20.9375L36.1875 18.25L27.375 27.0625L23.875 23.5625L21.1875 26.25L27.375 32.4375ZM30 49.5C35.1667 44.9167 39.0625 40.5308 41.6875 36.3425C44.3125 32.1558 45.625 28.5417 45.625 25.5C45.625 20.75 44.115 16.875 41.095 13.875C38.0733 10.875 34.375 9.375 30 9.375C25.625 9.375 21.9267 10.875 18.905 13.875C15.885 16.875 14.375 20.75 14.375 25.5C14.375 28.5417 15.6875 32.1558 18.3125 36.3425C20.9375 40.5308 24.8333 44.9167 30 49.5ZM30 54.5C23.5 48.8333 18.6458 43.5833 15.4375 38.75C12.2292 33.9167 10.625 29.5 10.625 25.5C10.625 19.4583 12.5733 14.635 16.47 11.03C20.365 7.42667 24.875 5.625 30 5.625C35.125 5.625 39.6358 7.42667 43.5325 11.03C47.4275 14.635 49.375 19.4583 49.375 25.5C49.375 29.5 47.7708 33.9167 44.5625 38.75C41.3542 43.5833 36.5 48.8333 30 54.5Z" fill="#6BCFCF"/>
</g>
</svg>
