<svg width="32" height="33" viewBox="0 0 32 33" fill="none" xmlns="http://www.w3.org/2000/svg">
<mask id="mask0_734_6344" style="mask-type:alpha" maskUnits="userSpaceOnUse" x="0" y="0" width="32" height="33">
<rect y="0.666618" width="32" height="32" fill="#D9D9D9"/>
</mask>
<g mask="url(#mask0_734_6344)">
<path d="M12.7664 19.0666L13.9664 15.0666L10.7331 12.5333H14.7331L15.9997 8.56662L17.2664 12.5333H21.2664L17.9997 15.0666L19.1997 19.0666L15.9997 16.5666L12.7664 19.0666ZM7.86641 31.5666V21.2333C6.97752 20.2777 6.28863 19.1777 5.79974 17.9333C5.31085 16.6888 5.06641 15.3666 5.06641 13.9666C5.06641 10.9 6.12774 8.30528 8.25041 6.18262C10.3722 4.06084 12.9553 2.99995 15.9997 2.99995C19.0442 2.99995 21.6273 4.06084 23.7491 6.18262C25.8717 8.30528 26.9331 10.9 26.9331 13.9666C26.9331 15.3666 26.6886 16.6888 26.1997 17.9333C25.7108 19.1777 25.022 20.2777 24.1331 21.2333V31.5666L15.9997 28.8999L7.86641 31.5666ZM15.9997 21.8666C18.1997 21.8666 20.0664 21.0942 21.5997 19.5493C23.1331 18.0053 23.8997 16.1444 23.8997 13.9666C23.8997 11.7666 23.1331 9.89417 21.5997 8.34928C20.0664 6.80528 18.1997 6.03328 15.9997 6.03328C13.7997 6.03328 11.9331 6.80528 10.3997 8.34928C8.86641 9.89417 8.09974 11.7666 8.09974 13.9666C8.09974 16.1444 8.86641 18.0053 10.3997 19.5493C11.9331 21.0942 13.7997 21.8666 15.9997 21.8666ZM10.6664 27.4999L15.9997 26.0666L21.3331 27.4999V23.4666C20.5553 23.9111 19.7166 24.2613 18.8171 24.5173C17.9166 24.7724 16.9775 24.8999 15.9997 24.8999C15.022 24.8999 14.0829 24.7724 13.1824 24.5173C12.2829 24.2613 11.4442 23.9111 10.6664 23.4666V27.4999Z" fill="#6BCFCF"/>
</g>
</svg>
