<svg width="120" height="22" viewBox="0 0 120 22" fill="none" xmlns="http://www.w3.org/2000/svg">
<g clip-path="url(#clip0_627_1087)">
<path d="M13.276 14.0752L16.7289 18.0965L14.8673 20.3667L11.3706 16.2943L13.276 14.0752Z" fill="url(#paint0_linear_627_1087)"/>
<path d="M14.3048 21.2626H2.07066L1.24341 18.0964H16.7287L14.3057 21.2626H14.3048Z" fill="url(#paint1_linear_627_1087)"/>
<path d="M4.75536 7.89719L1.30249 3.87588L3.1649 1.60571L6.66075 5.67811L4.75536 7.89719Z" fill="url(#paint2_linear_627_1087)"/>
<path d="M3.72634 0.709717H15.9605L16.7878 3.87589H1.30249L3.72634 0.709717Z" fill="url(#paint3_linear_627_1087)"/>
<path d="M16.7875 3.90143L2.07066 21.2904L1.24341 18.0966L15.947 0.709717L16.7875 3.90143Z" fill="url(#paint4_linear_627_1087)"/>
</g>
<path d="M24.8704 1.07824H27.7268V20.9218H24.8704V1.07824Z" fill="url(#paint5_linear_627_1087)"/>
<path d="M44.8873 21.2904C42.271 21.2904 40.1018 20.3076 38.3796 18.3422C36.6575 16.3578 35.7964 13.9104 35.7964 11C35.7964 8.08965 36.6575 5.65172 38.3796 3.68626C40.1018 1.7019 42.271 0.709717 44.8873 0.709717C46.4605 0.709717 47.9094 1.13494 49.2341 1.98538C50.5754 2.83582 51.6186 3.98864 52.3638 5.44383L49.8799 7.08802C49.4163 6.10529 48.7373 5.33044 47.8431 4.76348C46.9655 4.17762 45.9802 3.88469 44.8873 3.88469C43.0327 3.88469 41.5259 4.5556 40.3667 5.8974C39.2241 7.23921 38.6529 8.94009 38.6529 11C38.6529 13.06 39.2241 14.7609 40.3667 16.1027C41.5259 17.4445 43.0327 18.1154 44.8873 18.1154C45.9802 18.1154 46.9738 17.8319 47.868 17.2649C48.7622 16.6791 49.4328 15.8948 49.8799 14.9121L52.3638 16.5279C51.6352 17.9831 50.6002 19.1454 49.2589 20.0147C47.9342 20.8651 46.477 21.2904 44.8873 21.2904Z" fill="url(#paint6_linear_627_1087)"/>
<path d="M74.6106 18.3138C72.8719 20.2982 70.7441 21.2904 68.2271 21.2904C65.7101 21.2904 63.574 20.2982 61.8187 18.3138C60.08 16.3106 59.2107 13.8726 59.2107 11C59.2107 8.12744 60.08 5.69897 61.8187 3.71461C63.574 1.71135 65.7101 0.709717 68.2271 0.709717C70.7441 0.709717 72.8719 1.71135 74.6106 3.71461C76.3659 5.69897 77.2435 8.12744 77.2435 11C77.2435 13.8726 76.3659 16.3106 74.6106 18.3138ZM63.8306 16.1027C65.0229 17.4445 66.4884 18.1154 68.2271 18.1154C69.9658 18.1154 71.423 17.4445 72.5987 16.1027C73.7909 14.742 74.3871 13.0411 74.3871 11C74.3871 8.95898 73.7909 7.26755 72.5987 5.92575C71.423 4.56505 69.9658 3.88469 68.2271 3.88469C66.4884 3.88469 65.0229 4.56505 63.8306 5.92575C62.655 7.26755 62.0671 8.95898 62.0671 11C62.0671 13.0411 62.655 14.742 63.8306 16.1027Z" fill="url(#paint7_linear_627_1087)"/>
<path d="M91.7219 1.07824C93.3612 1.07824 94.7273 1.7019 95.8202 2.94921C96.9297 4.19652 97.4844 5.74621 97.4844 7.59828C97.4844 9.43145 96.9297 10.9811 95.8202 12.2474C94.7273 13.4947 93.3612 14.1183 91.7219 14.1183H88.1699V20.9218H85.3135V1.07824H91.7219ZM91.7219 11.0567C92.5664 11.0567 93.2618 10.7355 93.8083 10.0929C94.3548 9.43145 94.628 8.59991 94.628 7.59828C94.628 6.59665 94.3548 5.77456 93.8083 5.13201C93.2618 4.47055 92.5664 4.13983 91.7219 4.13983H88.1699V11.0567H91.7219Z" fill="url(#paint8_linear_627_1087)"/>
<path d="M110.731 21.2904C109.059 21.2904 107.635 20.8557 106.459 19.9864C105.3 19.117 104.488 17.9264 104.025 16.4145L106.484 14.7703C107.179 17.0004 108.62 18.1154 110.806 18.1154C111.882 18.1154 112.685 17.8792 113.215 17.4067C113.761 16.9153 114.035 16.2822 114.035 15.5074C114.035 14.6947 113.745 14.0805 113.165 13.6648C112.586 13.2301 111.559 12.7576 110.085 12.2474C109.257 11.9639 108.587 11.6993 108.073 11.4536C107.56 11.2079 107.014 10.8678 106.434 10.4331C105.871 9.97951 105.449 9.422 105.167 8.76055C104.886 8.0991 104.745 7.32425 104.745 6.43601C104.745 4.67844 105.291 3.28939 106.384 2.26886C107.477 1.22943 108.794 0.709717 110.334 0.709717C111.725 0.709717 112.942 1.09714 113.985 1.87199C115.028 2.64683 115.831 3.71461 116.394 5.07531L113.985 6.6628C113.256 4.81073 112.039 3.88469 110.334 3.88469C109.506 3.88469 108.843 4.11148 108.347 4.56505C107.85 4.99971 107.601 5.59502 107.601 6.35097C107.601 7.08802 107.85 7.67388 108.347 8.10855C108.86 8.52432 109.779 8.96843 111.104 9.4409C111.766 9.68658 112.246 9.87557 112.544 10.0079C112.859 10.1213 113.29 10.3102 113.836 10.5748C114.399 10.8394 114.821 11.104 115.103 11.3686C115.384 11.6331 115.682 11.9639 115.997 12.3607C116.328 12.7576 116.56 13.2112 116.692 13.7214C116.825 14.2317 116.891 14.8081 116.891 15.4507C116.891 17.246 116.32 18.6729 115.177 19.7312C114.051 20.7707 112.569 21.2904 110.731 21.2904Z" fill="url(#paint9_linear_627_1087)"/>
<defs>
<linearGradient id="paint0_linear_627_1087" x1="13.226" y1="14.9242" x2="16.1625" y2="20.8957" gradientUnits="userSpaceOnUse">
<stop offset="0.17" stop-color="white"/>
<stop offset="0.57" stop-color="#8697C6"/>
</linearGradient>
<linearGradient id="paint1_linear_627_1087" x1="10.0072" y1="20.3513" x2="1.66277" y2="13.5478" gradientUnits="userSpaceOnUse">
<stop offset="0.17" stop-color="white"/>
<stop offset="0.57" stop-color="#8697C6"/>
</linearGradient>
<linearGradient id="paint2_linear_627_1087" x1="4.80536" y1="7.04818" x2="1.86884" y2="1.07665" gradientUnits="userSpaceOnUse">
<stop offset="0.17" stop-color="white"/>
<stop offset="0.57" stop-color="#8697C6"/>
</linearGradient>
<linearGradient id="paint3_linear_627_1087" x1="8.024" y1="1.62105" x2="16.3684" y2="8.4245" gradientUnits="userSpaceOnUse">
<stop offset="0.17" stop-color="white"/>
<stop offset="0.57" stop-color="#8697C6"/>
</linearGradient>
<linearGradient id="paint4_linear_627_1087" x1="17.1348" y1="1.53625" x2="-2.2345" y2="18.1676" gradientUnits="userSpaceOnUse">
<stop offset="0.04" stop-color="#8697C6"/>
<stop offset="0.47" stop-color="white"/>
<stop offset="1" stop-color="#8697C6"/>
</linearGradient>
<linearGradient id="paint5_linear_627_1087" x1="138.031" y1="-11.3548" x2="2.12578" y2="16.6231" gradientUnits="userSpaceOnUse">
<stop stop-color="#8697C6"/>
<stop offset="0.462354" stop-color="white"/>
<stop offset="0.973958" stop-color="#8697C6"/>
</linearGradient>
<linearGradient id="paint6_linear_627_1087" x1="138.031" y1="-11.3548" x2="2.12578" y2="16.6231" gradientUnits="userSpaceOnUse">
<stop stop-color="#8697C6"/>
<stop offset="0.462354" stop-color="white"/>
<stop offset="0.973958" stop-color="#8697C6"/>
</linearGradient>
<linearGradient id="paint7_linear_627_1087" x1="138.031" y1="-11.3548" x2="2.12578" y2="16.6231" gradientUnits="userSpaceOnUse">
<stop stop-color="#8697C6"/>
<stop offset="0.462354" stop-color="white"/>
<stop offset="0.973958" stop-color="#8697C6"/>
</linearGradient>
<linearGradient id="paint8_linear_627_1087" x1="138.031" y1="-11.3548" x2="2.12578" y2="16.6231" gradientUnits="userSpaceOnUse">
<stop stop-color="#8697C6"/>
<stop offset="0.462354" stop-color="white"/>
<stop offset="0.973958" stop-color="#8697C6"/>
</linearGradient>
<linearGradient id="paint9_linear_627_1087" x1="138.031" y1="-11.3548" x2="2.12578" y2="16.6231" gradientUnits="userSpaceOnUse">
<stop stop-color="#8697C6"/>
<stop offset="0.462354" stop-color="white"/>
<stop offset="0.973958" stop-color="#8697C6"/>
</linearGradient>
<clipPath id="clip0_627_1087">
<rect width="15.544" height="20.5806" fill="white" transform="translate(1.24341 0.709717)"/>
</clipPath>
</defs>
</svg>
