<svg width="404" height="404" viewBox="0 0 404 404" fill="none" xmlns="http://www.w3.org/2000/svg">
<path fill-rule="evenodd" clip-rule="evenodd" d="M273.418 273.283C345.537 201.164 376.273 114.973 342.07 80.7696C307.866 46.5661 221.675 77.3027 149.556 149.422C77.4371 221.54 46.7005 307.732 80.904 341.935C115.107 376.139 201.299 345.402 273.418 273.283ZM251.334 251.199C307.544 194.989 335.271 131.581 313.264 109.575C291.258 87.5677 227.85 115.295 171.64 171.505C115.429 227.716 87.7019 291.123 109.709 313.13C131.716 335.137 195.123 307.41 251.334 251.199Z" fill="url(#paint0_linear_2252_38332)"/>
<mask id="mask0_2252_38332" style="mask-type:alpha" maskUnits="userSpaceOnUse" x="66" y="66" width="291" height="290">
<path fill-rule="evenodd" clip-rule="evenodd" d="M273.418 273.283C345.537 201.164 376.273 114.973 342.07 80.7696C307.866 46.5661 221.675 77.3027 149.556 149.422C77.4371 221.54 46.7005 307.732 80.904 341.935C115.107 376.139 201.299 345.402 273.418 273.283ZM251.334 251.199C307.544 194.989 335.271 131.581 313.264 109.575C291.258 87.5677 227.85 115.295 171.64 171.505C115.429 227.716 87.7019 291.123 109.709 313.13C131.716 335.137 195.123 307.41 251.334 251.199Z" fill="#397CBC"/>
</mask>
<g mask="url(#mask0_2252_38332)">
<path d="M86.665 316.97L108.749 298.727L122.191 249.759L176.921 180.627L261.416 118.216L307.984 99.4924L291.181 75.9683L241.252 70.2073L179.801 110.534L94.3464 208.471L70.8223 271.362L86.665 316.97Z" fill="url(#paint1_linear_2252_38332)"/>
</g>
<path fill-rule="evenodd" clip-rule="evenodd" d="M255.174 255.04C327.293 182.921 358.03 96.7294 323.826 62.5259C289.623 28.3225 203.432 59.059 131.313 131.178C59.1939 203.297 28.4574 289.488 62.6608 323.692C96.8643 357.895 183.056 327.158 255.174 255.04ZM233.091 232.956C289.301 176.746 317.028 113.338 295.021 91.3312C273.015 69.3243 209.607 97.0517 153.397 153.262C97.1864 209.472 69.459 272.88 91.4659 294.887C113.473 316.894 176.88 289.166 233.091 232.956Z" fill="url(#paint2_linear_2252_38332)"/>
<defs>
<linearGradient id="paint0_linear_2252_38332" x1="136.594" y1="410.107" x2="399.2" y2="137.9" gradientUnits="userSpaceOnUse">
<stop offset="0.0220636" stop-color="#23384C"/>
<stop offset="0.521871" stop-color="#528C8C"/>
<stop offset="1" stop-color="#23384C"/>
</linearGradient>
<linearGradient id="paint1_linear_2252_38332" x1="95.3066" y1="217.113" x2="303.663" y2="119.176" gradientUnits="userSpaceOnUse">
<stop stop-color="#C7F1F1"/>
<stop offset="1" stop-color="#CBEEEE"/>
</linearGradient>
<linearGradient id="paint2_linear_2252_38332" x1="135.153" y1="-74.298" x2="398.812" y2="-4.61537" gradientUnits="userSpaceOnUse">
<stop stop-color="#6BCFCF"/>
<stop offset="1" stop-color="#23384C"/>
</linearGradient>
</defs>
</svg>
