<svg width="115" height="178" viewBox="0 0 115 178" fill="none" xmlns="http://www.w3.org/2000/svg">
<path d="M6.02129 14.5585L4.80587 106.142L55.7813 126.569L107.674 103.762L108.845 15.5825L57.616 1.28187L6.02129 14.5585Z" fill="url(#paint0_linear_2252_38355)"/>
<path d="M106.874 164.023L55.2844 176.959L57.2498 28.8592L108.844 15.5827L106.874 164.023Z" fill="url(#paint1_linear_2252_38355)"/>
<path d="M57.616 1.28187L6.02129 14.5585L57.25 28.8591L108.845 15.5825L57.616 1.28187Z" fill="url(#paint2_linear_2252_38355)"/>
<path d="M4.06006 162.318L55.2842 176.959L57.2497 28.859L6.021 14.5583L4.06006 162.318Z" fill="url(#paint3_linear_2252_38355)"/>
<g filter="url(#filter0_d_2252_38355)">
<path d="M86.6423 20.7363C75.1671 23.5678 57.2498 28.8592 57.2498 28.8592C57.2498 28.8592 75.0582 24.5812 86.6333 21.4172C95.151 19.089 108.844 15.5827 108.844 15.5827C108.844 15.5827 95.38 18.5803 86.6423 20.7363Z" fill="#6BCFCF"/>
</g>
<g filter="url(#filter1_d_2252_38355)">
<path d="M57.7376 42.6628C57.9726 30.8458 57.2818 28.5192 57.2818 28.5192C57.2818 28.5192 57.0219 30.4783 57.0822 42.4778C57.1266 51.3079 56.6061 92.8685 56.6061 92.8685C56.6061 92.8685 57.5587 51.6608 57.7376 42.6628Z" fill="#6BCFCF"/>
</g>
<g filter="url(#filter2_d_2252_38355)">
<path d="M28.0793 20.2995C39.4753 23.4346 57.2504 28.8591 57.2504 28.8591C57.2504 28.8591 39.5573 24.4505 28.0703 20.9804C19.6173 18.4269 6.02174 14.5585 6.02174 14.5585C6.02174 14.5585 19.4019 17.9123 28.0793 20.2995Z" fill="#6BCFCF"/>
</g>
<defs>
<filter id="filter0_d_2252_38355" x="51.4455" y="9.7783" width="63.2032" height="24.8853" filterUnits="userSpaceOnUse" color-interpolation-filters="sRGB">
<feFlood flood-opacity="0" result="BackgroundImageFix"/>
<feColorMatrix in="SourceAlpha" type="matrix" values="0 0 0 0 0 0 0 0 0 0 0 0 0 0 0 0 0 0 127 0" result="hardAlpha"/>
<feOffset/>
<feGaussianBlur stdDeviation="2.90223"/>
<feComposite in2="hardAlpha" operator="out"/>
<feColorMatrix type="matrix" values="0 0 0 0 0.113924 0 0 0 0 0.762334 0 0 0 0 0.804167 0 0 0 1 0"/>
<feBlend mode="normal" in2="BackgroundImageFix" result="effect1_dropShadow_2252_38355"/>
<feBlend mode="normal" in="SourceGraphic" in2="effect1_dropShadow_2252_38355" result="shape"/>
</filter>
<filter id="filter1_d_2252_38355" x="50.8015" y="22.7148" width="12.7891" height="75.9581" filterUnits="userSpaceOnUse" color-interpolation-filters="sRGB">
<feFlood flood-opacity="0" result="BackgroundImageFix"/>
<feColorMatrix in="SourceAlpha" type="matrix" values="0 0 0 0 0 0 0 0 0 0 0 0 0 0 0 0 0 0 127 0" result="hardAlpha"/>
<feOffset/>
<feGaussianBlur stdDeviation="2.90223"/>
<feComposite in2="hardAlpha" operator="out"/>
<feColorMatrix type="matrix" values="0 0 0 0 0.113924 0 0 0 0 0.762334 0 0 0 0 0.804167 0 0 0 1 0"/>
<feBlend mode="normal" in2="BackgroundImageFix" result="effect1_dropShadow_2252_38355"/>
<feBlend mode="normal" in="SourceGraphic" in2="effect1_dropShadow_2252_38355" result="shape"/>
</filter>
<filter id="filter2_d_2252_38355" x="0.217505" y="8.75388" width="62.8375" height="25.9097" filterUnits="userSpaceOnUse" color-interpolation-filters="sRGB">
<feFlood flood-opacity="0" result="BackgroundImageFix"/>
<feColorMatrix in="SourceAlpha" type="matrix" values="0 0 0 0 0 0 0 0 0 0 0 0 0 0 0 0 0 0 127 0" result="hardAlpha"/>
<feOffset/>
<feGaussianBlur stdDeviation="2.90223"/>
<feComposite in2="hardAlpha" operator="out"/>
<feColorMatrix type="matrix" values="0 0 0 0 0.113924 0 0 0 0 0.762334 0 0 0 0 0.804167 0 0 0 1 0"/>
<feBlend mode="normal" in2="BackgroundImageFix" result="effect1_dropShadow_2252_38355"/>
<feBlend mode="normal" in="SourceGraphic" in2="effect1_dropShadow_2252_38355" result="shape"/>
</filter>
<linearGradient id="paint0_linear_2252_38355" x1="57.595" y1="28.5232" x2="55.9532" y2="126.571" gradientUnits="userSpaceOnUse">
<stop stop-color="#1A1B26"/>
<stop offset="0.751117" stop-color="#1A1B26" stop-opacity="0"/>
</linearGradient>
<linearGradient id="paint1_linear_2252_38355" x1="65.3761" y1="-56.8439" x2="137.08" y2="76.7532" gradientUnits="userSpaceOnUse">
<stop stop-color="#6BCFCF"/>
<stop offset="0.811479" stop-color="#48AFEA" stop-opacity="0.1"/>
<stop offset="1" stop-color="#41A9EF" stop-opacity="0"/>
</linearGradient>
<linearGradient id="paint2_linear_2252_38355" x1="84.1506" y1="-48.0819" x2="127.13" y2="23.3166" gradientUnits="userSpaceOnUse">
<stop stop-color="#6BCFCF"/>
<stop offset="1" stop-color="#41A9EF" stop-opacity="0"/>
</linearGradient>
<linearGradient id="paint3_linear_2252_38355" x1="45.5247" y1="-37.0169" x2="17.7696" y2="128.917" gradientUnits="userSpaceOnUse">
<stop offset="0.208758" stop-color="#6BCFCF"/>
<stop offset="0.602981" stop-color="#4DB4E6" stop-opacity="0.19"/>
<stop offset="0.730301" stop-color="#46AEEB" stop-opacity="0.09"/>
<stop offset="0.87546" stop-color="#41A9EF" stop-opacity="0"/>
</linearGradient>
</defs>
</svg>
