<svg width="94" height="67" viewBox="0 0 94 67" fill="none" xmlns="http://www.w3.org/2000/svg">
<path d="M7.13779 57.1409L52.5398 62.2671L65.197 37.9717L56.4383 11.0857L12.724 6.15008L3.09529 30.8737L7.13779 57.1409Z" fill="url(#paint0_linear_2252_38364)"/>
<path d="M86.3117 14.4587L90.1854 40.7068L16.7657 32.4173L12.7232 6.15009L86.3117 14.4587Z" fill="url(#paint1_linear_2252_38364)"/>
<path d="M3.09529 30.8737L7.13779 57.1409L16.7665 32.4173L12.724 6.15008L3.09529 30.8737Z" fill="url(#paint2_linear_2252_38364)"/>
<path d="M80.3876 65.4116L90.1851 40.707L16.7655 32.4175L7.13672 57.1411L80.3876 65.4116Z" fill="url(#paint3_linear_2252_38364)"/>
<g filter="url(#filter0_d_2252_38364)">
<path d="M14.185 17.4257C15.0239 23.2618 16.7657 32.4173 16.7657 32.4173C16.7657 32.4173 15.5216 23.366 14.5226 17.4639C13.7875 13.1207 12.7232 6.15009 12.7232 6.15009C12.7232 6.15009 13.5463 12.9819 14.185 17.4257Z" fill="#6BCFCF"/>
</g>
<g filter="url(#filter1_d_2252_38364)">
<path d="M23.6427 32.8573C17.7883 32.1571 16.5993 32.3851 16.5993 32.3851C16.5993 32.3851 17.5589 32.6109 23.5185 33.1735C27.9039 33.5876 48.5089 35.8984 48.5089 35.8984C48.5089 35.8984 28.1005 33.3905 23.6427 32.8573Z" fill="#6BCFCF"/>
</g>
<g filter="url(#filter2_d_2252_38364)">
<path d="M11.0763 46.4751C13.1953 40.973 16.7659 32.4173 16.7659 32.4173C16.7659 32.4173 13.7037 40.9824 11.4139 46.5132C9.72885 50.5831 7.13713 57.1409 7.13713 57.1409C7.13713 57.1409 9.46277 50.6647 11.0763 46.4751Z" fill="#6BCFCF"/>
</g>
<defs>
<filter id="filter0_d_2252_38364" x="6.91868" y="0.345679" width="15.6514" height="37.876" filterUnits="userSpaceOnUse" color-interpolation-filters="sRGB">
<feFlood flood-opacity="0" result="BackgroundImageFix"/>
<feColorMatrix in="SourceAlpha" type="matrix" values="0 0 0 0 0 0 0 0 0 0 0 0 0 0 0 0 0 0 127 0" result="hardAlpha"/>
<feOffset/>
<feGaussianBlur stdDeviation="2.90223"/>
<feComposite in2="hardAlpha" operator="out"/>
<feColorMatrix type="matrix" values="0 0 0 0 0.113924 0 0 0 0 0.762334 0 0 0 0 0.804167 0 0 0 1 0"/>
<feBlend mode="normal" in2="BackgroundImageFix" result="effect1_dropShadow_2252_38364"/>
<feBlend mode="normal" in="SourceGraphic" in2="effect1_dropShadow_2252_38364" result="shape"/>
</filter>
<filter id="filter1_d_2252_38364" x="10.7947" y="26.5451" width="43.5186" height="15.1578" filterUnits="userSpaceOnUse" color-interpolation-filters="sRGB">
<feFlood flood-opacity="0" result="BackgroundImageFix"/>
<feColorMatrix in="SourceAlpha" type="matrix" values="0 0 0 0 0 0 0 0 0 0 0 0 0 0 0 0 0 0 127 0" result="hardAlpha"/>
<feOffset/>
<feGaussianBlur stdDeviation="2.90223"/>
<feComposite in2="hardAlpha" operator="out"/>
<feColorMatrix type="matrix" values="0 0 0 0 0.113924 0 0 0 0 0.762334 0 0 0 0 0.804167 0 0 0 1 0"/>
<feBlend mode="normal" in2="BackgroundImageFix" result="effect1_dropShadow_2252_38364"/>
<feBlend mode="normal" in="SourceGraphic" in2="effect1_dropShadow_2252_38364" result="shape"/>
</filter>
<filter id="filter2_d_2252_38364" x="1.33274" y="26.6128" width="21.2378" height="36.3326" filterUnits="userSpaceOnUse" color-interpolation-filters="sRGB">
<feFlood flood-opacity="0" result="BackgroundImageFix"/>
<feColorMatrix in="SourceAlpha" type="matrix" values="0 0 0 0 0 0 0 0 0 0 0 0 0 0 0 0 0 0 127 0" result="hardAlpha"/>
<feOffset/>
<feGaussianBlur stdDeviation="2.90223"/>
<feComposite in2="hardAlpha" operator="out"/>
<feColorMatrix type="matrix" values="0 0 0 0 0.113924 0 0 0 0 0.762334 0 0 0 0 0.804167 0 0 0 1 0"/>
<feBlend mode="normal" in2="BackgroundImageFix" result="effect1_dropShadow_2252_38364"/>
<feBlend mode="normal" in="SourceGraphic" in2="effect1_dropShadow_2252_38364" result="shape"/>
</filter>
<linearGradient id="paint0_linear_2252_38364" x1="16.6168" y1="32.2295" x2="65.2066" y2="37.8865" gradientUnits="userSpaceOnUse">
<stop stop-color="#1A1B26"/>
<stop offset="0.751117" stop-color="#1A1B26" stop-opacity="0"/>
</linearGradient>
<linearGradient id="paint1_linear_2252_38364" x1="-25.3759" y1="24.151" x2="44.4826" y2="-4.84495" gradientUnits="userSpaceOnUse">
<stop stop-color="#6BCFCF"/>
<stop offset="0.811479" stop-color="#48AFEA" stop-opacity="0.1"/>
<stop offset="1" stop-color="#41A9EF" stop-opacity="0"/>
</linearGradient>
<linearGradient id="paint2_linear_2252_38364" x1="-20.0984" y1="15.2641" x2="17.4663" y2="-2.54484" gradientUnits="userSpaceOnUse">
<stop stop-color="#6BCFCF"/>
<stop offset="1" stop-color="#41A9EF" stop-opacity="0"/>
</linearGradient>
<linearGradient id="paint3_linear_2252_38364" x1="-16.5143" y1="34.9845" x2="64.4843" y2="56.9567" gradientUnits="userSpaceOnUse">
<stop offset="0.208758" stop-color="#6BCFCF"/>
<stop offset="0.602981" stop-color="#4DB4E6" stop-opacity="0.19"/>
<stop offset="0.730301" stop-color="#46AEEB" stop-opacity="0.09"/>
<stop offset="0.87546" stop-color="#41A9EF" stop-opacity="0"/>
</linearGradient>
</defs>
</svg>
