<svg width="297" height="464" viewBox="0 0 297 464" fill="none" xmlns="http://www.w3.org/2000/svg">
<path d="M7.0332 37.4617V278.539L147.861 330.519L289.635 268.681V36.5655L148.334 0.717529L7.0332 37.4617Z" fill="url(#paint0_linear_2252_38477)"/>
<path d="M289.635 427.308L148.334 463.156V73.3096L289.635 36.5654V427.308Z" fill="url(#paint1_linear_2252_38477)"/>
<path d="M148.334 0.717529L7.0332 37.4617L148.334 73.3096L289.635 36.5655L148.334 0.717529Z" fill="url(#paint2_linear_2252_38477)"/>
<path d="M7.0332 426.412L148.334 463.156V73.3096L7.0332 37.4617V426.412Z" fill="url(#paint3_linear_2252_38477)"/>
<g filter="url(#filter0_d_2252_38477)">
<path d="M228.81 50.9046C197.379 58.7576 148.334 73.3096 148.334 73.3096C148.334 73.3096 197.116 61.4284 228.81 52.697C252.132 46.2718 289.635 36.5654 289.635 36.5654C289.635 36.5654 252.743 44.925 228.81 50.9046Z" fill="#6BCFCF"/>
</g>
<g filter="url(#filter1_d_2252_38477)">
<path d="M150.176 109.621C150.391 78.5125 148.408 72.4132 148.408 72.4132C148.408 72.4132 147.765 77.5784 148.369 109.157C148.813 132.395 148.898 241.795 148.898 241.795C148.898 241.795 150.013 133.309 150.176 109.621Z" fill="#6BCFCF"/>
</g>
<g filter="url(#filter2_d_2252_38477)">
<path d="M67.858 51.8008C99.2891 59.6538 148.334 73.3096 148.334 73.3096C148.334 73.3096 99.5515 62.3247 67.858 53.5932C44.5357 47.1681 7.0332 37.4617 7.0332 37.4617C7.0332 37.4617 43.9249 45.8212 67.858 51.8008Z" fill="#6BCFCF"/>
</g>
<defs>
<filter id="filter0_d_2252_38477" x="141.327" y="29.5588" width="155.314" height="50.7574" filterUnits="userSpaceOnUse" color-interpolation-filters="sRGB">
<feFlood flood-opacity="0" result="BackgroundImageFix"/>
<feColorMatrix in="SourceAlpha" type="matrix" values="0 0 0 0 0 0 0 0 0 0 0 0 0 0 0 0 0 0 127 0" result="hardAlpha"/>
<feOffset/>
<feGaussianBlur stdDeviation="3.50332"/>
<feComposite in2="hardAlpha" operator="out"/>
<feColorMatrix type="matrix" values="0 0 0 0 0.113924 0 0 0 0 0.762334 0 0 0 0 0.804167 0 0 0 1 0"/>
<feBlend mode="normal" in2="BackgroundImageFix" result="effect1_dropShadow_2252_38477"/>
<feBlend mode="normal" in="SourceGraphic" in2="effect1_dropShadow_2252_38477" result="shape"/>
</filter>
<filter id="filter1_d_2252_38477" x="141.104" y="65.4067" width="16.0956" height="183.395" filterUnits="userSpaceOnUse" color-interpolation-filters="sRGB">
<feFlood flood-opacity="0" result="BackgroundImageFix"/>
<feColorMatrix in="SourceAlpha" type="matrix" values="0 0 0 0 0 0 0 0 0 0 0 0 0 0 0 0 0 0 127 0" result="hardAlpha"/>
<feOffset/>
<feGaussianBlur stdDeviation="3.50332"/>
<feComposite in2="hardAlpha" operator="out"/>
<feColorMatrix type="matrix" values="0 0 0 0 0.113924 0 0 0 0 0.762334 0 0 0 0 0.804167 0 0 0 1 0"/>
<feBlend mode="normal" in2="BackgroundImageFix" result="effect1_dropShadow_2252_38477"/>
<feBlend mode="normal" in="SourceGraphic" in2="effect1_dropShadow_2252_38477" result="shape"/>
</filter>
<filter id="filter2_d_2252_38477" x="0.0265589" y="30.455" width="155.314" height="49.8612" filterUnits="userSpaceOnUse" color-interpolation-filters="sRGB">
<feFlood flood-opacity="0" result="BackgroundImageFix"/>
<feColorMatrix in="SourceAlpha" type="matrix" values="0 0 0 0 0 0 0 0 0 0 0 0 0 0 0 0 0 0 127 0" result="hardAlpha"/>
<feOffset/>
<feGaussianBlur stdDeviation="3.50332"/>
<feComposite in2="hardAlpha" operator="out"/>
<feColorMatrix type="matrix" values="0 0 0 0 0.113924 0 0 0 0 0.762334 0 0 0 0 0.804167 0 0 0 1 0"/>
<feBlend mode="normal" in2="BackgroundImageFix" result="effect1_dropShadow_2252_38477"/>
<feBlend mode="normal" in="SourceGraphic" in2="effect1_dropShadow_2252_38477" result="shape"/>
</filter>
<linearGradient id="paint0_linear_2252_38477" x1="149.27" y1="72.4134" x2="148.411" y2="330.519" gradientUnits="userSpaceOnUse">
<stop stop-color="#1A1B26"/>
<stop offset="0.751117" stop-color="#1A1B26" stop-opacity="0"/>
</linearGradient>
<linearGradient id="paint1_linear_2252_38477" x1="167.54" y1="-152.533" x2="356.414" y2="203.491" gradientUnits="userSpaceOnUse">
<stop stop-color="#6BCFCF"/>
<stop offset="0.811479" stop-color="#48AFEA" stop-opacity="0.1"/>
<stop offset="1" stop-color="#41A9EF" stop-opacity="0"/>
</linearGradient>
<linearGradient id="paint2_linear_2252_38477" x1="219.452" y1="-130.127" x2="332.779" y2="60.6692" gradientUnits="userSpaceOnUse">
<stop stop-color="#6BCFCF"/>
<stop offset="1" stop-color="#41A9EF" stop-opacity="0"/>
</linearGradient>
<linearGradient id="paint3_linear_2252_38477" x1="113.711" y1="-99.6567" x2="49.1791" y2="338.863" gradientUnits="userSpaceOnUse">
<stop offset="0.208758" stop-color="#6BCFCF"/>
<stop offset="0.602981" stop-color="#4DB4E6" stop-opacity="0.19"/>
<stop offset="0.730301" stop-color="#46AEEB" stop-opacity="0.09"/>
<stop offset="0.87546" stop-color="#41A9EF" stop-opacity="0"/>
</linearGradient>
</defs>
</svg>
