<svg width="24" height="24" viewBox="0 0 24 24" fill="none" xmlns="http://www.w3.org/2000/svg">
<mask id="mask0_258_4085" style="mask-type:alpha" maskUnits="userSpaceOnUse" x="0" y="0" width="24" height="24">
<rect width="24" height="24" fill="#F53D41"/>
</mask>
<g mask="url(#mask0_258_4085)">
<path d="M13 24C11.2834 24 9.71672 23.5207 8.30005 22.562C6.88338 21.604 5.85838 20.325 5.22505 18.725L1.92505 10.35L6.22505 8.6L7.00005 10.4V2H10V0H15V1.5H18V4.5H21V16C21 18.2333 20.225 20.125 18.675 21.675C17.125 23.225 15.2334 24 13 24ZM13 22C14.6667 22 16.0834 21.4167 17.25 20.25C18.4167 19.0833 19 17.6667 19 16V6.5H18V12H16V3.5H15V12H13V2H12V12H10V4H9.00005V15H7.00005L5.47505 11.1L4.50005 11.45L7.10005 18C7.58338 19.2 8.36271 20.1667 9.43805 20.9C10.5127 21.6333 11.7 22 13 22Z" fill="#040404"/>
</g>
</svg>
