<svg width="24" height="24" viewBox="0 0 24 24" fill="none" xmlns="http://www.w3.org/2000/svg">
<path d="M21.2478 7C21.2478 5.62 20.1278 4.5 18.7478 4.5C18.5778 4.5 18.4078 4.52 18.2478 4.55V4C18.2478 2.62 17.1278 1.5 15.7478 1.5C15.5178 1.5 15.2878 1.53 15.0778 1.59C14.7078 0.66 13.8078 0 12.7478 0C11.5178 0 10.4978 0.89 10.2878 2.06C10.1178 2.02 9.93778 2 9.74778 2C8.36778 2 7.24778 3.12 7.24778 4.5V10.39C6.90778 10.08 6.48778 9.85 6.02778 9.73L5.25778 9.52C4.42778 9.29 3.55778 9.61 3.06778 10.35C2.68778 10.92 2.66778 11.66 2.91778 12.3L5.47778 18.73C6.73778 21.91 9.81778 24 13.2478 24C17.6678 24 21.2478 20.42 21.2478 16V7ZM19.2478 16C19.2478 19.31 16.5578 22 13.2478 22C10.6378 22 8.29778 20.41 7.33778 17.99L4.73778 11.45L5.26778 11.59C5.72778 11.71 6.09778 12.05 6.26778 12.49L7.24778 15H9.24778V4.5C9.24778 4.22 9.46778 4 9.74778 4C10.0278 4 10.2478 4.22 10.2478 4.5V12H12.2478V2.5C12.2478 2.22 12.4678 2 12.7478 2C13.0278 2 13.2478 2.22 13.2478 2.5V12H15.2478V4C15.2478 3.72 15.4678 3.5 15.7478 3.5C16.0278 3.5 16.2478 3.72 16.2478 4V12H18.2478V7C18.2478 6.72 18.4678 6.5 18.7478 6.5C19.0278 6.5 19.2478 6.72 19.2478 7V16Z" fill="#C4C4C4"/>
</svg>
