<svg width="20" height="24" viewBox="0 0 20 24" fill="none" xmlns="http://www.w3.org/2000/svg">
<path d="M12 24C10.2834 24 8.71672 23.5207 7.30005 22.562C5.88338 21.604 4.85838 20.325 4.22505 18.725L0.925049 10.35L5.22505 8.6L6.00005 10.4V2H9.00005V0H14V1.5H17V4.5H20V16C20 18.2333 19.225 20.125 17.675 21.675C16.125 23.225 14.2334 24 12 24ZM12 22C13.6667 22 15.0834 21.4167 16.25 20.25C17.4167 19.0833 18 17.6667 18 16V6.5H17V12H15V3.5H14V12H12V2H11V12H9.00005V4H8.00005V15H6.00005L4.47505 11.1L3.50005 11.45L6.10005 18C6.58338 19.2 7.36271 20.1667 8.43805 20.9C9.51272 21.6333 10.7 22 12 22Z" fill="#040404"/>
</svg>
