<svg width="20" height="16" viewBox="0 0 20 16" fill="none" xmlns="http://www.w3.org/2000/svg">
<path d="M16 9V7H20V9H16ZM17.2 16L14 13.6L15.2 12L18.4 14.4L17.2 16ZM15.2 4L14 2.4L17.2 0L18.4 1.6L15.2 4ZM3 15V11H2C1.45 11 0.979333 10.804 0.588 10.412C0.196 10.0207 0 9.55 0 9V7C0 6.45 0.196 5.979 0.588 5.587C0.979333 5.19567 1.45 5 2 5H6L11 2V14L6 11H5V15H3ZM12 11.35V4.65C12.45 5.05 12.8127 5.53767 13.088 6.113C13.3627 6.68767 13.5 7.31667 13.5 8C13.5 8.68333 13.3627 9.31233 13.088 9.887C12.8127 10.4623 12.45 10.95 12 11.35ZM2 7V9H6.55L9 10.45V5.55L6.55 7H2Z" fill="white"/>
</svg>
