<svg width="24" height="24" viewBox="0 0 24 24" fill="none" xmlns="http://www.w3.org/2000/svg">
<mask id="mask0_1406_33660" style="mask-type:alpha" maskUnits="userSpaceOnUse" x="0" y="0" width="24" height="24">
<rect width="24" height="24" fill="#D9D9D9"/>
</mask>
<g mask="url(#mask0_1406_33660)">
<path d="M11.9998 22.2C10.5831 22.2 9.2538 21.9333 8.0118 21.4C6.77047 20.8667 5.69147 20.1417 4.7748 19.225C3.85814 18.3083 3.13314 17.2293 2.5998 15.988C2.06647 14.746 1.7998 13.4167 1.7998 12C1.7998 10.5833 2.06647 9.25399 2.5998 8.01199C3.13314 6.77065 3.85814 5.69165 4.7748 4.77499C5.69147 3.85832 6.77047 3.13332 8.0118 2.59999C9.2538 2.06665 10.5831 1.79999 11.9998 1.79999C13.4165 1.79999 14.7458 2.06665 15.9878 2.59999C17.2291 3.13332 18.3081 3.85832 19.2248 4.77499C20.1415 5.69165 20.8665 6.77065 21.3998 8.01199C21.9331 9.25399 22.1998 10.5833 22.1998 12C22.1998 13.4167 21.9331 14.746 21.3998 15.988C20.8665 17.2293 20.1415 18.3083 19.2248 19.225C18.3081 20.1417 17.2291 20.8667 15.9878 21.4C14.7458 21.9333 13.4165 22.2 11.9998 22.2ZM10.5748 16.725L17.7248 9.57499L16.1498 7.99999L10.5748 13.6L7.7998 10.8L6.2498 12.375L10.5748 16.725Z" fill="#ACACAC"/>
</g>
</svg>
