<svg width="20" height="16" viewBox="0 0 20 16" fill="none" xmlns="http://www.w3.org/2000/svg">
<path d="M0 0.893372V15.8934H20V0.893372H0ZM18 5.17909H15.5263L15.5 2.89337H18V5.17909ZM6.57895 7.32194H8.94737V9.4648H6.57895V7.32194ZM4.47368 9.4648H2.10526V7.32194H4.47368V9.4648ZM8.94737 5.17909H6.57895V2.89337H8.94737V5.17909ZM11.0526 2.89337H13.4211V5.17909H11.0526V2.89337ZM8.94737 11.6077V14H6.57895V11.6077H8.94737ZM11.0526 11.6077H13.4211V14H11.0526V11.6077ZM11.0526 9.4648V7.32194H13.4211V9.4648H11.0526ZM15.5263 7.32194H17.8947V9.4648H15.5263V7.32194ZM4.5 2.89337L4.47368 5.17909H2V2.89337H4.5ZM2 11.6077H4.47368L4.5 14H2V11.6077ZM15.5263 14V11.6077H17.8947V14H15.5263Z" fill="#ACACAC"/>
</svg>
