<svg width="24" height="18" viewBox="0 0 24 18" fill="none" xmlns="http://www.w3.org/2000/svg">
<path d="M0.825195 17.2999V14.3C0.825195 13.6833 0.979529 13.125 1.2882 12.625C1.5962 12.125 2.00853 11.7416 2.5252 11.475C3.5752 10.9416 4.64186 10.5456 5.72519 10.287C6.80853 10.029 7.90853 9.89995 9.02519 9.89995C10.1419 9.89995 11.2419 10.029 12.3252 10.287C13.4085 10.5456 14.4669 10.9333 15.5002 11.45C16.0169 11.7166 16.4335 12.1043 16.7502 12.613C17.0669 13.121 17.2252 13.6833 17.2252 14.3V17.2999H0.825195ZM19.3002 17.2999V14.1C19.3002 13.35 19.1002 12.6293 18.7002 11.938C18.3002 11.246 17.7169 10.625 16.9502 10.075C17.7669 10.1916 18.5335 10.3666 19.2502 10.6C19.9669 10.8333 20.6419 11.1166 21.2752 11.45C21.8919 11.7833 22.3629 12.179 22.6882 12.637C23.0129 13.0956 23.1752 13.5916 23.1752 14.125V17.2999H19.3002ZM9.02519 8.89995C7.89186 8.89995 6.9252 8.49995 6.1252 7.69995C5.3252 6.89995 4.9252 5.93328 4.9252 4.79995C4.9252 3.66662 5.3252 2.69995 6.1252 1.89995C6.9252 1.09995 7.89186 0.699951 9.02519 0.699951C10.1585 0.699951 11.1252 1.09995 11.9252 1.89995C12.7252 2.69995 13.1252 3.66662 13.1252 4.79995C13.1252 5.93328 12.7252 6.89995 11.9252 7.69995C11.1252 8.49995 10.1585 8.89995 9.02519 8.89995ZM15.2002 8.89995C15.0169 8.89995 14.7879 8.87895 14.5132 8.83695C14.2379 8.79562 14.0002 8.74162 13.8002 8.67495C14.2502 8.14162 14.5962 7.54162 14.8382 6.87495C15.0795 6.20828 15.2002 5.51662 15.2002 4.79995C15.2002 4.08328 15.0795 3.39162 14.8382 2.72495C14.5962 2.05828 14.2502 1.45828 13.8002 0.924951C14.0335 0.824951 14.2669 0.762284 14.5002 0.736951C14.7335 0.712284 14.9669 0.699951 15.2002 0.699951C16.3335 0.699951 17.3002 1.09995 18.1002 1.89995C18.9002 2.69995 19.3002 3.66662 19.3002 4.79995C19.3002 5.93328 18.9002 6.89995 18.1002 7.69995C17.3002 8.49995 16.3335 8.89995 15.2002 8.89995ZM3.10019 15.025H14.9502V14.325C14.9502 14.1416 14.9042 13.975 14.8122 13.825C14.7209 13.675 14.6002 13.5666 14.4502 13.5C13.5669 13.05 12.6752 12.7166 11.7752 12.5C10.8752 12.2833 9.95853 12.175 9.02519 12.175C8.09186 12.175 7.1712 12.2833 6.2632 12.5C5.35453 12.7166 4.46686 13.05 3.60019 13.5C3.4502 13.5666 3.3292 13.675 3.2372 13.825C3.14586 13.975 3.10019 14.1416 3.10019 14.325V15.025ZM9.02519 6.72495C9.54186 6.72495 9.98786 6.53728 10.3632 6.16195C10.7379 5.78728 10.9252 5.33328 10.9252 4.79995C10.9252 4.26662 10.7379 3.81262 10.3632 3.43795C9.98786 3.06262 9.54186 2.87495 9.02519 2.87495C8.49186 2.87495 8.03753 3.06262 7.6622 3.43795C7.28753 3.81262 7.10019 4.26662 7.10019 4.79995C7.10019 5.31662 7.28753 5.76662 7.6622 6.14995C8.03753 6.53328 8.49186 6.72495 9.02519 6.72495Z" fill="white"/>
</svg>
