<svg width="212" height="416" viewBox="0 0 212 416" fill="none" xmlns="http://www.w3.org/2000/svg">
<path d="M6 100.484V278.63L105.665 317.04L206 271.345V99.822L106 73.332L6 100.484Z" fill="url(#paint0_linear_1_145)"/>
<path d="M206 388.564L106 415.054V126.974L206 99.8221V388.564Z" fill="url(#paint1_linear_1_145)"/>
<path d="M106 73.332L6 100.484L106 126.974L206 99.822L106 73.332Z" fill="url(#paint2_linear_1_145)"/>
<path d="M6 387.901L106 415.054V126.974L6 100.484V387.901Z" fill="url(#paint3_linear_1_145)"/>
<g filter="url(#filter0_d_1_145)">
<path d="M162.954 110.418C140.71 116.221 106 126.974 106 126.974C106 126.974 140.524 118.195 162.954 111.743C179.459 106.995 206 99.8221 206 99.8221C206 99.8221 179.891 105.999 162.954 110.418Z" fill="#6BCFCF"/>
</g>
<g filter="url(#filter1_d_1_145)">
<path d="M107.304 153.807C107.456 130.819 106.053 126.312 106.053 126.312C106.053 126.312 105.598 130.129 106.025 153.464C106.339 170.636 106.399 251.478 106.399 251.478C106.399 251.478 107.188 171.311 107.304 153.807Z" fill="#6BCFCF"/>
</g>
<g filter="url(#filter2_d_1_145)">
<path d="M49.0464 111.08C71.2905 116.883 106 126.974 106 126.974C106 126.974 71.4762 118.857 49.0464 112.405C32.541 107.657 6.00008 100.484 6.00008 100.484C6.00008 100.484 32.1087 106.662 49.0464 111.08Z" fill="#6BCFCF"/>
</g>
<g filter="url(#filter3_f_1_145)">
<path d="M58.4317 86.7101L51.585 92.1605L107.149 107.521L164.556 92.1605L154.022 86.7101L107.149 92.1605L58.4317 86.7101Z" fill="black" fill-opacity="0.3"/>
</g>
<path d="M54.0415 87.2057L106.117 100.088V26.1098L54.0415 13.2161V87.2057Z" fill="url(#paint4_linear_1_145)"/>
<path d="M158.193 86.9579L106.117 100.008V26.1098L158.193 12.8937V86.9579Z" fill="url(#paint5_linear_1_145)"/>
<path d="M106.117 73.9784L54.0415 87.1945L106.117 100.088L158.192 86.8721L106.117 73.9784Z" fill="url(#paint6_linear_1_145)"/>
<path d="M106.117 73.9784L54.0415 87.1945L106.117 100.088L158.192 86.8721L106.117 73.9784Z" fill="#42B3B6" fill-opacity="0.42"/>
<g filter="url(#filter4_df_1_145)">
<path d="M106.117 68.5755L74.4346 77.178L106.117 85.5706L137.799 76.9682L106.117 68.5755Z" fill="white"/>
<path d="M137.799 77.1258L106.117 85.5184V37.4174L137.799 28.8149V77.1258Z" fill="#EEE8E8"/>
<path d="M106.117 20.4223L74.4346 29.0248L106.117 37.4174L137.799 28.815L106.117 20.4223Z" fill="white"/>
<path d="M74.4346 76.9159L106.117 85.5184V37.4174L74.4346 29.0247V76.9159Z" fill="#F7F4F4"/>
</g>
<g filter="url(#filter5_f_1_145)">
<path d="M74.377 28.5832L106.311 19.324L137.799 28.5832V77.3633L106.088 85.7191L74.377 77.3633V28.5832Z" fill="#66D7D7" fill-opacity="0.2"/>
</g>
<path d="M106.117 0L54.0415 13.2161L106.117 26.1098L158.192 12.8937L106.117 0Z" fill="url(#paint7_linear_1_145)"/>
<defs>
<filter id="filter0_d_1_145" x="100.822" y="94.6445" width="110.355" height="37.5075" filterUnits="userSpaceOnUse" color-interpolation-filters="sRGB">
<feFlood flood-opacity="0" result="BackgroundImageFix"/>
<feColorMatrix in="SourceAlpha" type="matrix" values="0 0 0 0 0 0 0 0 0 0 0 0 0 0 0 0 0 0 127 0" result="hardAlpha"/>
<feOffset/>
<feGaussianBlur stdDeviation="2.5888"/>
<feComposite in2="hardAlpha" operator="out"/>
<feColorMatrix type="matrix" values="0 0 0 0 0.113924 0 0 0 0 0.762334 0 0 0 0 0.804167 0 0 0 1 0"/>
<feBlend mode="normal" in2="BackgroundImageFix" result="effect1_dropShadow_1_145"/>
<feBlend mode="normal" in="SourceGraphic" in2="effect1_dropShadow_1_145" result="shape"/>
</filter>
<filter id="filter1_d_1_145" x="100.664" y="121.134" width="11.8288" height="135.521" filterUnits="userSpaceOnUse" color-interpolation-filters="sRGB">
<feFlood flood-opacity="0" result="BackgroundImageFix"/>
<feColorMatrix in="SourceAlpha" type="matrix" values="0 0 0 0 0 0 0 0 0 0 0 0 0 0 0 0 0 0 127 0" result="hardAlpha"/>
<feOffset/>
<feGaussianBlur stdDeviation="2.5888"/>
<feComposite in2="hardAlpha" operator="out"/>
<feColorMatrix type="matrix" values="0 0 0 0 0.113924 0 0 0 0 0.762334 0 0 0 0 0.804167 0 0 0 1 0"/>
<feBlend mode="normal" in2="BackgroundImageFix" result="effect1_dropShadow_1_145"/>
<feBlend mode="normal" in="SourceGraphic" in2="effect1_dropShadow_1_145" result="shape"/>
</filter>
<filter id="filter2_d_1_145" x="0.8224" y="95.3067" width="110.355" height="36.8453" filterUnits="userSpaceOnUse" color-interpolation-filters="sRGB">
<feFlood flood-opacity="0" result="BackgroundImageFix"/>
<feColorMatrix in="SourceAlpha" type="matrix" values="0 0 0 0 0 0 0 0 0 0 0 0 0 0 0 0 0 0 127 0" result="hardAlpha"/>
<feOffset/>
<feGaussianBlur stdDeviation="2.5888"/>
<feComposite in2="hardAlpha" operator="out"/>
<feColorMatrix type="matrix" values="0 0 0 0 0.113924 0 0 0 0 0.762334 0 0 0 0 0.804167 0 0 0 1 0"/>
<feBlend mode="normal" in2="BackgroundImageFix" result="effect1_dropShadow_1_145"/>
<feBlend mode="normal" in="SourceGraphic" in2="effect1_dropShadow_1_145" result="shape"/>
</filter>
<filter id="filter3_f_1_145" x="41.6752" y="76.8004" width="132.79" height="40.6299" filterUnits="userSpaceOnUse" color-interpolation-filters="sRGB">
<feFlood flood-opacity="0" result="BackgroundImageFix"/>
<feBlend mode="normal" in="SourceGraphic" in2="BackgroundImageFix" result="shape"/>
<feGaussianBlur stdDeviation="4.95486" result="effect1_foregroundBlur_1_145"/>
</filter>
<filter id="filter4_df_1_145" x="64.0294" y="10.0171" width="84.1752" height="85.9587" filterUnits="userSpaceOnUse" color-interpolation-filters="sRGB">
<feFlood flood-opacity="0" result="BackgroundImageFix"/>
<feColorMatrix in="SourceAlpha" type="matrix" values="0 0 0 0 0 0 0 0 0 0 0 0 0 0 0 0 0 0 127 0" result="hardAlpha"/>
<feOffset/>
<feGaussianBlur stdDeviation="5.20261"/>
<feComposite in2="hardAlpha" operator="out"/>
<feColorMatrix type="matrix" values="0 0 0 0 1 0 0 0 0 1 0 0 0 0 1 0 0 0 1 0"/>
<feBlend mode="normal" in2="BackgroundImageFix" result="effect1_dropShadow_1_145"/>
<feBlend mode="normal" in="SourceGraphic" in2="effect1_dropShadow_1_145" result="shape"/>
<feGaussianBlur stdDeviation="0.247743" result="effect2_foregroundBlur_1_145"/>
</filter>
<filter id="filter5_f_1_145" x="72.395" y="17.342" width="67.3863" height="70.3591" filterUnits="userSpaceOnUse" color-interpolation-filters="sRGB">
<feFlood flood-opacity="0" result="BackgroundImageFix"/>
<feBlend mode="normal" in="SourceGraphic" in2="BackgroundImageFix" result="shape"/>
<feGaussianBlur stdDeviation="0.990973" result="effect1_foregroundBlur_1_145"/>
</filter>
<linearGradient id="paint0_linear_1_145" x1="106.662" y1="126.312" x2="106" y2="317.04" gradientUnits="userSpaceOnUse">
<stop stop-color="#1A1B26"/>
<stop offset="0.751117" stop-color="#1A1B26" stop-opacity="0"/>
</linearGradient>
<linearGradient id="paint1_linear_1_145" x1="119.592" y1="-39.9129" x2="262.491" y2="218.059" gradientUnits="userSpaceOnUse">
<stop stop-color="#6BCFCF"/>
<stop offset="0.811479" stop-color="#48AFEA" stop-opacity="0.1"/>
<stop offset="1" stop-color="#41A9EF" stop-opacity="0"/>
</linearGradient>
<linearGradient id="paint2_linear_1_145" x1="156.331" y1="-23.3567" x2="241.761" y2="114.392" gradientUnits="userSpaceOnUse">
<stop stop-color="#6BCFCF"/>
<stop offset="1" stop-color="#41A9EF" stop-opacity="0"/>
</linearGradient>
<linearGradient id="paint3_linear_1_145" x1="81.4966" y1="-0.840108" x2="31.8005" y2="322.588" gradientUnits="userSpaceOnUse">
<stop offset="0.208758" stop-color="#6BCFCF"/>
<stop offset="0.602981" stop-color="#4DB4E6" stop-opacity="0.19"/>
<stop offset="0.730301" stop-color="#46AEEB" stop-opacity="0.09"/>
<stop offset="0.87546" stop-color="#41A9EF" stop-opacity="0"/>
</linearGradient>
<linearGradient id="paint4_linear_1_145" x1="86.7642" y1="-32.7021" x2="80.3229" y2="152.114" gradientUnits="userSpaceOnUse">
<stop offset="0.208758" stop-color="#6BCFCF"/>
<stop offset="0.602981" stop-color="#4DB4E6" stop-opacity="0.19"/>
<stop offset="0.730301" stop-color="#46AEEB" stop-opacity="0.09"/>
<stop offset="0.87546" stop-color="#41A9EF" stop-opacity="0"/>
</linearGradient>
<linearGradient id="paint5_linear_1_145" x1="121.944" y1="-12.1394" x2="164.495" y2="86.9421" gradientUnits="userSpaceOnUse">
<stop stop-color="#6BCFCF"/>
<stop offset="0.811479" stop-color="#48AFEA" stop-opacity="0.1"/>
<stop offset="1" stop-color="#41A9EF" stop-opacity="0"/>
</linearGradient>
<linearGradient id="paint6_linear_1_145" x1="100.142" y1="73.8274" x2="115.75" y2="125.11" gradientUnits="userSpaceOnUse">
<stop offset="0.1086" stop-color="#B5D7D7"/>
<stop offset="1" stop-color="white"/>
</linearGradient>
<linearGradient id="paint7_linear_1_145" x1="148.7" y1="-20.5627" x2="149.824" y2="26.3289" gradientUnits="userSpaceOnUse">
<stop stop-color="#121218"/>
<stop offset="1" stop-color="#2E3043"/>
</linearGradient>
</defs>
</svg>
