<svg width="22" height="19" viewBox="0 0 22 19" fill="none" xmlns="http://www.w3.org/2000/svg">
<path d="M9.00078 8.9C7.83411 8.9 6.84245 8.48733 6.02578 7.662C5.20912 6.83733 4.80078 5.85 4.80078 4.7C4.80078 3.53333 5.20912 2.54167 6.02578 1.725C6.84245 0.908333 7.83411 0.5 9.00078 0.5C10.1674 0.5 11.1591 0.908333 11.9758 1.725C12.7924 2.54167 13.2008 3.53333 13.2008 4.7C13.2008 5.85 12.7924 6.83733 11.9758 7.662C11.1591 8.48733 10.1674 8.9 9.00078 8.9ZM0.800781 17.3V14.3C0.800781 13.6833 0.959115 13.121 1.27578 12.613C1.59245 12.1043 2.00078 11.725 2.50078 11.475C3.35078 11.0417 4.32578 10.6707 5.42578 10.362C6.52578 10.054 7.71745 9.9 9.00078 9.9H9.40078C9.53411 9.9 9.65911 9.91667 9.77578 9.95C9.64245 10.25 9.51345 10.604 9.38878 11.012C9.26345 11.4207 9.16745 11.8083 9.10078 12.175H9.02578C7.85911 12.175 6.80911 12.321 5.87578 12.613C4.94245 12.9043 4.17578 13.2 3.57578 13.5C3.42578 13.5833 3.30511 13.6957 3.21378 13.837C3.12178 13.979 3.07578 14.1417 3.07578 14.325V15.025H9.30078C9.40078 15.425 9.55511 15.825 9.76378 16.225C9.97178 16.625 10.1841 16.9833 10.4008 17.3H0.800781ZM15.1008 18.2L14.7758 16.675C14.5924 16.5917 14.4174 16.5083 14.2508 16.425C14.0841 16.3417 13.9174 16.2333 13.7508 16.1L12.2758 16.575L11.2008 14.75L12.3758 13.725C12.3424 13.5083 12.3258 13.304 12.3258 13.112C12.3258 12.9207 12.3424 12.7167 12.3758 12.5L11.2008 11.475L12.2758 9.65L13.7508 10.1C13.9174 9.98333 14.0841 9.879 14.2508 9.787C14.4174 9.69567 14.5924 9.61667 14.7758 9.55L15.1008 8.025H17.2508L17.5508 9.55C17.7341 9.61667 17.9091 9.7 18.0758 9.8C18.2424 9.9 18.4091 10.0167 18.5758 10.15L20.0508 9.65L21.1258 11.525L19.9508 12.55C20.0008 12.7333 20.0218 12.929 20.0138 13.137C20.0051 13.3457 19.9841 13.5417 19.9508 13.725L21.1258 14.75L20.0508 16.575L18.5758 16.1C18.4091 16.2333 18.2424 16.3417 18.0758 16.425C17.9091 16.5083 17.7341 16.5917 17.5508 16.675L17.2508 18.2H15.1008ZM16.1758 15.075C16.7091 15.075 17.1674 14.879 17.5508 14.487C17.9341 14.0957 18.1258 13.6333 18.1258 13.1C18.1258 12.5667 17.9341 12.1083 17.5508 11.725C17.1674 11.3417 16.7091 11.15 16.1758 11.15C15.6424 11.15 15.1801 11.3417 14.7888 11.725C14.3968 12.1083 14.2008 12.5667 14.2008 13.1C14.2008 13.6333 14.3968 14.0957 14.7888 14.487C15.1801 14.879 15.6424 15.075 16.1758 15.075ZM9.00078 6.625C9.53411 6.625 9.98845 6.43733 10.3638 6.062C10.7384 5.68733 10.9258 5.23333 10.9258 4.7C10.9258 4.16667 10.7384 3.71233 10.3638 3.337C9.98845 2.96233 9.53411 2.775 9.00078 2.775C8.46745 2.775 8.01345 2.96233 7.63878 3.337C7.26345 3.71233 7.07578 4.16667 7.07578 4.7C7.07578 5.23333 7.26345 5.68733 7.63878 6.062C8.01345 6.43733 8.46745 6.625 9.00078 6.625Z" fill="white"/>
</svg>
