<svg width="24" height="24" viewBox="0 0 24 24" fill="none" xmlns="http://www.w3.org/2000/svg">
<mask id="mask0_198_2956" style="mask-type:alpha" maskUnits="userSpaceOnUse" x="0" y="0" width="24" height="24">
<rect width="24" height="24" fill="#F53D41"/>
</mask>
<g mask="url(#mask0_198_2956)">
<path d="M17.75 14.95L16.3 13.5C16.5334 13.1167 16.7084 12.7167 16.825 12.3C16.9417 11.8833 17 11.45 17 11H19C19 11.7333 18.8917 12.429 18.675 13.087C18.4584 13.7457 18.15 14.3667 17.75 14.95ZM14.8 11.95L13 10.15V5C13 4.71667 12.9044 4.479 12.713 4.287C12.521 4.09567 12.2834 4 12 4C11.7167 4 11.4794 4.09567 11.288 4.287C11.096 4.479 11 4.71667 11 5V8.15L9.00002 6.15V5C9.00002 4.16667 9.29169 3.45833 9.87502 2.875C10.4584 2.29167 11.1667 2 12 2C12.8334 2 13.5417 2.29167 14.125 2.875C14.7084 3.45833 15 4.16667 15 5V11C15 11.1833 14.9794 11.35 14.938 11.5C14.896 11.65 14.85 11.8 14.8 11.95ZM11 21V17.925C9.26669 17.6917 7.83336 16.9167 6.70002 15.6C5.56669 14.2833 5.00002 12.75 5.00002 11H7.00002C7.00002 12.3833 7.47936 13.5623 8.43802 14.537C9.39602 15.5123 10.5834 16 12 16C12.5667 16 13.1044 15.9127 13.613 15.738C14.121 15.5627 14.5834 15.3167 15 15L16.425 16.425C15.9417 16.8083 15.4127 17.1333 14.838 17.4C14.2627 17.6667 13.65 17.8417 13 17.925V21H11ZM19.8 22.6L1.40002 4.2L2.80002 2.8L21.2 21.2L19.8 22.6Z" fill="white"/>
</g>
</svg>
