<svg width="18" height="6" viewBox="0 0 18 6" fill="none" xmlns="http://www.w3.org/2000/svg">
<path d="M2.82461 5.10003C2.24128 5.10003 1.74561 4.89169 1.33761 4.47503C0.928943 4.05836 0.724609 3.56669 0.724609 3.00002C0.724609 2.41669 0.928943 1.92069 1.33761 1.51202C1.74561 1.10402 2.24128 0.900024 2.82461 0.900024C3.39128 0.900024 3.87894 1.10402 4.28761 1.51202C4.69561 1.92069 4.89961 2.41669 4.89961 3.00002C4.89961 3.56669 4.69561 4.05836 4.28761 4.47503C3.87894 4.89169 3.39128 5.10003 2.82461 5.10003ZM8.99961 5.10003C8.43294 5.10003 7.94128 4.89169 7.52461 4.47503C7.10794 4.05836 6.89961 3.56669 6.89961 3.00002C6.89961 2.41669 7.10794 1.92069 7.52461 1.51202C7.94128 1.10402 8.43294 0.900024 8.99961 0.900024C9.58294 0.900024 10.0789 1.10402 10.4876 1.51202C10.8956 1.92069 11.0996 2.41669 11.0996 3.00002C11.0996 3.56669 10.8956 4.05836 10.4876 4.47503C10.0789 4.89169 9.58294 5.10003 8.99961 5.10003ZM15.1746 5.10003C14.6079 5.10003 14.1203 4.89169 13.7116 4.47503C13.3036 4.05836 13.0996 3.56669 13.0996 3.00002C13.0996 2.41669 13.3036 1.92069 13.7116 1.51202C14.1203 1.10402 14.6079 0.900024 15.1746 0.900024C15.7579 0.900024 16.2539 1.10402 16.6626 1.51202C17.0706 1.92069 17.2746 2.41669 17.2746 3.00002C17.2746 3.56669 17.0706 4.05836 16.6626 4.47503C16.2539 4.89169 15.7579 5.10003 15.1746 5.10003Z" fill="white"/>
</svg>
