<svg width="20" height="20" viewBox="0 0 20 20" fill="none" xmlns="http://www.w3.org/2000/svg">
<path d="M11.25 9.8H12.75C12.75 9.31667 12.8 8.96233 12.9 8.737C13 8.51233 13.2333 8.21667 13.6 7.85C14.1 7.35 14.4333 6.94567 14.6 6.637C14.7667 6.329 14.85 5.96667 14.85 5.55C14.85 4.8 14.5873 4.18767 14.062 3.713C13.5373 3.23767 12.85 3 12 3C11.3167 3 10.721 3.19167 10.213 3.575C9.70433 3.95833 9.35 4.46667 9.15 5.1L10.5 5.65C10.65 5.23333 10.8543 4.92067 11.113 4.712C11.371 4.504 11.6667 4.4 12 4.4C12.4 4.4 12.725 4.51233 12.975 4.737C13.225 4.96233 13.35 5.26667 13.35 5.65C13.35 5.88333 13.2833 6.104 13.15 6.312C13.0167 6.52067 12.7833 6.78333 12.45 7.1C11.9 7.58333 11.5627 7.96233 11.438 8.237C11.3127 8.51233 11.25 9.03333 11.25 9.8ZM12 13C12.2833 13 12.5293 12.896 12.738 12.688C12.946 12.4793 13.05 12.2333 13.05 11.95C13.05 11.6667 12.946 11.4207 12.738 11.212C12.5293 11.004 12.2833 10.9 12 10.9C11.7167 10.9 11.471 11.004 11.263 11.212C11.0543 11.4207 10.95 11.6667 10.95 11.95C10.95 12.2333 11.0543 12.4793 11.263 12.688C11.471 12.896 11.7167 13 12 13ZM4 16V0H20V16H4ZM6 14H18V2H6V14ZM0 20V4H2V18H16V20H0Z" fill="#6BCFCF"/>
</svg>
