<svg width="40" height="40" viewBox="0 0 40 40" fill="none" xmlns="http://www.w3.org/2000/svg">
<mask id="mask0_1352_40463" style="mask-type:alpha" maskUnits="userSpaceOnUse" x="8" y="8" width="24" height="24">
<rect x="8" y="8" width="24" height="24" fill="#D9D9D9"/>
</mask>
<g mask="url(#mask0_1352_40463)">
<path d="M21.25 19.8H22.75C22.75 19.3167 22.8 18.9623 22.9 18.737C23 18.5123 23.2333 18.2167 23.6 17.85C24.1 17.35 24.4333 16.9457 24.6 16.637C24.7667 16.329 24.85 15.9667 24.85 15.55C24.85 14.8 24.5873 14.1877 24.062 13.713C23.5373 13.2377 22.85 13 22 13C21.3167 13 20.721 13.1917 20.213 13.575C19.7043 13.9583 19.35 14.4667 19.15 15.1L20.5 15.65C20.65 15.2333 20.8543 14.9207 21.113 14.712C21.371 14.504 21.6667 14.4 22 14.4C22.4 14.4 22.725 14.5123 22.975 14.737C23.225 14.9623 23.35 15.2667 23.35 15.65C23.35 15.8833 23.2833 16.104 23.15 16.312C23.0167 16.5207 22.7833 16.7833 22.45 17.1C21.9 17.5833 21.5627 17.9623 21.438 18.237C21.3127 18.5123 21.25 19.0333 21.25 19.8ZM22 23C22.2833 23 22.5293 22.896 22.738 22.688C22.946 22.4793 23.05 22.2333 23.05 21.95C23.05 21.6667 22.946 21.4207 22.738 21.212C22.5293 21.004 22.2833 20.9 22 20.9C21.7167 20.9 21.471 21.004 21.263 21.212C21.0543 21.4207 20.95 21.6667 20.95 21.95C20.95 22.2333 21.0543 22.4793 21.263 22.688C21.471 22.896 21.7167 23 22 23ZM14 26V10H30V26H14ZM16 24H28V12H16V24ZM10 30V14H12V28H26V30H10Z" fill="white"/>
</g>
<rect x="0.5" y="0.5" width="39" height="39" rx="1.5" stroke="#292F2F"/>
</svg>
