<svg width="20" height="21" viewBox="0 0 20 21" fill="none" xmlns="http://www.w3.org/2000/svg">
<path d="M11.25 10.3H12.75C12.75 9.81667 12.8 9.46233 12.9 9.237C13 9.01233 13.2333 8.71667 13.6 8.35C14.1 7.85 14.4333 7.44567 14.6 7.137C14.7667 6.829 14.85 6.46667 14.85 6.05C14.85 5.3 14.5873 4.68767 14.062 4.213C13.5373 3.73767 12.85 3.5 12 3.5C11.3167 3.5 10.721 3.69167 10.213 4.075C9.70433 4.45833 9.35 4.96667 9.15 5.6L10.5 6.15C10.65 5.73333 10.8543 5.42067 11.113 5.212C11.371 5.004 11.6667 4.9 12 4.9C12.4 4.9 12.725 5.01233 12.975 5.237C13.225 5.46233 13.35 5.76667 13.35 6.15C13.35 6.38333 13.2833 6.604 13.15 6.812C13.0167 7.02067 12.7833 7.28333 12.45 7.6C11.9 8.08333 11.5627 8.46233 11.438 8.737C11.3127 9.01233 11.25 9.53333 11.25 10.3ZM12 13.5C12.2833 13.5 12.5293 13.396 12.738 13.188C12.946 12.9793 13.05 12.7333 13.05 12.45C13.05 12.1667 12.946 11.9207 12.738 11.712C12.5293 11.504 12.2833 11.4 12 11.4C11.7167 11.4 11.471 11.504 11.263 11.712C11.0543 11.9207 10.95 12.1667 10.95 12.45C10.95 12.7333 11.0543 12.9793 11.263 13.188C11.471 13.396 11.7167 13.5 12 13.5ZM4 16.5V0.5H20V16.5H4ZM6 14.5H18V2.5H6V14.5ZM0 20.5V4.5H2V18.5H16V20.5H0Z" fill="white"/>
</svg>
