<svg width="20" height="15" viewBox="0 0 20 15" fill="none" xmlns="http://www.w3.org/2000/svg">
<path d="M2.92524 14.4081C2.02524 13.4915 1.31291 12.4288 0.788244 11.2201C0.262911 10.0121 0.000244141 8.71645 0.000244141 7.33312C0.000244141 5.93312 0.262911 4.62878 0.788244 3.42012C1.31291 2.21212 2.02524 1.15812 2.92524 0.258118L4.35024 1.68312C3.61691 2.41645 3.04191 3.26645 2.62524 4.23312C2.20858 5.19978 2.00024 6.23312 2.00024 7.33312C2.00024 8.44978 2.20858 9.49145 2.62524 10.4581C3.04191 11.4248 3.61691 12.2664 4.35024 12.9831L2.92524 14.4081ZM5.75024 11.5831C5.21691 11.0331 4.79191 10.3954 4.47524 9.67012C4.15858 8.94545 4.00024 8.16645 4.00024 7.33312C4.00024 6.48312 4.15858 5.69545 4.47524 4.97012C4.79191 4.24545 5.21691 3.61645 5.75024 3.08312L7.17524 4.50812C6.80858 4.87478 6.52091 5.29978 6.31224 5.78312C6.10424 6.26645 6.00024 6.78312 6.00024 7.33312C6.00024 7.88312 6.10424 8.39978 6.31224 8.88312C6.52091 9.36645 6.80858 9.79145 7.17524 10.1581L5.75024 11.5831ZM10.0002 9.33312C9.45024 9.33312 8.97958 9.13712 8.58824 8.74512C8.19624 8.35378 8.00024 7.88312 8.00024 7.33312C8.00024 6.78312 8.19624 6.31212 8.58824 5.92012C8.97958 5.52878 9.45024 5.33312 10.0002 5.33312C10.5502 5.33312 11.0212 5.52878 11.4132 5.92012C11.8046 6.31212 12.0002 6.78312 12.0002 7.33312C12.0002 7.88312 11.8046 8.35378 11.4132 8.74512C11.0212 9.13712 10.5502 9.33312 10.0002 9.33312ZM14.2502 11.5831L12.8252 10.1581C13.1919 9.79145 13.4796 9.36645 13.6882 8.88312C13.8962 8.39978 14.0002 7.88312 14.0002 7.33312C14.0002 6.78312 13.8962 6.26645 13.6882 5.78312C13.4796 5.29978 13.1919 4.87478 12.8252 4.50812L14.2502 3.08312C14.7836 3.61645 15.2086 4.24545 15.5252 4.97012C15.8419 5.69545 16.0002 6.48312 16.0002 7.33312C16.0002 8.16645 15.8419 8.94545 15.5252 9.67012C15.2086 10.3954 14.7836 11.0331 14.2502 11.5831ZM17.0752 14.4081L15.6502 12.9831C16.3836 12.2498 16.9586 11.3998 17.3752 10.4331C17.7919 9.46645 18.0002 8.43312 18.0002 7.33312C18.0002 6.21645 17.7919 5.17478 17.3752 4.20812C16.9586 3.24145 16.3836 2.39978 15.6502 1.68312L17.0752 0.258118C17.9752 1.15812 18.6876 2.21212 19.2122 3.42012C19.7376 4.62878 20.0002 5.93312 20.0002 7.33312C20.0002 8.71645 19.7376 10.0121 19.2122 11.2201C18.6876 12.4288 17.9752 13.4915 17.0752 14.4081Z" fill="#F53D41"/>
</svg>
