<svg width="21" height="20" viewBox="0 0 21 20" fill="none" xmlns="http://www.w3.org/2000/svg">
<path d="M18.7749 19.9583L7.12488 8.30827C7.09154 8.47494 7.06238 8.6416 7.03738 8.80827C7.01238 8.97494 6.99988 9.14994 6.99988 9.33327C6.99988 9.88327 7.10404 10.3999 7.31238 10.8833C7.52071 11.3666 7.80821 11.7916 8.17488 12.1583L6.74988 13.5833C6.21654 13.0333 5.79154 12.3958 5.47488 11.6708C5.15821 10.9458 4.99988 10.1666 4.99988 9.33327C4.99988 8.8666 5.04988 8.4166 5.14988 7.98327C5.24988 7.54994 5.39154 7.1416 5.57488 6.75827L4.09988 5.28327C3.74988 5.88327 3.47904 6.52077 3.28738 7.19577C3.09571 7.87077 2.99988 8.58327 2.99988 9.33327C2.99988 10.4499 3.20821 11.4916 3.62488 12.4583C4.04154 13.4249 4.61654 14.2666 5.34988 14.9833L3.92488 16.4083C3.02488 15.4916 2.31238 14.4291 1.78738 13.2208C1.26238 12.0124 0.999878 10.7166 0.999878 9.33327C0.999878 8.29994 1.14571 7.32494 1.43738 6.40827C1.72904 5.4916 2.13321 4.63327 2.64988 3.83327L0.374878 1.55827L1.79988 0.13327L20.1999 18.5333L18.7749 19.9583ZM19.3499 14.8333L17.8999 13.3833C18.2499 12.7833 18.5207 12.1458 18.7124 11.4708C18.904 10.7958 18.9999 10.0833 18.9999 9.33327C18.9999 8.2166 18.7915 7.17494 18.3749 6.20827C17.9582 5.2416 17.3832 4.39994 16.6499 3.68327L18.0749 2.25827C18.9749 3.15827 19.6874 4.21244 20.2124 5.42077C20.7374 6.6291 20.9999 7.93327 20.9999 9.33327C20.9999 10.3499 20.854 11.3208 20.5624 12.2458C20.2707 13.1708 19.8665 14.0333 19.3499 14.8333ZM16.4249 11.9083L14.8749 10.3583C14.9082 10.1916 14.9374 10.0249 14.9624 9.85827C14.9874 9.6916 14.9999 9.5166 14.9999 9.33327C14.9999 8.78327 14.8957 8.2666 14.6874 7.78327C14.479 7.29994 14.1915 6.87494 13.8249 6.50827L15.2499 5.08327C15.7832 5.6166 16.2082 6.24577 16.5249 6.97077C16.8415 7.69577 16.9999 8.48327 16.9999 9.33327C16.9999 9.79994 16.9499 10.2499 16.8499 10.6833C16.7499 11.1166 16.6082 11.5249 16.4249 11.9083Z" fill="#F6AC3C"/>
</svg>
