<svg width="22" height="20" viewBox="0 0 22 20" fill="none" xmlns="http://www.w3.org/2000/svg">
<path d="M8.2502 20L7.8502 16.8C7.63353 16.7167 7.42953 16.6167 7.2382 16.5C7.0462 16.3833 6.85853 16.2583 6.6752 16.125L3.7002 17.375L0.950195 12.625L3.5252 10.675C3.50853 10.5583 3.5002 10.4457 3.5002 10.337V9.662C3.5002 9.554 3.50853 9.44167 3.5252 9.325L0.950195 7.375L3.7002 2.625L6.6752 3.875C6.85853 3.74167 7.0502 3.61667 7.2502 3.5C7.4502 3.38333 7.6502 3.28333 7.8502 3.2L8.2502 0H13.7502L14.1502 3.2C14.3669 3.28333 14.5712 3.38333 14.7632 3.5C14.9545 3.61667 15.1419 3.74167 15.3252 3.875L18.3002 2.625L21.0502 7.375L18.4752 9.325C18.4919 9.44167 18.5002 9.554 18.5002 9.662V10.337C18.5002 10.4457 18.4835 10.5583 18.4502 10.675L21.0252 12.625L18.2752 17.375L15.3252 16.125C15.1419 16.2583 14.9502 16.3833 14.7502 16.5C14.5502 16.6167 14.3502 16.7167 14.1502 16.8L13.7502 20H8.2502ZM11.0502 13.5C12.0169 13.5 12.8419 13.1583 13.5252 12.475C14.2085 11.7917 14.5502 10.9667 14.5502 10C14.5502 9.03333 14.2085 8.20833 13.5252 7.525C12.8419 6.84167 12.0169 6.5 11.0502 6.5C10.0669 6.5 9.23753 6.84167 8.5622 7.525C7.88753 8.20833 7.5502 9.03333 7.5502 10C7.5502 10.9667 7.88753 11.7917 8.5622 12.475C9.23753 13.1583 10.0669 13.5 11.0502 13.5ZM11.0502 11.5C10.6335 11.5 10.2795 11.354 9.9882 11.062C9.6962 10.7707 9.5502 10.4167 9.5502 10C9.5502 9.58333 9.6962 9.22933 9.9882 8.938C10.2795 8.646 10.6335 8.5 11.0502 8.5C11.4669 8.5 11.8212 8.646 12.1132 8.938C12.4045 9.22933 12.5502 9.58333 12.5502 10C12.5502 10.4167 12.4045 10.7707 12.1132 11.062C11.8212 11.354 11.4669 11.5 11.0502 11.5ZM10.0002 18H11.9752L12.3252 15.35C12.8419 15.2167 13.3212 15.0207 13.7632 14.762C14.2045 14.504 14.6085 14.1917 14.9752 13.825L17.4502 14.85L18.4252 13.15L16.2752 11.525C16.3585 11.2917 16.4169 11.0457 16.4502 10.787C16.4835 10.529 16.5002 10.2667 16.5002 10C16.5002 9.73333 16.4835 9.47067 16.4502 9.212C16.4169 8.954 16.3585 8.70833 16.2752 8.475L18.4252 6.85L17.4502 5.15L14.9752 6.2C14.6085 5.81667 14.2045 5.49567 13.7632 5.237C13.3212 4.979 12.8419 4.78333 12.3252 4.65L12.0002 2H10.0252L9.6752 4.65C9.15853 4.78333 8.67953 4.979 8.2382 5.237C7.7962 5.49567 7.39186 5.80833 7.0252 6.175L4.5502 5.15L3.5752 6.85L5.72519 8.45C5.64186 8.7 5.58353 8.95 5.5502 9.2C5.51686 9.45 5.5002 9.71667 5.5002 10C5.5002 10.2667 5.51686 10.525 5.5502 10.775C5.58353 11.025 5.64186 11.275 5.72519 11.525L3.5752 13.15L4.5502 14.85L7.0252 13.8C7.39186 14.1833 7.7962 14.504 8.2382 14.762C8.67953 15.0207 9.15853 15.2167 9.6752 15.35L10.0002 18Z" fill="white"/>
</svg>
