<svg width="24" height="24" viewBox="0 0 24 24" fill="none" xmlns="http://www.w3.org/2000/svg">
<path d="M21.79 17.8599L23.79 19.8599H24V17.8599H21.79ZM1.11 2.83993L2.66 4.39993C2.25 4.76993 2 5.28993 2 5.87993V15.8599C2 16.9599 2.9 17.8599 4.01 17.8599H0V19.8599H18.13L20.84 22.5699L22.25 21.1599L2.52 1.42993L1.11 2.83993ZM4 5.87993H4.13L9.08 10.8099C7.94 11.9299 7.31 13.3799 7 14.8599C7.96 13.5699 9.13 12.7799 10.67 12.3999L14.13 15.8799H4V5.87993ZM20 5.87993V16.0699L21.3 17.3699C21.72 16.9999 22 16.4799 22 15.8799V5.87993C22 4.76993 21.1 3.87993 20 3.87993H7.8L9.8 5.87993H20ZM12.93 9.00993L15.72 11.7899L17 10.5899L13 6.85993V8.98993L12.93 9.00993Z" fill="#C4C4C4"/>
</svg>
