<svg width="20" height="16" viewBox="0 0 20 16" fill="none" xmlns="http://www.w3.org/2000/svg">
<path d="M15 11C14.3 11 13.7083 10.7583 13.225 10.275C12.7417 9.79167 12.5 9.2 12.5 8.5C12.5 7.8 12.7417 7.20833 13.225 6.725C13.7083 6.24167 14.3 6 15 6C15.7 6 16.2917 6.24167 16.775 6.725C17.2583 7.20833 17.5 7.8 17.5 8.5C17.5 9.2 17.2583 9.79167 16.775 10.275C16.2917 10.7583 15.7 11 15 11ZM10 16V14.6C10 14.2 10.104 13.8293 10.312 13.488C10.5207 13.146 10.8167 12.9 11.2 12.75C11.8 12.5 12.421 12.3127 13.063 12.188C13.7043 12.0627 14.35 12 15 12C15.65 12 16.296 12.0627 16.938 12.188C17.5793 12.3127 18.2 12.5 18.8 12.75C19.1833 12.9 19.4793 13.146 19.688 13.488C19.896 13.8293 20 14.2 20 14.6V16H10ZM8 8C6.9 8 5.95833 7.60833 5.175 6.825C4.39167 6.04167 4 5.1 4 4C4 2.9 4.39167 1.95833 5.175 1.175C5.95833 0.391667 6.9 0 8 0C9.1 0 10.0417 0.391667 10.825 1.175C11.6083 1.95833 12 2.9 12 4C12 5.1 11.6083 6.04167 10.825 6.825C10.0417 7.60833 9.1 8 8 8ZM0 16V13.2C0 12.6333 0.141667 12.1123 0.425 11.637C0.708333 11.1623 1.1 10.8 1.6 10.55C2.6 10.05 3.63767 9.66667 4.713 9.4C5.78767 9.13333 6.88333 9 8 9C8.58333 9 9.16667 9.05 9.75 9.15C10.3333 9.25 10.9167 9.36667 11.5 9.5L9.8 11.2C9.5 11.1167 9.2 11.0623 8.9 11.037C8.6 11.0123 8.3 11 8 11C7.03333 11 6.08767 11.1167 5.163 11.35C4.23767 11.5833 3.35 11.9167 2.5 12.35C2.33333 12.4333 2.20833 12.55 2.125 12.7C2.04167 12.85 2 13.0167 2 13.2V14H8V16H0ZM8 6C8.55 6 9.021 5.804 9.413 5.412C9.80433 5.02067 10 4.55 10 4C10 3.45 9.80433 2.97933 9.413 2.588C9.021 2.196 8.55 2 8 2C7.45 2 6.97933 2.196 6.588 2.588C6.196 2.97933 6 3.45 6 4C6 4.55 6.196 5.02067 6.588 5.412C6.97933 5.804 7.45 6 8 6Z" fill="white"/>
</svg>
