<svg width="24" height="24" viewBox="0 0 24 24" fill="none" xmlns="http://www.w3.org/2000/svg">
<path fill-rule="evenodd" clip-rule="evenodd" d="M21.9661 12C21.9661 17.5041 17.5041 21.9661 12 21.9661C6.49583 21.9661 2.03386 17.5041 2.03386 12C2.03386 6.49589 6.49583 2.03392 12 2.03392C17.5041 2.03392 21.9661 6.49589 21.9661 12ZM23.5932 12C23.5932 18.4028 18.4027 23.5932 12 23.5932C5.5972 23.5932 0.406738 18.4028 0.406738 12C0.406738 5.59726 5.5972 0.406799 12 0.406799C18.4027 0.406799 23.5932 5.59726 23.5932 12ZM9.66098 16.7558L17.2881 12.3523C17.5593 12.1957 17.5593 11.8043 17.2881 11.6477L9.66098 7.24422C9.38979 7.08765 9.05081 7.28336 9.05081 7.5965V16.4035C9.05081 16.7167 9.38979 16.9124 9.66098 16.7558Z" fill="#040404"/>
</svg>
