<svg width="20" height="20" viewBox="0 0 20 20" fill="none" xmlns="http://www.w3.org/2000/svg">
<path d="M7.99005 6.57005L5.99005 4.57005L1.84005 0.430054L0.430054 1.84005L3.16005 4.57005H2.43005C1.88005 4.57005 1.43005 5.02005 1.43005 5.57005V15.5701C1.43005 16.1201 1.88005 16.5701 2.43005 16.5701H14.4301C14.6401 16.5701 14.8201 16.4901 14.9801 16.3901L18.1601 19.5701L19.5701 18.1601L10.7101 9.30005L7.99005 6.57005ZM3.43005 14.5701V6.57005H5.16005L13.1601 14.5701H3.43005ZM13.4301 6.57005V9.18005L19.4301 15.1801V5.07005L15.4301 9.07005V5.57005C15.4301 5.02005 14.9801 4.57005 14.4301 4.57005H8.82005L10.8201 6.57005H13.4301Z" fill="#C4C4C4"/>
</svg>
