<svg width="18" height="18" viewBox="0 0 18 18" fill="none" xmlns="http://www.w3.org/2000/svg">
<path d="M2 14.85C2.9 13.9667 3.946 13.2707 5.138 12.762C6.32933 12.254 7.61667 12 9 12C10.3833 12 11.671 12.254 12.863 12.762C14.0543 13.2707 15.1 13.9667 16 14.85V2H2V14.85ZM9 10C9.96667 10 10.7917 9.65833 11.475 8.975C12.1583 8.29167 12.5 7.46667 12.5 6.5C12.5 5.53333 12.1583 4.70833 11.475 4.025C10.7917 3.34167 9.96667 3 9 3C8.03333 3 7.20833 3.34167 6.525 4.025C5.84167 4.70833 5.5 5.53333 5.5 6.5C5.5 7.46667 5.84167 8.29167 6.525 8.975C7.20833 9.65833 8.03333 10 9 10ZM0 18V0H18V18H0ZM4 16H14V15.75C13.3 15.1667 12.525 14.7293 11.675 14.438C10.825 14.146 9.93333 14 9 14C8.06667 14 7.175 14.146 6.325 14.438C5.475 14.7293 4.7 15.1667 4 15.75V16ZM9 8C8.58333 8 8.22933 7.854 7.938 7.562C7.646 7.27067 7.5 6.91667 7.5 6.5C7.5 6.08333 7.646 5.72933 7.938 5.438C8.22933 5.146 8.58333 5 9 5C9.41667 5 9.77067 5.146 10.062 5.438C10.354 5.72933 10.5 6.08333 10.5 6.5C10.5 6.91667 10.354 7.27067 10.062 7.562C9.77067 7.854 9.41667 8 9 8Z" fill="#6BCFCF"/>
</svg>
