<svg width="20" height="16" viewBox="0 0 20 16" fill="none" xmlns="http://www.w3.org/2000/svg">
<path d="M0 16V10C0.55 10 1.021 9.804 1.413 9.412C1.80433 9.02067 2 8.55 2 8C2 7.45 1.80433 6.979 1.413 6.587C1.021 6.19567 0.55 6 0 6V0H20V6C19.45 6 18.979 6.19567 18.587 6.587C18.1957 6.979 18 7.45 18 8C18 8.55 18.1957 9.02067 18.587 9.412C18.979 9.804 19.45 10 20 10V16H0ZM2 14H18V11.45C17.3833 11.0833 16.896 10.596 16.538 9.988C16.1793 9.37933 16 8.71667 16 8C16 7.28333 16.1793 6.62067 16.538 6.012C16.896 5.404 17.3833 4.91667 18 4.55V2H2V4.55C2.61667 4.91667 3.10433 5.404 3.463 6.012C3.821 6.62067 4 7.28333 4 8C4 8.71667 3.821 9.37933 3.463 9.988C3.10433 10.596 2.61667 11.0833 2 11.45V14ZM9 13H11V11H9V13ZM9 9H11V7H9V9ZM9 5H11V3H9V5Z" fill="#6BCFCF"/>
</svg>
