<svg width="20" height="16" viewBox="0 0 20 16" fill="none" xmlns="http://www.w3.org/2000/svg">
<path d="M2.925 15.075C2.025 14.1583 1.31267 13.0957 0.788 11.887C0.262667 10.679 0 9.38332 0 7.99999C0 6.59999 0.262667 5.29565 0.788 4.08699C1.31267 2.87899 2.025 1.82499 2.925 0.924988L4.35 2.34999C3.61667 3.08332 3.04167 3.93332 2.625 4.89999C2.20833 5.86665 2 6.89999 2 7.99999C2 9.11665 2.20833 10.1583 2.625 11.125C3.04167 12.0917 3.61667 12.9333 4.35 13.65L2.925 15.075ZM5.75 12.25C5.21667 11.7 4.79167 11.0623 4.475 10.337C4.15833 9.61232 4 8.83332 4 7.99999C4 7.14999 4.15833 6.36232 4.475 5.63699C4.79167 4.91232 5.21667 4.28332 5.75 3.74999L7.175 5.17499C6.80833 5.54165 6.52067 5.96665 6.312 6.44999C6.104 6.93332 6 7.44999 6 7.99999C6 8.54999 6.104 9.06665 6.312 9.54999C6.52067 10.0333 6.80833 10.4583 7.175 10.825L5.75 12.25ZM10 9.99999C9.45 9.99999 8.97933 9.80399 8.588 9.41199C8.196 9.02065 8 8.54999 8 7.99999C8 7.44999 8.196 6.97899 8.588 6.58699C8.97933 6.19565 9.45 5.99999 10 5.99999C10.55 5.99999 11.021 6.19565 11.413 6.58699C11.8043 6.97899 12 7.44999 12 7.99999C12 8.54999 11.8043 9.02065 11.413 9.41199C11.021 9.80399 10.55 9.99999 10 9.99999ZM14.25 12.25L12.825 10.825C13.1917 10.4583 13.4793 10.0333 13.688 9.54999C13.896 9.06665 14 8.54999 14 7.99999C14 7.44999 13.896 6.93332 13.688 6.44999C13.4793 5.96665 13.1917 5.54165 12.825 5.17499L14.25 3.74999C14.7833 4.28332 15.2083 4.91232 15.525 5.63699C15.8417 6.36232 16 7.14999 16 7.99999C16 8.83332 15.8417 9.61232 15.525 10.337C15.2083 11.0623 14.7833 11.7 14.25 12.25ZM17.075 15.075L15.65 13.65C16.3833 12.9167 16.9583 12.0667 17.375 11.1C17.7917 10.1333 18 9.09999 18 7.99999C18 6.88332 17.7917 5.84165 17.375 4.87499C16.9583 3.90832 16.3833 3.06665 15.65 2.34999L17.075 0.924988C17.975 1.82499 18.6873 2.87899 19.212 4.08699C19.7373 5.29565 20 6.59999 20 7.99999C20 9.38332 19.7373 10.679 19.212 11.887C18.6873 13.0957 17.975 14.1583 17.075 15.075Z" fill="#6BCFCF"/>
</svg>
