<svg width="40" height="44" viewBox="0 0 40 44" fill="none" xmlns="http://www.w3.org/2000/svg">
<path d="M0 12.0001C0.733333 9.10008 2.86667 6.37474 6.4 3.82408C9.93333 1.27474 14.4667 7.62939e-05 20 7.62939e-05C23.2333 7.62939e-05 26.2913 0.533409 29.174 1.60008C32.058 2.66674 34.6667 4.15008 37 6.05008V2.00008H40V12.0001H30V9.00008H35.8C33.6667 7.13341 31.2587 5.66674 28.576 4.60008C25.892 3.53341 23.0333 3.00008 20 3.00008C15.2333 3.00008 11.4253 4.00008 8.576 6.00008C5.72533 8.00008 3.91667 10.0001 3.15 12.0001H0ZM17.05 44.0001C16.4833 44.0001 15.9667 43.8914 15.5 43.6741C15.0333 43.4581 14.6167 43.1667 14.25 42.8001L4 32.4501L6.8 29.6001C7.26667 29.1334 7.8 28.8001 8.4 28.6001C9 28.4001 9.61667 28.3667 10.25 28.5001L14 29.3001V13.0001C14 11.6001 14.4833 10.4167 15.45 9.45008C16.4167 8.48341 17.6 8.00008 19 8.00008C20.4 8.00008 21.5833 8.48341 22.55 9.45008C23.5167 10.4167 24 11.6001 24 13.0001V22.0001H25.3C25.4667 22.0001 25.6167 22.0167 25.75 22.0501C25.8833 22.0834 26.0333 22.1334 26.2 22.2001L33.8 25.5501C34.6 25.9167 35.2 26.5001 35.6 27.3001C36 28.1001 36.1167 28.9334 35.95 29.8001L34.1 40.6501C33.9333 41.6167 33.4753 42.4167 32.726 43.0501C31.9753 43.6834 31.1167 44.0001 30.15 44.0001H17.05ZM17.1 40.0001H30.15L32 29.1001L23.5 25.3501H20V13.0001C20 12.7001 19.9087 12.4581 19.726 12.2741C19.542 12.0914 19.3 12.0001 19 12.0001C18.7 12.0001 18.458 12.0914 18.274 12.2741C18.0913 12.4581 18 12.7001 18 13.0001V34.2001L9.65 32.4501L17.1 40.0001Z" fill="#ACACAC"/>
</svg>
