<svg width="484" height="436" viewBox="0 0 484 436" fill="none" xmlns="http://www.w3.org/2000/svg">
<path fill-rule="evenodd" clip-rule="evenodd" d="M308.303 313.417C211.668 380.943 107.368 398.531 75.3422 352.701C43.3167 306.87 95.6929 214.976 192.328 147.45C288.963 79.9228 393.263 62.3346 425.288 108.165C457.314 153.996 404.937 245.89 308.303 313.417ZM287.625 283.825C212.307 336.457 134.545 355.218 113.939 325.73C93.3338 296.242 137.687 229.672 213.006 177.041C288.324 124.409 366.086 105.648 386.691 135.136C407.297 164.624 362.943 231.194 287.625 283.825Z" fill="url(#paint0_linear_2252_38293)"/>
<mask id="mask0_2252_38293" style="mask-type:alpha" maskUnits="userSpaceOnUse" x="65" y="82" width="370" height="297">
<path fill-rule="evenodd" clip-rule="evenodd" d="M308.303 313.417C211.668 380.943 107.368 398.531 75.3422 352.701C43.3167 306.87 95.6929 214.976 192.328 147.45C288.963 79.9228 393.263 62.3346 425.288 108.165C457.314 153.996 404.937 245.89 308.303 313.417ZM287.625 283.825C212.307 336.457 134.545 355.218 113.939 325.73C93.3338 296.242 137.687 229.672 213.006 177.041C288.324 124.409 366.086 105.648 386.691 135.136C407.297 164.624 362.943 231.194 287.625 283.825Z" fill="#397CBC"/>
</mask>
<g mask="url(#mask0_2252_38293)">
<path d="M395.713 109.684L370.493 131.136L312.047 136.553L222.321 184.892L134.238 268.463L103.53 317.685L80.1478 293.814L83.667 235.826L141.966 174.025L270.676 96.5303L347.002 82.4486L395.713 109.684Z" fill="url(#paint1_linear_2252_38293)"/>
</g>
<path fill-rule="evenodd" clip-rule="evenodd" d="M291.221 288.972C194.586 356.498 90.2862 374.087 58.2607 328.256C26.2352 282.426 78.6114 190.531 175.246 123.005C271.881 55.478 376.181 37.8898 408.207 83.7203C440.232 129.551 387.856 221.445 291.221 288.972ZM270.543 259.381C195.225 312.012 117.463 330.773 96.8578 301.285C76.2522 271.797 120.606 205.227 195.924 152.596C271.242 99.9646 349.004 81.2033 369.61 110.691C390.215 140.179 345.862 206.75 270.543 259.381Z" fill="url(#paint2_linear_2252_38293)"/>
<defs>
<linearGradient id="paint0_linear_2252_38293" x1="491.638" y1="185.305" x2="128.834" y2="429.252" gradientUnits="userSpaceOnUse">
<stop offset="0.0220636" stop-color="#23384C"/>
<stop offset="0.521871" stop-color="#528C8C"/>
<stop offset="1" stop-color="#23384C"/>
</linearGradient>
<linearGradient id="paint1_linear_2252_38293" x1="280.318" y1="99.367" x2="126.805" y2="316.74" gradientUnits="userSpaceOnUse">
<stop stop-color="#C7F1F1"/>
<stop offset="1" stop-color="#CBEEEE"/>
</linearGradient>
<linearGradient id="paint2_linear_2252_38293" x1="-59.3874" y1="85.9094" x2="-33.2874" y2="400.049" gradientUnits="userSpaceOnUse">
<stop stop-color="#6BCFCF"/>
<stop offset="1" stop-color="#23384C"/>
</linearGradient>
</defs>
</svg>
