<svg width="327" height="295" viewBox="0 0 327 295" fill="none" xmlns="http://www.w3.org/2000/svg">
<path fill-rule="evenodd" clip-rule="evenodd" d="M208.567 212.087C143.197 257.767 72.641 269.665 50.9767 238.662C29.3123 207.659 64.7433 145.495 130.114 99.8156C195.485 54.1358 266.04 42.2379 287.705 73.2409C309.369 104.244 273.938 166.408 208.567 212.087ZM194.58 192.07C143.63 227.673 91.0261 240.365 77.0871 220.417C63.148 200.469 93.1518 155.436 144.102 119.833C195.053 84.2295 247.657 71.5381 261.596 91.4857C275.535 111.433 245.531 156.466 194.58 192.07Z" fill="url(#paint0_linear_2252_38305)"/>
<mask id="mask0_2252_38305" style="mask-type:alpha" maskUnits="userSpaceOnUse" x="44" y="55" width="251" height="201">
<path fill-rule="evenodd" clip-rule="evenodd" d="M208.567 212.087C143.197 257.767 72.641 269.665 50.9767 238.662C29.3123 207.659 64.7433 145.495 130.114 99.8156C195.485 54.1358 266.04 42.2379 287.705 73.2409C309.369 104.244 273.938 166.408 208.567 212.087ZM194.58 192.07C143.63 227.673 91.0261 240.365 77.0871 220.417C63.148 200.469 93.1518 155.436 144.102 119.833C195.053 84.2295 247.657 71.5381 261.596 91.4857C275.535 111.433 245.531 156.466 194.58 192.07Z" fill="#397CBC"/>
</mask>
<g mask="url(#mask0_2252_38305)">
<path d="M267.698 74.2685L250.637 88.7807L211.101 92.4451L150.404 125.144L90.8177 181.678L70.0451 214.975L54.2274 198.827L56.6081 159.6L96.0454 117.793L183.114 65.3706L234.746 55.8448L267.698 74.2685Z" fill="white"/>
</g>
<path fill-rule="evenodd" clip-rule="evenodd" d="M197.013 195.551C131.642 241.231 61.0863 253.129 39.422 222.126C17.7576 191.123 53.1886 128.959 118.559 83.2795C183.93 37.5997 254.486 25.7017 276.15 56.7047C297.814 87.7077 262.383 149.871 197.013 195.551ZM183.025 175.534C132.074 211.137 79.4709 223.829 65.5318 203.881C51.5927 183.933 81.5966 138.9 132.547 103.297C183.498 67.6934 236.101 55.0019 250.04 74.9496C263.98 94.8972 233.976 139.93 183.025 175.534Z" fill="url(#paint1_linear_2252_38305)"/>
<defs>
<linearGradient id="paint0_linear_2252_38305" x1="332.589" y1="125.424" x2="87.1626" y2="290.446" gradientUnits="userSpaceOnUse">
<stop offset="0.0220636" stop-color="#23384C"/>
<stop offset="0.521871" stop-color="#528C8C"/>
<stop offset="1" stop-color="#23384C"/>
</linearGradient>
<linearGradient id="paint1_linear_2252_38305" x1="-40.1635" y1="58.1856" x2="-22.5076" y2="270.692" gradientUnits="userSpaceOnUse">
<stop stop-color="#6BCFCF"/>
<stop offset="1" stop-color="#23384C"/>
</linearGradient>
</defs>
</svg>
