<svg width="226" height="203" viewBox="0 0 226 203" fill="none" xmlns="http://www.w3.org/2000/svg">
<path fill-rule="evenodd" clip-rule="evenodd" d="M144.128 145.955C99.0751 177.438 50.4488 185.637 35.518 164.27C20.5872 142.904 45.0058 100.061 90.0586 68.579C135.111 37.0969 183.738 28.897 198.668 50.2639C213.599 71.6309 189.181 114.473 144.128 145.955ZM134.488 132.159C99.3734 156.697 63.1196 165.444 53.513 151.696C43.9063 137.948 64.5846 106.912 99.6993 82.3746C134.814 57.8371 171.068 49.0903 180.674 62.838C190.281 76.5857 169.603 107.622 134.488 132.159Z" fill="url(#paint0_linear_2252_38319)"/>
<mask id="mask0_2252_38319" style="mask-type:alpha" maskUnits="userSpaceOnUse" x="31" y="38" width="173" height="139">
<path fill-rule="evenodd" clip-rule="evenodd" d="M144.128 145.955C99.0751 177.438 50.4488 185.637 35.518 164.27C20.5872 142.904 45.0058 100.061 90.0586 68.579C135.111 37.0969 183.738 28.897 198.668 50.2639C213.599 71.6309 189.181 114.473 144.128 145.955ZM134.488 132.159C99.3734 156.697 63.1196 165.444 53.513 151.696C43.9063 137.948 64.5846 106.912 99.6993 82.3746C134.814 57.8371 171.068 49.0903 180.674 62.838C190.281 76.5857 169.603 107.622 134.488 132.159Z" fill="#397CBC"/>
</mask>
<g mask="url(#mask0_2252_38319)">
<path d="M184.88 50.9718L173.122 60.9734L145.874 63.4989L104.042 86.0349L62.9764 124.997L48.6602 147.945L37.7588 136.816L39.3995 109.781L66.5793 80.9686L126.586 44.8394L162.171 38.2743L184.88 50.9718Z" fill="white"/>
</g>
<path fill-rule="evenodd" clip-rule="evenodd" d="M136.164 134.559C91.1112 166.041 42.4849 174.241 27.5541 152.874C12.6233 131.507 37.0419 88.6645 82.0947 57.1825C127.147 25.7004 175.774 17.5005 190.705 38.8675C205.635 60.2344 181.217 103.077 136.164 134.559ZM126.524 120.763C91.4095 145.3 55.1557 154.047 45.5491 140.3C35.9424 126.552 56.6207 95.5156 91.7354 70.9781C126.85 46.4406 163.104 37.6938 172.71 51.4415C182.317 65.1893 161.639 96.2255 126.524 120.763Z" fill="url(#paint1_linear_2252_38319)"/>
<defs>
<linearGradient id="paint0_linear_2252_38319" x1="229.602" y1="86.2278" x2="60.4569" y2="199.96" gradientUnits="userSpaceOnUse">
<stop offset="0.0220636" stop-color="#23384C"/>
<stop offset="0.521871" stop-color="#528C8C"/>
<stop offset="1" stop-color="#23384C"/>
</linearGradient>
<linearGradient id="paint1_linear_2252_38319" x1="-27.2953" y1="39.8881" x2="-15.1271" y2="186.345" gradientUnits="userSpaceOnUse">
<stop stop-color="#6BCFCF"/>
<stop offset="1" stop-color="#23384C"/>
</linearGradient>
</defs>
</svg>
