<?xml version="1.0" encoding="UTF-8"?><svg id="Layer_2" xmlns="http://www.w3.org/2000/svg" xmlns:xlink="http://www.w3.org/1999/xlink" viewBox="0 0 318.73 70.09"><defs><style>.cls-1{fill:#e6e7e8;}.cls-2{fill:#6bcfcf;}.cls-3{fill:url(#New_Gradient_Swatch);fill-rule:evenodd;}.cls-4{opacity:.4;}</style><linearGradient id="New_Gradient_Swatch" x1="0" y1="35.05" x2="69.99" y2="35.05" gradientUnits="userSpaceOnUse"><stop offset="0" stop-color="#41a9ef"/><stop offset=".02" stop-color="#43aaed"/><stop offset=".3" stop-color="#59bedc"/><stop offset=".56" stop-color="#66cad2"/><stop offset=".8" stop-color="#6bcfcf"/></linearGradient></defs><g id="Layer_1-2"><g><path class="cls-2" d="M0,16.23l62.62,53.22,7.36-15.59L9.32,2.6,0,16.23Z"/><path class="cls-4" d="M9.32,2.6L0,16.23l62.62,53.22,7.36-15.59"/><path class="cls-3" d="M0,0H58.53l.04,.13,11.42,11.42L27.67,53.86h42.32v16.23H11.53v-.08s-.06,.04-.06,.04L0,58.58,42.35,16.23H0V0Z"/></g><g><path class="cls-1" d="M115.99,47.43h18.12v5.33h-29.12l17.67-23.94h6.61l-13.28,18.61Zm-7.75-23.89v-5.33h28.43l-3.85,5.33h-24.58Z"/><path class="cls-1" d="M157.31,52.76h-5.33V18.21h5.33V52.76Z"/><path class="cls-1" d="M171.63,35.24c0-10.17,6.81-17.52,16.24-17.52,5.33,0,9.87,2.32,12.88,6.52l1.58,2.17-4.34,3.16-1.58-2.17c-1.97-2.76-4.99-4.29-8.54-4.29-6.37,0-10.86,4.99-10.86,12.14s4.49,12.14,10.86,12.14c3.55,0,6.56-1.53,8.54-4.29l1.58-2.17,4.34,3.16-1.58,2.17c-3.01,4.2-7.55,6.52-12.88,6.52-9.43,0-16.24-7.35-16.24-17.52Z"/><path class="cls-1" d="M239.84,35.24c0,4.2-1.28,8-3.7,11.11-3.26,4.15-8.14,6.42-13.82,6.42-10.17,0-17.52-7.35-17.52-17.52s7.36-17.52,17.52-17.52c5.68,0,10.56,2.27,13.82,6.42,2.42,3.11,3.7,6.91,3.7,11.11Zm-5.38,0c0-2.96-.89-5.63-2.57-7.75-2.17-2.86-5.63-4.39-9.58-4.39-7.16,0-12.14,4.99-12.14,12.14s4.99,12.14,12.14,12.14c3.95,0,7.4-1.53,9.58-4.39,1.68-2.12,2.57-4.79,2.57-7.75Z"/><path class="cls-1" d="M278.1,28.82c0,6.76-3.9,10.66-10.66,10.66h-7.95v13.28h-5.33v-18.61h13.28c3.85,0,5.33-1.48,5.33-5.33s-1.48-5.28-5.33-5.28h-13.28v-5.33h13.28c6.76,0,10.66,3.9,10.66,10.61Z"/><path class="cls-1" d="M294.69,49.41l-2.27-1.43,2.86-4.59,2.27,1.43c.15,.1,4.2,2.57,8,2.57,2.52,0,6.76-.69,6.76-5.38,0-3.95-6.07-4.05-6.76-4.05-6.02,0-12.09-2.91-12.09-9.43s4.74-10.81,12.09-10.81c5.48,0,10.66,3.26,10.91,3.41l2.27,1.43-2.86,4.54-2.27-1.43s-4.15-2.57-8.05-2.57c-2.52,0-6.71,.69-6.71,5.43,0,3.9,6.02,4,6.71,4,6.07,0,12.14,2.96,12.14,9.48s-4.74,10.76-12.14,10.76c-5.43,0-10.61-3.26-10.86-3.36Z"/></g></g></svg>